M48
; DRILL file {KiCad (5.1.4)-1} date 12/1/2019 9:55:45 PM
; FORMAT={-:-/ absolute / inch / decimal}
; #@! TF.CreationDate,2019-12-01T21:55:45-05:00
; #@! TF.GenerationSoftware,Kicad,Pcbnew,(5.1.4)-1
; #@! TF.FileFunction,Plated,1,2,PTH
FMAT,2
INCH
T1C0.0120
T2C0.0130
T3C0.0157
T4C0.0394
T5C0.0866
%
G90
G05
T1
X5.1825Y-2.14
X5.1915Y-2.1745
X5.23Y-2.1355
X5.2465Y-2.1925
X5.2935Y-2.194
X5.3025Y-2.1525
X5.525Y-2.1885
X5.554Y-2.2065
X5.556Y-2.2715
X5.582Y-2.231
X5.6755Y-2.1685
X5.704Y-2.2295
X5.715Y-2.1965
X5.718Y-2.1645
T2
X4.7826Y-2.5656
X4.7838Y-2.3244
X4.8518Y-2.491
X4.8616Y-2.4218
X4.8675Y-2.0345
X4.8708Y-2.3254
X4.882Y-2.701
X4.897Y-2.733
X4.9015Y-2.5645
X4.9106Y-2.625
X4.9162Y-2.1714
X4.9615Y-2.383
X4.9636Y-2.1384
X4.9876Y-2.6226
X5.0228Y-2.3668
X5.0446Y-2.6338
X5.075Y-2.78
X5.087Y-2.73
X5.1064Y-2.2548
X5.129Y-2.775
X5.1348Y-2.1352
X5.1548Y-2.1802
X5.168Y-2.726
X5.212Y-2.716
X5.227Y-2.748
X5.2945Y-2.669
X5.3084Y-2.5646
X5.314Y-2.4632
X5.3158Y-2.353
X5.431Y-2.293
X5.467Y-2.7475
X5.4785Y-2.172
X5.4845Y-2.7145
X5.503Y-2.679
X5.5035Y-2.6205
X5.5125Y-2.761
X5.518Y-2.3018
X5.601Y-2.168
X5.7038Y-2.309
X5.7185Y-2.724
X5.7282Y-2.2778
X5.7472Y-2.3256
X5.7535Y-2.6965
X5.7628Y-2.356
X5.7642Y-2.4844
X5.7745Y-2.761
X5.7814Y-2.386
X5.788Y-2.7145
X5.8004Y-2.4162
X5.83Y-2.4356
X5.8396Y-2.7062
X5.8654Y-2.4314
X5.8814Y-2.309
X5.9258Y-2.2638
X5.936Y-2.134
X5.939Y-2.5985
X5.9426Y-2.525
X5.9458Y-2.4326
X5.9476Y-2.167
X5.95Y-2.3336
X5.9606Y-2.2614
X5.9608Y-2.11
X5.9732Y-2.3584
X5.987Y-2.5744
X5.989Y-2.526
X5.9915Y-2.7865
X5.9916Y-2.4288
X5.9946Y-2.1068
X6.0022Y-2.3766
X6.003Y-2.753
X6.008Y-2.817
X6.057Y-2.803
X6.0594Y-2.7362
X6.0608Y-2.2512
X6.0836Y-2.1996
X6.1088Y-2.4246
X6.1232Y-2.2276
X6.1276Y-2.1332
X6.1278Y-2.8046
X6.1445Y-2.7305
X6.1536Y-2.1908
X6.1735Y-2.7735
X6.1788Y-2.155
X6.2123Y-2.258
X6.2123Y-2.6562
X6.2278Y-2.7852
X6.3464Y-2.7814
X6.4294Y-2.4118
X6.5092Y-2.7824
X6.5306Y-2.8694
X6.5642Y-2.2022
X6.6512Y-2.6562
X6.6518Y-2.258
T3
X5.2835Y-2.055
X5.5159Y-2.3669
X5.599Y-2.0325
T4
X4.9465Y-2.8575
X5.0465Y-2.8575
X5.1465Y-2.8575
X5.2465Y-2.8575
X5.3465Y-2.8575
X5.4465Y-2.8575
X5.5465Y-2.8575
X5.6465Y-2.8575
X5.7465Y-2.8575
X5.8465Y-2.8575
X5.9465Y-2.8575
X6.0465Y-2.8575
X6.1465Y-2.8575
X6.2465Y-2.8575
X6.3465Y-2.8575
X6.4465Y-2.8575
X5.3465Y-2.0575
X5.4465Y-2.0575
X5.5465Y-2.0575
X5.6465Y-2.0575
X5.7465Y-2.0575
X5.8465Y-2.0575
X5.9465Y-2.0575
X6.0465Y-2.0575
X6.1465Y-2.0575
X6.2465Y-2.0575
X6.3465Y-2.0575
X6.4465Y-2.0575
T5
X4.7965Y-2.8075
X4.7965Y-2.1075
T0
M30
