G04 #@! TF.GenerationSoftware,KiCad,Pcbnew,(5.1.4)-1*
G04 #@! TF.CreationDate,2019-12-01T21:56:44-05:00*
G04 #@! TF.ProjectId,Feather-weather-station,46656174-6865-4722-9d77-656174686572,rev?*
G04 #@! TF.SameCoordinates,Original*
G04 #@! TF.FileFunction,Profile,NP*
%FSLAX46Y46*%
G04 Gerber Fmt 4.6, Leading zero omitted, Abs format (unit mm)*
G04 Created by KiCad (PCBNEW (5.1.4)-1) date 2019-12-01 21:56:44*
%MOMM*%
%LPD*%
G04 APERTURE LIST*
%ADD10C,0.100000*%
%ADD11C,0.050000*%
G04 APERTURE END LIST*
D10*
X143941800Y-68135500D02*
X142624600Y-68135500D01*
X143941800Y-68135500D02*
X143941800Y-56921400D01*
X137071100Y-68580000D02*
X135890000Y-68580000D01*
X142624600Y-62179200D02*
X142624600Y-68135500D01*
X143941800Y-56921400D02*
X143052800Y-56921400D01*
X137160000Y-55880000D02*
X137160000Y-61722000D01*
X135890000Y-55880000D02*
X137160000Y-55880000D01*
X135890000Y-68580000D02*
X135890000Y-55880000D01*
X137071100Y-62179200D02*
X137071100Y-68580000D01*
X142624600Y-62179200D02*
X137071100Y-62179200D01*
X143052800Y-57150000D02*
X143052800Y-56921400D01*
X143052800Y-61722000D02*
X143052800Y-57150000D01*
X137160000Y-61722000D02*
X143052800Y-61722000D01*
D11*
X170091100Y-71310500D02*
G75*
G02X167551100Y-73850500I-2540000J0D01*
G01*
X167551100Y-50990500D02*
G75*
G02X170091100Y-53530500I0J-2540000D01*
G01*
X119291100Y-53530500D02*
X119291100Y-71310500D01*
X121831100Y-73850500D02*
G75*
G02X119291100Y-71310500I0J2540000D01*
G01*
X121831100Y-50990500D02*
X167551100Y-50990500D01*
X119291100Y-53530500D02*
G75*
G02X121831100Y-50990500I2540000J0D01*
G01*
X170091100Y-71310500D02*
X170091100Y-53530500D01*
X167551100Y-73850500D02*
X121831100Y-73850500D01*
M02*
