G04 #@! TF.GenerationSoftware,KiCad,Pcbnew,(5.1.4)-1*
G04 #@! TF.CreationDate,2019-12-01T21:56:44-05:00*
G04 #@! TF.ProjectId,Feather-weather-station,46656174-6865-4722-9d77-656174686572,rev?*
G04 #@! TF.SameCoordinates,Original*
G04 #@! TF.FileFunction,Legend,Top*
G04 #@! TF.FilePolarity,Positive*
%FSLAX46Y46*%
G04 Gerber Fmt 4.6, Leading zero omitted, Abs format (unit mm)*
G04 Created by KiCad (PCBNEW (5.1.4)-1) date 2019-12-01 21:56:44*
%MOMM*%
%LPD*%
G04 APERTURE LIST*
%ADD10C,0.120000*%
%ADD11C,0.150000*%
%ADD12C,0.100000*%
%ADD13C,0.200000*%
%ADD14C,0.400000*%
%ADD15C,0.254000*%
G04 APERTURE END LIST*
D10*
X169751200Y-59415500D02*
X169401200Y-59925500D01*
X169551200Y-56905500D02*
X169551200Y-56645500D01*
X169751200Y-57105500D02*
X169551200Y-56905500D01*
X169751200Y-66505500D02*
X169551200Y-66295500D01*
X169401200Y-66295500D02*
X169551200Y-66295500D01*
X169401200Y-66295500D02*
X169401200Y-59925500D01*
X164791200Y-69395500D02*
X166591200Y-69395500D01*
X158791200Y-69395500D02*
X163491200Y-69395500D01*
X169751200Y-68365500D02*
X169551200Y-68565500D01*
X169751200Y-68365500D02*
X169751200Y-66505500D01*
X169751200Y-57105500D02*
X169751200Y-59415500D01*
X153481200Y-69395500D02*
X157091200Y-69395500D01*
X153481200Y-68945500D02*
X153481200Y-69395500D01*
X153481200Y-55425500D02*
X167491200Y-55425500D01*
X153481200Y-57345500D02*
X153481200Y-55425500D01*
D11*
X132743700Y-60372500D02*
X132743700Y-61172500D01*
X128393700Y-64722500D02*
X128393700Y-63922500D01*
X132743700Y-64722500D02*
X132743700Y-63922500D01*
X128393700Y-60372500D02*
X129193700Y-60372500D01*
X128393700Y-64722500D02*
X129193700Y-64722500D01*
X132743700Y-64722500D02*
X131943700Y-64722500D01*
X132743700Y-60372500D02*
X131943700Y-60372500D01*
D12*
X138388900Y-66162200D02*
X138388900Y-66642200D01*
X138388900Y-66642200D02*
X139028900Y-66642200D01*
X138388900Y-62542200D02*
X139028900Y-62542200D01*
X140548900Y-66642200D02*
X141188900Y-66642200D01*
X141188900Y-66162200D02*
X141188900Y-66642200D01*
X140548900Y-62542200D02*
X141188900Y-62542200D01*
X141188900Y-62542200D02*
X141188900Y-63022200D01*
D10*
X127659200Y-62806078D02*
X127659200Y-62288922D01*
X126239200Y-62806078D02*
X126239200Y-62288922D01*
X130700278Y-65545900D02*
X130183122Y-65545900D01*
X130700278Y-66965900D02*
X130183122Y-66965900D01*
X140123678Y-66904800D02*
X139606522Y-66904800D01*
X140123678Y-68324800D02*
X139606522Y-68324800D01*
X139094978Y-56262200D02*
X138577822Y-56262200D01*
X139094978Y-57682200D02*
X138577822Y-57682200D01*
X129417578Y-51487000D02*
X128900422Y-51487000D01*
X129417578Y-52907000D02*
X128900422Y-52907000D01*
X132957800Y-53197000D02*
X131557800Y-53197000D01*
X130857800Y-52497000D02*
X130857800Y-51897000D01*
X131557800Y-51197000D02*
X132957800Y-51197000D01*
X133657800Y-51897000D02*
X133657800Y-52497000D01*
X133657800Y-52497000D02*
G75*
G02X132957800Y-53197000I-700000J0D01*
G01*
X132957800Y-51197000D02*
G75*
G02X133657800Y-51897000I0J-700000D01*
G01*
X130857800Y-51897000D02*
G75*
G02X131557800Y-51197000I700000J0D01*
G01*
X131557800Y-53197000D02*
G75*
G02X130857800Y-52497000I0J700000D01*
G01*
X124172000Y-53157000D02*
X126857000Y-53157000D01*
X124172000Y-51237000D02*
X124172000Y-53157000D01*
X126857000Y-51237000D02*
X124172000Y-51237000D01*
X148265382Y-64044900D02*
X148782538Y-64044900D01*
X148265382Y-62624900D02*
X148782538Y-62624900D01*
X148265382Y-67893000D02*
X148782538Y-67893000D01*
X148265382Y-66473000D02*
X148782538Y-66473000D01*
X135783822Y-70280600D02*
X136300978Y-70280600D01*
X135783822Y-68860600D02*
X136300978Y-68860600D01*
X148782538Y-64720400D02*
X148265382Y-64720400D01*
X148782538Y-66140400D02*
X148265382Y-66140400D01*
X134720400Y-57840378D02*
X134720400Y-57323222D01*
X133300400Y-57840378D02*
X133300400Y-57323222D01*
X132840800Y-57891178D02*
X132840800Y-57374022D01*
X131420800Y-57891178D02*
X131420800Y-57374022D01*
X151713000Y-68673478D02*
X151713000Y-68156322D01*
X150293000Y-68673478D02*
X150293000Y-68156322D01*
X130170422Y-68705800D02*
X130687578Y-68705800D01*
X130170422Y-67285800D02*
X130687578Y-67285800D01*
X147445800Y-57002178D02*
X147445800Y-56485022D01*
X146025800Y-57002178D02*
X146025800Y-56485022D01*
X147892700Y-56485022D02*
X147892700Y-57002178D01*
X149312700Y-56485022D02*
X149312700Y-57002178D01*
X126750578Y-69673400D02*
X126233422Y-69673400D01*
X126750578Y-71093400D02*
X126233422Y-71093400D01*
X126763278Y-67895400D02*
X126246122Y-67895400D01*
X126763278Y-69315400D02*
X126246122Y-69315400D01*
X126737878Y-64479100D02*
X126220722Y-64479100D01*
X126737878Y-65899100D02*
X126220722Y-65899100D01*
X126255278Y-57189300D02*
X125738122Y-57189300D01*
X126255278Y-58609300D02*
X125738122Y-58609300D01*
X125766900Y-62806078D02*
X125766900Y-62288922D01*
X124346900Y-62806078D02*
X124346900Y-62288922D01*
X140182600Y-58054600D02*
X138682600Y-58054600D01*
X141682600Y-61274600D02*
X138682600Y-61274600D01*
D13*
X120512900Y-67954155D02*
X124012900Y-67954155D01*
X124012900Y-67954155D02*
X124012900Y-56254155D01*
X124012900Y-56254155D02*
X120512900Y-56254155D01*
X120512900Y-56254155D02*
X120512900Y-67954155D01*
D14*
X122345590Y-68599155D02*
G75*
G03X122345590Y-68599155I-141690J0D01*
G01*
D12*
X150053700Y-70148500D02*
X150453700Y-70148500D01*
X150053700Y-70948500D02*
X150453700Y-70948500D01*
D13*
X148753700Y-70448500D02*
X148753700Y-70448500D01*
X148753700Y-70648500D02*
X148753700Y-70648500D01*
X148753700Y-70648500D02*
G75*
G03X148753700Y-70448500I0J100000D01*
G01*
X148753700Y-70448500D02*
G75*
G03X148753700Y-70648500I0J-100000D01*
G01*
D11*
X151440900Y-58931133D02*
X152155186Y-58931133D01*
X152298043Y-58978752D01*
X152393281Y-59073990D01*
X152440900Y-59216847D01*
X152440900Y-59312085D01*
X152440900Y-57931133D02*
X152440900Y-58502561D01*
X152440900Y-58216847D02*
X151440900Y-58216847D01*
X151583758Y-58312085D01*
X151678996Y-58407323D01*
X151726615Y-58502561D01*
X128422495Y-58837580D02*
X128422495Y-59647104D01*
X128470114Y-59742342D01*
X128517733Y-59789961D01*
X128612971Y-59837580D01*
X128803447Y-59837580D01*
X128898685Y-59789961D01*
X128946304Y-59742342D01*
X128993923Y-59647104D01*
X128993923Y-58837580D01*
X129422495Y-58932819D02*
X129470114Y-58885200D01*
X129565352Y-58837580D01*
X129803447Y-58837580D01*
X129898685Y-58885200D01*
X129946304Y-58932819D01*
X129993923Y-59028057D01*
X129993923Y-59123295D01*
X129946304Y-59266152D01*
X129374876Y-59837580D01*
X129993923Y-59837580D01*
X141423140Y-65171224D02*
X142232664Y-65171224D01*
X142327902Y-65123605D01*
X142375521Y-65075986D01*
X142423140Y-64980748D01*
X142423140Y-64790272D01*
X142375521Y-64695034D01*
X142327902Y-64647415D01*
X142232664Y-64599796D01*
X141423140Y-64599796D01*
X141756474Y-63695034D02*
X142423140Y-63695034D01*
X141375521Y-63933129D02*
X142089807Y-64171224D01*
X142089807Y-63552177D01*
X127401580Y-60237666D02*
X126925390Y-60571000D01*
X127401580Y-60809095D02*
X126401580Y-60809095D01*
X126401580Y-60428142D01*
X126449200Y-60332904D01*
X126496819Y-60285285D01*
X126592057Y-60237666D01*
X126734914Y-60237666D01*
X126830152Y-60285285D01*
X126877771Y-60332904D01*
X126925390Y-60428142D01*
X126925390Y-60809095D01*
X126401580Y-59332904D02*
X126401580Y-59809095D01*
X126877771Y-59856714D01*
X126830152Y-59809095D01*
X126782533Y-59713857D01*
X126782533Y-59475761D01*
X126830152Y-59380523D01*
X126877771Y-59332904D01*
X126973009Y-59285285D01*
X127211104Y-59285285D01*
X127306342Y-59332904D01*
X127353961Y-59380523D01*
X127401580Y-59475761D01*
X127401580Y-59713857D01*
X127353961Y-59809095D01*
X127306342Y-59856714D01*
X132808742Y-66695580D02*
X132475409Y-66219390D01*
X132237314Y-66695580D02*
X132237314Y-65695580D01*
X132618266Y-65695580D01*
X132713504Y-65743200D01*
X132761123Y-65790819D01*
X132808742Y-65886057D01*
X132808742Y-66028914D01*
X132761123Y-66124152D01*
X132713504Y-66171771D01*
X132618266Y-66219390D01*
X132237314Y-66219390D01*
X133761123Y-66695580D02*
X133189695Y-66695580D01*
X133475409Y-66695580D02*
X133475409Y-65695580D01*
X133380171Y-65838438D01*
X133284933Y-65933676D01*
X133189695Y-65981295D01*
X134380171Y-65695580D02*
X134475409Y-65695580D01*
X134570647Y-65743200D01*
X134618266Y-65790819D01*
X134665885Y-65886057D01*
X134713504Y-66076533D01*
X134713504Y-66314628D01*
X134665885Y-66505104D01*
X134618266Y-66600342D01*
X134570647Y-66647961D01*
X134475409Y-66695580D01*
X134380171Y-66695580D01*
X134284933Y-66647961D01*
X134237314Y-66600342D01*
X134189695Y-66505104D01*
X134142076Y-66314628D01*
X134142076Y-66076533D01*
X134189695Y-65886057D01*
X134237314Y-65790819D01*
X134284933Y-65743200D01*
X134380171Y-65695580D01*
X139698433Y-69621942D02*
X139650814Y-69669561D01*
X139507957Y-69717180D01*
X139412719Y-69717180D01*
X139269861Y-69669561D01*
X139174623Y-69574323D01*
X139127004Y-69479085D01*
X139079385Y-69288609D01*
X139079385Y-69145752D01*
X139127004Y-68955276D01*
X139174623Y-68860038D01*
X139269861Y-68764800D01*
X139412719Y-68717180D01*
X139507957Y-68717180D01*
X139650814Y-68764800D01*
X139698433Y-68812419D01*
X140603195Y-68717180D02*
X140127004Y-68717180D01*
X140079385Y-69193371D01*
X140127004Y-69145752D01*
X140222242Y-69098133D01*
X140460338Y-69098133D01*
X140555576Y-69145752D01*
X140603195Y-69193371D01*
X140650814Y-69288609D01*
X140650814Y-69526704D01*
X140603195Y-69621942D01*
X140555576Y-69669561D01*
X140460338Y-69717180D01*
X140222242Y-69717180D01*
X140127004Y-69669561D01*
X140079385Y-69621942D01*
X141031933Y-57380142D02*
X140984314Y-57427761D01*
X140841457Y-57475380D01*
X140746219Y-57475380D01*
X140603361Y-57427761D01*
X140508123Y-57332523D01*
X140460504Y-57237285D01*
X140412885Y-57046809D01*
X140412885Y-56903952D01*
X140460504Y-56713476D01*
X140508123Y-56618238D01*
X140603361Y-56523000D01*
X140746219Y-56475380D01*
X140841457Y-56475380D01*
X140984314Y-56523000D01*
X141031933Y-56570619D01*
X141984314Y-57475380D02*
X141412885Y-57475380D01*
X141698600Y-57475380D02*
X141698600Y-56475380D01*
X141603361Y-56618238D01*
X141508123Y-56713476D01*
X141412885Y-56761095D01*
X165579466Y-72629780D02*
X165579466Y-73344066D01*
X165531847Y-73486923D01*
X165436609Y-73582161D01*
X165293752Y-73629780D01*
X165198514Y-73629780D01*
X166531847Y-72629780D02*
X166055657Y-72629780D01*
X166008038Y-73105971D01*
X166055657Y-73058352D01*
X166150895Y-73010733D01*
X166388990Y-73010733D01*
X166484228Y-73058352D01*
X166531847Y-73105971D01*
X166579466Y-73201209D01*
X166579466Y-73439304D01*
X166531847Y-73534542D01*
X166484228Y-73582161D01*
X166388990Y-73629780D01*
X166150895Y-73629780D01*
X166055657Y-73582161D01*
X166008038Y-73534542D01*
X165223866Y-51712880D02*
X165223866Y-52427166D01*
X165176247Y-52570023D01*
X165081009Y-52665261D01*
X164938152Y-52712880D01*
X164842914Y-52712880D01*
X166128628Y-52046214D02*
X166128628Y-52712880D01*
X165890533Y-51665261D02*
X165652438Y-52379547D01*
X166271485Y-52379547D01*
X128516142Y-54198780D02*
X128182809Y-53722590D01*
X127944714Y-54198780D02*
X127944714Y-53198780D01*
X128325666Y-53198780D01*
X128420904Y-53246400D01*
X128468523Y-53294019D01*
X128516142Y-53389257D01*
X128516142Y-53532114D01*
X128468523Y-53627352D01*
X128420904Y-53674971D01*
X128325666Y-53722590D01*
X127944714Y-53722590D01*
X129468523Y-54198780D02*
X128897095Y-54198780D01*
X129182809Y-54198780D02*
X129182809Y-53198780D01*
X129087571Y-53341638D01*
X128992333Y-53436876D01*
X128897095Y-53484495D01*
X130325666Y-53198780D02*
X130135190Y-53198780D01*
X130039952Y-53246400D01*
X129992333Y-53294019D01*
X129897095Y-53436876D01*
X129849476Y-53627352D01*
X129849476Y-54008304D01*
X129897095Y-54103542D01*
X129944714Y-54151161D01*
X130039952Y-54198780D01*
X130230428Y-54198780D01*
X130325666Y-54151161D01*
X130373285Y-54103542D01*
X130420904Y-54008304D01*
X130420904Y-53770209D01*
X130373285Y-53674971D01*
X130325666Y-53627352D01*
X130230428Y-53579733D01*
X130039952Y-53579733D01*
X129944714Y-53627352D01*
X129897095Y-53674971D01*
X129849476Y-53770209D01*
X131424466Y-53449380D02*
X131424466Y-54163666D01*
X131376847Y-54306523D01*
X131281609Y-54401761D01*
X131138752Y-54449380D01*
X131043514Y-54449380D01*
X131900657Y-54449380D02*
X131900657Y-53449380D01*
X132281609Y-53449380D01*
X132376847Y-53497000D01*
X132424466Y-53544619D01*
X132472085Y-53639857D01*
X132472085Y-53782714D01*
X132424466Y-53877952D01*
X132376847Y-53925571D01*
X132281609Y-53973190D01*
X131900657Y-53973190D01*
X133376847Y-53449380D02*
X132900657Y-53449380D01*
X132853038Y-53925571D01*
X132900657Y-53877952D01*
X132995895Y-53830333D01*
X133233990Y-53830333D01*
X133329228Y-53877952D01*
X133376847Y-53925571D01*
X133424466Y-54020809D01*
X133424466Y-54258904D01*
X133376847Y-54354142D01*
X133329228Y-54401761D01*
X133233990Y-54449380D01*
X132995895Y-54449380D01*
X132900657Y-54401761D01*
X132853038Y-54354142D01*
X125118904Y-54401980D02*
X125118904Y-53401980D01*
X125357000Y-53401980D01*
X125499857Y-53449600D01*
X125595095Y-53544838D01*
X125642714Y-53640076D01*
X125690333Y-53830552D01*
X125690333Y-53973409D01*
X125642714Y-54163885D01*
X125595095Y-54259123D01*
X125499857Y-54354361D01*
X125357000Y-54401980D01*
X125118904Y-54401980D01*
X126642714Y-54401980D02*
X126071285Y-54401980D01*
X126357000Y-54401980D02*
X126357000Y-53401980D01*
X126261761Y-53544838D01*
X126166523Y-53640076D01*
X126071285Y-53687695D01*
X144858502Y-63787280D02*
X144525169Y-63311090D01*
X144287074Y-63787280D02*
X144287074Y-62787280D01*
X144668026Y-62787280D01*
X144763264Y-62834900D01*
X144810883Y-62882519D01*
X144858502Y-62977757D01*
X144858502Y-63120614D01*
X144810883Y-63215852D01*
X144763264Y-63263471D01*
X144668026Y-63311090D01*
X144287074Y-63311090D01*
X145810883Y-63787280D02*
X145239455Y-63787280D01*
X145525169Y-63787280D02*
X145525169Y-62787280D01*
X145429931Y-62930138D01*
X145334693Y-63025376D01*
X145239455Y-63072995D01*
X146715645Y-62787280D02*
X146239455Y-62787280D01*
X146191836Y-63263471D01*
X146239455Y-63215852D01*
X146334693Y-63168233D01*
X146572788Y-63168233D01*
X146668026Y-63215852D01*
X146715645Y-63263471D01*
X146763264Y-63358709D01*
X146763264Y-63596804D01*
X146715645Y-63692042D01*
X146668026Y-63739661D01*
X146572788Y-63787280D01*
X146334693Y-63787280D01*
X146239455Y-63739661D01*
X146191836Y-63692042D01*
X144858502Y-67635380D02*
X144525169Y-67159190D01*
X144287074Y-67635380D02*
X144287074Y-66635380D01*
X144668026Y-66635380D01*
X144763264Y-66683000D01*
X144810883Y-66730619D01*
X144858502Y-66825857D01*
X144858502Y-66968714D01*
X144810883Y-67063952D01*
X144763264Y-67111571D01*
X144668026Y-67159190D01*
X144287074Y-67159190D01*
X145810883Y-67635380D02*
X145239455Y-67635380D01*
X145525169Y-67635380D02*
X145525169Y-66635380D01*
X145429931Y-66778238D01*
X145334693Y-66873476D01*
X145239455Y-66921095D01*
X146144217Y-66635380D02*
X146763264Y-66635380D01*
X146429931Y-67016333D01*
X146572788Y-67016333D01*
X146668026Y-67063952D01*
X146715645Y-67111571D01*
X146763264Y-67206809D01*
X146763264Y-67444904D01*
X146715645Y-67540142D01*
X146668026Y-67587761D01*
X146572788Y-67635380D01*
X146287074Y-67635380D01*
X146191836Y-67587761D01*
X146144217Y-67540142D01*
X135617982Y-71480940D02*
X135284649Y-71004750D01*
X135046554Y-71480940D02*
X135046554Y-70480940D01*
X135427506Y-70480940D01*
X135522744Y-70528560D01*
X135570363Y-70576179D01*
X135617982Y-70671417D01*
X135617982Y-70814274D01*
X135570363Y-70909512D01*
X135522744Y-70957131D01*
X135427506Y-71004750D01*
X135046554Y-71004750D01*
X136570363Y-71480940D02*
X135998935Y-71480940D01*
X136284649Y-71480940D02*
X136284649Y-70480940D01*
X136189411Y-70623798D01*
X136094173Y-70719036D01*
X135998935Y-70766655D01*
X137427506Y-70814274D02*
X137427506Y-71480940D01*
X137189411Y-70433321D02*
X136951316Y-71147607D01*
X137570363Y-71147607D01*
X144858502Y-65882780D02*
X144525169Y-65406590D01*
X144287074Y-65882780D02*
X144287074Y-64882780D01*
X144668026Y-64882780D01*
X144763264Y-64930400D01*
X144810883Y-64978019D01*
X144858502Y-65073257D01*
X144858502Y-65216114D01*
X144810883Y-65311352D01*
X144763264Y-65358971D01*
X144668026Y-65406590D01*
X144287074Y-65406590D01*
X145810883Y-65882780D02*
X145239455Y-65882780D01*
X145525169Y-65882780D02*
X145525169Y-64882780D01*
X145429931Y-65025638D01*
X145334693Y-65120876D01*
X145239455Y-65168495D01*
X146763264Y-65882780D02*
X146191836Y-65882780D01*
X146477550Y-65882780D02*
X146477550Y-64882780D01*
X146382312Y-65025638D01*
X146287074Y-65120876D01*
X146191836Y-65168495D01*
X134513580Y-60288466D02*
X134037390Y-60621800D01*
X134513580Y-60859895D02*
X133513580Y-60859895D01*
X133513580Y-60478942D01*
X133561200Y-60383704D01*
X133608819Y-60336085D01*
X133704057Y-60288466D01*
X133846914Y-60288466D01*
X133942152Y-60336085D01*
X133989771Y-60383704D01*
X134037390Y-60478942D01*
X134037390Y-60859895D01*
X133846914Y-59431323D02*
X134513580Y-59431323D01*
X133465961Y-59669419D02*
X134180247Y-59907514D01*
X134180247Y-59288466D01*
X131084580Y-57519866D02*
X130608390Y-57853200D01*
X131084580Y-58091295D02*
X130084580Y-58091295D01*
X130084580Y-57710342D01*
X130132200Y-57615104D01*
X130179819Y-57567485D01*
X130275057Y-57519866D01*
X130417914Y-57519866D01*
X130513152Y-57567485D01*
X130560771Y-57615104D01*
X130608390Y-57710342D01*
X130608390Y-58091295D01*
X130179819Y-57138914D02*
X130132200Y-57091295D01*
X130084580Y-56996057D01*
X130084580Y-56757961D01*
X130132200Y-56662723D01*
X130179819Y-56615104D01*
X130275057Y-56567485D01*
X130370295Y-56567485D01*
X130513152Y-56615104D01*
X131084580Y-57186533D01*
X131084580Y-56567485D01*
X151506180Y-66098657D02*
X151029990Y-66431990D01*
X151506180Y-66670085D02*
X150506180Y-66670085D01*
X150506180Y-66289133D01*
X150553800Y-66193895D01*
X150601419Y-66146276D01*
X150696657Y-66098657D01*
X150839514Y-66098657D01*
X150934752Y-66146276D01*
X150982371Y-66193895D01*
X151029990Y-66289133D01*
X151029990Y-66670085D01*
X151506180Y-65146276D02*
X151506180Y-65717704D01*
X151506180Y-65431990D02*
X150506180Y-65431990D01*
X150649038Y-65527228D01*
X150744276Y-65622466D01*
X150791895Y-65717704D01*
X150601419Y-64765323D02*
X150553800Y-64717704D01*
X150506180Y-64622466D01*
X150506180Y-64384371D01*
X150553800Y-64289133D01*
X150601419Y-64241514D01*
X150696657Y-64193895D01*
X150791895Y-64193895D01*
X150934752Y-64241514D01*
X151506180Y-64812942D01*
X151506180Y-64193895D01*
X132738833Y-68448180D02*
X132405500Y-67971990D01*
X132167404Y-68448180D02*
X132167404Y-67448180D01*
X132548357Y-67448180D01*
X132643595Y-67495800D01*
X132691214Y-67543419D01*
X132738833Y-67638657D01*
X132738833Y-67781514D01*
X132691214Y-67876752D01*
X132643595Y-67924371D01*
X132548357Y-67971990D01*
X132167404Y-67971990D01*
X133215023Y-68448180D02*
X133405500Y-68448180D01*
X133500738Y-68400561D01*
X133548357Y-68352942D01*
X133643595Y-68210085D01*
X133691214Y-68019609D01*
X133691214Y-67638657D01*
X133643595Y-67543419D01*
X133595976Y-67495800D01*
X133500738Y-67448180D01*
X133310261Y-67448180D01*
X133215023Y-67495800D01*
X133167404Y-67543419D01*
X133119785Y-67638657D01*
X133119785Y-67876752D01*
X133167404Y-67971990D01*
X133215023Y-68019609D01*
X133310261Y-68067228D01*
X133500738Y-68067228D01*
X133595976Y-68019609D01*
X133643595Y-67971990D01*
X133691214Y-67876752D01*
X145538180Y-56910266D02*
X145061990Y-57243600D01*
X145538180Y-57481695D02*
X144538180Y-57481695D01*
X144538180Y-57100742D01*
X144585800Y-57005504D01*
X144633419Y-56957885D01*
X144728657Y-56910266D01*
X144871514Y-56910266D01*
X144966752Y-56957885D01*
X145014371Y-57005504D01*
X145061990Y-57100742D01*
X145061990Y-57481695D01*
X144966752Y-56338838D02*
X144919133Y-56434076D01*
X144871514Y-56481695D01*
X144776276Y-56529314D01*
X144728657Y-56529314D01*
X144633419Y-56481695D01*
X144585800Y-56434076D01*
X144538180Y-56338838D01*
X144538180Y-56148361D01*
X144585800Y-56053123D01*
X144633419Y-56005504D01*
X144728657Y-55957885D01*
X144776276Y-55957885D01*
X144871514Y-56005504D01*
X144919133Y-56053123D01*
X144966752Y-56148361D01*
X144966752Y-56338838D01*
X145014371Y-56434076D01*
X145061990Y-56481695D01*
X145157228Y-56529314D01*
X145347704Y-56529314D01*
X145442942Y-56481695D01*
X145490561Y-56434076D01*
X145538180Y-56338838D01*
X145538180Y-56148361D01*
X145490561Y-56053123D01*
X145442942Y-56005504D01*
X145347704Y-55957885D01*
X145157228Y-55957885D01*
X145061990Y-56005504D01*
X145014371Y-56053123D01*
X144966752Y-56148361D01*
X150705080Y-56910266D02*
X150228890Y-57243600D01*
X150705080Y-57481695D02*
X149705080Y-57481695D01*
X149705080Y-57100742D01*
X149752700Y-57005504D01*
X149800319Y-56957885D01*
X149895557Y-56910266D01*
X150038414Y-56910266D01*
X150133652Y-56957885D01*
X150181271Y-57005504D01*
X150228890Y-57100742D01*
X150228890Y-57481695D01*
X149705080Y-56576933D02*
X149705080Y-55910266D01*
X150705080Y-56338838D01*
X128916133Y-70823080D02*
X128582800Y-70346890D01*
X128344704Y-70823080D02*
X128344704Y-69823080D01*
X128725657Y-69823080D01*
X128820895Y-69870700D01*
X128868514Y-69918319D01*
X128916133Y-70013557D01*
X128916133Y-70156414D01*
X128868514Y-70251652D01*
X128820895Y-70299271D01*
X128725657Y-70346890D01*
X128344704Y-70346890D01*
X129249466Y-69823080D02*
X129868514Y-69823080D01*
X129535180Y-70204033D01*
X129678038Y-70204033D01*
X129773276Y-70251652D01*
X129820895Y-70299271D01*
X129868514Y-70394509D01*
X129868514Y-70632604D01*
X129820895Y-70727842D01*
X129773276Y-70775461D01*
X129678038Y-70823080D01*
X129392323Y-70823080D01*
X129297085Y-70775461D01*
X129249466Y-70727842D01*
X124019013Y-69479420D02*
X123685680Y-69003230D01*
X123447584Y-69479420D02*
X123447584Y-68479420D01*
X123828537Y-68479420D01*
X123923775Y-68527040D01*
X123971394Y-68574659D01*
X124019013Y-68669897D01*
X124019013Y-68812754D01*
X123971394Y-68907992D01*
X123923775Y-68955611D01*
X123828537Y-69003230D01*
X123447584Y-69003230D01*
X124971394Y-69479420D02*
X124399965Y-69479420D01*
X124685680Y-69479420D02*
X124685680Y-68479420D01*
X124590441Y-68622278D01*
X124495203Y-68717516D01*
X124399965Y-68765135D01*
X126320253Y-67052462D02*
X126272634Y-67100081D01*
X126129777Y-67147700D01*
X126034539Y-67147700D01*
X125891681Y-67100081D01*
X125796443Y-67004843D01*
X125748824Y-66909605D01*
X125701205Y-66719129D01*
X125701205Y-66576272D01*
X125748824Y-66385796D01*
X125796443Y-66290558D01*
X125891681Y-66195320D01*
X126034539Y-66147700D01*
X126129777Y-66147700D01*
X126272634Y-66195320D01*
X126320253Y-66242939D01*
X127177396Y-66481034D02*
X127177396Y-67147700D01*
X126939300Y-66100081D02*
X126701205Y-66814367D01*
X127320253Y-66814367D01*
X125804633Y-56783242D02*
X125757014Y-56830861D01*
X125614157Y-56878480D01*
X125518919Y-56878480D01*
X125376061Y-56830861D01*
X125280823Y-56735623D01*
X125233204Y-56640385D01*
X125185585Y-56449909D01*
X125185585Y-56307052D01*
X125233204Y-56116576D01*
X125280823Y-56021338D01*
X125376061Y-55926100D01*
X125518919Y-55878480D01*
X125614157Y-55878480D01*
X125757014Y-55926100D01*
X125804633Y-55973719D01*
X126137966Y-55878480D02*
X126757014Y-55878480D01*
X126423680Y-56259433D01*
X126566538Y-56259433D01*
X126661776Y-56307052D01*
X126709395Y-56354671D01*
X126757014Y-56449909D01*
X126757014Y-56688004D01*
X126709395Y-56783242D01*
X126661776Y-56830861D01*
X126566538Y-56878480D01*
X126280823Y-56878480D01*
X126185585Y-56830861D01*
X126137966Y-56783242D01*
X125414042Y-60199566D02*
X125461661Y-60247185D01*
X125509280Y-60390042D01*
X125509280Y-60485280D01*
X125461661Y-60628138D01*
X125366423Y-60723376D01*
X125271185Y-60770995D01*
X125080709Y-60818614D01*
X124937852Y-60818614D01*
X124747376Y-60770995D01*
X124652138Y-60723376D01*
X124556900Y-60628138D01*
X124509280Y-60485280D01*
X124509280Y-60390042D01*
X124556900Y-60247185D01*
X124604519Y-60199566D01*
X124604519Y-59818614D02*
X124556900Y-59770995D01*
X124509280Y-59675757D01*
X124509280Y-59437661D01*
X124556900Y-59342423D01*
X124604519Y-59294804D01*
X124699757Y-59247185D01*
X124794995Y-59247185D01*
X124937852Y-59294804D01*
X125509280Y-59866233D01*
X125509280Y-59247185D01*
X137336280Y-61074204D02*
X138145804Y-61074204D01*
X138241042Y-61026585D01*
X138288661Y-60978966D01*
X138336280Y-60883728D01*
X138336280Y-60693252D01*
X138288661Y-60598014D01*
X138241042Y-60550395D01*
X138145804Y-60502776D01*
X137336280Y-60502776D01*
X138336280Y-59502776D02*
X138336280Y-60074204D01*
X138336280Y-59788490D02*
X137336280Y-59788490D01*
X137479138Y-59883728D01*
X137574376Y-59978966D01*
X137621995Y-60074204D01*
D15*
X122412346Y-64514165D02*
X122412346Y-63909403D01*
X122775203Y-64635117D02*
X121505203Y-64211784D01*
X122775203Y-63788451D01*
X122775203Y-63365117D02*
X121505203Y-63365117D01*
X122775203Y-62639403D01*
X121505203Y-62639403D01*
X121505203Y-62216070D02*
X121505203Y-61490355D01*
X122775203Y-61853213D02*
X121505203Y-61853213D01*
X122775203Y-60401784D02*
X122775203Y-61127498D01*
X122775203Y-60764641D02*
X121505203Y-60764641D01*
X121686632Y-60885594D01*
X121807584Y-61006546D01*
X121868060Y-61127498D01*
D11*
X146822255Y-70353940D02*
X146822255Y-71163464D01*
X146869874Y-71258702D01*
X146917493Y-71306321D01*
X147012731Y-71353940D01*
X147203207Y-71353940D01*
X147298445Y-71306321D01*
X147346064Y-71258702D01*
X147393683Y-71163464D01*
X147393683Y-70353940D01*
X147774636Y-70353940D02*
X148393683Y-70353940D01*
X148060350Y-70734893D01*
X148203207Y-70734893D01*
X148298445Y-70782512D01*
X148346064Y-70830131D01*
X148393683Y-70925369D01*
X148393683Y-71163464D01*
X148346064Y-71258702D01*
X148298445Y-71306321D01*
X148203207Y-71353940D01*
X147917493Y-71353940D01*
X147822255Y-71306321D01*
X147774636Y-71258702D01*
M02*
