G04 #@! TF.GenerationSoftware,KiCad,Pcbnew,(5.1.4)-1*
G04 #@! TF.CreationDate,2019-12-01T21:56:44-05:00*
G04 #@! TF.ProjectId,Feather-weather-station,46656174-6865-4722-9d77-656174686572,rev?*
G04 #@! TF.SameCoordinates,Original*
G04 #@! TF.FileFunction,Soldermask,Top*
G04 #@! TF.FilePolarity,Negative*
%FSLAX46Y46*%
G04 Gerber Fmt 4.6, Leading zero omitted, Abs format (unit mm)*
G04 Created by KiCad (PCBNEW (5.1.4)-1) date 2019-12-01 21:56:44*
%MOMM*%
%LPD*%
G04 APERTURE LIST*
%ADD10C,0.100000*%
G04 APERTURE END LIST*
D10*
G36*
X140991543Y-71686019D02*
G01*
X141057727Y-71692537D01*
X141227566Y-71744057D01*
X141384091Y-71827722D01*
X141419829Y-71857052D01*
X141521286Y-71940314D01*
X141604548Y-72041771D01*
X141633878Y-72077509D01*
X141717543Y-72234034D01*
X141769063Y-72403873D01*
X141786459Y-72580500D01*
X141769063Y-72757127D01*
X141717543Y-72926966D01*
X141633878Y-73083491D01*
X141604548Y-73119229D01*
X141521286Y-73220686D01*
X141419829Y-73303948D01*
X141384091Y-73333278D01*
X141227566Y-73416943D01*
X141057727Y-73468463D01*
X140991542Y-73474982D01*
X140925360Y-73481500D01*
X140836840Y-73481500D01*
X140770658Y-73474982D01*
X140704473Y-73468463D01*
X140534634Y-73416943D01*
X140378109Y-73333278D01*
X140342371Y-73303948D01*
X140240914Y-73220686D01*
X140157652Y-73119229D01*
X140128322Y-73083491D01*
X140044657Y-72926966D01*
X139993137Y-72757127D01*
X139975741Y-72580500D01*
X139993137Y-72403873D01*
X140044657Y-72234034D01*
X140128322Y-72077509D01*
X140157652Y-72041771D01*
X140240914Y-71940314D01*
X140342371Y-71857052D01*
X140378109Y-71827722D01*
X140534634Y-71744057D01*
X140704473Y-71692537D01*
X140770657Y-71686019D01*
X140836840Y-71679500D01*
X140925360Y-71679500D01*
X140991543Y-71686019D01*
X140991543Y-71686019D01*
G37*
G36*
X128291543Y-71686019D02*
G01*
X128357727Y-71692537D01*
X128527566Y-71744057D01*
X128684091Y-71827722D01*
X128719829Y-71857052D01*
X128821286Y-71940314D01*
X128904548Y-72041771D01*
X128933878Y-72077509D01*
X129017543Y-72234034D01*
X129069063Y-72403873D01*
X129086459Y-72580500D01*
X129069063Y-72757127D01*
X129017543Y-72926966D01*
X128933878Y-73083491D01*
X128904548Y-73119229D01*
X128821286Y-73220686D01*
X128719829Y-73303948D01*
X128684091Y-73333278D01*
X128527566Y-73416943D01*
X128357727Y-73468463D01*
X128291542Y-73474982D01*
X128225360Y-73481500D01*
X128136840Y-73481500D01*
X128070658Y-73474982D01*
X128004473Y-73468463D01*
X127834634Y-73416943D01*
X127678109Y-73333278D01*
X127642371Y-73303948D01*
X127540914Y-73220686D01*
X127457652Y-73119229D01*
X127428322Y-73083491D01*
X127344657Y-72926966D01*
X127293137Y-72757127D01*
X127275741Y-72580500D01*
X127293137Y-72403873D01*
X127344657Y-72234034D01*
X127428322Y-72077509D01*
X127457652Y-72041771D01*
X127540914Y-71940314D01*
X127642371Y-71857052D01*
X127678109Y-71827722D01*
X127834634Y-71744057D01*
X128004473Y-71692537D01*
X128070657Y-71686019D01*
X128136840Y-71679500D01*
X128225360Y-71679500D01*
X128291543Y-71686019D01*
X128291543Y-71686019D01*
G37*
G36*
X146071543Y-71686019D02*
G01*
X146137727Y-71692537D01*
X146307566Y-71744057D01*
X146464091Y-71827722D01*
X146499829Y-71857052D01*
X146601286Y-71940314D01*
X146684548Y-72041771D01*
X146713878Y-72077509D01*
X146797543Y-72234034D01*
X146849063Y-72403873D01*
X146866459Y-72580500D01*
X146849063Y-72757127D01*
X146797543Y-72926966D01*
X146713878Y-73083491D01*
X146684548Y-73119229D01*
X146601286Y-73220686D01*
X146499829Y-73303948D01*
X146464091Y-73333278D01*
X146307566Y-73416943D01*
X146137727Y-73468463D01*
X146071542Y-73474982D01*
X146005360Y-73481500D01*
X145916840Y-73481500D01*
X145850658Y-73474982D01*
X145784473Y-73468463D01*
X145614634Y-73416943D01*
X145458109Y-73333278D01*
X145422371Y-73303948D01*
X145320914Y-73220686D01*
X145237652Y-73119229D01*
X145208322Y-73083491D01*
X145124657Y-72926966D01*
X145073137Y-72757127D01*
X145055741Y-72580500D01*
X145073137Y-72403873D01*
X145124657Y-72234034D01*
X145208322Y-72077509D01*
X145237652Y-72041771D01*
X145320914Y-71940314D01*
X145422371Y-71857052D01*
X145458109Y-71827722D01*
X145614634Y-71744057D01*
X145784473Y-71692537D01*
X145850657Y-71686019D01*
X145916840Y-71679500D01*
X146005360Y-71679500D01*
X146071543Y-71686019D01*
X146071543Y-71686019D01*
G37*
G36*
X143531543Y-71686019D02*
G01*
X143597727Y-71692537D01*
X143767566Y-71744057D01*
X143924091Y-71827722D01*
X143959829Y-71857052D01*
X144061286Y-71940314D01*
X144144548Y-72041771D01*
X144173878Y-72077509D01*
X144257543Y-72234034D01*
X144309063Y-72403873D01*
X144326459Y-72580500D01*
X144309063Y-72757127D01*
X144257543Y-72926966D01*
X144173878Y-73083491D01*
X144144548Y-73119229D01*
X144061286Y-73220686D01*
X143959829Y-73303948D01*
X143924091Y-73333278D01*
X143767566Y-73416943D01*
X143597727Y-73468463D01*
X143531542Y-73474982D01*
X143465360Y-73481500D01*
X143376840Y-73481500D01*
X143310658Y-73474982D01*
X143244473Y-73468463D01*
X143074634Y-73416943D01*
X142918109Y-73333278D01*
X142882371Y-73303948D01*
X142780914Y-73220686D01*
X142697652Y-73119229D01*
X142668322Y-73083491D01*
X142584657Y-72926966D01*
X142533137Y-72757127D01*
X142515741Y-72580500D01*
X142533137Y-72403873D01*
X142584657Y-72234034D01*
X142668322Y-72077509D01*
X142697652Y-72041771D01*
X142780914Y-71940314D01*
X142882371Y-71857052D01*
X142918109Y-71827722D01*
X143074634Y-71744057D01*
X143244473Y-71692537D01*
X143310657Y-71686019D01*
X143376840Y-71679500D01*
X143465360Y-71679500D01*
X143531543Y-71686019D01*
X143531543Y-71686019D01*
G37*
G36*
X138451543Y-71686019D02*
G01*
X138517727Y-71692537D01*
X138687566Y-71744057D01*
X138844091Y-71827722D01*
X138879829Y-71857052D01*
X138981286Y-71940314D01*
X139064548Y-72041771D01*
X139093878Y-72077509D01*
X139177543Y-72234034D01*
X139229063Y-72403873D01*
X139246459Y-72580500D01*
X139229063Y-72757127D01*
X139177543Y-72926966D01*
X139093878Y-73083491D01*
X139064548Y-73119229D01*
X138981286Y-73220686D01*
X138879829Y-73303948D01*
X138844091Y-73333278D01*
X138687566Y-73416943D01*
X138517727Y-73468463D01*
X138451542Y-73474982D01*
X138385360Y-73481500D01*
X138296840Y-73481500D01*
X138230658Y-73474982D01*
X138164473Y-73468463D01*
X137994634Y-73416943D01*
X137838109Y-73333278D01*
X137802371Y-73303948D01*
X137700914Y-73220686D01*
X137617652Y-73119229D01*
X137588322Y-73083491D01*
X137504657Y-72926966D01*
X137453137Y-72757127D01*
X137435741Y-72580500D01*
X137453137Y-72403873D01*
X137504657Y-72234034D01*
X137588322Y-72077509D01*
X137617652Y-72041771D01*
X137700914Y-71940314D01*
X137802371Y-71857052D01*
X137838109Y-71827722D01*
X137994634Y-71744057D01*
X138164473Y-71692537D01*
X138230657Y-71686019D01*
X138296840Y-71679500D01*
X138385360Y-71679500D01*
X138451543Y-71686019D01*
X138451543Y-71686019D01*
G37*
G36*
X135911543Y-71686019D02*
G01*
X135977727Y-71692537D01*
X136147566Y-71744057D01*
X136304091Y-71827722D01*
X136339829Y-71857052D01*
X136441286Y-71940314D01*
X136524548Y-72041771D01*
X136553878Y-72077509D01*
X136637543Y-72234034D01*
X136689063Y-72403873D01*
X136706459Y-72580500D01*
X136689063Y-72757127D01*
X136637543Y-72926966D01*
X136553878Y-73083491D01*
X136524548Y-73119229D01*
X136441286Y-73220686D01*
X136339829Y-73303948D01*
X136304091Y-73333278D01*
X136147566Y-73416943D01*
X135977727Y-73468463D01*
X135911542Y-73474982D01*
X135845360Y-73481500D01*
X135756840Y-73481500D01*
X135690658Y-73474982D01*
X135624473Y-73468463D01*
X135454634Y-73416943D01*
X135298109Y-73333278D01*
X135262371Y-73303948D01*
X135160914Y-73220686D01*
X135077652Y-73119229D01*
X135048322Y-73083491D01*
X134964657Y-72926966D01*
X134913137Y-72757127D01*
X134895741Y-72580500D01*
X134913137Y-72403873D01*
X134964657Y-72234034D01*
X135048322Y-72077509D01*
X135077652Y-72041771D01*
X135160914Y-71940314D01*
X135262371Y-71857052D01*
X135298109Y-71827722D01*
X135454634Y-71744057D01*
X135624473Y-71692537D01*
X135690657Y-71686019D01*
X135756840Y-71679500D01*
X135845360Y-71679500D01*
X135911543Y-71686019D01*
X135911543Y-71686019D01*
G37*
G36*
X133371543Y-71686019D02*
G01*
X133437727Y-71692537D01*
X133607566Y-71744057D01*
X133764091Y-71827722D01*
X133799829Y-71857052D01*
X133901286Y-71940314D01*
X133984548Y-72041771D01*
X134013878Y-72077509D01*
X134097543Y-72234034D01*
X134149063Y-72403873D01*
X134166459Y-72580500D01*
X134149063Y-72757127D01*
X134097543Y-72926966D01*
X134013878Y-73083491D01*
X133984548Y-73119229D01*
X133901286Y-73220686D01*
X133799829Y-73303948D01*
X133764091Y-73333278D01*
X133607566Y-73416943D01*
X133437727Y-73468463D01*
X133371542Y-73474982D01*
X133305360Y-73481500D01*
X133216840Y-73481500D01*
X133150658Y-73474982D01*
X133084473Y-73468463D01*
X132914634Y-73416943D01*
X132758109Y-73333278D01*
X132722371Y-73303948D01*
X132620914Y-73220686D01*
X132537652Y-73119229D01*
X132508322Y-73083491D01*
X132424657Y-72926966D01*
X132373137Y-72757127D01*
X132355741Y-72580500D01*
X132373137Y-72403873D01*
X132424657Y-72234034D01*
X132508322Y-72077509D01*
X132537652Y-72041771D01*
X132620914Y-71940314D01*
X132722371Y-71857052D01*
X132758109Y-71827722D01*
X132914634Y-71744057D01*
X133084473Y-71692537D01*
X133150657Y-71686019D01*
X133216840Y-71679500D01*
X133305360Y-71679500D01*
X133371543Y-71686019D01*
X133371543Y-71686019D01*
G37*
G36*
X130831543Y-71686019D02*
G01*
X130897727Y-71692537D01*
X131067566Y-71744057D01*
X131224091Y-71827722D01*
X131259829Y-71857052D01*
X131361286Y-71940314D01*
X131444548Y-72041771D01*
X131473878Y-72077509D01*
X131557543Y-72234034D01*
X131609063Y-72403873D01*
X131626459Y-72580500D01*
X131609063Y-72757127D01*
X131557543Y-72926966D01*
X131473878Y-73083491D01*
X131444548Y-73119229D01*
X131361286Y-73220686D01*
X131259829Y-73303948D01*
X131224091Y-73333278D01*
X131067566Y-73416943D01*
X130897727Y-73468463D01*
X130831542Y-73474982D01*
X130765360Y-73481500D01*
X130676840Y-73481500D01*
X130610658Y-73474982D01*
X130544473Y-73468463D01*
X130374634Y-73416943D01*
X130218109Y-73333278D01*
X130182371Y-73303948D01*
X130080914Y-73220686D01*
X129997652Y-73119229D01*
X129968322Y-73083491D01*
X129884657Y-72926966D01*
X129833137Y-72757127D01*
X129815741Y-72580500D01*
X129833137Y-72403873D01*
X129884657Y-72234034D01*
X129968322Y-72077509D01*
X129997652Y-72041771D01*
X130080914Y-71940314D01*
X130182371Y-71857052D01*
X130218109Y-71827722D01*
X130374634Y-71744057D01*
X130544473Y-71692537D01*
X130610657Y-71686019D01*
X130676840Y-71679500D01*
X130765360Y-71679500D01*
X130831543Y-71686019D01*
X130831543Y-71686019D01*
G37*
G36*
X148611543Y-71686019D02*
G01*
X148677727Y-71692537D01*
X148847566Y-71744057D01*
X149004091Y-71827722D01*
X149039829Y-71857052D01*
X149141286Y-71940314D01*
X149224548Y-72041771D01*
X149253878Y-72077509D01*
X149337543Y-72234034D01*
X149389063Y-72403873D01*
X149406459Y-72580500D01*
X149389063Y-72757127D01*
X149337543Y-72926966D01*
X149253878Y-73083491D01*
X149224548Y-73119229D01*
X149141286Y-73220686D01*
X149039829Y-73303948D01*
X149004091Y-73333278D01*
X148847566Y-73416943D01*
X148677727Y-73468463D01*
X148611542Y-73474982D01*
X148545360Y-73481500D01*
X148456840Y-73481500D01*
X148390658Y-73474982D01*
X148324473Y-73468463D01*
X148154634Y-73416943D01*
X147998109Y-73333278D01*
X147962371Y-73303948D01*
X147860914Y-73220686D01*
X147777652Y-73119229D01*
X147748322Y-73083491D01*
X147664657Y-72926966D01*
X147613137Y-72757127D01*
X147595741Y-72580500D01*
X147613137Y-72403873D01*
X147664657Y-72234034D01*
X147748322Y-72077509D01*
X147777652Y-72041771D01*
X147860914Y-71940314D01*
X147962371Y-71857052D01*
X147998109Y-71827722D01*
X148154634Y-71744057D01*
X148324473Y-71692537D01*
X148390657Y-71686019D01*
X148456840Y-71679500D01*
X148545360Y-71679500D01*
X148611543Y-71686019D01*
X148611543Y-71686019D01*
G37*
G36*
X161311543Y-71686019D02*
G01*
X161377727Y-71692537D01*
X161547566Y-71744057D01*
X161704091Y-71827722D01*
X161739829Y-71857052D01*
X161841286Y-71940314D01*
X161924548Y-72041771D01*
X161953878Y-72077509D01*
X162037543Y-72234034D01*
X162089063Y-72403873D01*
X162106459Y-72580500D01*
X162089063Y-72757127D01*
X162037543Y-72926966D01*
X161953878Y-73083491D01*
X161924548Y-73119229D01*
X161841286Y-73220686D01*
X161739829Y-73303948D01*
X161704091Y-73333278D01*
X161547566Y-73416943D01*
X161377727Y-73468463D01*
X161311542Y-73474982D01*
X161245360Y-73481500D01*
X161156840Y-73481500D01*
X161090658Y-73474982D01*
X161024473Y-73468463D01*
X160854634Y-73416943D01*
X160698109Y-73333278D01*
X160662371Y-73303948D01*
X160560914Y-73220686D01*
X160477652Y-73119229D01*
X160448322Y-73083491D01*
X160364657Y-72926966D01*
X160313137Y-72757127D01*
X160295741Y-72580500D01*
X160313137Y-72403873D01*
X160364657Y-72234034D01*
X160448322Y-72077509D01*
X160477652Y-72041771D01*
X160560914Y-71940314D01*
X160662371Y-71857052D01*
X160698109Y-71827722D01*
X160854634Y-71744057D01*
X161024473Y-71692537D01*
X161090657Y-71686019D01*
X161156840Y-71679500D01*
X161245360Y-71679500D01*
X161311543Y-71686019D01*
X161311543Y-71686019D01*
G37*
G36*
X158771543Y-71686019D02*
G01*
X158837727Y-71692537D01*
X159007566Y-71744057D01*
X159164091Y-71827722D01*
X159199829Y-71857052D01*
X159301286Y-71940314D01*
X159384548Y-72041771D01*
X159413878Y-72077509D01*
X159497543Y-72234034D01*
X159549063Y-72403873D01*
X159566459Y-72580500D01*
X159549063Y-72757127D01*
X159497543Y-72926966D01*
X159413878Y-73083491D01*
X159384548Y-73119229D01*
X159301286Y-73220686D01*
X159199829Y-73303948D01*
X159164091Y-73333278D01*
X159007566Y-73416943D01*
X158837727Y-73468463D01*
X158771542Y-73474982D01*
X158705360Y-73481500D01*
X158616840Y-73481500D01*
X158550658Y-73474982D01*
X158484473Y-73468463D01*
X158314634Y-73416943D01*
X158158109Y-73333278D01*
X158122371Y-73303948D01*
X158020914Y-73220686D01*
X157937652Y-73119229D01*
X157908322Y-73083491D01*
X157824657Y-72926966D01*
X157773137Y-72757127D01*
X157755741Y-72580500D01*
X157773137Y-72403873D01*
X157824657Y-72234034D01*
X157908322Y-72077509D01*
X157937652Y-72041771D01*
X158020914Y-71940314D01*
X158122371Y-71857052D01*
X158158109Y-71827722D01*
X158314634Y-71744057D01*
X158484473Y-71692537D01*
X158550657Y-71686019D01*
X158616840Y-71679500D01*
X158705360Y-71679500D01*
X158771543Y-71686019D01*
X158771543Y-71686019D01*
G37*
G36*
X156231543Y-71686019D02*
G01*
X156297727Y-71692537D01*
X156467566Y-71744057D01*
X156624091Y-71827722D01*
X156659829Y-71857052D01*
X156761286Y-71940314D01*
X156844548Y-72041771D01*
X156873878Y-72077509D01*
X156957543Y-72234034D01*
X157009063Y-72403873D01*
X157026459Y-72580500D01*
X157009063Y-72757127D01*
X156957543Y-72926966D01*
X156873878Y-73083491D01*
X156844548Y-73119229D01*
X156761286Y-73220686D01*
X156659829Y-73303948D01*
X156624091Y-73333278D01*
X156467566Y-73416943D01*
X156297727Y-73468463D01*
X156231542Y-73474982D01*
X156165360Y-73481500D01*
X156076840Y-73481500D01*
X156010658Y-73474982D01*
X155944473Y-73468463D01*
X155774634Y-73416943D01*
X155618109Y-73333278D01*
X155582371Y-73303948D01*
X155480914Y-73220686D01*
X155397652Y-73119229D01*
X155368322Y-73083491D01*
X155284657Y-72926966D01*
X155233137Y-72757127D01*
X155215741Y-72580500D01*
X155233137Y-72403873D01*
X155284657Y-72234034D01*
X155368322Y-72077509D01*
X155397652Y-72041771D01*
X155480914Y-71940314D01*
X155582371Y-71857052D01*
X155618109Y-71827722D01*
X155774634Y-71744057D01*
X155944473Y-71692537D01*
X156010657Y-71686019D01*
X156076840Y-71679500D01*
X156165360Y-71679500D01*
X156231543Y-71686019D01*
X156231543Y-71686019D01*
G37*
G36*
X163851543Y-71686019D02*
G01*
X163917727Y-71692537D01*
X164087566Y-71744057D01*
X164244091Y-71827722D01*
X164279829Y-71857052D01*
X164381286Y-71940314D01*
X164464548Y-72041771D01*
X164493878Y-72077509D01*
X164577543Y-72234034D01*
X164629063Y-72403873D01*
X164646459Y-72580500D01*
X164629063Y-72757127D01*
X164577543Y-72926966D01*
X164493878Y-73083491D01*
X164464548Y-73119229D01*
X164381286Y-73220686D01*
X164279829Y-73303948D01*
X164244091Y-73333278D01*
X164087566Y-73416943D01*
X163917727Y-73468463D01*
X163851542Y-73474982D01*
X163785360Y-73481500D01*
X163696840Y-73481500D01*
X163630658Y-73474982D01*
X163564473Y-73468463D01*
X163394634Y-73416943D01*
X163238109Y-73333278D01*
X163202371Y-73303948D01*
X163100914Y-73220686D01*
X163017652Y-73119229D01*
X162988322Y-73083491D01*
X162904657Y-72926966D01*
X162853137Y-72757127D01*
X162835741Y-72580500D01*
X162853137Y-72403873D01*
X162904657Y-72234034D01*
X162988322Y-72077509D01*
X163017652Y-72041771D01*
X163100914Y-71940314D01*
X163202371Y-71857052D01*
X163238109Y-71827722D01*
X163394634Y-71744057D01*
X163564473Y-71692537D01*
X163630657Y-71686019D01*
X163696840Y-71679500D01*
X163785360Y-71679500D01*
X163851543Y-71686019D01*
X163851543Y-71686019D01*
G37*
G36*
X153691543Y-71686019D02*
G01*
X153757727Y-71692537D01*
X153927566Y-71744057D01*
X154084091Y-71827722D01*
X154119829Y-71857052D01*
X154221286Y-71940314D01*
X154304548Y-72041771D01*
X154333878Y-72077509D01*
X154417543Y-72234034D01*
X154469063Y-72403873D01*
X154486459Y-72580500D01*
X154469063Y-72757127D01*
X154417543Y-72926966D01*
X154333878Y-73083491D01*
X154304548Y-73119229D01*
X154221286Y-73220686D01*
X154119829Y-73303948D01*
X154084091Y-73333278D01*
X153927566Y-73416943D01*
X153757727Y-73468463D01*
X153691542Y-73474982D01*
X153625360Y-73481500D01*
X153536840Y-73481500D01*
X153470658Y-73474982D01*
X153404473Y-73468463D01*
X153234634Y-73416943D01*
X153078109Y-73333278D01*
X153042371Y-73303948D01*
X152940914Y-73220686D01*
X152857652Y-73119229D01*
X152828322Y-73083491D01*
X152744657Y-72926966D01*
X152693137Y-72757127D01*
X152675741Y-72580500D01*
X152693137Y-72403873D01*
X152744657Y-72234034D01*
X152828322Y-72077509D01*
X152857652Y-72041771D01*
X152940914Y-71940314D01*
X153042371Y-71857052D01*
X153078109Y-71827722D01*
X153234634Y-71744057D01*
X153404473Y-71692537D01*
X153470657Y-71686019D01*
X153536840Y-71679500D01*
X153625360Y-71679500D01*
X153691543Y-71686019D01*
X153691543Y-71686019D01*
G37*
G36*
X151151543Y-71686019D02*
G01*
X151217727Y-71692537D01*
X151387566Y-71744057D01*
X151544091Y-71827722D01*
X151579829Y-71857052D01*
X151681286Y-71940314D01*
X151764548Y-72041771D01*
X151793878Y-72077509D01*
X151877543Y-72234034D01*
X151929063Y-72403873D01*
X151946459Y-72580500D01*
X151929063Y-72757127D01*
X151877543Y-72926966D01*
X151793878Y-73083491D01*
X151764548Y-73119229D01*
X151681286Y-73220686D01*
X151579829Y-73303948D01*
X151544091Y-73333278D01*
X151387566Y-73416943D01*
X151217727Y-73468463D01*
X151151542Y-73474982D01*
X151085360Y-73481500D01*
X150996840Y-73481500D01*
X150930658Y-73474982D01*
X150864473Y-73468463D01*
X150694634Y-73416943D01*
X150538109Y-73333278D01*
X150502371Y-73303948D01*
X150400914Y-73220686D01*
X150317652Y-73119229D01*
X150288322Y-73083491D01*
X150204657Y-72926966D01*
X150153137Y-72757127D01*
X150135741Y-72580500D01*
X150153137Y-72403873D01*
X150204657Y-72234034D01*
X150288322Y-72077509D01*
X150317652Y-72041771D01*
X150400914Y-71940314D01*
X150502371Y-71857052D01*
X150538109Y-71827722D01*
X150694634Y-71744057D01*
X150864473Y-71692537D01*
X150930657Y-71686019D01*
X150996840Y-71679500D01*
X151085360Y-71679500D01*
X151151543Y-71686019D01*
X151151543Y-71686019D01*
G37*
G36*
X126542100Y-73481500D02*
G01*
X124740100Y-73481500D01*
X124740100Y-71679500D01*
X126542100Y-71679500D01*
X126542100Y-73481500D01*
X126542100Y-73481500D01*
G37*
G36*
X122400185Y-69434475D02*
G01*
X122755243Y-69581545D01*
X122755245Y-69581546D01*
X123074790Y-69795059D01*
X123346541Y-70066810D01*
X123516786Y-70321600D01*
X123560055Y-70386357D01*
X123707125Y-70741415D01*
X123782100Y-71118342D01*
X123782100Y-71502658D01*
X123707125Y-71879585D01*
X123625142Y-72077509D01*
X123560054Y-72234645D01*
X123346541Y-72554190D01*
X123074790Y-72825941D01*
X122755245Y-73039454D01*
X122755244Y-73039455D01*
X122755243Y-73039455D01*
X122400185Y-73186525D01*
X122023258Y-73261500D01*
X121638942Y-73261500D01*
X121262015Y-73186525D01*
X120906957Y-73039455D01*
X120906956Y-73039455D01*
X120906955Y-73039454D01*
X120587410Y-72825941D01*
X120315659Y-72554190D01*
X120102146Y-72234645D01*
X120037058Y-72077509D01*
X119955075Y-71879585D01*
X119880100Y-71502658D01*
X119880100Y-71118342D01*
X119955075Y-70741415D01*
X120102145Y-70386357D01*
X120145414Y-70321600D01*
X120315659Y-70066810D01*
X120587410Y-69795059D01*
X120906955Y-69581546D01*
X120906957Y-69581545D01*
X121262015Y-69434475D01*
X121638942Y-69359500D01*
X122023258Y-69359500D01*
X122400185Y-69434475D01*
X122400185Y-69434475D01*
G37*
G36*
X169742200Y-69796500D02*
G01*
X167877552Y-69796500D01*
X167853166Y-69798902D01*
X167829717Y-69806015D01*
X167808106Y-69817566D01*
X167789164Y-69833111D01*
X167773619Y-69852053D01*
X167762068Y-69873664D01*
X167754955Y-69897113D01*
X167752553Y-69921499D01*
X167754955Y-69945885D01*
X167762068Y-69969334D01*
X167773619Y-69990945D01*
X167789164Y-70009887D01*
X167808106Y-70025432D01*
X167829717Y-70036983D01*
X167853166Y-70044096D01*
X167930587Y-70059496D01*
X168161317Y-70155068D01*
X168167355Y-70157569D01*
X168233756Y-70201937D01*
X168380439Y-70299947D01*
X168561653Y-70481161D01*
X168704032Y-70694247D01*
X168802104Y-70931013D01*
X168852100Y-71182361D01*
X168852100Y-71438639D01*
X168802104Y-71689987D01*
X168723569Y-71879586D01*
X168704031Y-71926755D01*
X168561653Y-72139839D01*
X168380439Y-72321053D01*
X168167355Y-72463431D01*
X168167354Y-72463432D01*
X168167353Y-72463432D01*
X167930587Y-72561504D01*
X167679239Y-72611500D01*
X167422961Y-72611500D01*
X167171613Y-72561504D01*
X166934847Y-72463432D01*
X166934846Y-72463432D01*
X166934845Y-72463431D01*
X166721761Y-72321053D01*
X166540547Y-72139839D01*
X166398169Y-71926755D01*
X166378631Y-71879586D01*
X166300096Y-71689987D01*
X166250100Y-71438639D01*
X166250100Y-71182361D01*
X166300096Y-70931013D01*
X166398168Y-70694247D01*
X166540547Y-70481161D01*
X166721761Y-70299947D01*
X166868444Y-70201937D01*
X166934845Y-70157569D01*
X166940883Y-70155068D01*
X167171613Y-70059496D01*
X167249034Y-70044096D01*
X167272483Y-70036983D01*
X167294094Y-70025432D01*
X167313036Y-70009887D01*
X167328581Y-69990945D01*
X167340132Y-69969334D01*
X167347245Y-69945885D01*
X167349647Y-69921499D01*
X167347245Y-69897113D01*
X167340132Y-69873664D01*
X167328581Y-69852053D01*
X167313036Y-69833111D01*
X167294094Y-69817566D01*
X167272483Y-69806015D01*
X167249034Y-69798902D01*
X167224648Y-69796500D01*
X166840200Y-69796500D01*
X166840200Y-68694500D01*
X169742200Y-68694500D01*
X169742200Y-69796500D01*
X169742200Y-69796500D01*
G37*
G36*
X125926468Y-69636965D02*
G01*
X125965138Y-69648696D01*
X126000777Y-69667746D01*
X126032017Y-69693383D01*
X126057654Y-69724623D01*
X126076704Y-69760262D01*
X126088435Y-69798932D01*
X126093000Y-69845288D01*
X126093000Y-70921512D01*
X126088435Y-70967868D01*
X126076704Y-71006538D01*
X126057654Y-71042177D01*
X126032017Y-71073417D01*
X126000777Y-71099054D01*
X125965138Y-71118104D01*
X125926468Y-71129835D01*
X125880112Y-71134400D01*
X125228888Y-71134400D01*
X125182532Y-71129835D01*
X125143862Y-71118104D01*
X125108223Y-71099054D01*
X125076983Y-71073417D01*
X125051346Y-71042177D01*
X125032296Y-71006538D01*
X125020565Y-70967868D01*
X125016000Y-70921512D01*
X125016000Y-69845288D01*
X125020565Y-69798932D01*
X125032296Y-69760262D01*
X125051346Y-69724623D01*
X125076983Y-69693383D01*
X125108223Y-69667746D01*
X125143862Y-69648696D01*
X125182532Y-69636965D01*
X125228888Y-69632400D01*
X125880112Y-69632400D01*
X125926468Y-69636965D01*
X125926468Y-69636965D01*
G37*
G36*
X127801468Y-69636965D02*
G01*
X127840138Y-69648696D01*
X127875777Y-69667746D01*
X127907017Y-69693383D01*
X127932654Y-69724623D01*
X127951704Y-69760262D01*
X127963435Y-69798932D01*
X127968000Y-69845288D01*
X127968000Y-70921512D01*
X127963435Y-70967868D01*
X127951704Y-71006538D01*
X127932654Y-71042177D01*
X127907017Y-71073417D01*
X127875777Y-71099054D01*
X127840138Y-71118104D01*
X127801468Y-71129835D01*
X127755112Y-71134400D01*
X127103888Y-71134400D01*
X127057532Y-71129835D01*
X127018862Y-71118104D01*
X126983223Y-71099054D01*
X126951983Y-71073417D01*
X126926346Y-71042177D01*
X126907296Y-71006538D01*
X126895565Y-70967868D01*
X126891000Y-70921512D01*
X126891000Y-69845288D01*
X126895565Y-69798932D01*
X126907296Y-69760262D01*
X126926346Y-69724623D01*
X126951983Y-69693383D01*
X126983223Y-69667746D01*
X127018862Y-69648696D01*
X127057532Y-69636965D01*
X127103888Y-69632400D01*
X127755112Y-69632400D01*
X127801468Y-69636965D01*
X127801468Y-69636965D01*
G37*
G36*
X149954700Y-70999500D02*
G01*
X149052700Y-70999500D01*
X149052700Y-70097500D01*
X149954700Y-70097500D01*
X149954700Y-70999500D01*
X149954700Y-70999500D01*
G37*
G36*
X151587468Y-68818465D02*
G01*
X151626138Y-68830196D01*
X151661777Y-68849246D01*
X151693017Y-68874883D01*
X151718654Y-68906123D01*
X151737704Y-68941762D01*
X151749435Y-68980432D01*
X151754000Y-69026788D01*
X151754000Y-69678012D01*
X151749435Y-69724368D01*
X151737704Y-69763038D01*
X151718654Y-69798677D01*
X151693017Y-69829917D01*
X151661777Y-69855554D01*
X151626138Y-69874604D01*
X151587468Y-69886335D01*
X151567449Y-69888306D01*
X151543416Y-69893086D01*
X151520777Y-69902463D01*
X151500402Y-69916076D01*
X151483075Y-69933403D01*
X151469461Y-69953777D01*
X151460083Y-69976416D01*
X151455302Y-70000449D01*
X151454700Y-70012703D01*
X151454700Y-70999500D01*
X150552700Y-70999500D01*
X150552700Y-70012841D01*
X150550298Y-69988455D01*
X150543185Y-69965006D01*
X150531634Y-69943395D01*
X150516089Y-69924453D01*
X150497147Y-69908908D01*
X150475536Y-69897357D01*
X150452087Y-69890244D01*
X150439952Y-69888444D01*
X150418532Y-69886335D01*
X150379862Y-69874604D01*
X150344223Y-69855554D01*
X150312983Y-69829917D01*
X150287346Y-69798677D01*
X150268296Y-69763038D01*
X150256565Y-69724368D01*
X150252000Y-69678012D01*
X150252000Y-69026788D01*
X150256565Y-68980432D01*
X150268296Y-68941762D01*
X150287346Y-68906123D01*
X150312983Y-68874883D01*
X150344223Y-68849246D01*
X150379862Y-68830196D01*
X150418532Y-68818465D01*
X150464888Y-68813900D01*
X151541112Y-68813900D01*
X151587468Y-68818465D01*
X151587468Y-68818465D01*
G37*
G36*
X137351868Y-68824165D02*
G01*
X137390538Y-68835896D01*
X137426177Y-68854946D01*
X137457417Y-68880583D01*
X137483054Y-68911823D01*
X137502104Y-68947462D01*
X137513835Y-68986132D01*
X137518400Y-69032488D01*
X137518400Y-70108712D01*
X137513835Y-70155068D01*
X137502104Y-70193738D01*
X137483054Y-70229377D01*
X137457417Y-70260617D01*
X137426177Y-70286254D01*
X137390538Y-70305304D01*
X137351868Y-70317035D01*
X137305512Y-70321600D01*
X136654288Y-70321600D01*
X136607932Y-70317035D01*
X136569262Y-70305304D01*
X136533623Y-70286254D01*
X136502383Y-70260617D01*
X136476746Y-70229377D01*
X136457696Y-70193738D01*
X136445965Y-70155068D01*
X136441400Y-70108712D01*
X136441400Y-69032488D01*
X136445965Y-68986132D01*
X136457696Y-68947462D01*
X136476746Y-68911823D01*
X136502383Y-68880583D01*
X136533623Y-68854946D01*
X136569262Y-68835896D01*
X136607932Y-68824165D01*
X136654288Y-68819600D01*
X137305512Y-68819600D01*
X137351868Y-68824165D01*
X137351868Y-68824165D01*
G37*
G36*
X135476868Y-68824165D02*
G01*
X135515538Y-68835896D01*
X135551177Y-68854946D01*
X135582417Y-68880583D01*
X135608054Y-68911823D01*
X135627104Y-68947462D01*
X135638835Y-68986132D01*
X135643400Y-69032488D01*
X135643400Y-70108712D01*
X135638835Y-70155068D01*
X135627104Y-70193738D01*
X135608054Y-70229377D01*
X135582417Y-70260617D01*
X135551177Y-70286254D01*
X135515538Y-70305304D01*
X135476868Y-70317035D01*
X135430512Y-70321600D01*
X134779288Y-70321600D01*
X134732932Y-70317035D01*
X134694262Y-70305304D01*
X134658623Y-70286254D01*
X134627383Y-70260617D01*
X134601746Y-70229377D01*
X134582696Y-70193738D01*
X134570965Y-70155068D01*
X134566400Y-70108712D01*
X134566400Y-69032488D01*
X134570965Y-68986132D01*
X134582696Y-68947462D01*
X134601746Y-68911823D01*
X134627383Y-68880583D01*
X134658623Y-68854946D01*
X134694262Y-68835896D01*
X134732932Y-68824165D01*
X134779288Y-68819600D01*
X135430512Y-68819600D01*
X135476868Y-68824165D01*
X135476868Y-68824165D01*
G37*
G36*
X158592200Y-69796500D02*
G01*
X157290200Y-69796500D01*
X157290200Y-68694500D01*
X158592200Y-68694500D01*
X158592200Y-69796500D01*
X158592200Y-69796500D01*
G37*
G36*
X164592200Y-69796500D02*
G01*
X163690200Y-69796500D01*
X163690200Y-68694500D01*
X164592200Y-68694500D01*
X164592200Y-69796500D01*
X164592200Y-69796500D01*
G37*
G36*
X125939168Y-67858965D02*
G01*
X125977838Y-67870696D01*
X126013477Y-67889746D01*
X126044717Y-67915383D01*
X126070354Y-67946623D01*
X126089404Y-67982262D01*
X126101135Y-68020932D01*
X126105700Y-68067288D01*
X126105700Y-69143512D01*
X126101135Y-69189868D01*
X126089404Y-69228538D01*
X126070354Y-69264177D01*
X126044717Y-69295417D01*
X126013477Y-69321054D01*
X125977838Y-69340104D01*
X125939168Y-69351835D01*
X125892812Y-69356400D01*
X125241588Y-69356400D01*
X125195232Y-69351835D01*
X125156562Y-69340104D01*
X125120923Y-69321054D01*
X125089683Y-69295417D01*
X125064046Y-69264177D01*
X125044996Y-69228538D01*
X125033265Y-69189868D01*
X125028700Y-69143512D01*
X125028700Y-68067288D01*
X125033265Y-68020932D01*
X125044996Y-67982262D01*
X125064046Y-67946623D01*
X125089683Y-67915383D01*
X125120923Y-67889746D01*
X125156562Y-67870696D01*
X125195232Y-67858965D01*
X125241588Y-67854400D01*
X125892812Y-67854400D01*
X125939168Y-67858965D01*
X125939168Y-67858965D01*
G37*
G36*
X127814168Y-67858965D02*
G01*
X127852838Y-67870696D01*
X127888477Y-67889746D01*
X127919717Y-67915383D01*
X127945354Y-67946623D01*
X127964404Y-67982262D01*
X127976135Y-68020932D01*
X127980700Y-68067288D01*
X127980700Y-69143512D01*
X127976135Y-69189868D01*
X127964404Y-69228538D01*
X127945354Y-69264177D01*
X127919717Y-69295417D01*
X127888477Y-69321054D01*
X127852838Y-69340104D01*
X127814168Y-69351835D01*
X127767812Y-69356400D01*
X127116588Y-69356400D01*
X127070232Y-69351835D01*
X127031562Y-69340104D01*
X126995923Y-69321054D01*
X126964683Y-69295417D01*
X126939046Y-69264177D01*
X126919996Y-69228538D01*
X126908265Y-69189868D01*
X126903700Y-69143512D01*
X126903700Y-68067288D01*
X126908265Y-68020932D01*
X126919996Y-67982262D01*
X126939046Y-67946623D01*
X126964683Y-67915383D01*
X126995923Y-67889746D01*
X127031562Y-67870696D01*
X127070232Y-67858965D01*
X127116588Y-67854400D01*
X127767812Y-67854400D01*
X127814168Y-67858965D01*
X127814168Y-67858965D01*
G37*
G36*
X129876168Y-65509465D02*
G01*
X129914838Y-65521196D01*
X129950477Y-65540246D01*
X129981717Y-65565883D01*
X130007354Y-65597123D01*
X130026404Y-65632762D01*
X130038135Y-65671432D01*
X130042700Y-65717788D01*
X130042700Y-66794012D01*
X130038135Y-66840368D01*
X130026404Y-66879038D01*
X130007354Y-66914677D01*
X129981717Y-66945917D01*
X129950477Y-66971554D01*
X129914838Y-66990604D01*
X129875164Y-67002639D01*
X129853176Y-67007014D01*
X129830538Y-67016392D01*
X129810164Y-67030006D01*
X129792838Y-67047334D01*
X129779225Y-67067709D01*
X129769848Y-67090348D01*
X129765068Y-67114381D01*
X129765069Y-67138885D01*
X129769851Y-67162919D01*
X129779229Y-67185557D01*
X129792843Y-67205931D01*
X129810171Y-67223257D01*
X129830546Y-67236870D01*
X129853181Y-67246246D01*
X129902141Y-67261098D01*
X129937777Y-67280146D01*
X129969017Y-67305783D01*
X129994654Y-67337023D01*
X130013704Y-67372662D01*
X130025435Y-67411332D01*
X130030000Y-67457688D01*
X130030000Y-68533912D01*
X130025435Y-68580268D01*
X130013704Y-68618938D01*
X129994654Y-68654577D01*
X129969017Y-68685817D01*
X129937777Y-68711454D01*
X129902138Y-68730504D01*
X129863468Y-68742235D01*
X129817112Y-68746800D01*
X129165888Y-68746800D01*
X129119532Y-68742235D01*
X129080862Y-68730504D01*
X129045223Y-68711454D01*
X129013983Y-68685817D01*
X128988346Y-68654577D01*
X128969296Y-68618938D01*
X128957565Y-68580268D01*
X128953000Y-68533912D01*
X128953000Y-67457688D01*
X128957565Y-67411332D01*
X128969296Y-67372662D01*
X128988346Y-67337023D01*
X129013983Y-67305783D01*
X129045223Y-67280146D01*
X129080862Y-67261096D01*
X129120536Y-67249061D01*
X129142524Y-67244686D01*
X129165162Y-67235308D01*
X129185536Y-67221694D01*
X129202862Y-67204366D01*
X129216475Y-67183991D01*
X129225852Y-67161352D01*
X129230632Y-67137319D01*
X129230631Y-67112815D01*
X129225849Y-67088781D01*
X129216471Y-67066143D01*
X129202857Y-67045769D01*
X129185529Y-67028443D01*
X129165154Y-67014830D01*
X129142519Y-67005454D01*
X129093559Y-66990602D01*
X129057923Y-66971554D01*
X129026683Y-66945917D01*
X129001046Y-66914677D01*
X128981996Y-66879038D01*
X128970265Y-66840368D01*
X128965700Y-66794012D01*
X128965700Y-65717788D01*
X128970265Y-65671432D01*
X128981996Y-65632762D01*
X129001046Y-65597123D01*
X129026683Y-65565883D01*
X129057923Y-65540246D01*
X129093562Y-65521196D01*
X129132232Y-65509465D01*
X129178588Y-65504900D01*
X129829812Y-65504900D01*
X129876168Y-65509465D01*
X129876168Y-65509465D01*
G37*
G36*
X131751168Y-65509465D02*
G01*
X131789838Y-65521196D01*
X131825477Y-65540246D01*
X131856717Y-65565883D01*
X131882354Y-65597123D01*
X131901404Y-65632762D01*
X131913135Y-65671432D01*
X131917700Y-65717788D01*
X131917700Y-66794012D01*
X131913135Y-66840368D01*
X131901404Y-66879038D01*
X131882354Y-66914677D01*
X131856717Y-66945917D01*
X131825477Y-66971554D01*
X131789838Y-66990604D01*
X131750164Y-67002639D01*
X131728176Y-67007014D01*
X131705538Y-67016392D01*
X131685164Y-67030006D01*
X131667838Y-67047334D01*
X131654225Y-67067709D01*
X131644848Y-67090348D01*
X131640068Y-67114381D01*
X131640069Y-67138885D01*
X131644851Y-67162919D01*
X131654229Y-67185557D01*
X131667843Y-67205931D01*
X131685171Y-67223257D01*
X131705546Y-67236870D01*
X131728181Y-67246246D01*
X131777141Y-67261098D01*
X131812777Y-67280146D01*
X131844017Y-67305783D01*
X131869654Y-67337023D01*
X131888704Y-67372662D01*
X131900435Y-67411332D01*
X131905000Y-67457688D01*
X131905000Y-68533912D01*
X131900435Y-68580268D01*
X131888704Y-68618938D01*
X131869654Y-68654577D01*
X131844017Y-68685817D01*
X131812777Y-68711454D01*
X131777138Y-68730504D01*
X131738468Y-68742235D01*
X131692112Y-68746800D01*
X131040888Y-68746800D01*
X130994532Y-68742235D01*
X130955862Y-68730504D01*
X130920223Y-68711454D01*
X130888983Y-68685817D01*
X130863346Y-68654577D01*
X130844296Y-68618938D01*
X130832565Y-68580268D01*
X130828000Y-68533912D01*
X130828000Y-67457688D01*
X130832565Y-67411332D01*
X130844296Y-67372662D01*
X130863346Y-67337023D01*
X130888983Y-67305783D01*
X130920223Y-67280146D01*
X130955862Y-67261096D01*
X130995536Y-67249061D01*
X131017524Y-67244686D01*
X131040162Y-67235308D01*
X131060536Y-67221694D01*
X131077862Y-67204366D01*
X131091475Y-67183991D01*
X131100852Y-67161352D01*
X131105632Y-67137319D01*
X131105631Y-67112815D01*
X131100849Y-67088781D01*
X131091471Y-67066143D01*
X131077857Y-67045769D01*
X131060529Y-67028443D01*
X131040154Y-67014830D01*
X131017519Y-67005454D01*
X130968559Y-66990602D01*
X130932923Y-66971554D01*
X130901683Y-66945917D01*
X130876046Y-66914677D01*
X130856996Y-66879038D01*
X130845265Y-66840368D01*
X130840700Y-66794012D01*
X130840700Y-65717788D01*
X130845265Y-65671432D01*
X130856996Y-65632762D01*
X130876046Y-65597123D01*
X130901683Y-65565883D01*
X130932923Y-65540246D01*
X130968562Y-65521196D01*
X131007232Y-65509465D01*
X131053588Y-65504900D01*
X131704812Y-65504900D01*
X131751168Y-65509465D01*
X131751168Y-65509465D01*
G37*
G36*
X154292200Y-68696500D02*
G01*
X152990200Y-68696500D01*
X152990200Y-66944500D01*
X154292200Y-66944500D01*
X154292200Y-68696500D01*
X154292200Y-68696500D01*
G37*
G36*
X139299568Y-66868365D02*
G01*
X139338238Y-66880096D01*
X139373877Y-66899146D01*
X139405117Y-66924783D01*
X139430754Y-66956023D01*
X139449804Y-66991662D01*
X139461535Y-67030332D01*
X139466100Y-67076688D01*
X139466100Y-68152912D01*
X139461535Y-68199268D01*
X139449804Y-68237938D01*
X139430754Y-68273577D01*
X139405117Y-68304817D01*
X139373877Y-68330454D01*
X139338238Y-68349504D01*
X139299568Y-68361235D01*
X139253212Y-68365800D01*
X138601988Y-68365800D01*
X138555632Y-68361235D01*
X138516962Y-68349504D01*
X138481323Y-68330454D01*
X138450083Y-68304817D01*
X138424446Y-68273577D01*
X138405396Y-68237938D01*
X138393665Y-68199268D01*
X138389100Y-68152912D01*
X138389100Y-67076688D01*
X138393665Y-67030332D01*
X138405396Y-66991662D01*
X138424446Y-66956023D01*
X138450083Y-66924783D01*
X138481323Y-66899146D01*
X138516962Y-66880096D01*
X138555632Y-66868365D01*
X138601988Y-66863800D01*
X139253212Y-66863800D01*
X139299568Y-66868365D01*
X139299568Y-66868365D01*
G37*
G36*
X141174568Y-66868365D02*
G01*
X141213238Y-66880096D01*
X141248877Y-66899146D01*
X141280117Y-66924783D01*
X141305754Y-66956023D01*
X141324804Y-66991662D01*
X141336535Y-67030332D01*
X141341100Y-67076688D01*
X141341100Y-68152912D01*
X141336535Y-68199268D01*
X141324804Y-68237938D01*
X141305754Y-68273577D01*
X141280117Y-68304817D01*
X141248877Y-68330454D01*
X141213238Y-68349504D01*
X141174568Y-68361235D01*
X141128212Y-68365800D01*
X140476988Y-68365800D01*
X140430632Y-68361235D01*
X140391962Y-68349504D01*
X140356323Y-68330454D01*
X140325083Y-68304817D01*
X140299446Y-68273577D01*
X140280396Y-68237938D01*
X140268665Y-68199268D01*
X140264100Y-68152912D01*
X140264100Y-67076688D01*
X140268665Y-67030332D01*
X140280396Y-66991662D01*
X140299446Y-66956023D01*
X140325083Y-66924783D01*
X140356323Y-66899146D01*
X140391962Y-66880096D01*
X140430632Y-66868365D01*
X140476988Y-66863800D01*
X141128212Y-66863800D01*
X141174568Y-66868365D01*
X141174568Y-66868365D01*
G37*
G36*
X151587468Y-66943465D02*
G01*
X151626138Y-66955196D01*
X151661777Y-66974246D01*
X151693017Y-66999883D01*
X151718654Y-67031123D01*
X151737704Y-67066762D01*
X151749435Y-67105432D01*
X151754000Y-67151788D01*
X151754000Y-67803012D01*
X151749435Y-67849368D01*
X151737704Y-67888038D01*
X151718654Y-67923677D01*
X151693017Y-67954917D01*
X151661777Y-67980554D01*
X151626138Y-67999604D01*
X151587468Y-68011335D01*
X151541112Y-68015900D01*
X150464888Y-68015900D01*
X150418532Y-68011335D01*
X150379862Y-67999604D01*
X150344223Y-67980554D01*
X150312983Y-67954917D01*
X150287346Y-67923677D01*
X150268296Y-67888038D01*
X150256565Y-67849368D01*
X150252000Y-67803012D01*
X150252000Y-67151788D01*
X150256565Y-67105432D01*
X150268296Y-67066762D01*
X150287346Y-67031123D01*
X150312983Y-66999883D01*
X150344223Y-66974246D01*
X150379862Y-66955196D01*
X150418532Y-66943465D01*
X150464888Y-66938900D01*
X151541112Y-66938900D01*
X151587468Y-66943465D01*
X151587468Y-66943465D01*
G37*
G36*
X147958428Y-66436565D02*
G01*
X147997098Y-66448296D01*
X148032737Y-66467346D01*
X148063977Y-66492983D01*
X148089614Y-66524223D01*
X148108664Y-66559862D01*
X148120395Y-66598532D01*
X148124960Y-66644888D01*
X148124960Y-67721112D01*
X148120395Y-67767468D01*
X148108664Y-67806138D01*
X148089614Y-67841777D01*
X148063977Y-67873017D01*
X148032737Y-67898654D01*
X147997098Y-67917704D01*
X147958428Y-67929435D01*
X147912072Y-67934000D01*
X147260848Y-67934000D01*
X147214492Y-67929435D01*
X147175822Y-67917704D01*
X147140183Y-67898654D01*
X147108943Y-67873017D01*
X147083306Y-67841777D01*
X147064256Y-67806138D01*
X147052525Y-67767468D01*
X147047960Y-67721112D01*
X147047960Y-66644888D01*
X147052525Y-66598532D01*
X147064256Y-66559862D01*
X147083306Y-66524223D01*
X147108943Y-66492983D01*
X147140183Y-66467346D01*
X147175822Y-66448296D01*
X147214492Y-66436565D01*
X147260848Y-66432000D01*
X147912072Y-66432000D01*
X147958428Y-66436565D01*
X147958428Y-66436565D01*
G37*
G36*
X149833428Y-66436565D02*
G01*
X149872098Y-66448296D01*
X149907737Y-66467346D01*
X149938977Y-66492983D01*
X149964614Y-66524223D01*
X149983664Y-66559862D01*
X149995395Y-66598532D01*
X149999960Y-66644888D01*
X149999960Y-67721112D01*
X149995395Y-67767468D01*
X149983664Y-67806138D01*
X149964614Y-67841777D01*
X149938977Y-67873017D01*
X149907737Y-67898654D01*
X149872098Y-67917704D01*
X149833428Y-67929435D01*
X149787072Y-67934000D01*
X149135848Y-67934000D01*
X149089492Y-67929435D01*
X149050822Y-67917704D01*
X149015183Y-67898654D01*
X148983943Y-67873017D01*
X148958306Y-67841777D01*
X148939256Y-67806138D01*
X148927525Y-67767468D01*
X148922960Y-67721112D01*
X148922960Y-66644888D01*
X148927525Y-66598532D01*
X148939256Y-66559862D01*
X148958306Y-66524223D01*
X148983943Y-66492983D01*
X149015183Y-66467346D01*
X149050822Y-66448296D01*
X149089492Y-66436565D01*
X149135848Y-66432000D01*
X149787072Y-66432000D01*
X149833428Y-66436565D01*
X149833428Y-66436565D01*
G37*
G36*
X123913900Y-67455155D02*
G01*
X120611900Y-67455155D01*
X120611900Y-66053155D01*
X123913900Y-66053155D01*
X123913900Y-67455155D01*
X123913900Y-67455155D01*
G37*
G36*
X154292200Y-66646500D02*
G01*
X152990200Y-66646500D01*
X152990200Y-65844500D01*
X154292200Y-65844500D01*
X154292200Y-66646500D01*
X154292200Y-66646500D01*
G37*
G36*
X147958428Y-64683965D02*
G01*
X147997098Y-64695696D01*
X148032737Y-64714746D01*
X148063977Y-64740383D01*
X148089614Y-64771623D01*
X148108664Y-64807262D01*
X148120395Y-64845932D01*
X148124960Y-64892288D01*
X148124960Y-65968512D01*
X148120395Y-66014868D01*
X148108664Y-66053538D01*
X148089614Y-66089177D01*
X148063977Y-66120417D01*
X148032737Y-66146054D01*
X147997098Y-66165104D01*
X147958428Y-66176835D01*
X147912072Y-66181400D01*
X147260848Y-66181400D01*
X147214492Y-66176835D01*
X147175822Y-66165104D01*
X147140183Y-66146054D01*
X147108943Y-66120417D01*
X147083306Y-66089177D01*
X147064256Y-66053538D01*
X147052525Y-66014868D01*
X147047960Y-65968512D01*
X147047960Y-64892288D01*
X147052525Y-64845932D01*
X147064256Y-64807262D01*
X147083306Y-64771623D01*
X147108943Y-64740383D01*
X147140183Y-64714746D01*
X147175822Y-64695696D01*
X147214492Y-64683965D01*
X147260848Y-64679400D01*
X147912072Y-64679400D01*
X147958428Y-64683965D01*
X147958428Y-64683965D01*
G37*
G36*
X149833428Y-64683965D02*
G01*
X149872098Y-64695696D01*
X149907737Y-64714746D01*
X149938977Y-64740383D01*
X149964614Y-64771623D01*
X149983664Y-64807262D01*
X149995395Y-64845932D01*
X149999960Y-64892288D01*
X149999960Y-65968512D01*
X149995395Y-66014868D01*
X149983664Y-66053538D01*
X149964614Y-66089177D01*
X149938977Y-66120417D01*
X149907737Y-66146054D01*
X149872098Y-66165104D01*
X149833428Y-66176835D01*
X149787072Y-66181400D01*
X149135848Y-66181400D01*
X149089492Y-66176835D01*
X149050822Y-66165104D01*
X149015183Y-66146054D01*
X148983943Y-66120417D01*
X148958306Y-66089177D01*
X148939256Y-66053538D01*
X148927525Y-66014868D01*
X148922960Y-65968512D01*
X148922960Y-64892288D01*
X148927525Y-64845932D01*
X148939256Y-64807262D01*
X148958306Y-64771623D01*
X148983943Y-64740383D01*
X149015183Y-64714746D01*
X149050822Y-64695696D01*
X149089492Y-64683965D01*
X149135848Y-64679400D01*
X149787072Y-64679400D01*
X149833428Y-64683965D01*
X149833428Y-64683965D01*
G37*
G36*
X139089900Y-63317301D02*
G01*
X139092302Y-63341687D01*
X139099415Y-63365136D01*
X139110966Y-63386747D01*
X139126511Y-63405689D01*
X139145453Y-63421234D01*
X139167064Y-63432785D01*
X139190513Y-63439898D01*
X139214899Y-63442300D01*
X139239285Y-63439898D01*
X139262734Y-63432785D01*
X139284345Y-63421234D01*
X139303281Y-63405694D01*
X139351294Y-63357681D01*
X139366834Y-63338745D01*
X139378385Y-63317134D01*
X139385498Y-63293685D01*
X139385743Y-63291200D01*
X140362901Y-63291200D01*
X140387287Y-63288798D01*
X140410736Y-63281685D01*
X140432347Y-63270134D01*
X140451289Y-63254589D01*
X140466834Y-63235647D01*
X140478385Y-63214036D01*
X140485498Y-63190587D01*
X140487900Y-63166201D01*
X140487900Y-63141200D01*
X141189900Y-63141200D01*
X141189900Y-66043200D01*
X140487900Y-66043200D01*
X140487900Y-66018199D01*
X140485498Y-65993813D01*
X140478385Y-65970364D01*
X140466834Y-65948753D01*
X140451289Y-65929811D01*
X140432347Y-65914266D01*
X140410736Y-65902715D01*
X140387287Y-65895602D01*
X140362901Y-65893200D01*
X139214899Y-65893200D01*
X139190513Y-65895602D01*
X139167064Y-65902715D01*
X139145453Y-65914266D01*
X139126511Y-65929811D01*
X139110966Y-65948753D01*
X139099415Y-65970364D01*
X139092302Y-65993813D01*
X139089900Y-66018199D01*
X139089900Y-66043200D01*
X138387900Y-66043200D01*
X138387900Y-63141200D01*
X139089900Y-63141200D01*
X139089900Y-63317301D01*
X139089900Y-63317301D01*
G37*
G36*
X127788768Y-64442665D02*
G01*
X127827438Y-64454396D01*
X127863077Y-64473446D01*
X127894317Y-64499083D01*
X127919954Y-64530323D01*
X127939004Y-64565962D01*
X127950735Y-64604632D01*
X127955300Y-64650988D01*
X127955300Y-65727212D01*
X127950735Y-65773568D01*
X127939004Y-65812238D01*
X127919954Y-65847877D01*
X127894317Y-65879117D01*
X127863077Y-65904754D01*
X127827438Y-65923804D01*
X127788768Y-65935535D01*
X127742412Y-65940100D01*
X127091188Y-65940100D01*
X127044832Y-65935535D01*
X127006162Y-65923804D01*
X126970523Y-65904754D01*
X126939283Y-65879117D01*
X126913646Y-65847877D01*
X126894596Y-65812238D01*
X126882865Y-65773568D01*
X126878300Y-65727212D01*
X126878300Y-64650988D01*
X126882865Y-64604632D01*
X126894596Y-64565962D01*
X126913646Y-64530323D01*
X126939283Y-64499083D01*
X126970523Y-64473446D01*
X127006162Y-64454396D01*
X127044832Y-64442665D01*
X127091188Y-64438100D01*
X127742412Y-64438100D01*
X127788768Y-64442665D01*
X127788768Y-64442665D01*
G37*
G36*
X125913768Y-64442665D02*
G01*
X125952438Y-64454396D01*
X125988077Y-64473446D01*
X126019317Y-64499083D01*
X126044954Y-64530323D01*
X126064004Y-64565962D01*
X126075735Y-64604632D01*
X126080300Y-64650988D01*
X126080300Y-65727212D01*
X126075735Y-65773568D01*
X126064004Y-65812238D01*
X126044954Y-65847877D01*
X126019317Y-65879117D01*
X125988077Y-65904754D01*
X125952438Y-65923804D01*
X125913768Y-65935535D01*
X125867412Y-65940100D01*
X125216188Y-65940100D01*
X125169832Y-65935535D01*
X125131162Y-65923804D01*
X125095523Y-65904754D01*
X125064283Y-65879117D01*
X125038646Y-65847877D01*
X125019596Y-65812238D01*
X125007865Y-65773568D01*
X125003300Y-65727212D01*
X125003300Y-64650988D01*
X125007865Y-64604632D01*
X125019596Y-64565962D01*
X125038646Y-64530323D01*
X125064283Y-64499083D01*
X125095523Y-64473446D01*
X125131162Y-64454396D01*
X125169832Y-64442665D01*
X125216188Y-64438100D01*
X125867412Y-64438100D01*
X125913768Y-64442665D01*
X125913768Y-64442665D01*
G37*
G36*
X154292200Y-65546500D02*
G01*
X152990200Y-65546500D01*
X152990200Y-64744500D01*
X154292200Y-64744500D01*
X154292200Y-65546500D01*
X154292200Y-65546500D01*
G37*
G36*
X131588001Y-60099770D02*
G01*
X131630607Y-60112694D01*
X131669861Y-60133676D01*
X131669864Y-60133678D01*
X131669865Y-60133679D01*
X131704279Y-60161921D01*
X131732521Y-60196334D01*
X131732524Y-60196338D01*
X131753506Y-60235592D01*
X131766430Y-60278198D01*
X131769700Y-60311400D01*
X131769700Y-60783600D01*
X131766430Y-60816802D01*
X131753506Y-60859408D01*
X131728584Y-60906032D01*
X131724217Y-60912567D01*
X131714838Y-60935205D01*
X131710055Y-60959238D01*
X131710053Y-60983742D01*
X131714831Y-61007775D01*
X131724206Y-61030415D01*
X131737818Y-61050791D01*
X131755144Y-61068119D01*
X131775517Y-61081735D01*
X131798155Y-61091114D01*
X131822188Y-61095897D01*
X131834451Y-61096500D01*
X132019700Y-61096500D01*
X132019700Y-61281749D01*
X132022102Y-61306135D01*
X132029215Y-61329584D01*
X132040766Y-61351195D01*
X132056311Y-61370137D01*
X132075253Y-61385682D01*
X132096864Y-61397233D01*
X132120313Y-61404346D01*
X132144699Y-61406748D01*
X132169085Y-61404346D01*
X132192534Y-61397233D01*
X132214145Y-61385682D01*
X132215073Y-61384994D01*
X132256792Y-61362694D01*
X132299398Y-61349770D01*
X132332600Y-61346500D01*
X132804800Y-61346500D01*
X132838002Y-61349770D01*
X132880608Y-61362694D01*
X132919862Y-61383676D01*
X132919865Y-61383678D01*
X132919866Y-61383679D01*
X132954279Y-61411921D01*
X132981016Y-61444500D01*
X132982524Y-61446338D01*
X133003506Y-61485592D01*
X133016430Y-61528198D01*
X133020793Y-61572500D01*
X133016430Y-61616802D01*
X133003506Y-61659408D01*
X132982524Y-61698662D01*
X132982522Y-61698665D01*
X132982521Y-61698666D01*
X132954279Y-61733079D01*
X132921468Y-61760006D01*
X132919862Y-61761324D01*
X132871337Y-61787261D01*
X132850962Y-61800874D01*
X132833635Y-61818201D01*
X132820022Y-61838576D01*
X132810644Y-61861215D01*
X132805864Y-61885248D01*
X132805864Y-61909752D01*
X132810644Y-61933785D01*
X132820022Y-61956424D01*
X132833635Y-61976799D01*
X132850962Y-61994126D01*
X132871337Y-62007739D01*
X132919862Y-62033676D01*
X132919865Y-62033678D01*
X132919866Y-62033679D01*
X132954279Y-62061921D01*
X132982521Y-62096334D01*
X132982524Y-62096338D01*
X133003506Y-62135592D01*
X133016430Y-62178198D01*
X133020793Y-62222500D01*
X133016430Y-62266802D01*
X133003506Y-62309408D01*
X132982524Y-62348662D01*
X132982522Y-62348665D01*
X132982521Y-62348666D01*
X132954279Y-62383079D01*
X132921468Y-62410006D01*
X132919862Y-62411324D01*
X132871337Y-62437261D01*
X132850962Y-62450874D01*
X132833635Y-62468201D01*
X132820022Y-62488576D01*
X132810644Y-62511215D01*
X132805864Y-62535248D01*
X132805864Y-62559752D01*
X132810644Y-62583785D01*
X132820022Y-62606424D01*
X132833635Y-62626799D01*
X132850962Y-62644126D01*
X132871337Y-62657739D01*
X132919862Y-62683676D01*
X132919865Y-62683678D01*
X132919866Y-62683679D01*
X132954279Y-62711921D01*
X132982521Y-62746334D01*
X132982524Y-62746338D01*
X133003506Y-62785592D01*
X133016430Y-62828198D01*
X133020793Y-62872500D01*
X133016430Y-62916802D01*
X133003506Y-62959408D01*
X132982524Y-62998662D01*
X132982522Y-62998665D01*
X132982521Y-62998666D01*
X132954279Y-63033079D01*
X132921468Y-63060006D01*
X132919862Y-63061324D01*
X132871337Y-63087261D01*
X132850962Y-63100874D01*
X132833635Y-63118201D01*
X132820022Y-63138576D01*
X132810644Y-63161215D01*
X132805864Y-63185248D01*
X132805864Y-63209752D01*
X132810644Y-63233785D01*
X132820022Y-63256424D01*
X132833635Y-63276799D01*
X132850962Y-63294126D01*
X132871337Y-63307739D01*
X132919862Y-63333676D01*
X132919865Y-63333678D01*
X132919866Y-63333679D01*
X132954279Y-63361921D01*
X132982521Y-63396334D01*
X132982524Y-63396338D01*
X133003506Y-63435592D01*
X133016430Y-63478198D01*
X133020793Y-63522500D01*
X133016430Y-63566802D01*
X133003506Y-63609408D01*
X132982524Y-63648662D01*
X132982522Y-63648665D01*
X132982521Y-63648666D01*
X132954279Y-63683079D01*
X132921468Y-63710006D01*
X132919862Y-63711324D01*
X132880608Y-63732306D01*
X132838002Y-63745230D01*
X132804800Y-63748500D01*
X132332600Y-63748500D01*
X132299398Y-63745230D01*
X132256792Y-63732306D01*
X132210168Y-63707384D01*
X132203633Y-63703017D01*
X132180995Y-63693638D01*
X132156962Y-63688855D01*
X132132458Y-63688853D01*
X132108425Y-63693631D01*
X132085785Y-63703006D01*
X132065409Y-63716618D01*
X132048081Y-63733944D01*
X132034465Y-63754317D01*
X132025086Y-63776955D01*
X132020303Y-63800988D01*
X132019700Y-63813251D01*
X132019700Y-63998500D01*
X131834451Y-63998500D01*
X131810065Y-64000902D01*
X131786616Y-64008015D01*
X131765005Y-64019566D01*
X131746063Y-64035111D01*
X131730518Y-64054053D01*
X131718967Y-64075664D01*
X131711854Y-64099113D01*
X131709452Y-64123499D01*
X131711854Y-64147885D01*
X131718967Y-64171334D01*
X131730518Y-64192945D01*
X131731206Y-64193873D01*
X131753506Y-64235592D01*
X131766430Y-64278198D01*
X131769700Y-64311400D01*
X131769700Y-64783600D01*
X131766430Y-64816802D01*
X131753506Y-64859408D01*
X131732524Y-64898662D01*
X131732522Y-64898664D01*
X131732521Y-64898666D01*
X131704279Y-64933079D01*
X131669866Y-64961321D01*
X131669862Y-64961324D01*
X131630608Y-64982306D01*
X131588002Y-64995230D01*
X131543700Y-64999593D01*
X131499399Y-64995230D01*
X131456793Y-64982306D01*
X131417539Y-64961324D01*
X131417535Y-64961321D01*
X131383122Y-64933079D01*
X131354880Y-64898666D01*
X131333894Y-64859405D01*
X131333893Y-64859402D01*
X131328941Y-64850137D01*
X131315327Y-64829762D01*
X131298000Y-64812435D01*
X131277626Y-64798821D01*
X131254987Y-64789444D01*
X131230954Y-64784663D01*
X131206450Y-64784663D01*
X131182417Y-64789443D01*
X131159778Y-64798820D01*
X131139403Y-64812434D01*
X131122076Y-64829761D01*
X131108462Y-64850135D01*
X131082523Y-64898664D01*
X131082521Y-64898666D01*
X131054279Y-64933079D01*
X131019866Y-64961321D01*
X131019862Y-64961324D01*
X130980608Y-64982306D01*
X130938002Y-64995230D01*
X130893700Y-64999593D01*
X130849399Y-64995230D01*
X130806793Y-64982306D01*
X130767539Y-64961324D01*
X130767535Y-64961321D01*
X130733122Y-64933079D01*
X130704880Y-64898666D01*
X130683894Y-64859405D01*
X130683893Y-64859402D01*
X130678941Y-64850137D01*
X130665327Y-64829762D01*
X130648000Y-64812435D01*
X130627626Y-64798821D01*
X130604987Y-64789444D01*
X130580954Y-64784663D01*
X130556450Y-64784663D01*
X130532417Y-64789443D01*
X130509778Y-64798820D01*
X130489403Y-64812434D01*
X130472076Y-64829761D01*
X130458462Y-64850135D01*
X130432523Y-64898664D01*
X130432521Y-64898666D01*
X130404279Y-64933079D01*
X130369866Y-64961321D01*
X130369862Y-64961324D01*
X130330608Y-64982306D01*
X130288002Y-64995230D01*
X130243700Y-64999593D01*
X130199399Y-64995230D01*
X130156793Y-64982306D01*
X130117539Y-64961324D01*
X130117535Y-64961321D01*
X130083122Y-64933079D01*
X130054880Y-64898666D01*
X130033894Y-64859405D01*
X130033893Y-64859402D01*
X130028941Y-64850137D01*
X130015327Y-64829762D01*
X129998000Y-64812435D01*
X129977626Y-64798821D01*
X129954987Y-64789444D01*
X129930954Y-64784663D01*
X129906450Y-64784663D01*
X129882417Y-64789443D01*
X129859778Y-64798820D01*
X129839403Y-64812434D01*
X129822076Y-64829761D01*
X129808462Y-64850135D01*
X129782523Y-64898664D01*
X129782521Y-64898666D01*
X129754279Y-64933079D01*
X129719866Y-64961321D01*
X129719862Y-64961324D01*
X129680608Y-64982306D01*
X129638002Y-64995230D01*
X129593700Y-64999593D01*
X129549399Y-64995230D01*
X129506793Y-64982306D01*
X129467539Y-64961324D01*
X129467535Y-64961321D01*
X129433122Y-64933079D01*
X129404880Y-64898666D01*
X129404879Y-64898664D01*
X129404877Y-64898662D01*
X129383895Y-64859408D01*
X129370971Y-64816802D01*
X129367700Y-64783597D01*
X129367700Y-64311401D01*
X129370970Y-64278199D01*
X129383894Y-64235593D01*
X129408821Y-64188959D01*
X129413192Y-64182416D01*
X129422568Y-64159776D01*
X129427347Y-64135742D01*
X129427347Y-64123499D01*
X129759452Y-64123499D01*
X129761854Y-64147885D01*
X129768967Y-64171334D01*
X129780518Y-64192945D01*
X129781206Y-64193872D01*
X129808461Y-64244863D01*
X129822074Y-64265238D01*
X129839401Y-64282565D01*
X129859776Y-64296178D01*
X129882415Y-64305556D01*
X129906448Y-64310336D01*
X129930952Y-64310336D01*
X129954985Y-64305556D01*
X129977624Y-64296178D01*
X129997999Y-64282565D01*
X130015326Y-64265238D01*
X130028939Y-64244864D01*
X130058824Y-64188955D01*
X130063192Y-64182416D01*
X130072568Y-64159776D01*
X130077347Y-64135742D01*
X130077347Y-64123499D01*
X130409452Y-64123499D01*
X130411854Y-64147885D01*
X130418967Y-64171334D01*
X130430518Y-64192945D01*
X130431206Y-64193872D01*
X130458461Y-64244863D01*
X130472074Y-64265238D01*
X130489401Y-64282565D01*
X130509776Y-64296178D01*
X130532415Y-64305556D01*
X130556448Y-64310336D01*
X130580952Y-64310336D01*
X130604985Y-64305556D01*
X130627624Y-64296178D01*
X130647999Y-64282565D01*
X130665326Y-64265238D01*
X130678939Y-64244864D01*
X130708824Y-64188955D01*
X130713192Y-64182416D01*
X130722568Y-64159776D01*
X130727347Y-64135742D01*
X130727347Y-64123499D01*
X131059452Y-64123499D01*
X131061854Y-64147885D01*
X131068967Y-64171334D01*
X131080518Y-64192945D01*
X131081206Y-64193872D01*
X131108461Y-64244863D01*
X131122074Y-64265238D01*
X131139401Y-64282565D01*
X131159776Y-64296178D01*
X131182415Y-64305556D01*
X131206448Y-64310336D01*
X131230952Y-64310336D01*
X131254985Y-64305556D01*
X131277624Y-64296178D01*
X131297999Y-64282565D01*
X131315326Y-64265238D01*
X131328939Y-64244864D01*
X131358824Y-64188955D01*
X131363192Y-64182416D01*
X131372568Y-64159776D01*
X131377347Y-64135742D01*
X131377345Y-64111238D01*
X131372563Y-64087205D01*
X131363184Y-64064567D01*
X131349569Y-64044194D01*
X131332241Y-64026868D01*
X131311866Y-64013256D01*
X131289226Y-64003880D01*
X131252949Y-63998500D01*
X131184451Y-63998500D01*
X131160065Y-64000902D01*
X131136616Y-64008015D01*
X131115005Y-64019566D01*
X131096063Y-64035111D01*
X131080518Y-64054053D01*
X131068967Y-64075664D01*
X131061854Y-64099113D01*
X131059452Y-64123499D01*
X130727347Y-64123499D01*
X130727345Y-64111238D01*
X130722563Y-64087205D01*
X130713184Y-64064567D01*
X130699569Y-64044194D01*
X130682241Y-64026868D01*
X130661866Y-64013256D01*
X130639226Y-64003880D01*
X130602949Y-63998500D01*
X130534451Y-63998500D01*
X130510065Y-64000902D01*
X130486616Y-64008015D01*
X130465005Y-64019566D01*
X130446063Y-64035111D01*
X130430518Y-64054053D01*
X130418967Y-64075664D01*
X130411854Y-64099113D01*
X130409452Y-64123499D01*
X130077347Y-64123499D01*
X130077345Y-64111238D01*
X130072563Y-64087205D01*
X130063184Y-64064567D01*
X130049569Y-64044194D01*
X130032241Y-64026868D01*
X130011866Y-64013256D01*
X129989226Y-64003880D01*
X129952949Y-63998500D01*
X129884451Y-63998500D01*
X129860065Y-64000902D01*
X129836616Y-64008015D01*
X129815005Y-64019566D01*
X129796063Y-64035111D01*
X129780518Y-64054053D01*
X129768967Y-64075664D01*
X129761854Y-64099113D01*
X129759452Y-64123499D01*
X129427347Y-64123499D01*
X129427345Y-64111238D01*
X129422563Y-64087205D01*
X129413184Y-64064567D01*
X129399569Y-64044194D01*
X129382241Y-64026868D01*
X129361866Y-64013256D01*
X129339226Y-64003880D01*
X129302949Y-63998500D01*
X129117700Y-63998500D01*
X129117700Y-63813251D01*
X129115298Y-63788865D01*
X129108185Y-63765416D01*
X129096634Y-63743805D01*
X129081089Y-63724863D01*
X129062147Y-63709318D01*
X129040536Y-63697767D01*
X129017087Y-63690654D01*
X128992701Y-63688252D01*
X128968315Y-63690654D01*
X128944866Y-63697767D01*
X128923255Y-63709318D01*
X128922327Y-63710006D01*
X128880608Y-63732306D01*
X128838002Y-63745230D01*
X128804800Y-63748500D01*
X128332600Y-63748500D01*
X128299398Y-63745230D01*
X128256792Y-63732306D01*
X128217538Y-63711324D01*
X128215932Y-63710006D01*
X128183121Y-63683079D01*
X128154879Y-63648666D01*
X128154878Y-63648665D01*
X128154876Y-63648662D01*
X128133894Y-63609408D01*
X128120970Y-63566802D01*
X128116607Y-63522500D01*
X128120970Y-63478198D01*
X128133894Y-63435592D01*
X128154876Y-63396338D01*
X128154879Y-63396334D01*
X128183121Y-63361921D01*
X128217534Y-63333679D01*
X128217535Y-63333678D01*
X128217538Y-63333676D01*
X128266063Y-63307739D01*
X128286438Y-63294126D01*
X128303765Y-63276799D01*
X128317378Y-63256424D01*
X128326756Y-63233785D01*
X128331536Y-63209752D01*
X128331536Y-63185248D01*
X128805864Y-63185248D01*
X128805864Y-63209752D01*
X128810644Y-63233785D01*
X128820022Y-63256424D01*
X128833635Y-63276799D01*
X128850962Y-63294126D01*
X128871337Y-63307739D01*
X128927232Y-63337616D01*
X128933767Y-63341983D01*
X128956405Y-63351362D01*
X128980438Y-63356145D01*
X129004942Y-63356147D01*
X129028975Y-63351369D01*
X129051615Y-63341994D01*
X129071991Y-63328382D01*
X129089319Y-63311056D01*
X129102935Y-63290683D01*
X129112314Y-63268045D01*
X129117097Y-63244012D01*
X129117700Y-63231749D01*
X129117700Y-63163251D01*
X132019700Y-63163251D01*
X132019700Y-63231749D01*
X132022102Y-63256135D01*
X132029215Y-63279584D01*
X132040766Y-63301195D01*
X132056311Y-63320137D01*
X132075253Y-63335682D01*
X132096864Y-63347233D01*
X132120313Y-63354346D01*
X132144699Y-63356748D01*
X132169085Y-63354346D01*
X132192534Y-63347233D01*
X132214145Y-63335682D01*
X132215072Y-63334994D01*
X132266063Y-63307739D01*
X132286438Y-63294126D01*
X132303765Y-63276799D01*
X132317378Y-63256424D01*
X132326756Y-63233785D01*
X132331536Y-63209752D01*
X132331536Y-63185248D01*
X132326756Y-63161215D01*
X132317378Y-63138576D01*
X132303765Y-63118201D01*
X132286438Y-63100874D01*
X132266063Y-63087261D01*
X132210168Y-63057384D01*
X132203633Y-63053017D01*
X132180995Y-63043638D01*
X132156962Y-63038855D01*
X132132458Y-63038853D01*
X132108425Y-63043631D01*
X132085785Y-63053006D01*
X132065409Y-63066618D01*
X132048081Y-63083944D01*
X132034465Y-63104317D01*
X132025086Y-63126955D01*
X132020303Y-63150988D01*
X132019700Y-63163251D01*
X129117700Y-63163251D01*
X129115298Y-63138865D01*
X129108185Y-63115416D01*
X129096634Y-63093805D01*
X129081089Y-63074863D01*
X129062147Y-63059318D01*
X129040536Y-63047767D01*
X129017087Y-63040654D01*
X128992701Y-63038252D01*
X128968315Y-63040654D01*
X128944866Y-63047767D01*
X128923255Y-63059318D01*
X128922328Y-63060006D01*
X128871337Y-63087261D01*
X128850962Y-63100874D01*
X128833635Y-63118201D01*
X128820022Y-63138576D01*
X128810644Y-63161215D01*
X128805864Y-63185248D01*
X128331536Y-63185248D01*
X128326756Y-63161215D01*
X128317378Y-63138576D01*
X128303765Y-63118201D01*
X128286438Y-63100874D01*
X128266063Y-63087261D01*
X128217538Y-63061324D01*
X128215932Y-63060006D01*
X128183121Y-63033079D01*
X128154879Y-62998666D01*
X128154878Y-62998665D01*
X128154876Y-62998662D01*
X128133894Y-62959408D01*
X128120970Y-62916802D01*
X128116607Y-62872500D01*
X128120970Y-62828198D01*
X128133894Y-62785592D01*
X128154876Y-62746338D01*
X128154879Y-62746334D01*
X128183121Y-62711921D01*
X128217534Y-62683679D01*
X128217535Y-62683678D01*
X128217538Y-62683676D01*
X128266063Y-62657739D01*
X128286438Y-62644126D01*
X128303765Y-62626799D01*
X128317378Y-62606424D01*
X128326756Y-62583785D01*
X128331536Y-62559752D01*
X128331536Y-62535248D01*
X128805864Y-62535248D01*
X128805864Y-62559752D01*
X128810644Y-62583785D01*
X128820022Y-62606424D01*
X128833635Y-62626799D01*
X128850962Y-62644126D01*
X128871337Y-62657739D01*
X128927232Y-62687616D01*
X128933767Y-62691983D01*
X128956405Y-62701362D01*
X128980438Y-62706145D01*
X129004942Y-62706147D01*
X129028975Y-62701369D01*
X129051615Y-62691994D01*
X129071991Y-62678382D01*
X129089319Y-62661056D01*
X129102935Y-62640683D01*
X129112314Y-62618045D01*
X129117097Y-62594012D01*
X129117700Y-62581749D01*
X129117700Y-62513251D01*
X132019700Y-62513251D01*
X132019700Y-62581749D01*
X132022102Y-62606135D01*
X132029215Y-62629584D01*
X132040766Y-62651195D01*
X132056311Y-62670137D01*
X132075253Y-62685682D01*
X132096864Y-62697233D01*
X132120313Y-62704346D01*
X132144699Y-62706748D01*
X132169085Y-62704346D01*
X132192534Y-62697233D01*
X132214145Y-62685682D01*
X132215072Y-62684994D01*
X132266063Y-62657739D01*
X132286438Y-62644126D01*
X132303765Y-62626799D01*
X132317378Y-62606424D01*
X132326756Y-62583785D01*
X132331536Y-62559752D01*
X132331536Y-62535248D01*
X132326756Y-62511215D01*
X132317378Y-62488576D01*
X132303765Y-62468201D01*
X132286438Y-62450874D01*
X132266063Y-62437261D01*
X132210168Y-62407384D01*
X132203633Y-62403017D01*
X132180995Y-62393638D01*
X132156962Y-62388855D01*
X132132458Y-62388853D01*
X132108425Y-62393631D01*
X132085785Y-62403006D01*
X132065409Y-62416618D01*
X132048081Y-62433944D01*
X132034465Y-62454317D01*
X132025086Y-62476955D01*
X132020303Y-62500988D01*
X132019700Y-62513251D01*
X129117700Y-62513251D01*
X129115298Y-62488865D01*
X129108185Y-62465416D01*
X129096634Y-62443805D01*
X129081089Y-62424863D01*
X129062147Y-62409318D01*
X129040536Y-62397767D01*
X129017087Y-62390654D01*
X128992701Y-62388252D01*
X128968315Y-62390654D01*
X128944866Y-62397767D01*
X128923255Y-62409318D01*
X128922328Y-62410006D01*
X128871337Y-62437261D01*
X128850962Y-62450874D01*
X128833635Y-62468201D01*
X128820022Y-62488576D01*
X128810644Y-62511215D01*
X128805864Y-62535248D01*
X128331536Y-62535248D01*
X128326756Y-62511215D01*
X128317378Y-62488576D01*
X128303765Y-62468201D01*
X128286438Y-62450874D01*
X128266063Y-62437261D01*
X128217538Y-62411324D01*
X128215932Y-62410006D01*
X128183121Y-62383079D01*
X128154879Y-62348666D01*
X128154878Y-62348665D01*
X128154876Y-62348662D01*
X128133894Y-62309408D01*
X128120970Y-62266802D01*
X128116607Y-62222500D01*
X128120970Y-62178198D01*
X128133894Y-62135592D01*
X128154876Y-62096338D01*
X128154879Y-62096334D01*
X128183121Y-62061921D01*
X128217534Y-62033679D01*
X128217535Y-62033678D01*
X128217538Y-62033676D01*
X128266063Y-62007739D01*
X128286438Y-61994126D01*
X128303765Y-61976799D01*
X128317378Y-61956424D01*
X128326756Y-61933785D01*
X128331536Y-61909752D01*
X128331536Y-61885248D01*
X128805864Y-61885248D01*
X128805864Y-61909752D01*
X128810644Y-61933785D01*
X128820022Y-61956424D01*
X128833635Y-61976799D01*
X128850962Y-61994126D01*
X128871337Y-62007739D01*
X128927232Y-62037616D01*
X128933767Y-62041983D01*
X128956405Y-62051362D01*
X128980438Y-62056145D01*
X129004942Y-62056147D01*
X129028975Y-62051369D01*
X129051615Y-62041994D01*
X129071991Y-62028382D01*
X129089319Y-62011056D01*
X129102935Y-61990683D01*
X129112314Y-61968045D01*
X129117097Y-61944012D01*
X129117700Y-61931749D01*
X129117700Y-61863251D01*
X132019700Y-61863251D01*
X132019700Y-61931749D01*
X132022102Y-61956135D01*
X132029215Y-61979584D01*
X132040766Y-62001195D01*
X132056311Y-62020137D01*
X132075253Y-62035682D01*
X132096864Y-62047233D01*
X132120313Y-62054346D01*
X132144699Y-62056748D01*
X132169085Y-62054346D01*
X132192534Y-62047233D01*
X132214145Y-62035682D01*
X132215072Y-62034994D01*
X132266063Y-62007739D01*
X132286438Y-61994126D01*
X132303765Y-61976799D01*
X132317378Y-61956424D01*
X132326756Y-61933785D01*
X132331536Y-61909752D01*
X132331536Y-61885248D01*
X132326756Y-61861215D01*
X132317378Y-61838576D01*
X132303765Y-61818201D01*
X132286438Y-61800874D01*
X132266063Y-61787261D01*
X132210168Y-61757384D01*
X132203633Y-61753017D01*
X132180995Y-61743638D01*
X132156962Y-61738855D01*
X132132458Y-61738853D01*
X132108425Y-61743631D01*
X132085785Y-61753006D01*
X132065409Y-61766618D01*
X132048081Y-61783944D01*
X132034465Y-61804317D01*
X132025086Y-61826955D01*
X132020303Y-61850988D01*
X132019700Y-61863251D01*
X129117700Y-61863251D01*
X129115298Y-61838865D01*
X129108185Y-61815416D01*
X129096634Y-61793805D01*
X129081089Y-61774863D01*
X129062147Y-61759318D01*
X129040536Y-61747767D01*
X129017087Y-61740654D01*
X128992701Y-61738252D01*
X128968315Y-61740654D01*
X128944866Y-61747767D01*
X128923255Y-61759318D01*
X128922328Y-61760006D01*
X128871337Y-61787261D01*
X128850962Y-61800874D01*
X128833635Y-61818201D01*
X128820022Y-61838576D01*
X128810644Y-61861215D01*
X128805864Y-61885248D01*
X128331536Y-61885248D01*
X128326756Y-61861215D01*
X128317378Y-61838576D01*
X128303765Y-61818201D01*
X128286438Y-61800874D01*
X128266063Y-61787261D01*
X128217538Y-61761324D01*
X128215932Y-61760006D01*
X128183121Y-61733079D01*
X128154879Y-61698666D01*
X128154878Y-61698665D01*
X128154876Y-61698662D01*
X128133894Y-61659408D01*
X128120970Y-61616802D01*
X128116607Y-61572500D01*
X128120970Y-61528198D01*
X128133894Y-61485592D01*
X128154876Y-61446338D01*
X128156384Y-61444500D01*
X128183121Y-61411921D01*
X128217534Y-61383679D01*
X128217535Y-61383678D01*
X128217538Y-61383676D01*
X128256792Y-61362694D01*
X128299398Y-61349770D01*
X128332600Y-61346500D01*
X128804800Y-61346500D01*
X128838002Y-61349770D01*
X128880608Y-61362694D01*
X128927232Y-61387616D01*
X128933767Y-61391983D01*
X128956405Y-61401362D01*
X128980438Y-61406145D01*
X129004942Y-61406147D01*
X129028975Y-61401369D01*
X129051615Y-61391994D01*
X129071991Y-61378382D01*
X129089319Y-61361056D01*
X129102935Y-61340683D01*
X129112314Y-61318045D01*
X129117097Y-61294012D01*
X129117700Y-61281749D01*
X129117700Y-61096500D01*
X129302950Y-61096500D01*
X129327336Y-61094098D01*
X129350785Y-61086985D01*
X129372396Y-61075434D01*
X129391338Y-61059889D01*
X129406883Y-61040947D01*
X129418434Y-61019336D01*
X129425547Y-60995887D01*
X129426743Y-60983742D01*
X129760053Y-60983742D01*
X129764831Y-61007775D01*
X129774206Y-61030415D01*
X129787818Y-61050791D01*
X129805144Y-61068119D01*
X129825517Y-61081735D01*
X129848155Y-61091114D01*
X129872188Y-61095897D01*
X129884451Y-61096500D01*
X129952950Y-61096500D01*
X129977336Y-61094098D01*
X130000785Y-61086985D01*
X130022396Y-61075434D01*
X130041338Y-61059889D01*
X130056883Y-61040947D01*
X130068434Y-61019336D01*
X130075547Y-60995887D01*
X130076743Y-60983742D01*
X130410053Y-60983742D01*
X130414831Y-61007775D01*
X130424206Y-61030415D01*
X130437818Y-61050791D01*
X130455144Y-61068119D01*
X130475517Y-61081735D01*
X130498155Y-61091114D01*
X130522188Y-61095897D01*
X130534451Y-61096500D01*
X130602950Y-61096500D01*
X130627336Y-61094098D01*
X130650785Y-61086985D01*
X130672396Y-61075434D01*
X130691338Y-61059889D01*
X130706883Y-61040947D01*
X130718434Y-61019336D01*
X130725547Y-60995887D01*
X130726743Y-60983742D01*
X131060053Y-60983742D01*
X131064831Y-61007775D01*
X131074206Y-61030415D01*
X131087818Y-61050791D01*
X131105144Y-61068119D01*
X131125517Y-61081735D01*
X131148155Y-61091114D01*
X131172188Y-61095897D01*
X131184451Y-61096500D01*
X131252950Y-61096500D01*
X131277336Y-61094098D01*
X131300785Y-61086985D01*
X131322396Y-61075434D01*
X131341338Y-61059889D01*
X131356883Y-61040947D01*
X131368434Y-61019336D01*
X131375547Y-60995887D01*
X131377949Y-60971501D01*
X131375547Y-60947115D01*
X131368434Y-60923666D01*
X131356883Y-60902055D01*
X131356197Y-60901130D01*
X131333896Y-60859408D01*
X131333894Y-60859405D01*
X131333893Y-60859402D01*
X131328941Y-60850137D01*
X131315327Y-60829762D01*
X131298000Y-60812435D01*
X131277626Y-60798821D01*
X131254987Y-60789444D01*
X131230954Y-60784663D01*
X131206450Y-60784663D01*
X131182417Y-60789443D01*
X131159778Y-60798820D01*
X131139403Y-60812434D01*
X131122076Y-60829761D01*
X131108462Y-60850135D01*
X131078582Y-60906036D01*
X131074217Y-60912567D01*
X131064838Y-60935205D01*
X131060055Y-60959238D01*
X131060053Y-60983742D01*
X130726743Y-60983742D01*
X130727949Y-60971501D01*
X130725547Y-60947115D01*
X130718434Y-60923666D01*
X130706883Y-60902055D01*
X130706197Y-60901130D01*
X130683896Y-60859408D01*
X130683894Y-60859405D01*
X130683893Y-60859402D01*
X130678941Y-60850137D01*
X130665327Y-60829762D01*
X130648000Y-60812435D01*
X130627626Y-60798821D01*
X130604987Y-60789444D01*
X130580954Y-60784663D01*
X130556450Y-60784663D01*
X130532417Y-60789443D01*
X130509778Y-60798820D01*
X130489403Y-60812434D01*
X130472076Y-60829761D01*
X130458462Y-60850135D01*
X130428582Y-60906036D01*
X130424217Y-60912567D01*
X130414838Y-60935205D01*
X130410055Y-60959238D01*
X130410053Y-60983742D01*
X130076743Y-60983742D01*
X130077949Y-60971501D01*
X130075547Y-60947115D01*
X130068434Y-60923666D01*
X130056883Y-60902055D01*
X130056197Y-60901130D01*
X130033896Y-60859408D01*
X130033894Y-60859405D01*
X130033893Y-60859402D01*
X130028941Y-60850137D01*
X130015327Y-60829762D01*
X129998000Y-60812435D01*
X129977626Y-60798821D01*
X129954987Y-60789444D01*
X129930954Y-60784663D01*
X129906450Y-60784663D01*
X129882417Y-60789443D01*
X129859778Y-60798820D01*
X129839403Y-60812434D01*
X129822076Y-60829761D01*
X129808462Y-60850135D01*
X129778582Y-60906036D01*
X129774217Y-60912567D01*
X129764838Y-60935205D01*
X129760055Y-60959238D01*
X129760053Y-60983742D01*
X129426743Y-60983742D01*
X129427949Y-60971501D01*
X129425547Y-60947115D01*
X129418434Y-60923666D01*
X129406883Y-60902055D01*
X129406195Y-60901127D01*
X129383895Y-60859408D01*
X129370971Y-60816802D01*
X129367700Y-60783597D01*
X129367700Y-60311401D01*
X129370970Y-60278199D01*
X129383894Y-60235593D01*
X129404876Y-60196339D01*
X129404880Y-60196334D01*
X129433121Y-60161921D01*
X129467534Y-60133679D01*
X129467535Y-60133678D01*
X129467538Y-60133676D01*
X129506792Y-60112694D01*
X129549398Y-60099770D01*
X129593700Y-60095407D01*
X129638001Y-60099770D01*
X129680607Y-60112694D01*
X129719861Y-60133676D01*
X129719864Y-60133678D01*
X129719865Y-60133679D01*
X129754279Y-60161921D01*
X129782521Y-60196334D01*
X129782524Y-60196338D01*
X129808461Y-60244863D01*
X129822074Y-60265238D01*
X129839401Y-60282565D01*
X129859776Y-60296178D01*
X129882415Y-60305556D01*
X129906448Y-60310336D01*
X129930952Y-60310336D01*
X129954985Y-60305556D01*
X129977624Y-60296178D01*
X129997999Y-60282565D01*
X130015326Y-60265238D01*
X130028939Y-60244864D01*
X130054877Y-60196337D01*
X130062334Y-60187251D01*
X130083121Y-60161921D01*
X130117534Y-60133679D01*
X130117535Y-60133678D01*
X130117538Y-60133676D01*
X130156792Y-60112694D01*
X130199398Y-60099770D01*
X130243700Y-60095407D01*
X130288001Y-60099770D01*
X130330607Y-60112694D01*
X130369861Y-60133676D01*
X130369864Y-60133678D01*
X130369865Y-60133679D01*
X130404279Y-60161921D01*
X130432521Y-60196334D01*
X130432524Y-60196338D01*
X130458461Y-60244863D01*
X130472074Y-60265238D01*
X130489401Y-60282565D01*
X130509776Y-60296178D01*
X130532415Y-60305556D01*
X130556448Y-60310336D01*
X130580952Y-60310336D01*
X130604985Y-60305556D01*
X130627624Y-60296178D01*
X130647999Y-60282565D01*
X130665326Y-60265238D01*
X130678939Y-60244864D01*
X130704877Y-60196337D01*
X130712334Y-60187251D01*
X130733121Y-60161921D01*
X130767534Y-60133679D01*
X130767535Y-60133678D01*
X130767538Y-60133676D01*
X130806792Y-60112694D01*
X130849398Y-60099770D01*
X130893700Y-60095407D01*
X130938001Y-60099770D01*
X130980607Y-60112694D01*
X131019861Y-60133676D01*
X131019864Y-60133678D01*
X131019865Y-60133679D01*
X131054279Y-60161921D01*
X131082521Y-60196334D01*
X131082524Y-60196338D01*
X131108461Y-60244863D01*
X131122074Y-60265238D01*
X131139401Y-60282565D01*
X131159776Y-60296178D01*
X131182415Y-60305556D01*
X131206448Y-60310336D01*
X131230952Y-60310336D01*
X131254985Y-60305556D01*
X131277624Y-60296178D01*
X131297999Y-60282565D01*
X131315326Y-60265238D01*
X131328939Y-60244864D01*
X131354877Y-60196337D01*
X131362334Y-60187251D01*
X131383121Y-60161921D01*
X131417534Y-60133679D01*
X131417535Y-60133678D01*
X131417538Y-60133676D01*
X131456792Y-60112694D01*
X131499398Y-60099770D01*
X131543700Y-60095407D01*
X131588001Y-60099770D01*
X131588001Y-60099770D01*
G37*
G36*
X154292200Y-64446500D02*
G01*
X152990200Y-64446500D01*
X152990200Y-63644500D01*
X154292200Y-63644500D01*
X154292200Y-64446500D01*
X154292200Y-64446500D01*
G37*
G36*
X147958428Y-62588465D02*
G01*
X147997098Y-62600196D01*
X148032737Y-62619246D01*
X148063977Y-62644883D01*
X148089614Y-62676123D01*
X148108664Y-62711762D01*
X148120395Y-62750432D01*
X148124960Y-62796788D01*
X148124960Y-63873012D01*
X148120395Y-63919368D01*
X148108664Y-63958038D01*
X148089614Y-63993677D01*
X148063977Y-64024917D01*
X148032737Y-64050554D01*
X147997098Y-64069604D01*
X147958428Y-64081335D01*
X147912072Y-64085900D01*
X147260848Y-64085900D01*
X147214492Y-64081335D01*
X147175822Y-64069604D01*
X147140183Y-64050554D01*
X147108943Y-64024917D01*
X147083306Y-63993677D01*
X147064256Y-63958038D01*
X147052525Y-63919368D01*
X147047960Y-63873012D01*
X147047960Y-62796788D01*
X147052525Y-62750432D01*
X147064256Y-62711762D01*
X147083306Y-62676123D01*
X147108943Y-62644883D01*
X147140183Y-62619246D01*
X147175822Y-62600196D01*
X147214492Y-62588465D01*
X147260848Y-62583900D01*
X147912072Y-62583900D01*
X147958428Y-62588465D01*
X147958428Y-62588465D01*
G37*
G36*
X149833428Y-62588465D02*
G01*
X149872098Y-62600196D01*
X149907737Y-62619246D01*
X149938977Y-62644883D01*
X149964614Y-62676123D01*
X149983664Y-62711762D01*
X149995395Y-62750432D01*
X149999960Y-62796788D01*
X149999960Y-63873012D01*
X149995395Y-63919368D01*
X149983664Y-63958038D01*
X149964614Y-63993677D01*
X149938977Y-64024917D01*
X149907737Y-64050554D01*
X149872098Y-64069604D01*
X149833428Y-64081335D01*
X149787072Y-64085900D01*
X149135848Y-64085900D01*
X149089492Y-64081335D01*
X149050822Y-64069604D01*
X149015183Y-64050554D01*
X148983943Y-64024917D01*
X148958306Y-63993677D01*
X148939256Y-63958038D01*
X148927525Y-63919368D01*
X148922960Y-63873012D01*
X148922960Y-62796788D01*
X148927525Y-62750432D01*
X148939256Y-62711762D01*
X148958306Y-62676123D01*
X148983943Y-62644883D01*
X149015183Y-62619246D01*
X149050822Y-62600196D01*
X149089492Y-62588465D01*
X149135848Y-62583900D01*
X149787072Y-62583900D01*
X149833428Y-62588465D01*
X149833428Y-62588465D01*
G37*
G36*
X125641368Y-62951065D02*
G01*
X125680038Y-62962796D01*
X125715677Y-62981846D01*
X125746917Y-63007483D01*
X125772554Y-63038723D01*
X125791604Y-63074362D01*
X125803335Y-63113032D01*
X125807900Y-63159388D01*
X125807900Y-63810612D01*
X125803335Y-63856968D01*
X125791604Y-63895638D01*
X125772554Y-63931277D01*
X125746917Y-63962517D01*
X125715677Y-63988154D01*
X125680038Y-64007204D01*
X125641368Y-64018935D01*
X125595012Y-64023500D01*
X124518788Y-64023500D01*
X124472432Y-64018935D01*
X124433762Y-64007204D01*
X124398123Y-63988154D01*
X124366883Y-63962517D01*
X124341246Y-63931277D01*
X124322196Y-63895638D01*
X124310465Y-63856968D01*
X124305900Y-63810612D01*
X124305900Y-63159388D01*
X124310465Y-63113032D01*
X124322196Y-63074362D01*
X124341246Y-63038723D01*
X124366883Y-63007483D01*
X124398123Y-62981846D01*
X124433762Y-62962796D01*
X124472432Y-62951065D01*
X124518788Y-62946500D01*
X125595012Y-62946500D01*
X125641368Y-62951065D01*
X125641368Y-62951065D01*
G37*
G36*
X127533668Y-62951065D02*
G01*
X127572338Y-62962796D01*
X127607977Y-62981846D01*
X127639217Y-63007483D01*
X127664854Y-63038723D01*
X127683904Y-63074362D01*
X127695635Y-63113032D01*
X127700200Y-63159388D01*
X127700200Y-63810612D01*
X127695635Y-63856968D01*
X127683904Y-63895638D01*
X127664854Y-63931277D01*
X127639217Y-63962517D01*
X127607977Y-63988154D01*
X127572338Y-64007204D01*
X127533668Y-64018935D01*
X127487312Y-64023500D01*
X126411088Y-64023500D01*
X126364732Y-64018935D01*
X126326062Y-64007204D01*
X126290423Y-63988154D01*
X126259183Y-63962517D01*
X126233546Y-63931277D01*
X126214496Y-63895638D01*
X126202765Y-63856968D01*
X126198200Y-63810612D01*
X126198200Y-63159388D01*
X126202765Y-63113032D01*
X126214496Y-63074362D01*
X126233546Y-63038723D01*
X126259183Y-63007483D01*
X126290423Y-62981846D01*
X126326062Y-62962796D01*
X126364732Y-62951065D01*
X126411088Y-62946500D01*
X127487312Y-62946500D01*
X127533668Y-62951065D01*
X127533668Y-62951065D01*
G37*
G36*
X154292200Y-63346500D02*
G01*
X152990200Y-63346500D01*
X152990200Y-62544500D01*
X154292200Y-62544500D01*
X154292200Y-63346500D01*
X154292200Y-63346500D01*
G37*
G36*
X154292200Y-62246500D02*
G01*
X152990200Y-62246500D01*
X152990200Y-61444500D01*
X154292200Y-61444500D01*
X154292200Y-62246500D01*
X154292200Y-62246500D01*
G37*
G36*
X125641368Y-61076065D02*
G01*
X125680038Y-61087796D01*
X125715677Y-61106846D01*
X125746917Y-61132483D01*
X125772554Y-61163723D01*
X125791604Y-61199362D01*
X125803335Y-61238032D01*
X125807900Y-61284388D01*
X125807900Y-61935612D01*
X125803335Y-61981968D01*
X125791604Y-62020638D01*
X125772554Y-62056277D01*
X125746917Y-62087517D01*
X125715677Y-62113154D01*
X125680038Y-62132204D01*
X125641368Y-62143935D01*
X125595012Y-62148500D01*
X124518788Y-62148500D01*
X124472432Y-62143935D01*
X124433762Y-62132204D01*
X124398123Y-62113154D01*
X124366883Y-62087517D01*
X124341246Y-62056277D01*
X124322196Y-62020638D01*
X124310465Y-61981968D01*
X124305900Y-61935612D01*
X124305900Y-61284388D01*
X124310465Y-61238032D01*
X124322196Y-61199362D01*
X124341246Y-61163723D01*
X124366883Y-61132483D01*
X124398123Y-61106846D01*
X124433762Y-61087796D01*
X124472432Y-61076065D01*
X124518788Y-61071500D01*
X125595012Y-61071500D01*
X125641368Y-61076065D01*
X125641368Y-61076065D01*
G37*
G36*
X127533668Y-61076065D02*
G01*
X127572338Y-61087796D01*
X127607977Y-61106846D01*
X127639217Y-61132483D01*
X127664854Y-61163723D01*
X127683904Y-61199362D01*
X127695635Y-61238032D01*
X127700200Y-61284388D01*
X127700200Y-61935612D01*
X127695635Y-61981968D01*
X127683904Y-62020638D01*
X127664854Y-62056277D01*
X127639217Y-62087517D01*
X127607977Y-62113154D01*
X127572338Y-62132204D01*
X127533668Y-62143935D01*
X127487312Y-62148500D01*
X126411088Y-62148500D01*
X126364732Y-62143935D01*
X126326062Y-62132204D01*
X126290423Y-62113154D01*
X126259183Y-62087517D01*
X126233546Y-62056277D01*
X126214496Y-62020638D01*
X126202765Y-61981968D01*
X126198200Y-61935612D01*
X126198200Y-61284388D01*
X126202765Y-61238032D01*
X126214496Y-61199362D01*
X126233546Y-61163723D01*
X126259183Y-61132483D01*
X126290423Y-61106846D01*
X126326062Y-61087796D01*
X126364732Y-61076065D01*
X126411088Y-61071500D01*
X127487312Y-61071500D01*
X127533668Y-61076065D01*
X127533668Y-61076065D01*
G37*
G36*
X139237651Y-58165884D02*
G01*
X139254043Y-58170857D01*
X139269155Y-58178934D01*
X139282398Y-58189802D01*
X139293266Y-58203045D01*
X139301343Y-58218157D01*
X139306316Y-58234549D01*
X139308600Y-58257741D01*
X139308600Y-58671459D01*
X139306316Y-58694651D01*
X139301343Y-58711043D01*
X139293266Y-58726155D01*
X139282398Y-58739398D01*
X139269153Y-58750267D01*
X139261494Y-58754361D01*
X139241120Y-58767974D01*
X139223793Y-58785301D01*
X139210179Y-58805676D01*
X139200802Y-58828314D01*
X139196021Y-58852348D01*
X139196021Y-58876852D01*
X139200801Y-58900885D01*
X139210179Y-58923524D01*
X139223792Y-58943898D01*
X139241119Y-58961225D01*
X139261494Y-58974839D01*
X139269153Y-58978933D01*
X139282398Y-58989802D01*
X139293266Y-59003045D01*
X139301343Y-59018157D01*
X139306316Y-59034549D01*
X139308600Y-59057741D01*
X139308600Y-59471459D01*
X139306316Y-59494651D01*
X139301343Y-59511043D01*
X139293266Y-59526155D01*
X139282398Y-59539398D01*
X139269153Y-59550267D01*
X139261494Y-59554361D01*
X139241120Y-59567974D01*
X139223793Y-59585301D01*
X139210179Y-59605676D01*
X139200802Y-59628314D01*
X139196021Y-59652348D01*
X139196021Y-59676852D01*
X139200801Y-59700885D01*
X139210179Y-59723524D01*
X139223792Y-59743898D01*
X139241119Y-59761225D01*
X139261494Y-59774839D01*
X139269153Y-59778933D01*
X139282398Y-59789802D01*
X139293266Y-59803045D01*
X139301343Y-59818157D01*
X139306316Y-59834549D01*
X139308600Y-59857741D01*
X139308600Y-60271459D01*
X139306316Y-60294651D01*
X139301343Y-60311043D01*
X139293266Y-60326155D01*
X139282398Y-60339398D01*
X139269153Y-60350267D01*
X139261494Y-60354361D01*
X139241120Y-60367974D01*
X139223793Y-60385301D01*
X139210179Y-60405676D01*
X139200802Y-60428314D01*
X139196021Y-60452348D01*
X139196021Y-60476852D01*
X139200801Y-60500885D01*
X139210179Y-60523524D01*
X139223792Y-60543898D01*
X139241119Y-60561225D01*
X139261494Y-60574839D01*
X139269153Y-60578933D01*
X139282398Y-60589802D01*
X139293266Y-60603045D01*
X139301343Y-60618157D01*
X139306316Y-60634549D01*
X139308600Y-60657741D01*
X139308600Y-61071459D01*
X139306316Y-61094651D01*
X139301343Y-61111043D01*
X139293266Y-61126155D01*
X139282398Y-61139398D01*
X139269155Y-61150266D01*
X139254043Y-61158343D01*
X139237651Y-61163316D01*
X139214459Y-61165600D01*
X138775741Y-61165600D01*
X138752549Y-61163316D01*
X138736157Y-61158343D01*
X138721045Y-61150266D01*
X138707802Y-61139398D01*
X138696934Y-61126155D01*
X138688857Y-61111043D01*
X138683884Y-61094651D01*
X138681600Y-61071459D01*
X138681600Y-60657741D01*
X138683884Y-60634549D01*
X138688857Y-60618157D01*
X138696934Y-60603045D01*
X138707802Y-60589802D01*
X138721047Y-60578933D01*
X138728706Y-60574839D01*
X138749080Y-60561226D01*
X138766407Y-60543899D01*
X138780021Y-60523524D01*
X138789398Y-60500886D01*
X138794179Y-60476852D01*
X138794179Y-60452348D01*
X138789399Y-60428315D01*
X138780021Y-60405676D01*
X138766408Y-60385302D01*
X138749081Y-60367975D01*
X138728706Y-60354361D01*
X138721047Y-60350267D01*
X138707802Y-60339398D01*
X138696934Y-60326155D01*
X138688857Y-60311043D01*
X138683884Y-60294651D01*
X138681600Y-60271459D01*
X138681600Y-59857741D01*
X138683884Y-59834549D01*
X138688857Y-59818157D01*
X138696934Y-59803045D01*
X138707802Y-59789802D01*
X138721047Y-59778933D01*
X138728706Y-59774839D01*
X138749080Y-59761226D01*
X138766407Y-59743899D01*
X138780021Y-59723524D01*
X138789398Y-59700886D01*
X138794179Y-59676852D01*
X138794179Y-59652348D01*
X138789399Y-59628315D01*
X138780021Y-59605676D01*
X138766408Y-59585302D01*
X138749081Y-59567975D01*
X138728706Y-59554361D01*
X138721047Y-59550267D01*
X138707802Y-59539398D01*
X138696934Y-59526155D01*
X138688857Y-59511043D01*
X138683884Y-59494651D01*
X138681600Y-59471459D01*
X138681600Y-59057741D01*
X138683884Y-59034549D01*
X138688857Y-59018157D01*
X138696934Y-59003045D01*
X138707802Y-58989802D01*
X138721047Y-58978933D01*
X138728706Y-58974839D01*
X138749080Y-58961226D01*
X138766407Y-58943899D01*
X138780021Y-58923524D01*
X138789398Y-58900886D01*
X138794179Y-58876852D01*
X138794179Y-58852348D01*
X138789399Y-58828315D01*
X138780021Y-58805676D01*
X138766408Y-58785302D01*
X138749081Y-58767975D01*
X138728706Y-58754361D01*
X138721047Y-58750267D01*
X138707802Y-58739398D01*
X138696934Y-58726155D01*
X138688857Y-58711043D01*
X138683884Y-58694651D01*
X138681600Y-58671459D01*
X138681600Y-58257741D01*
X138683884Y-58234549D01*
X138688857Y-58218157D01*
X138696934Y-58203045D01*
X138707802Y-58189802D01*
X138721045Y-58178934D01*
X138736157Y-58170857D01*
X138752549Y-58165884D01*
X138775741Y-58163600D01*
X139214459Y-58163600D01*
X139237651Y-58165884D01*
X139237651Y-58165884D01*
G37*
G36*
X141612651Y-58165884D02*
G01*
X141629043Y-58170857D01*
X141644155Y-58178934D01*
X141657398Y-58189802D01*
X141668266Y-58203045D01*
X141676343Y-58218157D01*
X141681316Y-58234549D01*
X141683600Y-58257741D01*
X141683600Y-58671459D01*
X141681316Y-58694651D01*
X141676343Y-58711043D01*
X141668266Y-58726155D01*
X141657398Y-58739398D01*
X141644153Y-58750267D01*
X141636494Y-58754361D01*
X141616120Y-58767974D01*
X141598793Y-58785301D01*
X141585179Y-58805676D01*
X141575802Y-58828314D01*
X141571021Y-58852348D01*
X141571021Y-58876852D01*
X141575801Y-58900885D01*
X141585179Y-58923524D01*
X141598792Y-58943898D01*
X141616119Y-58961225D01*
X141636494Y-58974839D01*
X141644153Y-58978933D01*
X141657398Y-58989802D01*
X141668266Y-59003045D01*
X141676343Y-59018157D01*
X141681316Y-59034549D01*
X141683600Y-59057741D01*
X141683600Y-59471459D01*
X141681316Y-59494651D01*
X141676343Y-59511043D01*
X141668266Y-59526155D01*
X141657398Y-59539398D01*
X141644153Y-59550267D01*
X141636494Y-59554361D01*
X141616120Y-59567974D01*
X141598793Y-59585301D01*
X141585179Y-59605676D01*
X141575802Y-59628314D01*
X141571021Y-59652348D01*
X141571021Y-59676852D01*
X141575801Y-59700885D01*
X141585179Y-59723524D01*
X141598792Y-59743898D01*
X141616119Y-59761225D01*
X141636494Y-59774839D01*
X141644153Y-59778933D01*
X141657398Y-59789802D01*
X141668266Y-59803045D01*
X141676343Y-59818157D01*
X141681316Y-59834549D01*
X141683600Y-59857741D01*
X141683600Y-60271459D01*
X141681316Y-60294651D01*
X141676343Y-60311043D01*
X141668266Y-60326155D01*
X141657398Y-60339398D01*
X141644153Y-60350267D01*
X141636494Y-60354361D01*
X141616120Y-60367974D01*
X141598793Y-60385301D01*
X141585179Y-60405676D01*
X141575802Y-60428314D01*
X141571021Y-60452348D01*
X141571021Y-60476852D01*
X141575801Y-60500885D01*
X141585179Y-60523524D01*
X141598792Y-60543898D01*
X141616119Y-60561225D01*
X141636494Y-60574839D01*
X141644153Y-60578933D01*
X141657398Y-60589802D01*
X141668266Y-60603045D01*
X141676343Y-60618157D01*
X141681316Y-60634549D01*
X141683600Y-60657741D01*
X141683600Y-61071459D01*
X141681316Y-61094651D01*
X141676343Y-61111043D01*
X141668266Y-61126155D01*
X141657398Y-61139398D01*
X141644155Y-61150266D01*
X141629043Y-61158343D01*
X141612651Y-61163316D01*
X141589459Y-61165600D01*
X141150741Y-61165600D01*
X141127549Y-61163316D01*
X141111157Y-61158343D01*
X141096045Y-61150266D01*
X141082802Y-61139398D01*
X141071934Y-61126155D01*
X141063857Y-61111043D01*
X141058884Y-61094651D01*
X141056600Y-61071459D01*
X141056600Y-60657741D01*
X141058884Y-60634549D01*
X141063857Y-60618157D01*
X141071934Y-60603045D01*
X141082802Y-60589802D01*
X141096047Y-60578933D01*
X141103706Y-60574839D01*
X141124080Y-60561226D01*
X141141407Y-60543899D01*
X141155021Y-60523524D01*
X141164398Y-60500886D01*
X141169179Y-60476852D01*
X141169179Y-60452348D01*
X141164399Y-60428315D01*
X141155021Y-60405676D01*
X141141408Y-60385302D01*
X141124081Y-60367975D01*
X141103706Y-60354361D01*
X141096047Y-60350267D01*
X141082802Y-60339398D01*
X141071934Y-60326155D01*
X141063857Y-60311043D01*
X141058884Y-60294651D01*
X141056600Y-60271459D01*
X141056600Y-59857741D01*
X141058884Y-59834549D01*
X141063857Y-59818157D01*
X141071934Y-59803045D01*
X141082802Y-59789802D01*
X141096047Y-59778933D01*
X141103706Y-59774839D01*
X141124080Y-59761226D01*
X141141407Y-59743899D01*
X141155021Y-59723524D01*
X141164398Y-59700886D01*
X141169179Y-59676852D01*
X141169179Y-59652348D01*
X141164399Y-59628315D01*
X141155021Y-59605676D01*
X141141408Y-59585302D01*
X141124081Y-59567975D01*
X141103706Y-59554361D01*
X141096047Y-59550267D01*
X141082802Y-59539398D01*
X141071934Y-59526155D01*
X141063857Y-59511043D01*
X141058884Y-59494651D01*
X141056600Y-59471459D01*
X141056600Y-59057741D01*
X141058884Y-59034549D01*
X141063857Y-59018157D01*
X141071934Y-59003045D01*
X141082802Y-58989802D01*
X141096047Y-58978933D01*
X141103706Y-58974839D01*
X141124080Y-58961226D01*
X141141407Y-58943899D01*
X141155021Y-58923524D01*
X141164398Y-58900886D01*
X141169179Y-58876852D01*
X141169179Y-58852348D01*
X141164399Y-58828315D01*
X141155021Y-58805676D01*
X141141408Y-58785302D01*
X141124081Y-58767975D01*
X141103706Y-58754361D01*
X141096047Y-58750267D01*
X141082802Y-58739398D01*
X141071934Y-58726155D01*
X141063857Y-58711043D01*
X141058884Y-58694651D01*
X141056600Y-58671459D01*
X141056600Y-58257741D01*
X141058884Y-58234549D01*
X141063857Y-58218157D01*
X141071934Y-58203045D01*
X141082802Y-58189802D01*
X141096045Y-58178934D01*
X141111157Y-58170857D01*
X141127549Y-58165884D01*
X141150741Y-58163600D01*
X141589459Y-58163600D01*
X141612651Y-58165884D01*
X141612651Y-58165884D01*
G37*
G36*
X154292200Y-61146500D02*
G01*
X152990200Y-61146500D01*
X152990200Y-60344500D01*
X154292200Y-60344500D01*
X154292200Y-61146500D01*
X154292200Y-61146500D01*
G37*
G36*
X154292200Y-60046500D02*
G01*
X152990200Y-60046500D01*
X152990200Y-59244500D01*
X154292200Y-59244500D01*
X154292200Y-60046500D01*
X154292200Y-60046500D01*
G37*
G36*
X132715268Y-58036165D02*
G01*
X132753938Y-58047896D01*
X132789577Y-58066946D01*
X132820817Y-58092583D01*
X132846454Y-58123823D01*
X132865504Y-58159462D01*
X132877235Y-58198132D01*
X132881800Y-58244488D01*
X132881800Y-58895712D01*
X132877235Y-58942068D01*
X132865504Y-58980738D01*
X132846454Y-59016377D01*
X132820817Y-59047617D01*
X132789577Y-59073254D01*
X132753938Y-59092304D01*
X132715268Y-59104035D01*
X132668912Y-59108600D01*
X131592688Y-59108600D01*
X131546332Y-59104035D01*
X131507662Y-59092304D01*
X131472023Y-59073254D01*
X131440783Y-59047617D01*
X131415146Y-59016377D01*
X131396096Y-58980738D01*
X131384365Y-58942068D01*
X131379800Y-58895712D01*
X131379800Y-58244488D01*
X131384365Y-58198132D01*
X131396096Y-58159462D01*
X131415146Y-58123823D01*
X131440783Y-58092583D01*
X131472023Y-58066946D01*
X131507662Y-58047896D01*
X131546332Y-58036165D01*
X131592688Y-58031600D01*
X132668912Y-58031600D01*
X132715268Y-58036165D01*
X132715268Y-58036165D01*
G37*
G36*
X134594868Y-57985365D02*
G01*
X134633538Y-57997096D01*
X134669177Y-58016146D01*
X134700417Y-58041783D01*
X134726054Y-58073023D01*
X134745104Y-58108662D01*
X134756835Y-58147332D01*
X134761400Y-58193688D01*
X134761400Y-58844912D01*
X134756835Y-58891268D01*
X134745104Y-58929938D01*
X134726054Y-58965577D01*
X134700417Y-58996817D01*
X134669177Y-59022454D01*
X134633538Y-59041504D01*
X134594868Y-59053235D01*
X134548512Y-59057800D01*
X133472288Y-59057800D01*
X133425932Y-59053235D01*
X133387262Y-59041504D01*
X133351623Y-59022454D01*
X133320383Y-58996817D01*
X133294746Y-58965577D01*
X133275696Y-58929938D01*
X133263965Y-58891268D01*
X133259400Y-58844912D01*
X133259400Y-58193688D01*
X133263965Y-58147332D01*
X133275696Y-58108662D01*
X133294746Y-58073023D01*
X133320383Y-58041783D01*
X133351623Y-58016146D01*
X133387262Y-57997096D01*
X133425932Y-57985365D01*
X133472288Y-57980800D01*
X134548512Y-57980800D01*
X134594868Y-57985365D01*
X134594868Y-57985365D01*
G37*
G36*
X125431168Y-57152865D02*
G01*
X125469838Y-57164596D01*
X125505477Y-57183646D01*
X125536717Y-57209283D01*
X125562354Y-57240523D01*
X125581404Y-57276162D01*
X125593135Y-57314832D01*
X125597700Y-57361188D01*
X125597700Y-58437412D01*
X125593135Y-58483768D01*
X125581404Y-58522438D01*
X125562354Y-58558077D01*
X125536717Y-58589317D01*
X125505477Y-58614954D01*
X125469838Y-58634004D01*
X125431168Y-58645735D01*
X125384812Y-58650300D01*
X124733588Y-58650300D01*
X124687232Y-58645735D01*
X124648562Y-58634004D01*
X124612923Y-58614954D01*
X124581683Y-58589317D01*
X124556046Y-58558077D01*
X124536996Y-58522438D01*
X124525265Y-58483768D01*
X124520700Y-58437412D01*
X124520700Y-57361188D01*
X124525265Y-57314832D01*
X124536996Y-57276162D01*
X124556046Y-57240523D01*
X124581683Y-57209283D01*
X124612923Y-57183646D01*
X124648562Y-57164596D01*
X124687232Y-57152865D01*
X124733588Y-57148300D01*
X125384812Y-57148300D01*
X125431168Y-57152865D01*
X125431168Y-57152865D01*
G37*
G36*
X127306168Y-57152865D02*
G01*
X127344838Y-57164596D01*
X127380477Y-57183646D01*
X127411717Y-57209283D01*
X127437354Y-57240523D01*
X127456404Y-57276162D01*
X127468135Y-57314832D01*
X127472700Y-57361188D01*
X127472700Y-58437412D01*
X127468135Y-58483768D01*
X127456404Y-58522438D01*
X127437354Y-58558077D01*
X127411717Y-58589317D01*
X127380477Y-58614954D01*
X127344838Y-58634004D01*
X127306168Y-58645735D01*
X127259812Y-58650300D01*
X126608588Y-58650300D01*
X126562232Y-58645735D01*
X126523562Y-58634004D01*
X126487923Y-58614954D01*
X126456683Y-58589317D01*
X126431046Y-58558077D01*
X126411996Y-58522438D01*
X126400265Y-58483768D01*
X126395700Y-58437412D01*
X126395700Y-57361188D01*
X126400265Y-57314832D01*
X126411996Y-57276162D01*
X126431046Y-57240523D01*
X126456683Y-57209283D01*
X126487923Y-57183646D01*
X126523562Y-57164596D01*
X126562232Y-57152865D01*
X126608588Y-57148300D01*
X127259812Y-57148300D01*
X127306168Y-57152865D01*
X127306168Y-57152865D01*
G37*
G36*
X154292200Y-58646500D02*
G01*
X152990200Y-58646500D01*
X152990200Y-57544500D01*
X154292200Y-57544500D01*
X154292200Y-58646500D01*
X154292200Y-58646500D01*
G37*
G36*
X147320268Y-57147165D02*
G01*
X147358938Y-57158896D01*
X147394577Y-57177946D01*
X147425817Y-57203583D01*
X147451454Y-57234823D01*
X147470504Y-57270462D01*
X147482235Y-57309132D01*
X147486800Y-57355488D01*
X147486800Y-58006712D01*
X147482235Y-58053068D01*
X147470504Y-58091738D01*
X147451454Y-58127377D01*
X147425817Y-58158617D01*
X147394577Y-58184254D01*
X147358938Y-58203304D01*
X147320268Y-58215035D01*
X147273912Y-58219600D01*
X146197688Y-58219600D01*
X146151332Y-58215035D01*
X146112662Y-58203304D01*
X146077023Y-58184254D01*
X146045783Y-58158617D01*
X146020146Y-58127377D01*
X146001096Y-58091738D01*
X145989365Y-58053068D01*
X145984800Y-58006712D01*
X145984800Y-57355488D01*
X145989365Y-57309132D01*
X146001096Y-57270462D01*
X146020146Y-57234823D01*
X146045783Y-57203583D01*
X146077023Y-57177946D01*
X146112662Y-57158896D01*
X146151332Y-57147165D01*
X146197688Y-57142600D01*
X147273912Y-57142600D01*
X147320268Y-57147165D01*
X147320268Y-57147165D01*
G37*
G36*
X149187168Y-57147165D02*
G01*
X149225838Y-57158896D01*
X149261477Y-57177946D01*
X149292717Y-57203583D01*
X149318354Y-57234823D01*
X149337404Y-57270462D01*
X149349135Y-57309132D01*
X149353700Y-57355488D01*
X149353700Y-58006712D01*
X149349135Y-58053068D01*
X149337404Y-58091738D01*
X149318354Y-58127377D01*
X149292717Y-58158617D01*
X149261477Y-58184254D01*
X149225838Y-58203304D01*
X149187168Y-58215035D01*
X149140812Y-58219600D01*
X148064588Y-58219600D01*
X148018232Y-58215035D01*
X147979562Y-58203304D01*
X147943923Y-58184254D01*
X147912683Y-58158617D01*
X147887046Y-58127377D01*
X147867996Y-58091738D01*
X147856265Y-58053068D01*
X147851700Y-58006712D01*
X147851700Y-57355488D01*
X147856265Y-57309132D01*
X147867996Y-57270462D01*
X147887046Y-57234823D01*
X147912683Y-57203583D01*
X147943923Y-57177946D01*
X147979562Y-57158896D01*
X148018232Y-57147165D01*
X148064588Y-57142600D01*
X149140812Y-57142600D01*
X149187168Y-57147165D01*
X149187168Y-57147165D01*
G37*
G36*
X123913900Y-58155155D02*
G01*
X120611900Y-58155155D01*
X120611900Y-56753155D01*
X123913900Y-56753155D01*
X123913900Y-58155155D01*
X123913900Y-58155155D01*
G37*
G36*
X140145868Y-56225765D02*
G01*
X140184538Y-56237496D01*
X140220177Y-56256546D01*
X140251417Y-56282183D01*
X140277054Y-56313423D01*
X140296104Y-56349062D01*
X140307835Y-56387732D01*
X140312400Y-56434088D01*
X140312400Y-57510312D01*
X140307835Y-57556668D01*
X140296104Y-57595338D01*
X140277054Y-57630977D01*
X140251417Y-57662217D01*
X140220177Y-57687854D01*
X140184538Y-57706904D01*
X140145868Y-57718635D01*
X140099512Y-57723200D01*
X139448288Y-57723200D01*
X139401932Y-57718635D01*
X139363262Y-57706904D01*
X139327623Y-57687854D01*
X139296383Y-57662217D01*
X139270746Y-57630977D01*
X139251696Y-57595338D01*
X139239965Y-57556668D01*
X139235400Y-57510312D01*
X139235400Y-56434088D01*
X139239965Y-56387732D01*
X139251696Y-56349062D01*
X139270746Y-56313423D01*
X139296383Y-56282183D01*
X139327623Y-56256546D01*
X139363262Y-56237496D01*
X139401932Y-56225765D01*
X139448288Y-56221200D01*
X140099512Y-56221200D01*
X140145868Y-56225765D01*
X140145868Y-56225765D01*
G37*
G36*
X138270868Y-56225765D02*
G01*
X138309538Y-56237496D01*
X138345177Y-56256546D01*
X138376417Y-56282183D01*
X138402054Y-56313423D01*
X138421104Y-56349062D01*
X138432835Y-56387732D01*
X138437400Y-56434088D01*
X138437400Y-57510312D01*
X138432835Y-57556668D01*
X138421104Y-57595338D01*
X138402054Y-57630977D01*
X138376417Y-57662217D01*
X138345177Y-57687854D01*
X138309538Y-57706904D01*
X138270868Y-57718635D01*
X138224512Y-57723200D01*
X137573288Y-57723200D01*
X137526932Y-57718635D01*
X137488262Y-57706904D01*
X137452623Y-57687854D01*
X137421383Y-57662217D01*
X137395746Y-57630977D01*
X137376696Y-57595338D01*
X137364965Y-57556668D01*
X137360400Y-57510312D01*
X137360400Y-56434088D01*
X137364965Y-56387732D01*
X137376696Y-56349062D01*
X137395746Y-56313423D01*
X137421383Y-56282183D01*
X137452623Y-56256546D01*
X137488262Y-56237496D01*
X137526932Y-56225765D01*
X137573288Y-56221200D01*
X138224512Y-56221200D01*
X138270868Y-56225765D01*
X138270868Y-56225765D01*
G37*
G36*
X132715268Y-56161165D02*
G01*
X132753938Y-56172896D01*
X132789577Y-56191946D01*
X132820817Y-56217583D01*
X132846454Y-56248823D01*
X132865504Y-56284462D01*
X132877235Y-56323132D01*
X132881800Y-56369488D01*
X132881800Y-57020712D01*
X132877235Y-57067068D01*
X132865504Y-57105738D01*
X132846454Y-57141377D01*
X132820817Y-57172617D01*
X132789577Y-57198254D01*
X132753938Y-57217304D01*
X132715268Y-57229035D01*
X132668912Y-57233600D01*
X131592688Y-57233600D01*
X131546332Y-57229035D01*
X131507662Y-57217304D01*
X131472023Y-57198254D01*
X131440783Y-57172617D01*
X131415146Y-57141377D01*
X131396096Y-57105738D01*
X131384365Y-57067068D01*
X131379800Y-57020712D01*
X131379800Y-56369488D01*
X131384365Y-56323132D01*
X131396096Y-56284462D01*
X131415146Y-56248823D01*
X131440783Y-56217583D01*
X131472023Y-56191946D01*
X131507662Y-56172896D01*
X131546332Y-56161165D01*
X131592688Y-56156600D01*
X132668912Y-56156600D01*
X132715268Y-56161165D01*
X132715268Y-56161165D01*
G37*
G36*
X134594868Y-56110365D02*
G01*
X134633538Y-56122096D01*
X134669177Y-56141146D01*
X134700417Y-56166783D01*
X134726054Y-56198023D01*
X134745104Y-56233662D01*
X134756835Y-56272332D01*
X134761400Y-56318688D01*
X134761400Y-56969912D01*
X134756835Y-57016268D01*
X134745104Y-57054938D01*
X134726054Y-57090577D01*
X134700417Y-57121817D01*
X134669177Y-57147454D01*
X134633538Y-57166504D01*
X134594868Y-57178235D01*
X134548512Y-57182800D01*
X133472288Y-57182800D01*
X133425932Y-57178235D01*
X133387262Y-57166504D01*
X133351623Y-57147454D01*
X133320383Y-57121817D01*
X133294746Y-57090577D01*
X133275696Y-57054938D01*
X133263965Y-57016268D01*
X133259400Y-56969912D01*
X133259400Y-56318688D01*
X133263965Y-56272332D01*
X133275696Y-56233662D01*
X133294746Y-56198023D01*
X133320383Y-56166783D01*
X133351623Y-56141146D01*
X133387262Y-56122096D01*
X133425932Y-56110365D01*
X133472288Y-56105800D01*
X134548512Y-56105800D01*
X134594868Y-56110365D01*
X134594868Y-56110365D01*
G37*
G36*
X167930587Y-52279496D02*
G01*
X168167353Y-52377568D01*
X168167355Y-52377569D01*
X168380439Y-52519947D01*
X168561653Y-52701161D01*
X168694971Y-52900685D01*
X168704032Y-52914247D01*
X168802104Y-53151013D01*
X168852100Y-53402361D01*
X168852100Y-53658639D01*
X168802104Y-53909987D01*
X168723569Y-54099586D01*
X168704031Y-54146755D01*
X168561653Y-54359839D01*
X168380439Y-54541053D01*
X168167355Y-54683431D01*
X168167354Y-54683432D01*
X168167353Y-54683432D01*
X167930587Y-54781504D01*
X167853166Y-54796904D01*
X167829717Y-54804017D01*
X167808106Y-54815568D01*
X167789164Y-54831113D01*
X167773619Y-54850055D01*
X167762068Y-54871666D01*
X167754955Y-54895115D01*
X167752553Y-54919501D01*
X167754955Y-54943887D01*
X167762068Y-54967336D01*
X167773619Y-54988947D01*
X167789164Y-55007889D01*
X167808106Y-55023434D01*
X167829717Y-55034985D01*
X167853166Y-55042098D01*
X167877552Y-55044500D01*
X169742200Y-55044500D01*
X169742200Y-56446500D01*
X167740200Y-56446500D01*
X167740200Y-54956499D01*
X167737798Y-54932113D01*
X167730685Y-54908664D01*
X167719134Y-54887053D01*
X167703589Y-54868111D01*
X167684647Y-54852566D01*
X167663036Y-54841015D01*
X167639587Y-54833902D01*
X167615201Y-54831500D01*
X167422961Y-54831500D01*
X167171613Y-54781504D01*
X166934847Y-54683432D01*
X166934846Y-54683432D01*
X166934845Y-54683431D01*
X166721761Y-54541053D01*
X166540547Y-54359839D01*
X166398169Y-54146755D01*
X166378631Y-54099586D01*
X166300096Y-53909987D01*
X166250100Y-53658639D01*
X166250100Y-53402361D01*
X166300096Y-53151013D01*
X166398168Y-52914247D01*
X166407230Y-52900685D01*
X166540547Y-52701161D01*
X166721761Y-52519947D01*
X166934845Y-52377569D01*
X166934847Y-52377568D01*
X167171613Y-52279496D01*
X167422961Y-52229500D01*
X167679239Y-52229500D01*
X167930587Y-52279496D01*
X167930587Y-52279496D01*
G37*
G36*
X149187168Y-55272165D02*
G01*
X149225838Y-55283896D01*
X149261477Y-55302946D01*
X149292717Y-55328583D01*
X149318354Y-55359823D01*
X149337404Y-55395462D01*
X149349135Y-55434132D01*
X149353700Y-55480488D01*
X149353700Y-56131712D01*
X149349135Y-56178068D01*
X149337404Y-56216738D01*
X149318354Y-56252377D01*
X149292717Y-56283617D01*
X149261477Y-56309254D01*
X149225838Y-56328304D01*
X149187168Y-56340035D01*
X149140812Y-56344600D01*
X148064588Y-56344600D01*
X148018232Y-56340035D01*
X147979562Y-56328304D01*
X147943923Y-56309254D01*
X147912683Y-56283617D01*
X147887046Y-56252377D01*
X147867996Y-56216738D01*
X147856265Y-56178068D01*
X147851700Y-56131712D01*
X147851700Y-55480488D01*
X147856265Y-55434132D01*
X147867996Y-55395462D01*
X147887046Y-55359823D01*
X147912683Y-55328583D01*
X147943923Y-55302946D01*
X147979562Y-55283896D01*
X148018232Y-55272165D01*
X148064588Y-55267600D01*
X149140812Y-55267600D01*
X149187168Y-55272165D01*
X149187168Y-55272165D01*
G37*
G36*
X147320268Y-55272165D02*
G01*
X147358938Y-55283896D01*
X147394577Y-55302946D01*
X147425817Y-55328583D01*
X147451454Y-55359823D01*
X147470504Y-55395462D01*
X147482235Y-55434132D01*
X147486800Y-55480488D01*
X147486800Y-56131712D01*
X147482235Y-56178068D01*
X147470504Y-56216738D01*
X147451454Y-56252377D01*
X147425817Y-56283617D01*
X147394577Y-56309254D01*
X147358938Y-56328304D01*
X147320268Y-56340035D01*
X147273912Y-56344600D01*
X146197688Y-56344600D01*
X146151332Y-56340035D01*
X146112662Y-56328304D01*
X146077023Y-56309254D01*
X146045783Y-56283617D01*
X146020146Y-56252377D01*
X146001096Y-56216738D01*
X145989365Y-56178068D01*
X145984800Y-56131712D01*
X145984800Y-55480488D01*
X145989365Y-55434132D01*
X146001096Y-55395462D01*
X146020146Y-55359823D01*
X146045783Y-55328583D01*
X146077023Y-55302946D01*
X146112662Y-55283896D01*
X146151332Y-55272165D01*
X146197688Y-55267600D01*
X147273912Y-55267600D01*
X147320268Y-55272165D01*
X147320268Y-55272165D01*
G37*
G36*
X122400185Y-51654475D02*
G01*
X122731861Y-51791860D01*
X122755245Y-51801546D01*
X123074790Y-52015059D01*
X123346541Y-52286810D01*
X123560054Y-52606355D01*
X123560055Y-52606357D01*
X123707125Y-52961415D01*
X123782100Y-53338342D01*
X123782100Y-53722658D01*
X123707125Y-54099585D01*
X123599324Y-54359839D01*
X123560054Y-54454645D01*
X123346541Y-54774190D01*
X123074790Y-55045941D01*
X122755245Y-55259454D01*
X122755244Y-55259455D01*
X122755243Y-55259455D01*
X122400185Y-55406525D01*
X122023258Y-55481500D01*
X121638942Y-55481500D01*
X121262015Y-55406525D01*
X120906957Y-55259455D01*
X120906956Y-55259455D01*
X120906955Y-55259454D01*
X120587410Y-55045941D01*
X120315659Y-54774190D01*
X120102146Y-54454645D01*
X120062876Y-54359839D01*
X119955075Y-54099585D01*
X119880100Y-53722658D01*
X119880100Y-53338342D01*
X119955075Y-52961415D01*
X120102145Y-52606357D01*
X120102146Y-52606355D01*
X120315659Y-52286810D01*
X120587410Y-52015059D01*
X120906955Y-51801546D01*
X120930339Y-51791860D01*
X121262015Y-51654475D01*
X121638942Y-51579500D01*
X122023258Y-51579500D01*
X122400185Y-51654475D01*
X122400185Y-51654475D01*
G37*
G36*
X138451543Y-51366019D02*
G01*
X138517727Y-51372537D01*
X138687566Y-51424057D01*
X138844091Y-51507722D01*
X138869009Y-51528172D01*
X138981286Y-51620314D01*
X139044336Y-51697142D01*
X139093878Y-51757509D01*
X139177543Y-51914034D01*
X139229063Y-52083873D01*
X139246459Y-52260500D01*
X139229063Y-52437127D01*
X139177543Y-52606966D01*
X139093878Y-52763491D01*
X139078862Y-52781788D01*
X138981286Y-52900686D01*
X138893394Y-52972816D01*
X138844091Y-53013278D01*
X138687566Y-53096943D01*
X138517727Y-53148463D01*
X138451543Y-53154981D01*
X138385360Y-53161500D01*
X138296840Y-53161500D01*
X138230657Y-53154981D01*
X138164473Y-53148463D01*
X137994634Y-53096943D01*
X137838109Y-53013278D01*
X137788806Y-52972816D01*
X137700914Y-52900686D01*
X137603338Y-52781788D01*
X137588322Y-52763491D01*
X137504657Y-52606966D01*
X137453137Y-52437127D01*
X137435741Y-52260500D01*
X137453137Y-52083873D01*
X137504657Y-51914034D01*
X137588322Y-51757509D01*
X137637864Y-51697142D01*
X137700914Y-51620314D01*
X137813191Y-51528172D01*
X137838109Y-51507722D01*
X137994634Y-51424057D01*
X138164473Y-51372537D01*
X138230657Y-51366019D01*
X138296840Y-51359500D01*
X138385360Y-51359500D01*
X138451543Y-51366019D01*
X138451543Y-51366019D01*
G37*
G36*
X140991543Y-51366019D02*
G01*
X141057727Y-51372537D01*
X141227566Y-51424057D01*
X141384091Y-51507722D01*
X141409009Y-51528172D01*
X141521286Y-51620314D01*
X141584336Y-51697142D01*
X141633878Y-51757509D01*
X141717543Y-51914034D01*
X141769063Y-52083873D01*
X141786459Y-52260500D01*
X141769063Y-52437127D01*
X141717543Y-52606966D01*
X141633878Y-52763491D01*
X141618862Y-52781788D01*
X141521286Y-52900686D01*
X141433394Y-52972816D01*
X141384091Y-53013278D01*
X141227566Y-53096943D01*
X141057727Y-53148463D01*
X140991543Y-53154981D01*
X140925360Y-53161500D01*
X140836840Y-53161500D01*
X140770657Y-53154981D01*
X140704473Y-53148463D01*
X140534634Y-53096943D01*
X140378109Y-53013278D01*
X140328806Y-52972816D01*
X140240914Y-52900686D01*
X140143338Y-52781788D01*
X140128322Y-52763491D01*
X140044657Y-52606966D01*
X139993137Y-52437127D01*
X139975741Y-52260500D01*
X139993137Y-52083873D01*
X140044657Y-51914034D01*
X140128322Y-51757509D01*
X140177864Y-51697142D01*
X140240914Y-51620314D01*
X140353191Y-51528172D01*
X140378109Y-51507722D01*
X140534634Y-51424057D01*
X140704473Y-51372537D01*
X140770657Y-51366019D01*
X140836840Y-51359500D01*
X140925360Y-51359500D01*
X140991543Y-51366019D01*
X140991543Y-51366019D01*
G37*
G36*
X143531543Y-51366019D02*
G01*
X143597727Y-51372537D01*
X143767566Y-51424057D01*
X143924091Y-51507722D01*
X143949009Y-51528172D01*
X144061286Y-51620314D01*
X144124336Y-51697142D01*
X144173878Y-51757509D01*
X144257543Y-51914034D01*
X144309063Y-52083873D01*
X144326459Y-52260500D01*
X144309063Y-52437127D01*
X144257543Y-52606966D01*
X144173878Y-52763491D01*
X144158862Y-52781788D01*
X144061286Y-52900686D01*
X143973394Y-52972816D01*
X143924091Y-53013278D01*
X143767566Y-53096943D01*
X143597727Y-53148463D01*
X143531543Y-53154981D01*
X143465360Y-53161500D01*
X143376840Y-53161500D01*
X143310657Y-53154981D01*
X143244473Y-53148463D01*
X143074634Y-53096943D01*
X142918109Y-53013278D01*
X142868806Y-52972816D01*
X142780914Y-52900686D01*
X142683338Y-52781788D01*
X142668322Y-52763491D01*
X142584657Y-52606966D01*
X142533137Y-52437127D01*
X142515741Y-52260500D01*
X142533137Y-52083873D01*
X142584657Y-51914034D01*
X142668322Y-51757509D01*
X142717864Y-51697142D01*
X142780914Y-51620314D01*
X142893191Y-51528172D01*
X142918109Y-51507722D01*
X143074634Y-51424057D01*
X143244473Y-51372537D01*
X143310657Y-51366019D01*
X143376840Y-51359500D01*
X143465360Y-51359500D01*
X143531543Y-51366019D01*
X143531543Y-51366019D01*
G37*
G36*
X158771543Y-51366019D02*
G01*
X158837727Y-51372537D01*
X159007566Y-51424057D01*
X159164091Y-51507722D01*
X159189009Y-51528172D01*
X159301286Y-51620314D01*
X159364336Y-51697142D01*
X159413878Y-51757509D01*
X159497543Y-51914034D01*
X159549063Y-52083873D01*
X159566459Y-52260500D01*
X159549063Y-52437127D01*
X159497543Y-52606966D01*
X159413878Y-52763491D01*
X159398862Y-52781788D01*
X159301286Y-52900686D01*
X159213394Y-52972816D01*
X159164091Y-53013278D01*
X159007566Y-53096943D01*
X158837727Y-53148463D01*
X158771543Y-53154981D01*
X158705360Y-53161500D01*
X158616840Y-53161500D01*
X158550657Y-53154981D01*
X158484473Y-53148463D01*
X158314634Y-53096943D01*
X158158109Y-53013278D01*
X158108806Y-52972816D01*
X158020914Y-52900686D01*
X157923338Y-52781788D01*
X157908322Y-52763491D01*
X157824657Y-52606966D01*
X157773137Y-52437127D01*
X157755741Y-52260500D01*
X157773137Y-52083873D01*
X157824657Y-51914034D01*
X157908322Y-51757509D01*
X157957864Y-51697142D01*
X158020914Y-51620314D01*
X158133191Y-51528172D01*
X158158109Y-51507722D01*
X158314634Y-51424057D01*
X158484473Y-51372537D01*
X158550657Y-51366019D01*
X158616840Y-51359500D01*
X158705360Y-51359500D01*
X158771543Y-51366019D01*
X158771543Y-51366019D01*
G37*
G36*
X146071543Y-51366019D02*
G01*
X146137727Y-51372537D01*
X146307566Y-51424057D01*
X146464091Y-51507722D01*
X146489009Y-51528172D01*
X146601286Y-51620314D01*
X146664336Y-51697142D01*
X146713878Y-51757509D01*
X146797543Y-51914034D01*
X146849063Y-52083873D01*
X146866459Y-52260500D01*
X146849063Y-52437127D01*
X146797543Y-52606966D01*
X146713878Y-52763491D01*
X146698862Y-52781788D01*
X146601286Y-52900686D01*
X146513394Y-52972816D01*
X146464091Y-53013278D01*
X146307566Y-53096943D01*
X146137727Y-53148463D01*
X146071543Y-53154981D01*
X146005360Y-53161500D01*
X145916840Y-53161500D01*
X145850657Y-53154981D01*
X145784473Y-53148463D01*
X145614634Y-53096943D01*
X145458109Y-53013278D01*
X145408806Y-52972816D01*
X145320914Y-52900686D01*
X145223338Y-52781788D01*
X145208322Y-52763491D01*
X145124657Y-52606966D01*
X145073137Y-52437127D01*
X145055741Y-52260500D01*
X145073137Y-52083873D01*
X145124657Y-51914034D01*
X145208322Y-51757509D01*
X145257864Y-51697142D01*
X145320914Y-51620314D01*
X145433191Y-51528172D01*
X145458109Y-51507722D01*
X145614634Y-51424057D01*
X145784473Y-51372537D01*
X145850657Y-51366019D01*
X145916840Y-51359500D01*
X146005360Y-51359500D01*
X146071543Y-51366019D01*
X146071543Y-51366019D01*
G37*
G36*
X148611543Y-51366019D02*
G01*
X148677727Y-51372537D01*
X148847566Y-51424057D01*
X149004091Y-51507722D01*
X149029009Y-51528172D01*
X149141286Y-51620314D01*
X149204336Y-51697142D01*
X149253878Y-51757509D01*
X149337543Y-51914034D01*
X149389063Y-52083873D01*
X149406459Y-52260500D01*
X149389063Y-52437127D01*
X149337543Y-52606966D01*
X149253878Y-52763491D01*
X149238862Y-52781788D01*
X149141286Y-52900686D01*
X149053394Y-52972816D01*
X149004091Y-53013278D01*
X148847566Y-53096943D01*
X148677727Y-53148463D01*
X148611543Y-53154981D01*
X148545360Y-53161500D01*
X148456840Y-53161500D01*
X148390657Y-53154981D01*
X148324473Y-53148463D01*
X148154634Y-53096943D01*
X147998109Y-53013278D01*
X147948806Y-52972816D01*
X147860914Y-52900686D01*
X147763338Y-52781788D01*
X147748322Y-52763491D01*
X147664657Y-52606966D01*
X147613137Y-52437127D01*
X147595741Y-52260500D01*
X147613137Y-52083873D01*
X147664657Y-51914034D01*
X147748322Y-51757509D01*
X147797864Y-51697142D01*
X147860914Y-51620314D01*
X147973191Y-51528172D01*
X147998109Y-51507722D01*
X148154634Y-51424057D01*
X148324473Y-51372537D01*
X148390657Y-51366019D01*
X148456840Y-51359500D01*
X148545360Y-51359500D01*
X148611543Y-51366019D01*
X148611543Y-51366019D01*
G37*
G36*
X151151543Y-51366019D02*
G01*
X151217727Y-51372537D01*
X151387566Y-51424057D01*
X151544091Y-51507722D01*
X151569009Y-51528172D01*
X151681286Y-51620314D01*
X151744336Y-51697142D01*
X151793878Y-51757509D01*
X151877543Y-51914034D01*
X151929063Y-52083873D01*
X151946459Y-52260500D01*
X151929063Y-52437127D01*
X151877543Y-52606966D01*
X151793878Y-52763491D01*
X151778862Y-52781788D01*
X151681286Y-52900686D01*
X151593394Y-52972816D01*
X151544091Y-53013278D01*
X151387566Y-53096943D01*
X151217727Y-53148463D01*
X151151543Y-53154981D01*
X151085360Y-53161500D01*
X150996840Y-53161500D01*
X150930657Y-53154981D01*
X150864473Y-53148463D01*
X150694634Y-53096943D01*
X150538109Y-53013278D01*
X150488806Y-52972816D01*
X150400914Y-52900686D01*
X150303338Y-52781788D01*
X150288322Y-52763491D01*
X150204657Y-52606966D01*
X150153137Y-52437127D01*
X150135741Y-52260500D01*
X150153137Y-52083873D01*
X150204657Y-51914034D01*
X150288322Y-51757509D01*
X150337864Y-51697142D01*
X150400914Y-51620314D01*
X150513191Y-51528172D01*
X150538109Y-51507722D01*
X150694634Y-51424057D01*
X150864473Y-51372537D01*
X150930657Y-51366019D01*
X150996840Y-51359500D01*
X151085360Y-51359500D01*
X151151543Y-51366019D01*
X151151543Y-51366019D01*
G37*
G36*
X153691543Y-51366019D02*
G01*
X153757727Y-51372537D01*
X153927566Y-51424057D01*
X154084091Y-51507722D01*
X154109009Y-51528172D01*
X154221286Y-51620314D01*
X154284336Y-51697142D01*
X154333878Y-51757509D01*
X154417543Y-51914034D01*
X154469063Y-52083873D01*
X154486459Y-52260500D01*
X154469063Y-52437127D01*
X154417543Y-52606966D01*
X154333878Y-52763491D01*
X154318862Y-52781788D01*
X154221286Y-52900686D01*
X154133394Y-52972816D01*
X154084091Y-53013278D01*
X153927566Y-53096943D01*
X153757727Y-53148463D01*
X153691543Y-53154981D01*
X153625360Y-53161500D01*
X153536840Y-53161500D01*
X153470657Y-53154981D01*
X153404473Y-53148463D01*
X153234634Y-53096943D01*
X153078109Y-53013278D01*
X153028806Y-52972816D01*
X152940914Y-52900686D01*
X152843338Y-52781788D01*
X152828322Y-52763491D01*
X152744657Y-52606966D01*
X152693137Y-52437127D01*
X152675741Y-52260500D01*
X152693137Y-52083873D01*
X152744657Y-51914034D01*
X152828322Y-51757509D01*
X152877864Y-51697142D01*
X152940914Y-51620314D01*
X153053191Y-51528172D01*
X153078109Y-51507722D01*
X153234634Y-51424057D01*
X153404473Y-51372537D01*
X153470657Y-51366019D01*
X153536840Y-51359500D01*
X153625360Y-51359500D01*
X153691543Y-51366019D01*
X153691543Y-51366019D01*
G37*
G36*
X156231543Y-51366019D02*
G01*
X156297727Y-51372537D01*
X156467566Y-51424057D01*
X156624091Y-51507722D01*
X156649009Y-51528172D01*
X156761286Y-51620314D01*
X156824336Y-51697142D01*
X156873878Y-51757509D01*
X156957543Y-51914034D01*
X157009063Y-52083873D01*
X157026459Y-52260500D01*
X157009063Y-52437127D01*
X156957543Y-52606966D01*
X156873878Y-52763491D01*
X156858862Y-52781788D01*
X156761286Y-52900686D01*
X156673394Y-52972816D01*
X156624091Y-53013278D01*
X156467566Y-53096943D01*
X156297727Y-53148463D01*
X156231543Y-53154981D01*
X156165360Y-53161500D01*
X156076840Y-53161500D01*
X156010657Y-53154981D01*
X155944473Y-53148463D01*
X155774634Y-53096943D01*
X155618109Y-53013278D01*
X155568806Y-52972816D01*
X155480914Y-52900686D01*
X155383338Y-52781788D01*
X155368322Y-52763491D01*
X155284657Y-52606966D01*
X155233137Y-52437127D01*
X155215741Y-52260500D01*
X155233137Y-52083873D01*
X155284657Y-51914034D01*
X155368322Y-51757509D01*
X155417864Y-51697142D01*
X155480914Y-51620314D01*
X155593191Y-51528172D01*
X155618109Y-51507722D01*
X155774634Y-51424057D01*
X155944473Y-51372537D01*
X156010657Y-51366019D01*
X156076840Y-51359500D01*
X156165360Y-51359500D01*
X156231543Y-51366019D01*
X156231543Y-51366019D01*
G37*
G36*
X161311543Y-51366019D02*
G01*
X161377727Y-51372537D01*
X161547566Y-51424057D01*
X161704091Y-51507722D01*
X161729009Y-51528172D01*
X161841286Y-51620314D01*
X161904336Y-51697142D01*
X161953878Y-51757509D01*
X162037543Y-51914034D01*
X162089063Y-52083873D01*
X162106459Y-52260500D01*
X162089063Y-52437127D01*
X162037543Y-52606966D01*
X161953878Y-52763491D01*
X161938862Y-52781788D01*
X161841286Y-52900686D01*
X161753394Y-52972816D01*
X161704091Y-53013278D01*
X161547566Y-53096943D01*
X161377727Y-53148463D01*
X161311543Y-53154981D01*
X161245360Y-53161500D01*
X161156840Y-53161500D01*
X161090657Y-53154981D01*
X161024473Y-53148463D01*
X160854634Y-53096943D01*
X160698109Y-53013278D01*
X160648806Y-52972816D01*
X160560914Y-52900686D01*
X160463338Y-52781788D01*
X160448322Y-52763491D01*
X160364657Y-52606966D01*
X160313137Y-52437127D01*
X160295741Y-52260500D01*
X160313137Y-52083873D01*
X160364657Y-51914034D01*
X160448322Y-51757509D01*
X160497864Y-51697142D01*
X160560914Y-51620314D01*
X160673191Y-51528172D01*
X160698109Y-51507722D01*
X160854634Y-51424057D01*
X161024473Y-51372537D01*
X161090657Y-51366019D01*
X161156840Y-51359500D01*
X161245360Y-51359500D01*
X161311543Y-51366019D01*
X161311543Y-51366019D01*
G37*
G36*
X163851543Y-51366019D02*
G01*
X163917727Y-51372537D01*
X164087566Y-51424057D01*
X164244091Y-51507722D01*
X164269009Y-51528172D01*
X164381286Y-51620314D01*
X164444336Y-51697142D01*
X164493878Y-51757509D01*
X164577543Y-51914034D01*
X164629063Y-52083873D01*
X164646459Y-52260500D01*
X164629063Y-52437127D01*
X164577543Y-52606966D01*
X164493878Y-52763491D01*
X164478862Y-52781788D01*
X164381286Y-52900686D01*
X164293394Y-52972816D01*
X164244091Y-53013278D01*
X164087566Y-53096943D01*
X163917727Y-53148463D01*
X163851543Y-53154981D01*
X163785360Y-53161500D01*
X163696840Y-53161500D01*
X163630657Y-53154981D01*
X163564473Y-53148463D01*
X163394634Y-53096943D01*
X163238109Y-53013278D01*
X163188806Y-52972816D01*
X163100914Y-52900686D01*
X163003338Y-52781788D01*
X162988322Y-52763491D01*
X162904657Y-52606966D01*
X162853137Y-52437127D01*
X162835741Y-52260500D01*
X162853137Y-52083873D01*
X162904657Y-51914034D01*
X162988322Y-51757509D01*
X163037864Y-51697142D01*
X163100914Y-51620314D01*
X163213191Y-51528172D01*
X163238109Y-51507722D01*
X163394634Y-51424057D01*
X163564473Y-51372537D01*
X163630657Y-51366019D01*
X163696840Y-51359500D01*
X163785360Y-51359500D01*
X163851543Y-51366019D01*
X163851543Y-51366019D01*
G37*
G36*
X136702100Y-53161500D02*
G01*
X134900100Y-53161500D01*
X134900100Y-51359500D01*
X136702100Y-51359500D01*
X136702100Y-53161500D01*
X136702100Y-53161500D01*
G37*
G36*
X132117799Y-51396737D02*
G01*
X132127408Y-51399652D01*
X132136272Y-51404390D01*
X132144037Y-51410763D01*
X132154248Y-51423206D01*
X132161178Y-51433575D01*
X132178505Y-51450902D01*
X132198880Y-51464515D01*
X132221520Y-51473891D01*
X132245553Y-51478671D01*
X132270057Y-51478670D01*
X132294090Y-51473888D01*
X132316729Y-51464510D01*
X132337102Y-51450895D01*
X132354429Y-51433568D01*
X132361358Y-51423198D01*
X132371563Y-51410763D01*
X132379328Y-51404390D01*
X132388192Y-51399652D01*
X132397801Y-51396737D01*
X132413940Y-51395148D01*
X132901661Y-51395148D01*
X132919999Y-51396954D01*
X132932250Y-51397556D01*
X132950669Y-51397556D01*
X132972949Y-51399750D01*
X133057033Y-51416476D01*
X133078460Y-51422976D01*
X133157658Y-51455780D01*
X133163103Y-51458691D01*
X133163109Y-51458693D01*
X133171969Y-51463429D01*
X133171973Y-51463432D01*
X133177414Y-51466340D01*
X133248699Y-51513971D01*
X133266004Y-51528172D01*
X133326628Y-51588796D01*
X133340829Y-51606101D01*
X133388460Y-51677386D01*
X133391368Y-51682827D01*
X133391371Y-51682831D01*
X133396107Y-51691691D01*
X133396109Y-51691697D01*
X133399020Y-51697142D01*
X133431824Y-51776340D01*
X133438324Y-51797767D01*
X133455050Y-51881851D01*
X133457244Y-51904131D01*
X133457244Y-51922550D01*
X133457846Y-51934801D01*
X133459652Y-51953139D01*
X133459652Y-52440862D01*
X133457846Y-52459199D01*
X133457244Y-52471450D01*
X133457244Y-52489869D01*
X133455050Y-52512149D01*
X133438324Y-52596233D01*
X133431824Y-52617660D01*
X133399020Y-52696858D01*
X133396109Y-52702303D01*
X133396107Y-52702309D01*
X133391371Y-52711169D01*
X133391368Y-52711173D01*
X133388460Y-52716614D01*
X133340829Y-52787899D01*
X133326628Y-52805204D01*
X133266004Y-52865828D01*
X133248699Y-52880029D01*
X133177414Y-52927660D01*
X133171973Y-52930568D01*
X133171969Y-52930571D01*
X133163109Y-52935307D01*
X133163103Y-52935309D01*
X133157658Y-52938220D01*
X133078460Y-52971024D01*
X133057033Y-52977524D01*
X132972949Y-52994250D01*
X132950669Y-52996444D01*
X132932250Y-52996444D01*
X132919999Y-52997046D01*
X132901662Y-52998852D01*
X132413940Y-52998852D01*
X132397801Y-52997263D01*
X132388192Y-52994348D01*
X132379328Y-52989610D01*
X132371563Y-52983237D01*
X132361352Y-52970794D01*
X132354422Y-52960425D01*
X132337095Y-52943098D01*
X132316720Y-52929485D01*
X132294080Y-52920109D01*
X132270047Y-52915329D01*
X132245543Y-52915330D01*
X132221510Y-52920112D01*
X132198871Y-52929490D01*
X132178498Y-52943105D01*
X132161171Y-52960432D01*
X132154242Y-52970802D01*
X132144037Y-52983237D01*
X132136272Y-52989610D01*
X132127408Y-52994348D01*
X132117799Y-52997263D01*
X132101660Y-52998852D01*
X131613938Y-52998852D01*
X131595601Y-52997046D01*
X131583350Y-52996444D01*
X131564931Y-52996444D01*
X131542651Y-52994250D01*
X131458567Y-52977524D01*
X131437140Y-52971024D01*
X131357942Y-52938220D01*
X131352497Y-52935309D01*
X131352491Y-52935307D01*
X131343631Y-52930571D01*
X131343627Y-52930568D01*
X131338186Y-52927660D01*
X131266901Y-52880029D01*
X131249596Y-52865828D01*
X131188972Y-52805204D01*
X131174771Y-52787899D01*
X131127140Y-52716614D01*
X131124232Y-52711173D01*
X131124229Y-52711169D01*
X131119493Y-52702309D01*
X131119491Y-52702303D01*
X131116580Y-52696858D01*
X131083776Y-52617660D01*
X131077276Y-52596233D01*
X131060550Y-52512149D01*
X131058356Y-52489869D01*
X131058356Y-52471450D01*
X131057754Y-52459199D01*
X131055948Y-52440862D01*
X131055948Y-51953139D01*
X131057754Y-51934801D01*
X131058356Y-51922550D01*
X131058356Y-51904131D01*
X131060550Y-51881851D01*
X131077276Y-51797767D01*
X131083776Y-51776340D01*
X131116580Y-51697142D01*
X131119491Y-51691697D01*
X131119493Y-51691691D01*
X131124229Y-51682831D01*
X131124232Y-51682827D01*
X131127140Y-51677386D01*
X131174771Y-51606101D01*
X131188972Y-51588796D01*
X131249596Y-51528172D01*
X131266901Y-51513971D01*
X131338186Y-51466340D01*
X131343627Y-51463432D01*
X131343631Y-51463429D01*
X131352491Y-51458693D01*
X131352497Y-51458691D01*
X131357942Y-51455780D01*
X131437140Y-51422976D01*
X131458567Y-51416476D01*
X131542651Y-51399750D01*
X131564931Y-51397556D01*
X131583350Y-51397556D01*
X131595601Y-51396954D01*
X131613939Y-51395148D01*
X132101660Y-51395148D01*
X132117799Y-51396737D01*
X132117799Y-51396737D01*
G37*
G36*
X130468468Y-51450565D02*
G01*
X130507138Y-51462296D01*
X130542777Y-51481346D01*
X130574017Y-51506983D01*
X130599654Y-51538223D01*
X130618704Y-51573862D01*
X130630435Y-51612532D01*
X130635000Y-51658888D01*
X130635000Y-52735112D01*
X130630435Y-52781468D01*
X130618704Y-52820138D01*
X130599654Y-52855777D01*
X130574017Y-52887017D01*
X130542777Y-52912654D01*
X130507138Y-52931704D01*
X130468468Y-52943435D01*
X130422112Y-52948000D01*
X129770888Y-52948000D01*
X129724532Y-52943435D01*
X129685862Y-52931704D01*
X129650223Y-52912654D01*
X129618983Y-52887017D01*
X129593346Y-52855777D01*
X129574296Y-52820138D01*
X129562565Y-52781468D01*
X129558000Y-52735112D01*
X129558000Y-51658888D01*
X129562565Y-51612532D01*
X129574296Y-51573862D01*
X129593346Y-51538223D01*
X129618983Y-51506983D01*
X129650223Y-51481346D01*
X129685862Y-51462296D01*
X129724532Y-51450565D01*
X129770888Y-51446000D01*
X130422112Y-51446000D01*
X130468468Y-51450565D01*
X130468468Y-51450565D01*
G37*
G36*
X128593468Y-51450565D02*
G01*
X128632138Y-51462296D01*
X128667777Y-51481346D01*
X128699017Y-51506983D01*
X128724654Y-51538223D01*
X128743704Y-51573862D01*
X128755435Y-51612532D01*
X128760000Y-51658888D01*
X128760000Y-52735112D01*
X128755435Y-52781468D01*
X128743704Y-52820138D01*
X128724654Y-52855777D01*
X128699017Y-52887017D01*
X128667777Y-52912654D01*
X128632138Y-52931704D01*
X128593468Y-52943435D01*
X128547112Y-52948000D01*
X127895888Y-52948000D01*
X127849532Y-52943435D01*
X127810862Y-52931704D01*
X127775223Y-52912654D01*
X127743983Y-52887017D01*
X127718346Y-52855777D01*
X127699296Y-52820138D01*
X127687565Y-52781468D01*
X127683000Y-52735112D01*
X127683000Y-51658888D01*
X127687565Y-51612532D01*
X127699296Y-51573862D01*
X127718346Y-51538223D01*
X127743983Y-51506983D01*
X127775223Y-51481346D01*
X127810862Y-51462296D01*
X127849532Y-51450565D01*
X127895888Y-51446000D01*
X128547112Y-51446000D01*
X128593468Y-51450565D01*
X128593468Y-51450565D01*
G37*
G36*
X127166468Y-51450565D02*
G01*
X127205138Y-51462296D01*
X127240777Y-51481346D01*
X127272017Y-51506983D01*
X127297654Y-51538223D01*
X127316704Y-51573862D01*
X127328435Y-51612532D01*
X127333000Y-51658888D01*
X127333000Y-52735112D01*
X127328435Y-52781468D01*
X127316704Y-52820138D01*
X127297654Y-52855777D01*
X127272017Y-52887017D01*
X127240777Y-52912654D01*
X127205138Y-52931704D01*
X127166468Y-52943435D01*
X127120112Y-52948000D01*
X126468888Y-52948000D01*
X126422532Y-52943435D01*
X126383862Y-52931704D01*
X126348223Y-52912654D01*
X126316983Y-52887017D01*
X126291346Y-52855777D01*
X126272296Y-52820138D01*
X126260565Y-52781468D01*
X126256000Y-52735112D01*
X126256000Y-51658888D01*
X126260565Y-51612532D01*
X126272296Y-51573862D01*
X126291346Y-51538223D01*
X126316983Y-51506983D01*
X126348223Y-51481346D01*
X126383862Y-51462296D01*
X126422532Y-51450565D01*
X126468888Y-51446000D01*
X127120112Y-51446000D01*
X127166468Y-51450565D01*
X127166468Y-51450565D01*
G37*
G36*
X125291468Y-51450565D02*
G01*
X125330138Y-51462296D01*
X125365777Y-51481346D01*
X125397017Y-51506983D01*
X125422654Y-51538223D01*
X125441704Y-51573862D01*
X125453435Y-51612532D01*
X125458000Y-51658888D01*
X125458000Y-52735112D01*
X125453435Y-52781468D01*
X125441704Y-52820138D01*
X125422654Y-52855777D01*
X125397017Y-52887017D01*
X125365777Y-52912654D01*
X125330138Y-52931704D01*
X125291468Y-52943435D01*
X125245112Y-52948000D01*
X124593888Y-52948000D01*
X124547532Y-52943435D01*
X124508862Y-52931704D01*
X124473223Y-52912654D01*
X124441983Y-52887017D01*
X124416346Y-52855777D01*
X124397296Y-52820138D01*
X124385565Y-52781468D01*
X124381000Y-52735112D01*
X124381000Y-51658888D01*
X124385565Y-51612532D01*
X124397296Y-51573862D01*
X124416346Y-51538223D01*
X124441983Y-51506983D01*
X124473223Y-51481346D01*
X124508862Y-51462296D01*
X124547532Y-51450565D01*
X124593888Y-51446000D01*
X125245112Y-51446000D01*
X125291468Y-51450565D01*
X125291468Y-51450565D01*
G37*
M02*
