G04 #@! TF.GenerationSoftware,KiCad,Pcbnew,(5.1.4)-1*
G04 #@! TF.CreationDate,2019-12-01T21:56:44-05:00*
G04 #@! TF.ProjectId,Feather-weather-station,46656174-6865-4722-9d77-656174686572,rev?*
G04 #@! TF.SameCoordinates,Original*
G04 #@! TF.FileFunction,Copper,L1,Top*
G04 #@! TF.FilePolarity,Positive*
%FSLAX46Y46*%
G04 Gerber Fmt 4.6, Leading zero omitted, Abs format (unit mm)*
G04 Created by KiCad (PCBNEW (5.1.4)-1) date 2019-12-01 21:56:44*
%MOMM*%
%LPD*%
G04 APERTURE LIST*
%ADD10C,0.100000*%
%ADD11R,1.200000X0.700000*%
%ADD12R,1.200000X1.000000*%
%ADD13R,0.800000X1.000000*%
%ADD14R,2.800000X1.000000*%
%ADD15R,1.900000X1.300000*%
%ADD16O,0.800000X0.350000*%
%ADD17O,0.350000X0.800000*%
%ADD18R,2.800000X2.800000*%
%ADD19C,0.300000*%
%ADD20R,1.000000X0.300000*%
%ADD21R,1.300000X2.200000*%
%ADD22R,0.600000X0.400000*%
%ADD23C,3.800000*%
%ADD24C,0.975000*%
%ADD25O,1.700000X1.700000*%
%ADD26R,1.700000X1.700000*%
%ADD27C,0.500000*%
%ADD28R,3.200000X1.300000*%
%ADD29R,0.800000X0.800000*%
%ADD30C,0.660400*%
%ADD31C,0.800000*%
%ADD32C,0.609600*%
%ADD33C,0.152400*%
%ADD34C,0.254000*%
%ADD35C,0.508000*%
G04 APERTURE END LIST*
D10*
G36*
X132007800Y-52497000D02*
G01*
X132507800Y-52497000D01*
X132507800Y-51897000D01*
X132007800Y-51897000D01*
X132007800Y-52497000D01*
G37*
D11*
X153641200Y-68295500D03*
X153641200Y-67345500D03*
X153641200Y-59645500D03*
X153641200Y-60745500D03*
X153641200Y-61845500D03*
X153641200Y-62945500D03*
X153641200Y-64045500D03*
X153641200Y-65145500D03*
X153641200Y-66245500D03*
D12*
X153641200Y-58095500D03*
X157941200Y-69245500D03*
D13*
X164141200Y-69245500D03*
D14*
X168291200Y-69245500D03*
D15*
X168741200Y-55745500D03*
D16*
X128568700Y-61572500D03*
X128568700Y-62222500D03*
X128568700Y-62872500D03*
X128568700Y-63522500D03*
D17*
X129593700Y-64547500D03*
X130243700Y-64547500D03*
X130893700Y-64547500D03*
X131543700Y-64547500D03*
D16*
X132568700Y-63522500D03*
X132568700Y-62872500D03*
X132568700Y-62222500D03*
X132568700Y-61572500D03*
D17*
X131543700Y-60547500D03*
X130893700Y-60547500D03*
X130243700Y-60547500D03*
X129593700Y-60547500D03*
D18*
X130568700Y-62547500D03*
D19*
X139788900Y-63492200D03*
D10*
G36*
X139138900Y-63642200D02*
G01*
X139438900Y-63342200D01*
X140138900Y-63342200D01*
X140438900Y-63642200D01*
X139138900Y-63642200D01*
X139138900Y-63642200D01*
G37*
D20*
X139938900Y-63492200D03*
D21*
X139788900Y-64742200D03*
D22*
X140838900Y-65792200D03*
X140838900Y-65192200D03*
X140838900Y-63392200D03*
X140838900Y-63992200D03*
X138738900Y-65792200D03*
X138738900Y-63392200D03*
X138738900Y-63992200D03*
X138738900Y-64592200D03*
X138738900Y-65192200D03*
X140838900Y-64592200D03*
D23*
X121831100Y-71310500D03*
X121831100Y-53530500D03*
D10*
G36*
X127429342Y-61123674D02*
G01*
X127453003Y-61127184D01*
X127476207Y-61132996D01*
X127498729Y-61141054D01*
X127520353Y-61151282D01*
X127540870Y-61163579D01*
X127560083Y-61177829D01*
X127577807Y-61193893D01*
X127593871Y-61211617D01*
X127608121Y-61230830D01*
X127620418Y-61251347D01*
X127630646Y-61272971D01*
X127638704Y-61295493D01*
X127644516Y-61318697D01*
X127648026Y-61342358D01*
X127649200Y-61366250D01*
X127649200Y-61853750D01*
X127648026Y-61877642D01*
X127644516Y-61901303D01*
X127638704Y-61924507D01*
X127630646Y-61947029D01*
X127620418Y-61968653D01*
X127608121Y-61989170D01*
X127593871Y-62008383D01*
X127577807Y-62026107D01*
X127560083Y-62042171D01*
X127540870Y-62056421D01*
X127520353Y-62068718D01*
X127498729Y-62078946D01*
X127476207Y-62087004D01*
X127453003Y-62092816D01*
X127429342Y-62096326D01*
X127405450Y-62097500D01*
X126492950Y-62097500D01*
X126469058Y-62096326D01*
X126445397Y-62092816D01*
X126422193Y-62087004D01*
X126399671Y-62078946D01*
X126378047Y-62068718D01*
X126357530Y-62056421D01*
X126338317Y-62042171D01*
X126320593Y-62026107D01*
X126304529Y-62008383D01*
X126290279Y-61989170D01*
X126277982Y-61968653D01*
X126267754Y-61947029D01*
X126259696Y-61924507D01*
X126253884Y-61901303D01*
X126250374Y-61877642D01*
X126249200Y-61853750D01*
X126249200Y-61366250D01*
X126250374Y-61342358D01*
X126253884Y-61318697D01*
X126259696Y-61295493D01*
X126267754Y-61272971D01*
X126277982Y-61251347D01*
X126290279Y-61230830D01*
X126304529Y-61211617D01*
X126320593Y-61193893D01*
X126338317Y-61177829D01*
X126357530Y-61163579D01*
X126378047Y-61151282D01*
X126399671Y-61141054D01*
X126422193Y-61132996D01*
X126445397Y-61127184D01*
X126469058Y-61123674D01*
X126492950Y-61122500D01*
X127405450Y-61122500D01*
X127429342Y-61123674D01*
X127429342Y-61123674D01*
G37*
D24*
X126949200Y-61610000D03*
D10*
G36*
X127429342Y-62998674D02*
G01*
X127453003Y-63002184D01*
X127476207Y-63007996D01*
X127498729Y-63016054D01*
X127520353Y-63026282D01*
X127540870Y-63038579D01*
X127560083Y-63052829D01*
X127577807Y-63068893D01*
X127593871Y-63086617D01*
X127608121Y-63105830D01*
X127620418Y-63126347D01*
X127630646Y-63147971D01*
X127638704Y-63170493D01*
X127644516Y-63193697D01*
X127648026Y-63217358D01*
X127649200Y-63241250D01*
X127649200Y-63728750D01*
X127648026Y-63752642D01*
X127644516Y-63776303D01*
X127638704Y-63799507D01*
X127630646Y-63822029D01*
X127620418Y-63843653D01*
X127608121Y-63864170D01*
X127593871Y-63883383D01*
X127577807Y-63901107D01*
X127560083Y-63917171D01*
X127540870Y-63931421D01*
X127520353Y-63943718D01*
X127498729Y-63953946D01*
X127476207Y-63962004D01*
X127453003Y-63967816D01*
X127429342Y-63971326D01*
X127405450Y-63972500D01*
X126492950Y-63972500D01*
X126469058Y-63971326D01*
X126445397Y-63967816D01*
X126422193Y-63962004D01*
X126399671Y-63953946D01*
X126378047Y-63943718D01*
X126357530Y-63931421D01*
X126338317Y-63917171D01*
X126320593Y-63901107D01*
X126304529Y-63883383D01*
X126290279Y-63864170D01*
X126277982Y-63843653D01*
X126267754Y-63822029D01*
X126259696Y-63799507D01*
X126253884Y-63776303D01*
X126250374Y-63752642D01*
X126249200Y-63728750D01*
X126249200Y-63241250D01*
X126250374Y-63217358D01*
X126253884Y-63193697D01*
X126259696Y-63170493D01*
X126267754Y-63147971D01*
X126277982Y-63126347D01*
X126290279Y-63105830D01*
X126304529Y-63086617D01*
X126320593Y-63068893D01*
X126338317Y-63052829D01*
X126357530Y-63038579D01*
X126378047Y-63026282D01*
X126399671Y-63016054D01*
X126422193Y-63007996D01*
X126445397Y-63002184D01*
X126469058Y-62998674D01*
X126492950Y-62997500D01*
X127405450Y-62997500D01*
X127429342Y-62998674D01*
X127429342Y-62998674D01*
G37*
D24*
X126949200Y-63485000D03*
D10*
G36*
X129771842Y-65557074D02*
G01*
X129795503Y-65560584D01*
X129818707Y-65566396D01*
X129841229Y-65574454D01*
X129862853Y-65584682D01*
X129883370Y-65596979D01*
X129902583Y-65611229D01*
X129920307Y-65627293D01*
X129936371Y-65645017D01*
X129950621Y-65664230D01*
X129962918Y-65684747D01*
X129973146Y-65706371D01*
X129981204Y-65728893D01*
X129987016Y-65752097D01*
X129990526Y-65775758D01*
X129991700Y-65799650D01*
X129991700Y-66712150D01*
X129990526Y-66736042D01*
X129987016Y-66759703D01*
X129981204Y-66782907D01*
X129973146Y-66805429D01*
X129962918Y-66827053D01*
X129950621Y-66847570D01*
X129936371Y-66866783D01*
X129920307Y-66884507D01*
X129902583Y-66900571D01*
X129883370Y-66914821D01*
X129862853Y-66927118D01*
X129841229Y-66937346D01*
X129818707Y-66945404D01*
X129795503Y-66951216D01*
X129771842Y-66954726D01*
X129747950Y-66955900D01*
X129260450Y-66955900D01*
X129236558Y-66954726D01*
X129212897Y-66951216D01*
X129189693Y-66945404D01*
X129167171Y-66937346D01*
X129145547Y-66927118D01*
X129125030Y-66914821D01*
X129105817Y-66900571D01*
X129088093Y-66884507D01*
X129072029Y-66866783D01*
X129057779Y-66847570D01*
X129045482Y-66827053D01*
X129035254Y-66805429D01*
X129027196Y-66782907D01*
X129021384Y-66759703D01*
X129017874Y-66736042D01*
X129016700Y-66712150D01*
X129016700Y-65799650D01*
X129017874Y-65775758D01*
X129021384Y-65752097D01*
X129027196Y-65728893D01*
X129035254Y-65706371D01*
X129045482Y-65684747D01*
X129057779Y-65664230D01*
X129072029Y-65645017D01*
X129088093Y-65627293D01*
X129105817Y-65611229D01*
X129125030Y-65596979D01*
X129145547Y-65584682D01*
X129167171Y-65574454D01*
X129189693Y-65566396D01*
X129212897Y-65560584D01*
X129236558Y-65557074D01*
X129260450Y-65555900D01*
X129747950Y-65555900D01*
X129771842Y-65557074D01*
X129771842Y-65557074D01*
G37*
D24*
X129504200Y-66255900D03*
D10*
G36*
X131646842Y-65557074D02*
G01*
X131670503Y-65560584D01*
X131693707Y-65566396D01*
X131716229Y-65574454D01*
X131737853Y-65584682D01*
X131758370Y-65596979D01*
X131777583Y-65611229D01*
X131795307Y-65627293D01*
X131811371Y-65645017D01*
X131825621Y-65664230D01*
X131837918Y-65684747D01*
X131848146Y-65706371D01*
X131856204Y-65728893D01*
X131862016Y-65752097D01*
X131865526Y-65775758D01*
X131866700Y-65799650D01*
X131866700Y-66712150D01*
X131865526Y-66736042D01*
X131862016Y-66759703D01*
X131856204Y-66782907D01*
X131848146Y-66805429D01*
X131837918Y-66827053D01*
X131825621Y-66847570D01*
X131811371Y-66866783D01*
X131795307Y-66884507D01*
X131777583Y-66900571D01*
X131758370Y-66914821D01*
X131737853Y-66927118D01*
X131716229Y-66937346D01*
X131693707Y-66945404D01*
X131670503Y-66951216D01*
X131646842Y-66954726D01*
X131622950Y-66955900D01*
X131135450Y-66955900D01*
X131111558Y-66954726D01*
X131087897Y-66951216D01*
X131064693Y-66945404D01*
X131042171Y-66937346D01*
X131020547Y-66927118D01*
X131000030Y-66914821D01*
X130980817Y-66900571D01*
X130963093Y-66884507D01*
X130947029Y-66866783D01*
X130932779Y-66847570D01*
X130920482Y-66827053D01*
X130910254Y-66805429D01*
X130902196Y-66782907D01*
X130896384Y-66759703D01*
X130892874Y-66736042D01*
X130891700Y-66712150D01*
X130891700Y-65799650D01*
X130892874Y-65775758D01*
X130896384Y-65752097D01*
X130902196Y-65728893D01*
X130910254Y-65706371D01*
X130920482Y-65684747D01*
X130932779Y-65664230D01*
X130947029Y-65645017D01*
X130963093Y-65627293D01*
X130980817Y-65611229D01*
X131000030Y-65596979D01*
X131020547Y-65584682D01*
X131042171Y-65574454D01*
X131064693Y-65566396D01*
X131087897Y-65560584D01*
X131111558Y-65557074D01*
X131135450Y-65555900D01*
X131622950Y-65555900D01*
X131646842Y-65557074D01*
X131646842Y-65557074D01*
G37*
D24*
X131379200Y-66255900D03*
D10*
G36*
X139195242Y-66915974D02*
G01*
X139218903Y-66919484D01*
X139242107Y-66925296D01*
X139264629Y-66933354D01*
X139286253Y-66943582D01*
X139306770Y-66955879D01*
X139325983Y-66970129D01*
X139343707Y-66986193D01*
X139359771Y-67003917D01*
X139374021Y-67023130D01*
X139386318Y-67043647D01*
X139396546Y-67065271D01*
X139404604Y-67087793D01*
X139410416Y-67110997D01*
X139413926Y-67134658D01*
X139415100Y-67158550D01*
X139415100Y-68071050D01*
X139413926Y-68094942D01*
X139410416Y-68118603D01*
X139404604Y-68141807D01*
X139396546Y-68164329D01*
X139386318Y-68185953D01*
X139374021Y-68206470D01*
X139359771Y-68225683D01*
X139343707Y-68243407D01*
X139325983Y-68259471D01*
X139306770Y-68273721D01*
X139286253Y-68286018D01*
X139264629Y-68296246D01*
X139242107Y-68304304D01*
X139218903Y-68310116D01*
X139195242Y-68313626D01*
X139171350Y-68314800D01*
X138683850Y-68314800D01*
X138659958Y-68313626D01*
X138636297Y-68310116D01*
X138613093Y-68304304D01*
X138590571Y-68296246D01*
X138568947Y-68286018D01*
X138548430Y-68273721D01*
X138529217Y-68259471D01*
X138511493Y-68243407D01*
X138495429Y-68225683D01*
X138481179Y-68206470D01*
X138468882Y-68185953D01*
X138458654Y-68164329D01*
X138450596Y-68141807D01*
X138444784Y-68118603D01*
X138441274Y-68094942D01*
X138440100Y-68071050D01*
X138440100Y-67158550D01*
X138441274Y-67134658D01*
X138444784Y-67110997D01*
X138450596Y-67087793D01*
X138458654Y-67065271D01*
X138468882Y-67043647D01*
X138481179Y-67023130D01*
X138495429Y-67003917D01*
X138511493Y-66986193D01*
X138529217Y-66970129D01*
X138548430Y-66955879D01*
X138568947Y-66943582D01*
X138590571Y-66933354D01*
X138613093Y-66925296D01*
X138636297Y-66919484D01*
X138659958Y-66915974D01*
X138683850Y-66914800D01*
X139171350Y-66914800D01*
X139195242Y-66915974D01*
X139195242Y-66915974D01*
G37*
D24*
X138927600Y-67614800D03*
D10*
G36*
X141070242Y-66915974D02*
G01*
X141093903Y-66919484D01*
X141117107Y-66925296D01*
X141139629Y-66933354D01*
X141161253Y-66943582D01*
X141181770Y-66955879D01*
X141200983Y-66970129D01*
X141218707Y-66986193D01*
X141234771Y-67003917D01*
X141249021Y-67023130D01*
X141261318Y-67043647D01*
X141271546Y-67065271D01*
X141279604Y-67087793D01*
X141285416Y-67110997D01*
X141288926Y-67134658D01*
X141290100Y-67158550D01*
X141290100Y-68071050D01*
X141288926Y-68094942D01*
X141285416Y-68118603D01*
X141279604Y-68141807D01*
X141271546Y-68164329D01*
X141261318Y-68185953D01*
X141249021Y-68206470D01*
X141234771Y-68225683D01*
X141218707Y-68243407D01*
X141200983Y-68259471D01*
X141181770Y-68273721D01*
X141161253Y-68286018D01*
X141139629Y-68296246D01*
X141117107Y-68304304D01*
X141093903Y-68310116D01*
X141070242Y-68313626D01*
X141046350Y-68314800D01*
X140558850Y-68314800D01*
X140534958Y-68313626D01*
X140511297Y-68310116D01*
X140488093Y-68304304D01*
X140465571Y-68296246D01*
X140443947Y-68286018D01*
X140423430Y-68273721D01*
X140404217Y-68259471D01*
X140386493Y-68243407D01*
X140370429Y-68225683D01*
X140356179Y-68206470D01*
X140343882Y-68185953D01*
X140333654Y-68164329D01*
X140325596Y-68141807D01*
X140319784Y-68118603D01*
X140316274Y-68094942D01*
X140315100Y-68071050D01*
X140315100Y-67158550D01*
X140316274Y-67134658D01*
X140319784Y-67110997D01*
X140325596Y-67087793D01*
X140333654Y-67065271D01*
X140343882Y-67043647D01*
X140356179Y-67023130D01*
X140370429Y-67003917D01*
X140386493Y-66986193D01*
X140404217Y-66970129D01*
X140423430Y-66955879D01*
X140443947Y-66943582D01*
X140465571Y-66933354D01*
X140488093Y-66925296D01*
X140511297Y-66919484D01*
X140534958Y-66915974D01*
X140558850Y-66914800D01*
X141046350Y-66914800D01*
X141070242Y-66915974D01*
X141070242Y-66915974D01*
G37*
D24*
X140802600Y-67614800D03*
D10*
G36*
X138166542Y-56273374D02*
G01*
X138190203Y-56276884D01*
X138213407Y-56282696D01*
X138235929Y-56290754D01*
X138257553Y-56300982D01*
X138278070Y-56313279D01*
X138297283Y-56327529D01*
X138315007Y-56343593D01*
X138331071Y-56361317D01*
X138345321Y-56380530D01*
X138357618Y-56401047D01*
X138367846Y-56422671D01*
X138375904Y-56445193D01*
X138381716Y-56468397D01*
X138385226Y-56492058D01*
X138386400Y-56515950D01*
X138386400Y-57428450D01*
X138385226Y-57452342D01*
X138381716Y-57476003D01*
X138375904Y-57499207D01*
X138367846Y-57521729D01*
X138357618Y-57543353D01*
X138345321Y-57563870D01*
X138331071Y-57583083D01*
X138315007Y-57600807D01*
X138297283Y-57616871D01*
X138278070Y-57631121D01*
X138257553Y-57643418D01*
X138235929Y-57653646D01*
X138213407Y-57661704D01*
X138190203Y-57667516D01*
X138166542Y-57671026D01*
X138142650Y-57672200D01*
X137655150Y-57672200D01*
X137631258Y-57671026D01*
X137607597Y-57667516D01*
X137584393Y-57661704D01*
X137561871Y-57653646D01*
X137540247Y-57643418D01*
X137519730Y-57631121D01*
X137500517Y-57616871D01*
X137482793Y-57600807D01*
X137466729Y-57583083D01*
X137452479Y-57563870D01*
X137440182Y-57543353D01*
X137429954Y-57521729D01*
X137421896Y-57499207D01*
X137416084Y-57476003D01*
X137412574Y-57452342D01*
X137411400Y-57428450D01*
X137411400Y-56515950D01*
X137412574Y-56492058D01*
X137416084Y-56468397D01*
X137421896Y-56445193D01*
X137429954Y-56422671D01*
X137440182Y-56401047D01*
X137452479Y-56380530D01*
X137466729Y-56361317D01*
X137482793Y-56343593D01*
X137500517Y-56327529D01*
X137519730Y-56313279D01*
X137540247Y-56300982D01*
X137561871Y-56290754D01*
X137584393Y-56282696D01*
X137607597Y-56276884D01*
X137631258Y-56273374D01*
X137655150Y-56272200D01*
X138142650Y-56272200D01*
X138166542Y-56273374D01*
X138166542Y-56273374D01*
G37*
D24*
X137898900Y-56972200D03*
D10*
G36*
X140041542Y-56273374D02*
G01*
X140065203Y-56276884D01*
X140088407Y-56282696D01*
X140110929Y-56290754D01*
X140132553Y-56300982D01*
X140153070Y-56313279D01*
X140172283Y-56327529D01*
X140190007Y-56343593D01*
X140206071Y-56361317D01*
X140220321Y-56380530D01*
X140232618Y-56401047D01*
X140242846Y-56422671D01*
X140250904Y-56445193D01*
X140256716Y-56468397D01*
X140260226Y-56492058D01*
X140261400Y-56515950D01*
X140261400Y-57428450D01*
X140260226Y-57452342D01*
X140256716Y-57476003D01*
X140250904Y-57499207D01*
X140242846Y-57521729D01*
X140232618Y-57543353D01*
X140220321Y-57563870D01*
X140206071Y-57583083D01*
X140190007Y-57600807D01*
X140172283Y-57616871D01*
X140153070Y-57631121D01*
X140132553Y-57643418D01*
X140110929Y-57653646D01*
X140088407Y-57661704D01*
X140065203Y-57667516D01*
X140041542Y-57671026D01*
X140017650Y-57672200D01*
X139530150Y-57672200D01*
X139506258Y-57671026D01*
X139482597Y-57667516D01*
X139459393Y-57661704D01*
X139436871Y-57653646D01*
X139415247Y-57643418D01*
X139394730Y-57631121D01*
X139375517Y-57616871D01*
X139357793Y-57600807D01*
X139341729Y-57583083D01*
X139327479Y-57563870D01*
X139315182Y-57543353D01*
X139304954Y-57521729D01*
X139296896Y-57499207D01*
X139291084Y-57476003D01*
X139287574Y-57452342D01*
X139286400Y-57428450D01*
X139286400Y-56515950D01*
X139287574Y-56492058D01*
X139291084Y-56468397D01*
X139296896Y-56445193D01*
X139304954Y-56422671D01*
X139315182Y-56401047D01*
X139327479Y-56380530D01*
X139341729Y-56361317D01*
X139357793Y-56343593D01*
X139375517Y-56327529D01*
X139394730Y-56313279D01*
X139415247Y-56300982D01*
X139436871Y-56290754D01*
X139459393Y-56282696D01*
X139482597Y-56276884D01*
X139506258Y-56273374D01*
X139530150Y-56272200D01*
X140017650Y-56272200D01*
X140041542Y-56273374D01*
X140041542Y-56273374D01*
G37*
D24*
X139773900Y-56972200D03*
D25*
X163741100Y-72580500D03*
X161201100Y-72580500D03*
X158661100Y-72580500D03*
X156121100Y-72580500D03*
X153581100Y-72580500D03*
X151041100Y-72580500D03*
X148501100Y-72580500D03*
X145961100Y-72580500D03*
X143421100Y-72580500D03*
X140881100Y-72580500D03*
X138341100Y-72580500D03*
X135801100Y-72580500D03*
X133261100Y-72580500D03*
X130721100Y-72580500D03*
X128181100Y-72580500D03*
D26*
X125641100Y-72580500D03*
D25*
X163741100Y-52260500D03*
X161201100Y-52260500D03*
X158661100Y-52260500D03*
X156121100Y-52260500D03*
X153581100Y-52260500D03*
X151041100Y-52260500D03*
X148501100Y-52260500D03*
X145961100Y-52260500D03*
X143421100Y-52260500D03*
X140881100Y-52260500D03*
X138341100Y-52260500D03*
D26*
X135801100Y-52260500D03*
D10*
G36*
X128489142Y-51498174D02*
G01*
X128512803Y-51501684D01*
X128536007Y-51507496D01*
X128558529Y-51515554D01*
X128580153Y-51525782D01*
X128600670Y-51538079D01*
X128619883Y-51552329D01*
X128637607Y-51568393D01*
X128653671Y-51586117D01*
X128667921Y-51605330D01*
X128680218Y-51625847D01*
X128690446Y-51647471D01*
X128698504Y-51669993D01*
X128704316Y-51693197D01*
X128707826Y-51716858D01*
X128709000Y-51740750D01*
X128709000Y-52653250D01*
X128707826Y-52677142D01*
X128704316Y-52700803D01*
X128698504Y-52724007D01*
X128690446Y-52746529D01*
X128680218Y-52768153D01*
X128667921Y-52788670D01*
X128653671Y-52807883D01*
X128637607Y-52825607D01*
X128619883Y-52841671D01*
X128600670Y-52855921D01*
X128580153Y-52868218D01*
X128558529Y-52878446D01*
X128536007Y-52886504D01*
X128512803Y-52892316D01*
X128489142Y-52895826D01*
X128465250Y-52897000D01*
X127977750Y-52897000D01*
X127953858Y-52895826D01*
X127930197Y-52892316D01*
X127906993Y-52886504D01*
X127884471Y-52878446D01*
X127862847Y-52868218D01*
X127842330Y-52855921D01*
X127823117Y-52841671D01*
X127805393Y-52825607D01*
X127789329Y-52807883D01*
X127775079Y-52788670D01*
X127762782Y-52768153D01*
X127752554Y-52746529D01*
X127744496Y-52724007D01*
X127738684Y-52700803D01*
X127735174Y-52677142D01*
X127734000Y-52653250D01*
X127734000Y-51740750D01*
X127735174Y-51716858D01*
X127738684Y-51693197D01*
X127744496Y-51669993D01*
X127752554Y-51647471D01*
X127762782Y-51625847D01*
X127775079Y-51605330D01*
X127789329Y-51586117D01*
X127805393Y-51568393D01*
X127823117Y-51552329D01*
X127842330Y-51538079D01*
X127862847Y-51525782D01*
X127884471Y-51515554D01*
X127906993Y-51507496D01*
X127930197Y-51501684D01*
X127953858Y-51498174D01*
X127977750Y-51497000D01*
X128465250Y-51497000D01*
X128489142Y-51498174D01*
X128489142Y-51498174D01*
G37*
D24*
X128221500Y-52197000D03*
D10*
G36*
X130364142Y-51498174D02*
G01*
X130387803Y-51501684D01*
X130411007Y-51507496D01*
X130433529Y-51515554D01*
X130455153Y-51525782D01*
X130475670Y-51538079D01*
X130494883Y-51552329D01*
X130512607Y-51568393D01*
X130528671Y-51586117D01*
X130542921Y-51605330D01*
X130555218Y-51625847D01*
X130565446Y-51647471D01*
X130573504Y-51669993D01*
X130579316Y-51693197D01*
X130582826Y-51716858D01*
X130584000Y-51740750D01*
X130584000Y-52653250D01*
X130582826Y-52677142D01*
X130579316Y-52700803D01*
X130573504Y-52724007D01*
X130565446Y-52746529D01*
X130555218Y-52768153D01*
X130542921Y-52788670D01*
X130528671Y-52807883D01*
X130512607Y-52825607D01*
X130494883Y-52841671D01*
X130475670Y-52855921D01*
X130455153Y-52868218D01*
X130433529Y-52878446D01*
X130411007Y-52886504D01*
X130387803Y-52892316D01*
X130364142Y-52895826D01*
X130340250Y-52897000D01*
X129852750Y-52897000D01*
X129828858Y-52895826D01*
X129805197Y-52892316D01*
X129781993Y-52886504D01*
X129759471Y-52878446D01*
X129737847Y-52868218D01*
X129717330Y-52855921D01*
X129698117Y-52841671D01*
X129680393Y-52825607D01*
X129664329Y-52807883D01*
X129650079Y-52788670D01*
X129637782Y-52768153D01*
X129627554Y-52746529D01*
X129619496Y-52724007D01*
X129613684Y-52700803D01*
X129610174Y-52677142D01*
X129609000Y-52653250D01*
X129609000Y-51740750D01*
X129610174Y-51716858D01*
X129613684Y-51693197D01*
X129619496Y-51669993D01*
X129627554Y-51647471D01*
X129637782Y-51625847D01*
X129650079Y-51605330D01*
X129664329Y-51586117D01*
X129680393Y-51568393D01*
X129698117Y-51552329D01*
X129717330Y-51538079D01*
X129737847Y-51525782D01*
X129759471Y-51515554D01*
X129781993Y-51507496D01*
X129805197Y-51501684D01*
X129828858Y-51498174D01*
X129852750Y-51497000D01*
X130340250Y-51497000D01*
X130364142Y-51498174D01*
X130364142Y-51498174D01*
G37*
D24*
X130096500Y-52197000D03*
D27*
X132907800Y-52197000D03*
D10*
G36*
X132407800Y-51447000D02*
G01*
X132907800Y-51447000D01*
X132907800Y-51447602D01*
X132932334Y-51447602D01*
X132981165Y-51452412D01*
X133029290Y-51461984D01*
X133076245Y-51476228D01*
X133121578Y-51495005D01*
X133164851Y-51518136D01*
X133205650Y-51545396D01*
X133243579Y-51576524D01*
X133278276Y-51611221D01*
X133309404Y-51649150D01*
X133336664Y-51689949D01*
X133359795Y-51733222D01*
X133378572Y-51778555D01*
X133392816Y-51825510D01*
X133402388Y-51873635D01*
X133407198Y-51922466D01*
X133407198Y-51947000D01*
X133407800Y-51947000D01*
X133407800Y-52447000D01*
X133407198Y-52447000D01*
X133407198Y-52471534D01*
X133402388Y-52520365D01*
X133392816Y-52568490D01*
X133378572Y-52615445D01*
X133359795Y-52660778D01*
X133336664Y-52704051D01*
X133309404Y-52744850D01*
X133278276Y-52782779D01*
X133243579Y-52817476D01*
X133205650Y-52848604D01*
X133164851Y-52875864D01*
X133121578Y-52898995D01*
X133076245Y-52917772D01*
X133029290Y-52932016D01*
X132981165Y-52941588D01*
X132932334Y-52946398D01*
X132907800Y-52946398D01*
X132907800Y-52947000D01*
X132407800Y-52947000D01*
X132407800Y-51447000D01*
X132407800Y-51447000D01*
G37*
D27*
X131607800Y-52197000D03*
D10*
G36*
X131607800Y-52946398D02*
G01*
X131583266Y-52946398D01*
X131534435Y-52941588D01*
X131486310Y-52932016D01*
X131439355Y-52917772D01*
X131394022Y-52898995D01*
X131350749Y-52875864D01*
X131309950Y-52848604D01*
X131272021Y-52817476D01*
X131237324Y-52782779D01*
X131206196Y-52744850D01*
X131178936Y-52704051D01*
X131155805Y-52660778D01*
X131137028Y-52615445D01*
X131122784Y-52568490D01*
X131113212Y-52520365D01*
X131108402Y-52471534D01*
X131108402Y-52447000D01*
X131107800Y-52447000D01*
X131107800Y-51947000D01*
X131108402Y-51947000D01*
X131108402Y-51922466D01*
X131113212Y-51873635D01*
X131122784Y-51825510D01*
X131137028Y-51778555D01*
X131155805Y-51733222D01*
X131178936Y-51689949D01*
X131206196Y-51649150D01*
X131237324Y-51611221D01*
X131272021Y-51576524D01*
X131309950Y-51545396D01*
X131350749Y-51518136D01*
X131394022Y-51495005D01*
X131439355Y-51476228D01*
X131486310Y-51461984D01*
X131534435Y-51452412D01*
X131583266Y-51447602D01*
X131607800Y-51447602D01*
X131607800Y-51447000D01*
X132107800Y-51447000D01*
X132107800Y-52947000D01*
X131607800Y-52947000D01*
X131607800Y-52946398D01*
X131607800Y-52946398D01*
G37*
G36*
X127062142Y-51498174D02*
G01*
X127085803Y-51501684D01*
X127109007Y-51507496D01*
X127131529Y-51515554D01*
X127153153Y-51525782D01*
X127173670Y-51538079D01*
X127192883Y-51552329D01*
X127210607Y-51568393D01*
X127226671Y-51586117D01*
X127240921Y-51605330D01*
X127253218Y-51625847D01*
X127263446Y-51647471D01*
X127271504Y-51669993D01*
X127277316Y-51693197D01*
X127280826Y-51716858D01*
X127282000Y-51740750D01*
X127282000Y-52653250D01*
X127280826Y-52677142D01*
X127277316Y-52700803D01*
X127271504Y-52724007D01*
X127263446Y-52746529D01*
X127253218Y-52768153D01*
X127240921Y-52788670D01*
X127226671Y-52807883D01*
X127210607Y-52825607D01*
X127192883Y-52841671D01*
X127173670Y-52855921D01*
X127153153Y-52868218D01*
X127131529Y-52878446D01*
X127109007Y-52886504D01*
X127085803Y-52892316D01*
X127062142Y-52895826D01*
X127038250Y-52897000D01*
X126550750Y-52897000D01*
X126526858Y-52895826D01*
X126503197Y-52892316D01*
X126479993Y-52886504D01*
X126457471Y-52878446D01*
X126435847Y-52868218D01*
X126415330Y-52855921D01*
X126396117Y-52841671D01*
X126378393Y-52825607D01*
X126362329Y-52807883D01*
X126348079Y-52788670D01*
X126335782Y-52768153D01*
X126325554Y-52746529D01*
X126317496Y-52724007D01*
X126311684Y-52700803D01*
X126308174Y-52677142D01*
X126307000Y-52653250D01*
X126307000Y-51740750D01*
X126308174Y-51716858D01*
X126311684Y-51693197D01*
X126317496Y-51669993D01*
X126325554Y-51647471D01*
X126335782Y-51625847D01*
X126348079Y-51605330D01*
X126362329Y-51586117D01*
X126378393Y-51568393D01*
X126396117Y-51552329D01*
X126415330Y-51538079D01*
X126435847Y-51525782D01*
X126457471Y-51515554D01*
X126479993Y-51507496D01*
X126503197Y-51501684D01*
X126526858Y-51498174D01*
X126550750Y-51497000D01*
X127038250Y-51497000D01*
X127062142Y-51498174D01*
X127062142Y-51498174D01*
G37*
D24*
X126794500Y-52197000D03*
D10*
G36*
X125187142Y-51498174D02*
G01*
X125210803Y-51501684D01*
X125234007Y-51507496D01*
X125256529Y-51515554D01*
X125278153Y-51525782D01*
X125298670Y-51538079D01*
X125317883Y-51552329D01*
X125335607Y-51568393D01*
X125351671Y-51586117D01*
X125365921Y-51605330D01*
X125378218Y-51625847D01*
X125388446Y-51647471D01*
X125396504Y-51669993D01*
X125402316Y-51693197D01*
X125405826Y-51716858D01*
X125407000Y-51740750D01*
X125407000Y-52653250D01*
X125405826Y-52677142D01*
X125402316Y-52700803D01*
X125396504Y-52724007D01*
X125388446Y-52746529D01*
X125378218Y-52768153D01*
X125365921Y-52788670D01*
X125351671Y-52807883D01*
X125335607Y-52825607D01*
X125317883Y-52841671D01*
X125298670Y-52855921D01*
X125278153Y-52868218D01*
X125256529Y-52878446D01*
X125234007Y-52886504D01*
X125210803Y-52892316D01*
X125187142Y-52895826D01*
X125163250Y-52897000D01*
X124675750Y-52897000D01*
X124651858Y-52895826D01*
X124628197Y-52892316D01*
X124604993Y-52886504D01*
X124582471Y-52878446D01*
X124560847Y-52868218D01*
X124540330Y-52855921D01*
X124521117Y-52841671D01*
X124503393Y-52825607D01*
X124487329Y-52807883D01*
X124473079Y-52788670D01*
X124460782Y-52768153D01*
X124450554Y-52746529D01*
X124442496Y-52724007D01*
X124436684Y-52700803D01*
X124433174Y-52677142D01*
X124432000Y-52653250D01*
X124432000Y-51740750D01*
X124433174Y-51716858D01*
X124436684Y-51693197D01*
X124442496Y-51669993D01*
X124450554Y-51647471D01*
X124460782Y-51625847D01*
X124473079Y-51605330D01*
X124487329Y-51586117D01*
X124503393Y-51568393D01*
X124521117Y-51552329D01*
X124540330Y-51538079D01*
X124560847Y-51525782D01*
X124582471Y-51515554D01*
X124604993Y-51507496D01*
X124628197Y-51501684D01*
X124651858Y-51498174D01*
X124675750Y-51497000D01*
X125163250Y-51497000D01*
X125187142Y-51498174D01*
X125187142Y-51498174D01*
G37*
D24*
X124919500Y-52197000D03*
D10*
G36*
X149729102Y-62636074D02*
G01*
X149752763Y-62639584D01*
X149775967Y-62645396D01*
X149798489Y-62653454D01*
X149820113Y-62663682D01*
X149840630Y-62675979D01*
X149859843Y-62690229D01*
X149877567Y-62706293D01*
X149893631Y-62724017D01*
X149907881Y-62743230D01*
X149920178Y-62763747D01*
X149930406Y-62785371D01*
X149938464Y-62807893D01*
X149944276Y-62831097D01*
X149947786Y-62854758D01*
X149948960Y-62878650D01*
X149948960Y-63791150D01*
X149947786Y-63815042D01*
X149944276Y-63838703D01*
X149938464Y-63861907D01*
X149930406Y-63884429D01*
X149920178Y-63906053D01*
X149907881Y-63926570D01*
X149893631Y-63945783D01*
X149877567Y-63963507D01*
X149859843Y-63979571D01*
X149840630Y-63993821D01*
X149820113Y-64006118D01*
X149798489Y-64016346D01*
X149775967Y-64024404D01*
X149752763Y-64030216D01*
X149729102Y-64033726D01*
X149705210Y-64034900D01*
X149217710Y-64034900D01*
X149193818Y-64033726D01*
X149170157Y-64030216D01*
X149146953Y-64024404D01*
X149124431Y-64016346D01*
X149102807Y-64006118D01*
X149082290Y-63993821D01*
X149063077Y-63979571D01*
X149045353Y-63963507D01*
X149029289Y-63945783D01*
X149015039Y-63926570D01*
X149002742Y-63906053D01*
X148992514Y-63884429D01*
X148984456Y-63861907D01*
X148978644Y-63838703D01*
X148975134Y-63815042D01*
X148973960Y-63791150D01*
X148973960Y-62878650D01*
X148975134Y-62854758D01*
X148978644Y-62831097D01*
X148984456Y-62807893D01*
X148992514Y-62785371D01*
X149002742Y-62763747D01*
X149015039Y-62743230D01*
X149029289Y-62724017D01*
X149045353Y-62706293D01*
X149063077Y-62690229D01*
X149082290Y-62675979D01*
X149102807Y-62663682D01*
X149124431Y-62653454D01*
X149146953Y-62645396D01*
X149170157Y-62639584D01*
X149193818Y-62636074D01*
X149217710Y-62634900D01*
X149705210Y-62634900D01*
X149729102Y-62636074D01*
X149729102Y-62636074D01*
G37*
D24*
X149461460Y-63334900D03*
D10*
G36*
X147854102Y-62636074D02*
G01*
X147877763Y-62639584D01*
X147900967Y-62645396D01*
X147923489Y-62653454D01*
X147945113Y-62663682D01*
X147965630Y-62675979D01*
X147984843Y-62690229D01*
X148002567Y-62706293D01*
X148018631Y-62724017D01*
X148032881Y-62743230D01*
X148045178Y-62763747D01*
X148055406Y-62785371D01*
X148063464Y-62807893D01*
X148069276Y-62831097D01*
X148072786Y-62854758D01*
X148073960Y-62878650D01*
X148073960Y-63791150D01*
X148072786Y-63815042D01*
X148069276Y-63838703D01*
X148063464Y-63861907D01*
X148055406Y-63884429D01*
X148045178Y-63906053D01*
X148032881Y-63926570D01*
X148018631Y-63945783D01*
X148002567Y-63963507D01*
X147984843Y-63979571D01*
X147965630Y-63993821D01*
X147945113Y-64006118D01*
X147923489Y-64016346D01*
X147900967Y-64024404D01*
X147877763Y-64030216D01*
X147854102Y-64033726D01*
X147830210Y-64034900D01*
X147342710Y-64034900D01*
X147318818Y-64033726D01*
X147295157Y-64030216D01*
X147271953Y-64024404D01*
X147249431Y-64016346D01*
X147227807Y-64006118D01*
X147207290Y-63993821D01*
X147188077Y-63979571D01*
X147170353Y-63963507D01*
X147154289Y-63945783D01*
X147140039Y-63926570D01*
X147127742Y-63906053D01*
X147117514Y-63884429D01*
X147109456Y-63861907D01*
X147103644Y-63838703D01*
X147100134Y-63815042D01*
X147098960Y-63791150D01*
X147098960Y-62878650D01*
X147100134Y-62854758D01*
X147103644Y-62831097D01*
X147109456Y-62807893D01*
X147117514Y-62785371D01*
X147127742Y-62763747D01*
X147140039Y-62743230D01*
X147154289Y-62724017D01*
X147170353Y-62706293D01*
X147188077Y-62690229D01*
X147207290Y-62675979D01*
X147227807Y-62663682D01*
X147249431Y-62653454D01*
X147271953Y-62645396D01*
X147295157Y-62639584D01*
X147318818Y-62636074D01*
X147342710Y-62634900D01*
X147830210Y-62634900D01*
X147854102Y-62636074D01*
X147854102Y-62636074D01*
G37*
D24*
X147586460Y-63334900D03*
D10*
G36*
X149729102Y-66484174D02*
G01*
X149752763Y-66487684D01*
X149775967Y-66493496D01*
X149798489Y-66501554D01*
X149820113Y-66511782D01*
X149840630Y-66524079D01*
X149859843Y-66538329D01*
X149877567Y-66554393D01*
X149893631Y-66572117D01*
X149907881Y-66591330D01*
X149920178Y-66611847D01*
X149930406Y-66633471D01*
X149938464Y-66655993D01*
X149944276Y-66679197D01*
X149947786Y-66702858D01*
X149948960Y-66726750D01*
X149948960Y-67639250D01*
X149947786Y-67663142D01*
X149944276Y-67686803D01*
X149938464Y-67710007D01*
X149930406Y-67732529D01*
X149920178Y-67754153D01*
X149907881Y-67774670D01*
X149893631Y-67793883D01*
X149877567Y-67811607D01*
X149859843Y-67827671D01*
X149840630Y-67841921D01*
X149820113Y-67854218D01*
X149798489Y-67864446D01*
X149775967Y-67872504D01*
X149752763Y-67878316D01*
X149729102Y-67881826D01*
X149705210Y-67883000D01*
X149217710Y-67883000D01*
X149193818Y-67881826D01*
X149170157Y-67878316D01*
X149146953Y-67872504D01*
X149124431Y-67864446D01*
X149102807Y-67854218D01*
X149082290Y-67841921D01*
X149063077Y-67827671D01*
X149045353Y-67811607D01*
X149029289Y-67793883D01*
X149015039Y-67774670D01*
X149002742Y-67754153D01*
X148992514Y-67732529D01*
X148984456Y-67710007D01*
X148978644Y-67686803D01*
X148975134Y-67663142D01*
X148973960Y-67639250D01*
X148973960Y-66726750D01*
X148975134Y-66702858D01*
X148978644Y-66679197D01*
X148984456Y-66655993D01*
X148992514Y-66633471D01*
X149002742Y-66611847D01*
X149015039Y-66591330D01*
X149029289Y-66572117D01*
X149045353Y-66554393D01*
X149063077Y-66538329D01*
X149082290Y-66524079D01*
X149102807Y-66511782D01*
X149124431Y-66501554D01*
X149146953Y-66493496D01*
X149170157Y-66487684D01*
X149193818Y-66484174D01*
X149217710Y-66483000D01*
X149705210Y-66483000D01*
X149729102Y-66484174D01*
X149729102Y-66484174D01*
G37*
D24*
X149461460Y-67183000D03*
D10*
G36*
X147854102Y-66484174D02*
G01*
X147877763Y-66487684D01*
X147900967Y-66493496D01*
X147923489Y-66501554D01*
X147945113Y-66511782D01*
X147965630Y-66524079D01*
X147984843Y-66538329D01*
X148002567Y-66554393D01*
X148018631Y-66572117D01*
X148032881Y-66591330D01*
X148045178Y-66611847D01*
X148055406Y-66633471D01*
X148063464Y-66655993D01*
X148069276Y-66679197D01*
X148072786Y-66702858D01*
X148073960Y-66726750D01*
X148073960Y-67639250D01*
X148072786Y-67663142D01*
X148069276Y-67686803D01*
X148063464Y-67710007D01*
X148055406Y-67732529D01*
X148045178Y-67754153D01*
X148032881Y-67774670D01*
X148018631Y-67793883D01*
X148002567Y-67811607D01*
X147984843Y-67827671D01*
X147965630Y-67841921D01*
X147945113Y-67854218D01*
X147923489Y-67864446D01*
X147900967Y-67872504D01*
X147877763Y-67878316D01*
X147854102Y-67881826D01*
X147830210Y-67883000D01*
X147342710Y-67883000D01*
X147318818Y-67881826D01*
X147295157Y-67878316D01*
X147271953Y-67872504D01*
X147249431Y-67864446D01*
X147227807Y-67854218D01*
X147207290Y-67841921D01*
X147188077Y-67827671D01*
X147170353Y-67811607D01*
X147154289Y-67793883D01*
X147140039Y-67774670D01*
X147127742Y-67754153D01*
X147117514Y-67732529D01*
X147109456Y-67710007D01*
X147103644Y-67686803D01*
X147100134Y-67663142D01*
X147098960Y-67639250D01*
X147098960Y-66726750D01*
X147100134Y-66702858D01*
X147103644Y-66679197D01*
X147109456Y-66655993D01*
X147117514Y-66633471D01*
X147127742Y-66611847D01*
X147140039Y-66591330D01*
X147154289Y-66572117D01*
X147170353Y-66554393D01*
X147188077Y-66538329D01*
X147207290Y-66524079D01*
X147227807Y-66511782D01*
X147249431Y-66501554D01*
X147271953Y-66493496D01*
X147295157Y-66487684D01*
X147318818Y-66484174D01*
X147342710Y-66483000D01*
X147830210Y-66483000D01*
X147854102Y-66484174D01*
X147854102Y-66484174D01*
G37*
D24*
X147586460Y-67183000D03*
D10*
G36*
X137247542Y-68871774D02*
G01*
X137271203Y-68875284D01*
X137294407Y-68881096D01*
X137316929Y-68889154D01*
X137338553Y-68899382D01*
X137359070Y-68911679D01*
X137378283Y-68925929D01*
X137396007Y-68941993D01*
X137412071Y-68959717D01*
X137426321Y-68978930D01*
X137438618Y-68999447D01*
X137448846Y-69021071D01*
X137456904Y-69043593D01*
X137462716Y-69066797D01*
X137466226Y-69090458D01*
X137467400Y-69114350D01*
X137467400Y-70026850D01*
X137466226Y-70050742D01*
X137462716Y-70074403D01*
X137456904Y-70097607D01*
X137448846Y-70120129D01*
X137438618Y-70141753D01*
X137426321Y-70162270D01*
X137412071Y-70181483D01*
X137396007Y-70199207D01*
X137378283Y-70215271D01*
X137359070Y-70229521D01*
X137338553Y-70241818D01*
X137316929Y-70252046D01*
X137294407Y-70260104D01*
X137271203Y-70265916D01*
X137247542Y-70269426D01*
X137223650Y-70270600D01*
X136736150Y-70270600D01*
X136712258Y-70269426D01*
X136688597Y-70265916D01*
X136665393Y-70260104D01*
X136642871Y-70252046D01*
X136621247Y-70241818D01*
X136600730Y-70229521D01*
X136581517Y-70215271D01*
X136563793Y-70199207D01*
X136547729Y-70181483D01*
X136533479Y-70162270D01*
X136521182Y-70141753D01*
X136510954Y-70120129D01*
X136502896Y-70097607D01*
X136497084Y-70074403D01*
X136493574Y-70050742D01*
X136492400Y-70026850D01*
X136492400Y-69114350D01*
X136493574Y-69090458D01*
X136497084Y-69066797D01*
X136502896Y-69043593D01*
X136510954Y-69021071D01*
X136521182Y-68999447D01*
X136533479Y-68978930D01*
X136547729Y-68959717D01*
X136563793Y-68941993D01*
X136581517Y-68925929D01*
X136600730Y-68911679D01*
X136621247Y-68899382D01*
X136642871Y-68889154D01*
X136665393Y-68881096D01*
X136688597Y-68875284D01*
X136712258Y-68871774D01*
X136736150Y-68870600D01*
X137223650Y-68870600D01*
X137247542Y-68871774D01*
X137247542Y-68871774D01*
G37*
D24*
X136979900Y-69570600D03*
D10*
G36*
X135372542Y-68871774D02*
G01*
X135396203Y-68875284D01*
X135419407Y-68881096D01*
X135441929Y-68889154D01*
X135463553Y-68899382D01*
X135484070Y-68911679D01*
X135503283Y-68925929D01*
X135521007Y-68941993D01*
X135537071Y-68959717D01*
X135551321Y-68978930D01*
X135563618Y-68999447D01*
X135573846Y-69021071D01*
X135581904Y-69043593D01*
X135587716Y-69066797D01*
X135591226Y-69090458D01*
X135592400Y-69114350D01*
X135592400Y-70026850D01*
X135591226Y-70050742D01*
X135587716Y-70074403D01*
X135581904Y-70097607D01*
X135573846Y-70120129D01*
X135563618Y-70141753D01*
X135551321Y-70162270D01*
X135537071Y-70181483D01*
X135521007Y-70199207D01*
X135503283Y-70215271D01*
X135484070Y-70229521D01*
X135463553Y-70241818D01*
X135441929Y-70252046D01*
X135419407Y-70260104D01*
X135396203Y-70265916D01*
X135372542Y-70269426D01*
X135348650Y-70270600D01*
X134861150Y-70270600D01*
X134837258Y-70269426D01*
X134813597Y-70265916D01*
X134790393Y-70260104D01*
X134767871Y-70252046D01*
X134746247Y-70241818D01*
X134725730Y-70229521D01*
X134706517Y-70215271D01*
X134688793Y-70199207D01*
X134672729Y-70181483D01*
X134658479Y-70162270D01*
X134646182Y-70141753D01*
X134635954Y-70120129D01*
X134627896Y-70097607D01*
X134622084Y-70074403D01*
X134618574Y-70050742D01*
X134617400Y-70026850D01*
X134617400Y-69114350D01*
X134618574Y-69090458D01*
X134622084Y-69066797D01*
X134627896Y-69043593D01*
X134635954Y-69021071D01*
X134646182Y-68999447D01*
X134658479Y-68978930D01*
X134672729Y-68959717D01*
X134688793Y-68941993D01*
X134706517Y-68925929D01*
X134725730Y-68911679D01*
X134746247Y-68899382D01*
X134767871Y-68889154D01*
X134790393Y-68881096D01*
X134813597Y-68875284D01*
X134837258Y-68871774D01*
X134861150Y-68870600D01*
X135348650Y-68870600D01*
X135372542Y-68871774D01*
X135372542Y-68871774D01*
G37*
D24*
X135104900Y-69570600D03*
D10*
G36*
X147854102Y-64731574D02*
G01*
X147877763Y-64735084D01*
X147900967Y-64740896D01*
X147923489Y-64748954D01*
X147945113Y-64759182D01*
X147965630Y-64771479D01*
X147984843Y-64785729D01*
X148002567Y-64801793D01*
X148018631Y-64819517D01*
X148032881Y-64838730D01*
X148045178Y-64859247D01*
X148055406Y-64880871D01*
X148063464Y-64903393D01*
X148069276Y-64926597D01*
X148072786Y-64950258D01*
X148073960Y-64974150D01*
X148073960Y-65886650D01*
X148072786Y-65910542D01*
X148069276Y-65934203D01*
X148063464Y-65957407D01*
X148055406Y-65979929D01*
X148045178Y-66001553D01*
X148032881Y-66022070D01*
X148018631Y-66041283D01*
X148002567Y-66059007D01*
X147984843Y-66075071D01*
X147965630Y-66089321D01*
X147945113Y-66101618D01*
X147923489Y-66111846D01*
X147900967Y-66119904D01*
X147877763Y-66125716D01*
X147854102Y-66129226D01*
X147830210Y-66130400D01*
X147342710Y-66130400D01*
X147318818Y-66129226D01*
X147295157Y-66125716D01*
X147271953Y-66119904D01*
X147249431Y-66111846D01*
X147227807Y-66101618D01*
X147207290Y-66089321D01*
X147188077Y-66075071D01*
X147170353Y-66059007D01*
X147154289Y-66041283D01*
X147140039Y-66022070D01*
X147127742Y-66001553D01*
X147117514Y-65979929D01*
X147109456Y-65957407D01*
X147103644Y-65934203D01*
X147100134Y-65910542D01*
X147098960Y-65886650D01*
X147098960Y-64974150D01*
X147100134Y-64950258D01*
X147103644Y-64926597D01*
X147109456Y-64903393D01*
X147117514Y-64880871D01*
X147127742Y-64859247D01*
X147140039Y-64838730D01*
X147154289Y-64819517D01*
X147170353Y-64801793D01*
X147188077Y-64785729D01*
X147207290Y-64771479D01*
X147227807Y-64759182D01*
X147249431Y-64748954D01*
X147271953Y-64740896D01*
X147295157Y-64735084D01*
X147318818Y-64731574D01*
X147342710Y-64730400D01*
X147830210Y-64730400D01*
X147854102Y-64731574D01*
X147854102Y-64731574D01*
G37*
D24*
X147586460Y-65430400D03*
D10*
G36*
X149729102Y-64731574D02*
G01*
X149752763Y-64735084D01*
X149775967Y-64740896D01*
X149798489Y-64748954D01*
X149820113Y-64759182D01*
X149840630Y-64771479D01*
X149859843Y-64785729D01*
X149877567Y-64801793D01*
X149893631Y-64819517D01*
X149907881Y-64838730D01*
X149920178Y-64859247D01*
X149930406Y-64880871D01*
X149938464Y-64903393D01*
X149944276Y-64926597D01*
X149947786Y-64950258D01*
X149948960Y-64974150D01*
X149948960Y-65886650D01*
X149947786Y-65910542D01*
X149944276Y-65934203D01*
X149938464Y-65957407D01*
X149930406Y-65979929D01*
X149920178Y-66001553D01*
X149907881Y-66022070D01*
X149893631Y-66041283D01*
X149877567Y-66059007D01*
X149859843Y-66075071D01*
X149840630Y-66089321D01*
X149820113Y-66101618D01*
X149798489Y-66111846D01*
X149775967Y-66119904D01*
X149752763Y-66125716D01*
X149729102Y-66129226D01*
X149705210Y-66130400D01*
X149217710Y-66130400D01*
X149193818Y-66129226D01*
X149170157Y-66125716D01*
X149146953Y-66119904D01*
X149124431Y-66111846D01*
X149102807Y-66101618D01*
X149082290Y-66089321D01*
X149063077Y-66075071D01*
X149045353Y-66059007D01*
X149029289Y-66041283D01*
X149015039Y-66022070D01*
X149002742Y-66001553D01*
X148992514Y-65979929D01*
X148984456Y-65957407D01*
X148978644Y-65934203D01*
X148975134Y-65910542D01*
X148973960Y-65886650D01*
X148973960Y-64974150D01*
X148975134Y-64950258D01*
X148978644Y-64926597D01*
X148984456Y-64903393D01*
X148992514Y-64880871D01*
X149002742Y-64859247D01*
X149015039Y-64838730D01*
X149029289Y-64819517D01*
X149045353Y-64801793D01*
X149063077Y-64785729D01*
X149082290Y-64771479D01*
X149102807Y-64759182D01*
X149124431Y-64748954D01*
X149146953Y-64740896D01*
X149170157Y-64735084D01*
X149193818Y-64731574D01*
X149217710Y-64730400D01*
X149705210Y-64730400D01*
X149729102Y-64731574D01*
X149729102Y-64731574D01*
G37*
D24*
X149461460Y-65430400D03*
D10*
G36*
X134490542Y-56157974D02*
G01*
X134514203Y-56161484D01*
X134537407Y-56167296D01*
X134559929Y-56175354D01*
X134581553Y-56185582D01*
X134602070Y-56197879D01*
X134621283Y-56212129D01*
X134639007Y-56228193D01*
X134655071Y-56245917D01*
X134669321Y-56265130D01*
X134681618Y-56285647D01*
X134691846Y-56307271D01*
X134699904Y-56329793D01*
X134705716Y-56352997D01*
X134709226Y-56376658D01*
X134710400Y-56400550D01*
X134710400Y-56888050D01*
X134709226Y-56911942D01*
X134705716Y-56935603D01*
X134699904Y-56958807D01*
X134691846Y-56981329D01*
X134681618Y-57002953D01*
X134669321Y-57023470D01*
X134655071Y-57042683D01*
X134639007Y-57060407D01*
X134621283Y-57076471D01*
X134602070Y-57090721D01*
X134581553Y-57103018D01*
X134559929Y-57113246D01*
X134537407Y-57121304D01*
X134514203Y-57127116D01*
X134490542Y-57130626D01*
X134466650Y-57131800D01*
X133554150Y-57131800D01*
X133530258Y-57130626D01*
X133506597Y-57127116D01*
X133483393Y-57121304D01*
X133460871Y-57113246D01*
X133439247Y-57103018D01*
X133418730Y-57090721D01*
X133399517Y-57076471D01*
X133381793Y-57060407D01*
X133365729Y-57042683D01*
X133351479Y-57023470D01*
X133339182Y-57002953D01*
X133328954Y-56981329D01*
X133320896Y-56958807D01*
X133315084Y-56935603D01*
X133311574Y-56911942D01*
X133310400Y-56888050D01*
X133310400Y-56400550D01*
X133311574Y-56376658D01*
X133315084Y-56352997D01*
X133320896Y-56329793D01*
X133328954Y-56307271D01*
X133339182Y-56285647D01*
X133351479Y-56265130D01*
X133365729Y-56245917D01*
X133381793Y-56228193D01*
X133399517Y-56212129D01*
X133418730Y-56197879D01*
X133439247Y-56185582D01*
X133460871Y-56175354D01*
X133483393Y-56167296D01*
X133506597Y-56161484D01*
X133530258Y-56157974D01*
X133554150Y-56156800D01*
X134466650Y-56156800D01*
X134490542Y-56157974D01*
X134490542Y-56157974D01*
G37*
D24*
X134010400Y-56644300D03*
D10*
G36*
X134490542Y-58032974D02*
G01*
X134514203Y-58036484D01*
X134537407Y-58042296D01*
X134559929Y-58050354D01*
X134581553Y-58060582D01*
X134602070Y-58072879D01*
X134621283Y-58087129D01*
X134639007Y-58103193D01*
X134655071Y-58120917D01*
X134669321Y-58140130D01*
X134681618Y-58160647D01*
X134691846Y-58182271D01*
X134699904Y-58204793D01*
X134705716Y-58227997D01*
X134709226Y-58251658D01*
X134710400Y-58275550D01*
X134710400Y-58763050D01*
X134709226Y-58786942D01*
X134705716Y-58810603D01*
X134699904Y-58833807D01*
X134691846Y-58856329D01*
X134681618Y-58877953D01*
X134669321Y-58898470D01*
X134655071Y-58917683D01*
X134639007Y-58935407D01*
X134621283Y-58951471D01*
X134602070Y-58965721D01*
X134581553Y-58978018D01*
X134559929Y-58988246D01*
X134537407Y-58996304D01*
X134514203Y-59002116D01*
X134490542Y-59005626D01*
X134466650Y-59006800D01*
X133554150Y-59006800D01*
X133530258Y-59005626D01*
X133506597Y-59002116D01*
X133483393Y-58996304D01*
X133460871Y-58988246D01*
X133439247Y-58978018D01*
X133418730Y-58965721D01*
X133399517Y-58951471D01*
X133381793Y-58935407D01*
X133365729Y-58917683D01*
X133351479Y-58898470D01*
X133339182Y-58877953D01*
X133328954Y-58856329D01*
X133320896Y-58833807D01*
X133315084Y-58810603D01*
X133311574Y-58786942D01*
X133310400Y-58763050D01*
X133310400Y-58275550D01*
X133311574Y-58251658D01*
X133315084Y-58227997D01*
X133320896Y-58204793D01*
X133328954Y-58182271D01*
X133339182Y-58160647D01*
X133351479Y-58140130D01*
X133365729Y-58120917D01*
X133381793Y-58103193D01*
X133399517Y-58087129D01*
X133418730Y-58072879D01*
X133439247Y-58060582D01*
X133460871Y-58050354D01*
X133483393Y-58042296D01*
X133506597Y-58036484D01*
X133530258Y-58032974D01*
X133554150Y-58031800D01*
X134466650Y-58031800D01*
X134490542Y-58032974D01*
X134490542Y-58032974D01*
G37*
D24*
X134010400Y-58519300D03*
D10*
G36*
X132610942Y-56208774D02*
G01*
X132634603Y-56212284D01*
X132657807Y-56218096D01*
X132680329Y-56226154D01*
X132701953Y-56236382D01*
X132722470Y-56248679D01*
X132741683Y-56262929D01*
X132759407Y-56278993D01*
X132775471Y-56296717D01*
X132789721Y-56315930D01*
X132802018Y-56336447D01*
X132812246Y-56358071D01*
X132820304Y-56380593D01*
X132826116Y-56403797D01*
X132829626Y-56427458D01*
X132830800Y-56451350D01*
X132830800Y-56938850D01*
X132829626Y-56962742D01*
X132826116Y-56986403D01*
X132820304Y-57009607D01*
X132812246Y-57032129D01*
X132802018Y-57053753D01*
X132789721Y-57074270D01*
X132775471Y-57093483D01*
X132759407Y-57111207D01*
X132741683Y-57127271D01*
X132722470Y-57141521D01*
X132701953Y-57153818D01*
X132680329Y-57164046D01*
X132657807Y-57172104D01*
X132634603Y-57177916D01*
X132610942Y-57181426D01*
X132587050Y-57182600D01*
X131674550Y-57182600D01*
X131650658Y-57181426D01*
X131626997Y-57177916D01*
X131603793Y-57172104D01*
X131581271Y-57164046D01*
X131559647Y-57153818D01*
X131539130Y-57141521D01*
X131519917Y-57127271D01*
X131502193Y-57111207D01*
X131486129Y-57093483D01*
X131471879Y-57074270D01*
X131459582Y-57053753D01*
X131449354Y-57032129D01*
X131441296Y-57009607D01*
X131435484Y-56986403D01*
X131431974Y-56962742D01*
X131430800Y-56938850D01*
X131430800Y-56451350D01*
X131431974Y-56427458D01*
X131435484Y-56403797D01*
X131441296Y-56380593D01*
X131449354Y-56358071D01*
X131459582Y-56336447D01*
X131471879Y-56315930D01*
X131486129Y-56296717D01*
X131502193Y-56278993D01*
X131519917Y-56262929D01*
X131539130Y-56248679D01*
X131559647Y-56236382D01*
X131581271Y-56226154D01*
X131603793Y-56218096D01*
X131626997Y-56212284D01*
X131650658Y-56208774D01*
X131674550Y-56207600D01*
X132587050Y-56207600D01*
X132610942Y-56208774D01*
X132610942Y-56208774D01*
G37*
D24*
X132130800Y-56695100D03*
D10*
G36*
X132610942Y-58083774D02*
G01*
X132634603Y-58087284D01*
X132657807Y-58093096D01*
X132680329Y-58101154D01*
X132701953Y-58111382D01*
X132722470Y-58123679D01*
X132741683Y-58137929D01*
X132759407Y-58153993D01*
X132775471Y-58171717D01*
X132789721Y-58190930D01*
X132802018Y-58211447D01*
X132812246Y-58233071D01*
X132820304Y-58255593D01*
X132826116Y-58278797D01*
X132829626Y-58302458D01*
X132830800Y-58326350D01*
X132830800Y-58813850D01*
X132829626Y-58837742D01*
X132826116Y-58861403D01*
X132820304Y-58884607D01*
X132812246Y-58907129D01*
X132802018Y-58928753D01*
X132789721Y-58949270D01*
X132775471Y-58968483D01*
X132759407Y-58986207D01*
X132741683Y-59002271D01*
X132722470Y-59016521D01*
X132701953Y-59028818D01*
X132680329Y-59039046D01*
X132657807Y-59047104D01*
X132634603Y-59052916D01*
X132610942Y-59056426D01*
X132587050Y-59057600D01*
X131674550Y-59057600D01*
X131650658Y-59056426D01*
X131626997Y-59052916D01*
X131603793Y-59047104D01*
X131581271Y-59039046D01*
X131559647Y-59028818D01*
X131539130Y-59016521D01*
X131519917Y-59002271D01*
X131502193Y-58986207D01*
X131486129Y-58968483D01*
X131471879Y-58949270D01*
X131459582Y-58928753D01*
X131449354Y-58907129D01*
X131441296Y-58884607D01*
X131435484Y-58861403D01*
X131431974Y-58837742D01*
X131430800Y-58813850D01*
X131430800Y-58326350D01*
X131431974Y-58302458D01*
X131435484Y-58278797D01*
X131441296Y-58255593D01*
X131449354Y-58233071D01*
X131459582Y-58211447D01*
X131471879Y-58190930D01*
X131486129Y-58171717D01*
X131502193Y-58153993D01*
X131519917Y-58137929D01*
X131539130Y-58123679D01*
X131559647Y-58111382D01*
X131581271Y-58101154D01*
X131603793Y-58093096D01*
X131626997Y-58087284D01*
X131650658Y-58083774D01*
X131674550Y-58082600D01*
X132587050Y-58082600D01*
X132610942Y-58083774D01*
X132610942Y-58083774D01*
G37*
D24*
X132130800Y-58570100D03*
D10*
G36*
X151483142Y-66991074D02*
G01*
X151506803Y-66994584D01*
X151530007Y-67000396D01*
X151552529Y-67008454D01*
X151574153Y-67018682D01*
X151594670Y-67030979D01*
X151613883Y-67045229D01*
X151631607Y-67061293D01*
X151647671Y-67079017D01*
X151661921Y-67098230D01*
X151674218Y-67118747D01*
X151684446Y-67140371D01*
X151692504Y-67162893D01*
X151698316Y-67186097D01*
X151701826Y-67209758D01*
X151703000Y-67233650D01*
X151703000Y-67721150D01*
X151701826Y-67745042D01*
X151698316Y-67768703D01*
X151692504Y-67791907D01*
X151684446Y-67814429D01*
X151674218Y-67836053D01*
X151661921Y-67856570D01*
X151647671Y-67875783D01*
X151631607Y-67893507D01*
X151613883Y-67909571D01*
X151594670Y-67923821D01*
X151574153Y-67936118D01*
X151552529Y-67946346D01*
X151530007Y-67954404D01*
X151506803Y-67960216D01*
X151483142Y-67963726D01*
X151459250Y-67964900D01*
X150546750Y-67964900D01*
X150522858Y-67963726D01*
X150499197Y-67960216D01*
X150475993Y-67954404D01*
X150453471Y-67946346D01*
X150431847Y-67936118D01*
X150411330Y-67923821D01*
X150392117Y-67909571D01*
X150374393Y-67893507D01*
X150358329Y-67875783D01*
X150344079Y-67856570D01*
X150331782Y-67836053D01*
X150321554Y-67814429D01*
X150313496Y-67791907D01*
X150307684Y-67768703D01*
X150304174Y-67745042D01*
X150303000Y-67721150D01*
X150303000Y-67233650D01*
X150304174Y-67209758D01*
X150307684Y-67186097D01*
X150313496Y-67162893D01*
X150321554Y-67140371D01*
X150331782Y-67118747D01*
X150344079Y-67098230D01*
X150358329Y-67079017D01*
X150374393Y-67061293D01*
X150392117Y-67045229D01*
X150411330Y-67030979D01*
X150431847Y-67018682D01*
X150453471Y-67008454D01*
X150475993Y-67000396D01*
X150499197Y-66994584D01*
X150522858Y-66991074D01*
X150546750Y-66989900D01*
X151459250Y-66989900D01*
X151483142Y-66991074D01*
X151483142Y-66991074D01*
G37*
D24*
X151003000Y-67477400D03*
D10*
G36*
X151483142Y-68866074D02*
G01*
X151506803Y-68869584D01*
X151530007Y-68875396D01*
X151552529Y-68883454D01*
X151574153Y-68893682D01*
X151594670Y-68905979D01*
X151613883Y-68920229D01*
X151631607Y-68936293D01*
X151647671Y-68954017D01*
X151661921Y-68973230D01*
X151674218Y-68993747D01*
X151684446Y-69015371D01*
X151692504Y-69037893D01*
X151698316Y-69061097D01*
X151701826Y-69084758D01*
X151703000Y-69108650D01*
X151703000Y-69596150D01*
X151701826Y-69620042D01*
X151698316Y-69643703D01*
X151692504Y-69666907D01*
X151684446Y-69689429D01*
X151674218Y-69711053D01*
X151661921Y-69731570D01*
X151647671Y-69750783D01*
X151631607Y-69768507D01*
X151613883Y-69784571D01*
X151594670Y-69798821D01*
X151574153Y-69811118D01*
X151552529Y-69821346D01*
X151530007Y-69829404D01*
X151506803Y-69835216D01*
X151483142Y-69838726D01*
X151459250Y-69839900D01*
X150546750Y-69839900D01*
X150522858Y-69838726D01*
X150499197Y-69835216D01*
X150475993Y-69829404D01*
X150453471Y-69821346D01*
X150431847Y-69811118D01*
X150411330Y-69798821D01*
X150392117Y-69784571D01*
X150374393Y-69768507D01*
X150358329Y-69750783D01*
X150344079Y-69731570D01*
X150331782Y-69711053D01*
X150321554Y-69689429D01*
X150313496Y-69666907D01*
X150307684Y-69643703D01*
X150304174Y-69620042D01*
X150303000Y-69596150D01*
X150303000Y-69108650D01*
X150304174Y-69084758D01*
X150307684Y-69061097D01*
X150313496Y-69037893D01*
X150321554Y-69015371D01*
X150331782Y-68993747D01*
X150344079Y-68973230D01*
X150358329Y-68954017D01*
X150374393Y-68936293D01*
X150392117Y-68920229D01*
X150411330Y-68905979D01*
X150431847Y-68893682D01*
X150453471Y-68883454D01*
X150475993Y-68875396D01*
X150499197Y-68869584D01*
X150522858Y-68866074D01*
X150546750Y-68864900D01*
X151459250Y-68864900D01*
X151483142Y-68866074D01*
X151483142Y-68866074D01*
G37*
D24*
X151003000Y-69352400D03*
D10*
G36*
X131634142Y-67296974D02*
G01*
X131657803Y-67300484D01*
X131681007Y-67306296D01*
X131703529Y-67314354D01*
X131725153Y-67324582D01*
X131745670Y-67336879D01*
X131764883Y-67351129D01*
X131782607Y-67367193D01*
X131798671Y-67384917D01*
X131812921Y-67404130D01*
X131825218Y-67424647D01*
X131835446Y-67446271D01*
X131843504Y-67468793D01*
X131849316Y-67491997D01*
X131852826Y-67515658D01*
X131854000Y-67539550D01*
X131854000Y-68452050D01*
X131852826Y-68475942D01*
X131849316Y-68499603D01*
X131843504Y-68522807D01*
X131835446Y-68545329D01*
X131825218Y-68566953D01*
X131812921Y-68587470D01*
X131798671Y-68606683D01*
X131782607Y-68624407D01*
X131764883Y-68640471D01*
X131745670Y-68654721D01*
X131725153Y-68667018D01*
X131703529Y-68677246D01*
X131681007Y-68685304D01*
X131657803Y-68691116D01*
X131634142Y-68694626D01*
X131610250Y-68695800D01*
X131122750Y-68695800D01*
X131098858Y-68694626D01*
X131075197Y-68691116D01*
X131051993Y-68685304D01*
X131029471Y-68677246D01*
X131007847Y-68667018D01*
X130987330Y-68654721D01*
X130968117Y-68640471D01*
X130950393Y-68624407D01*
X130934329Y-68606683D01*
X130920079Y-68587470D01*
X130907782Y-68566953D01*
X130897554Y-68545329D01*
X130889496Y-68522807D01*
X130883684Y-68499603D01*
X130880174Y-68475942D01*
X130879000Y-68452050D01*
X130879000Y-67539550D01*
X130880174Y-67515658D01*
X130883684Y-67491997D01*
X130889496Y-67468793D01*
X130897554Y-67446271D01*
X130907782Y-67424647D01*
X130920079Y-67404130D01*
X130934329Y-67384917D01*
X130950393Y-67367193D01*
X130968117Y-67351129D01*
X130987330Y-67336879D01*
X131007847Y-67324582D01*
X131029471Y-67314354D01*
X131051993Y-67306296D01*
X131075197Y-67300484D01*
X131098858Y-67296974D01*
X131122750Y-67295800D01*
X131610250Y-67295800D01*
X131634142Y-67296974D01*
X131634142Y-67296974D01*
G37*
D24*
X131366500Y-67995800D03*
D10*
G36*
X129759142Y-67296974D02*
G01*
X129782803Y-67300484D01*
X129806007Y-67306296D01*
X129828529Y-67314354D01*
X129850153Y-67324582D01*
X129870670Y-67336879D01*
X129889883Y-67351129D01*
X129907607Y-67367193D01*
X129923671Y-67384917D01*
X129937921Y-67404130D01*
X129950218Y-67424647D01*
X129960446Y-67446271D01*
X129968504Y-67468793D01*
X129974316Y-67491997D01*
X129977826Y-67515658D01*
X129979000Y-67539550D01*
X129979000Y-68452050D01*
X129977826Y-68475942D01*
X129974316Y-68499603D01*
X129968504Y-68522807D01*
X129960446Y-68545329D01*
X129950218Y-68566953D01*
X129937921Y-68587470D01*
X129923671Y-68606683D01*
X129907607Y-68624407D01*
X129889883Y-68640471D01*
X129870670Y-68654721D01*
X129850153Y-68667018D01*
X129828529Y-68677246D01*
X129806007Y-68685304D01*
X129782803Y-68691116D01*
X129759142Y-68694626D01*
X129735250Y-68695800D01*
X129247750Y-68695800D01*
X129223858Y-68694626D01*
X129200197Y-68691116D01*
X129176993Y-68685304D01*
X129154471Y-68677246D01*
X129132847Y-68667018D01*
X129112330Y-68654721D01*
X129093117Y-68640471D01*
X129075393Y-68624407D01*
X129059329Y-68606683D01*
X129045079Y-68587470D01*
X129032782Y-68566953D01*
X129022554Y-68545329D01*
X129014496Y-68522807D01*
X129008684Y-68499603D01*
X129005174Y-68475942D01*
X129004000Y-68452050D01*
X129004000Y-67539550D01*
X129005174Y-67515658D01*
X129008684Y-67491997D01*
X129014496Y-67468793D01*
X129022554Y-67446271D01*
X129032782Y-67424647D01*
X129045079Y-67404130D01*
X129059329Y-67384917D01*
X129075393Y-67367193D01*
X129093117Y-67351129D01*
X129112330Y-67336879D01*
X129132847Y-67324582D01*
X129154471Y-67314354D01*
X129176993Y-67306296D01*
X129200197Y-67300484D01*
X129223858Y-67296974D01*
X129247750Y-67295800D01*
X129735250Y-67295800D01*
X129759142Y-67296974D01*
X129759142Y-67296974D01*
G37*
D24*
X129491500Y-67995800D03*
D10*
G36*
X147215942Y-55319774D02*
G01*
X147239603Y-55323284D01*
X147262807Y-55329096D01*
X147285329Y-55337154D01*
X147306953Y-55347382D01*
X147327470Y-55359679D01*
X147346683Y-55373929D01*
X147364407Y-55389993D01*
X147380471Y-55407717D01*
X147394721Y-55426930D01*
X147407018Y-55447447D01*
X147417246Y-55469071D01*
X147425304Y-55491593D01*
X147431116Y-55514797D01*
X147434626Y-55538458D01*
X147435800Y-55562350D01*
X147435800Y-56049850D01*
X147434626Y-56073742D01*
X147431116Y-56097403D01*
X147425304Y-56120607D01*
X147417246Y-56143129D01*
X147407018Y-56164753D01*
X147394721Y-56185270D01*
X147380471Y-56204483D01*
X147364407Y-56222207D01*
X147346683Y-56238271D01*
X147327470Y-56252521D01*
X147306953Y-56264818D01*
X147285329Y-56275046D01*
X147262807Y-56283104D01*
X147239603Y-56288916D01*
X147215942Y-56292426D01*
X147192050Y-56293600D01*
X146279550Y-56293600D01*
X146255658Y-56292426D01*
X146231997Y-56288916D01*
X146208793Y-56283104D01*
X146186271Y-56275046D01*
X146164647Y-56264818D01*
X146144130Y-56252521D01*
X146124917Y-56238271D01*
X146107193Y-56222207D01*
X146091129Y-56204483D01*
X146076879Y-56185270D01*
X146064582Y-56164753D01*
X146054354Y-56143129D01*
X146046296Y-56120607D01*
X146040484Y-56097403D01*
X146036974Y-56073742D01*
X146035800Y-56049850D01*
X146035800Y-55562350D01*
X146036974Y-55538458D01*
X146040484Y-55514797D01*
X146046296Y-55491593D01*
X146054354Y-55469071D01*
X146064582Y-55447447D01*
X146076879Y-55426930D01*
X146091129Y-55407717D01*
X146107193Y-55389993D01*
X146124917Y-55373929D01*
X146144130Y-55359679D01*
X146164647Y-55347382D01*
X146186271Y-55337154D01*
X146208793Y-55329096D01*
X146231997Y-55323284D01*
X146255658Y-55319774D01*
X146279550Y-55318600D01*
X147192050Y-55318600D01*
X147215942Y-55319774D01*
X147215942Y-55319774D01*
G37*
D24*
X146735800Y-55806100D03*
D10*
G36*
X147215942Y-57194774D02*
G01*
X147239603Y-57198284D01*
X147262807Y-57204096D01*
X147285329Y-57212154D01*
X147306953Y-57222382D01*
X147327470Y-57234679D01*
X147346683Y-57248929D01*
X147364407Y-57264993D01*
X147380471Y-57282717D01*
X147394721Y-57301930D01*
X147407018Y-57322447D01*
X147417246Y-57344071D01*
X147425304Y-57366593D01*
X147431116Y-57389797D01*
X147434626Y-57413458D01*
X147435800Y-57437350D01*
X147435800Y-57924850D01*
X147434626Y-57948742D01*
X147431116Y-57972403D01*
X147425304Y-57995607D01*
X147417246Y-58018129D01*
X147407018Y-58039753D01*
X147394721Y-58060270D01*
X147380471Y-58079483D01*
X147364407Y-58097207D01*
X147346683Y-58113271D01*
X147327470Y-58127521D01*
X147306953Y-58139818D01*
X147285329Y-58150046D01*
X147262807Y-58158104D01*
X147239603Y-58163916D01*
X147215942Y-58167426D01*
X147192050Y-58168600D01*
X146279550Y-58168600D01*
X146255658Y-58167426D01*
X146231997Y-58163916D01*
X146208793Y-58158104D01*
X146186271Y-58150046D01*
X146164647Y-58139818D01*
X146144130Y-58127521D01*
X146124917Y-58113271D01*
X146107193Y-58097207D01*
X146091129Y-58079483D01*
X146076879Y-58060270D01*
X146064582Y-58039753D01*
X146054354Y-58018129D01*
X146046296Y-57995607D01*
X146040484Y-57972403D01*
X146036974Y-57948742D01*
X146035800Y-57924850D01*
X146035800Y-57437350D01*
X146036974Y-57413458D01*
X146040484Y-57389797D01*
X146046296Y-57366593D01*
X146054354Y-57344071D01*
X146064582Y-57322447D01*
X146076879Y-57301930D01*
X146091129Y-57282717D01*
X146107193Y-57264993D01*
X146124917Y-57248929D01*
X146144130Y-57234679D01*
X146164647Y-57222382D01*
X146186271Y-57212154D01*
X146208793Y-57204096D01*
X146231997Y-57198284D01*
X146255658Y-57194774D01*
X146279550Y-57193600D01*
X147192050Y-57193600D01*
X147215942Y-57194774D01*
X147215942Y-57194774D01*
G37*
D24*
X146735800Y-57681100D03*
D10*
G36*
X149082842Y-57194774D02*
G01*
X149106503Y-57198284D01*
X149129707Y-57204096D01*
X149152229Y-57212154D01*
X149173853Y-57222382D01*
X149194370Y-57234679D01*
X149213583Y-57248929D01*
X149231307Y-57264993D01*
X149247371Y-57282717D01*
X149261621Y-57301930D01*
X149273918Y-57322447D01*
X149284146Y-57344071D01*
X149292204Y-57366593D01*
X149298016Y-57389797D01*
X149301526Y-57413458D01*
X149302700Y-57437350D01*
X149302700Y-57924850D01*
X149301526Y-57948742D01*
X149298016Y-57972403D01*
X149292204Y-57995607D01*
X149284146Y-58018129D01*
X149273918Y-58039753D01*
X149261621Y-58060270D01*
X149247371Y-58079483D01*
X149231307Y-58097207D01*
X149213583Y-58113271D01*
X149194370Y-58127521D01*
X149173853Y-58139818D01*
X149152229Y-58150046D01*
X149129707Y-58158104D01*
X149106503Y-58163916D01*
X149082842Y-58167426D01*
X149058950Y-58168600D01*
X148146450Y-58168600D01*
X148122558Y-58167426D01*
X148098897Y-58163916D01*
X148075693Y-58158104D01*
X148053171Y-58150046D01*
X148031547Y-58139818D01*
X148011030Y-58127521D01*
X147991817Y-58113271D01*
X147974093Y-58097207D01*
X147958029Y-58079483D01*
X147943779Y-58060270D01*
X147931482Y-58039753D01*
X147921254Y-58018129D01*
X147913196Y-57995607D01*
X147907384Y-57972403D01*
X147903874Y-57948742D01*
X147902700Y-57924850D01*
X147902700Y-57437350D01*
X147903874Y-57413458D01*
X147907384Y-57389797D01*
X147913196Y-57366593D01*
X147921254Y-57344071D01*
X147931482Y-57322447D01*
X147943779Y-57301930D01*
X147958029Y-57282717D01*
X147974093Y-57264993D01*
X147991817Y-57248929D01*
X148011030Y-57234679D01*
X148031547Y-57222382D01*
X148053171Y-57212154D01*
X148075693Y-57204096D01*
X148098897Y-57198284D01*
X148122558Y-57194774D01*
X148146450Y-57193600D01*
X149058950Y-57193600D01*
X149082842Y-57194774D01*
X149082842Y-57194774D01*
G37*
D24*
X148602700Y-57681100D03*
D10*
G36*
X149082842Y-55319774D02*
G01*
X149106503Y-55323284D01*
X149129707Y-55329096D01*
X149152229Y-55337154D01*
X149173853Y-55347382D01*
X149194370Y-55359679D01*
X149213583Y-55373929D01*
X149231307Y-55389993D01*
X149247371Y-55407717D01*
X149261621Y-55426930D01*
X149273918Y-55447447D01*
X149284146Y-55469071D01*
X149292204Y-55491593D01*
X149298016Y-55514797D01*
X149301526Y-55538458D01*
X149302700Y-55562350D01*
X149302700Y-56049850D01*
X149301526Y-56073742D01*
X149298016Y-56097403D01*
X149292204Y-56120607D01*
X149284146Y-56143129D01*
X149273918Y-56164753D01*
X149261621Y-56185270D01*
X149247371Y-56204483D01*
X149231307Y-56222207D01*
X149213583Y-56238271D01*
X149194370Y-56252521D01*
X149173853Y-56264818D01*
X149152229Y-56275046D01*
X149129707Y-56283104D01*
X149106503Y-56288916D01*
X149082842Y-56292426D01*
X149058950Y-56293600D01*
X148146450Y-56293600D01*
X148122558Y-56292426D01*
X148098897Y-56288916D01*
X148075693Y-56283104D01*
X148053171Y-56275046D01*
X148031547Y-56264818D01*
X148011030Y-56252521D01*
X147991817Y-56238271D01*
X147974093Y-56222207D01*
X147958029Y-56204483D01*
X147943779Y-56185270D01*
X147931482Y-56164753D01*
X147921254Y-56143129D01*
X147913196Y-56120607D01*
X147907384Y-56097403D01*
X147903874Y-56073742D01*
X147902700Y-56049850D01*
X147902700Y-55562350D01*
X147903874Y-55538458D01*
X147907384Y-55514797D01*
X147913196Y-55491593D01*
X147921254Y-55469071D01*
X147931482Y-55447447D01*
X147943779Y-55426930D01*
X147958029Y-55407717D01*
X147974093Y-55389993D01*
X147991817Y-55373929D01*
X148011030Y-55359679D01*
X148031547Y-55347382D01*
X148053171Y-55337154D01*
X148075693Y-55329096D01*
X148098897Y-55323284D01*
X148122558Y-55319774D01*
X148146450Y-55318600D01*
X149058950Y-55318600D01*
X149082842Y-55319774D01*
X149082842Y-55319774D01*
G37*
D24*
X148602700Y-55806100D03*
D10*
G36*
X125822142Y-69684574D02*
G01*
X125845803Y-69688084D01*
X125869007Y-69693896D01*
X125891529Y-69701954D01*
X125913153Y-69712182D01*
X125933670Y-69724479D01*
X125952883Y-69738729D01*
X125970607Y-69754793D01*
X125986671Y-69772517D01*
X126000921Y-69791730D01*
X126013218Y-69812247D01*
X126023446Y-69833871D01*
X126031504Y-69856393D01*
X126037316Y-69879597D01*
X126040826Y-69903258D01*
X126042000Y-69927150D01*
X126042000Y-70839650D01*
X126040826Y-70863542D01*
X126037316Y-70887203D01*
X126031504Y-70910407D01*
X126023446Y-70932929D01*
X126013218Y-70954553D01*
X126000921Y-70975070D01*
X125986671Y-70994283D01*
X125970607Y-71012007D01*
X125952883Y-71028071D01*
X125933670Y-71042321D01*
X125913153Y-71054618D01*
X125891529Y-71064846D01*
X125869007Y-71072904D01*
X125845803Y-71078716D01*
X125822142Y-71082226D01*
X125798250Y-71083400D01*
X125310750Y-71083400D01*
X125286858Y-71082226D01*
X125263197Y-71078716D01*
X125239993Y-71072904D01*
X125217471Y-71064846D01*
X125195847Y-71054618D01*
X125175330Y-71042321D01*
X125156117Y-71028071D01*
X125138393Y-71012007D01*
X125122329Y-70994283D01*
X125108079Y-70975070D01*
X125095782Y-70954553D01*
X125085554Y-70932929D01*
X125077496Y-70910407D01*
X125071684Y-70887203D01*
X125068174Y-70863542D01*
X125067000Y-70839650D01*
X125067000Y-69927150D01*
X125068174Y-69903258D01*
X125071684Y-69879597D01*
X125077496Y-69856393D01*
X125085554Y-69833871D01*
X125095782Y-69812247D01*
X125108079Y-69791730D01*
X125122329Y-69772517D01*
X125138393Y-69754793D01*
X125156117Y-69738729D01*
X125175330Y-69724479D01*
X125195847Y-69712182D01*
X125217471Y-69701954D01*
X125239993Y-69693896D01*
X125263197Y-69688084D01*
X125286858Y-69684574D01*
X125310750Y-69683400D01*
X125798250Y-69683400D01*
X125822142Y-69684574D01*
X125822142Y-69684574D01*
G37*
D24*
X125554500Y-70383400D03*
D10*
G36*
X127697142Y-69684574D02*
G01*
X127720803Y-69688084D01*
X127744007Y-69693896D01*
X127766529Y-69701954D01*
X127788153Y-69712182D01*
X127808670Y-69724479D01*
X127827883Y-69738729D01*
X127845607Y-69754793D01*
X127861671Y-69772517D01*
X127875921Y-69791730D01*
X127888218Y-69812247D01*
X127898446Y-69833871D01*
X127906504Y-69856393D01*
X127912316Y-69879597D01*
X127915826Y-69903258D01*
X127917000Y-69927150D01*
X127917000Y-70839650D01*
X127915826Y-70863542D01*
X127912316Y-70887203D01*
X127906504Y-70910407D01*
X127898446Y-70932929D01*
X127888218Y-70954553D01*
X127875921Y-70975070D01*
X127861671Y-70994283D01*
X127845607Y-71012007D01*
X127827883Y-71028071D01*
X127808670Y-71042321D01*
X127788153Y-71054618D01*
X127766529Y-71064846D01*
X127744007Y-71072904D01*
X127720803Y-71078716D01*
X127697142Y-71082226D01*
X127673250Y-71083400D01*
X127185750Y-71083400D01*
X127161858Y-71082226D01*
X127138197Y-71078716D01*
X127114993Y-71072904D01*
X127092471Y-71064846D01*
X127070847Y-71054618D01*
X127050330Y-71042321D01*
X127031117Y-71028071D01*
X127013393Y-71012007D01*
X126997329Y-70994283D01*
X126983079Y-70975070D01*
X126970782Y-70954553D01*
X126960554Y-70932929D01*
X126952496Y-70910407D01*
X126946684Y-70887203D01*
X126943174Y-70863542D01*
X126942000Y-70839650D01*
X126942000Y-69927150D01*
X126943174Y-69903258D01*
X126946684Y-69879597D01*
X126952496Y-69856393D01*
X126960554Y-69833871D01*
X126970782Y-69812247D01*
X126983079Y-69791730D01*
X126997329Y-69772517D01*
X127013393Y-69754793D01*
X127031117Y-69738729D01*
X127050330Y-69724479D01*
X127070847Y-69712182D01*
X127092471Y-69701954D01*
X127114993Y-69693896D01*
X127138197Y-69688084D01*
X127161858Y-69684574D01*
X127185750Y-69683400D01*
X127673250Y-69683400D01*
X127697142Y-69684574D01*
X127697142Y-69684574D01*
G37*
D24*
X127429500Y-70383400D03*
D10*
G36*
X125834842Y-67906574D02*
G01*
X125858503Y-67910084D01*
X125881707Y-67915896D01*
X125904229Y-67923954D01*
X125925853Y-67934182D01*
X125946370Y-67946479D01*
X125965583Y-67960729D01*
X125983307Y-67976793D01*
X125999371Y-67994517D01*
X126013621Y-68013730D01*
X126025918Y-68034247D01*
X126036146Y-68055871D01*
X126044204Y-68078393D01*
X126050016Y-68101597D01*
X126053526Y-68125258D01*
X126054700Y-68149150D01*
X126054700Y-69061650D01*
X126053526Y-69085542D01*
X126050016Y-69109203D01*
X126044204Y-69132407D01*
X126036146Y-69154929D01*
X126025918Y-69176553D01*
X126013621Y-69197070D01*
X125999371Y-69216283D01*
X125983307Y-69234007D01*
X125965583Y-69250071D01*
X125946370Y-69264321D01*
X125925853Y-69276618D01*
X125904229Y-69286846D01*
X125881707Y-69294904D01*
X125858503Y-69300716D01*
X125834842Y-69304226D01*
X125810950Y-69305400D01*
X125323450Y-69305400D01*
X125299558Y-69304226D01*
X125275897Y-69300716D01*
X125252693Y-69294904D01*
X125230171Y-69286846D01*
X125208547Y-69276618D01*
X125188030Y-69264321D01*
X125168817Y-69250071D01*
X125151093Y-69234007D01*
X125135029Y-69216283D01*
X125120779Y-69197070D01*
X125108482Y-69176553D01*
X125098254Y-69154929D01*
X125090196Y-69132407D01*
X125084384Y-69109203D01*
X125080874Y-69085542D01*
X125079700Y-69061650D01*
X125079700Y-68149150D01*
X125080874Y-68125258D01*
X125084384Y-68101597D01*
X125090196Y-68078393D01*
X125098254Y-68055871D01*
X125108482Y-68034247D01*
X125120779Y-68013730D01*
X125135029Y-67994517D01*
X125151093Y-67976793D01*
X125168817Y-67960729D01*
X125188030Y-67946479D01*
X125208547Y-67934182D01*
X125230171Y-67923954D01*
X125252693Y-67915896D01*
X125275897Y-67910084D01*
X125299558Y-67906574D01*
X125323450Y-67905400D01*
X125810950Y-67905400D01*
X125834842Y-67906574D01*
X125834842Y-67906574D01*
G37*
D24*
X125567200Y-68605400D03*
D10*
G36*
X127709842Y-67906574D02*
G01*
X127733503Y-67910084D01*
X127756707Y-67915896D01*
X127779229Y-67923954D01*
X127800853Y-67934182D01*
X127821370Y-67946479D01*
X127840583Y-67960729D01*
X127858307Y-67976793D01*
X127874371Y-67994517D01*
X127888621Y-68013730D01*
X127900918Y-68034247D01*
X127911146Y-68055871D01*
X127919204Y-68078393D01*
X127925016Y-68101597D01*
X127928526Y-68125258D01*
X127929700Y-68149150D01*
X127929700Y-69061650D01*
X127928526Y-69085542D01*
X127925016Y-69109203D01*
X127919204Y-69132407D01*
X127911146Y-69154929D01*
X127900918Y-69176553D01*
X127888621Y-69197070D01*
X127874371Y-69216283D01*
X127858307Y-69234007D01*
X127840583Y-69250071D01*
X127821370Y-69264321D01*
X127800853Y-69276618D01*
X127779229Y-69286846D01*
X127756707Y-69294904D01*
X127733503Y-69300716D01*
X127709842Y-69304226D01*
X127685950Y-69305400D01*
X127198450Y-69305400D01*
X127174558Y-69304226D01*
X127150897Y-69300716D01*
X127127693Y-69294904D01*
X127105171Y-69286846D01*
X127083547Y-69276618D01*
X127063030Y-69264321D01*
X127043817Y-69250071D01*
X127026093Y-69234007D01*
X127010029Y-69216283D01*
X126995779Y-69197070D01*
X126983482Y-69176553D01*
X126973254Y-69154929D01*
X126965196Y-69132407D01*
X126959384Y-69109203D01*
X126955874Y-69085542D01*
X126954700Y-69061650D01*
X126954700Y-68149150D01*
X126955874Y-68125258D01*
X126959384Y-68101597D01*
X126965196Y-68078393D01*
X126973254Y-68055871D01*
X126983482Y-68034247D01*
X126995779Y-68013730D01*
X127010029Y-67994517D01*
X127026093Y-67976793D01*
X127043817Y-67960729D01*
X127063030Y-67946479D01*
X127083547Y-67934182D01*
X127105171Y-67923954D01*
X127127693Y-67915896D01*
X127150897Y-67910084D01*
X127174558Y-67906574D01*
X127198450Y-67905400D01*
X127685950Y-67905400D01*
X127709842Y-67906574D01*
X127709842Y-67906574D01*
G37*
D24*
X127442200Y-68605400D03*
D10*
G36*
X125809442Y-64490274D02*
G01*
X125833103Y-64493784D01*
X125856307Y-64499596D01*
X125878829Y-64507654D01*
X125900453Y-64517882D01*
X125920970Y-64530179D01*
X125940183Y-64544429D01*
X125957907Y-64560493D01*
X125973971Y-64578217D01*
X125988221Y-64597430D01*
X126000518Y-64617947D01*
X126010746Y-64639571D01*
X126018804Y-64662093D01*
X126024616Y-64685297D01*
X126028126Y-64708958D01*
X126029300Y-64732850D01*
X126029300Y-65645350D01*
X126028126Y-65669242D01*
X126024616Y-65692903D01*
X126018804Y-65716107D01*
X126010746Y-65738629D01*
X126000518Y-65760253D01*
X125988221Y-65780770D01*
X125973971Y-65799983D01*
X125957907Y-65817707D01*
X125940183Y-65833771D01*
X125920970Y-65848021D01*
X125900453Y-65860318D01*
X125878829Y-65870546D01*
X125856307Y-65878604D01*
X125833103Y-65884416D01*
X125809442Y-65887926D01*
X125785550Y-65889100D01*
X125298050Y-65889100D01*
X125274158Y-65887926D01*
X125250497Y-65884416D01*
X125227293Y-65878604D01*
X125204771Y-65870546D01*
X125183147Y-65860318D01*
X125162630Y-65848021D01*
X125143417Y-65833771D01*
X125125693Y-65817707D01*
X125109629Y-65799983D01*
X125095379Y-65780770D01*
X125083082Y-65760253D01*
X125072854Y-65738629D01*
X125064796Y-65716107D01*
X125058984Y-65692903D01*
X125055474Y-65669242D01*
X125054300Y-65645350D01*
X125054300Y-64732850D01*
X125055474Y-64708958D01*
X125058984Y-64685297D01*
X125064796Y-64662093D01*
X125072854Y-64639571D01*
X125083082Y-64617947D01*
X125095379Y-64597430D01*
X125109629Y-64578217D01*
X125125693Y-64560493D01*
X125143417Y-64544429D01*
X125162630Y-64530179D01*
X125183147Y-64517882D01*
X125204771Y-64507654D01*
X125227293Y-64499596D01*
X125250497Y-64493784D01*
X125274158Y-64490274D01*
X125298050Y-64489100D01*
X125785550Y-64489100D01*
X125809442Y-64490274D01*
X125809442Y-64490274D01*
G37*
D24*
X125541800Y-65189100D03*
D10*
G36*
X127684442Y-64490274D02*
G01*
X127708103Y-64493784D01*
X127731307Y-64499596D01*
X127753829Y-64507654D01*
X127775453Y-64517882D01*
X127795970Y-64530179D01*
X127815183Y-64544429D01*
X127832907Y-64560493D01*
X127848971Y-64578217D01*
X127863221Y-64597430D01*
X127875518Y-64617947D01*
X127885746Y-64639571D01*
X127893804Y-64662093D01*
X127899616Y-64685297D01*
X127903126Y-64708958D01*
X127904300Y-64732850D01*
X127904300Y-65645350D01*
X127903126Y-65669242D01*
X127899616Y-65692903D01*
X127893804Y-65716107D01*
X127885746Y-65738629D01*
X127875518Y-65760253D01*
X127863221Y-65780770D01*
X127848971Y-65799983D01*
X127832907Y-65817707D01*
X127815183Y-65833771D01*
X127795970Y-65848021D01*
X127775453Y-65860318D01*
X127753829Y-65870546D01*
X127731307Y-65878604D01*
X127708103Y-65884416D01*
X127684442Y-65887926D01*
X127660550Y-65889100D01*
X127173050Y-65889100D01*
X127149158Y-65887926D01*
X127125497Y-65884416D01*
X127102293Y-65878604D01*
X127079771Y-65870546D01*
X127058147Y-65860318D01*
X127037630Y-65848021D01*
X127018417Y-65833771D01*
X127000693Y-65817707D01*
X126984629Y-65799983D01*
X126970379Y-65780770D01*
X126958082Y-65760253D01*
X126947854Y-65738629D01*
X126939796Y-65716107D01*
X126933984Y-65692903D01*
X126930474Y-65669242D01*
X126929300Y-65645350D01*
X126929300Y-64732850D01*
X126930474Y-64708958D01*
X126933984Y-64685297D01*
X126939796Y-64662093D01*
X126947854Y-64639571D01*
X126958082Y-64617947D01*
X126970379Y-64597430D01*
X126984629Y-64578217D01*
X127000693Y-64560493D01*
X127018417Y-64544429D01*
X127037630Y-64530179D01*
X127058147Y-64517882D01*
X127079771Y-64507654D01*
X127102293Y-64499596D01*
X127125497Y-64493784D01*
X127149158Y-64490274D01*
X127173050Y-64489100D01*
X127660550Y-64489100D01*
X127684442Y-64490274D01*
X127684442Y-64490274D01*
G37*
D24*
X127416800Y-65189100D03*
D10*
G36*
X125326842Y-57200474D02*
G01*
X125350503Y-57203984D01*
X125373707Y-57209796D01*
X125396229Y-57217854D01*
X125417853Y-57228082D01*
X125438370Y-57240379D01*
X125457583Y-57254629D01*
X125475307Y-57270693D01*
X125491371Y-57288417D01*
X125505621Y-57307630D01*
X125517918Y-57328147D01*
X125528146Y-57349771D01*
X125536204Y-57372293D01*
X125542016Y-57395497D01*
X125545526Y-57419158D01*
X125546700Y-57443050D01*
X125546700Y-58355550D01*
X125545526Y-58379442D01*
X125542016Y-58403103D01*
X125536204Y-58426307D01*
X125528146Y-58448829D01*
X125517918Y-58470453D01*
X125505621Y-58490970D01*
X125491371Y-58510183D01*
X125475307Y-58527907D01*
X125457583Y-58543971D01*
X125438370Y-58558221D01*
X125417853Y-58570518D01*
X125396229Y-58580746D01*
X125373707Y-58588804D01*
X125350503Y-58594616D01*
X125326842Y-58598126D01*
X125302950Y-58599300D01*
X124815450Y-58599300D01*
X124791558Y-58598126D01*
X124767897Y-58594616D01*
X124744693Y-58588804D01*
X124722171Y-58580746D01*
X124700547Y-58570518D01*
X124680030Y-58558221D01*
X124660817Y-58543971D01*
X124643093Y-58527907D01*
X124627029Y-58510183D01*
X124612779Y-58490970D01*
X124600482Y-58470453D01*
X124590254Y-58448829D01*
X124582196Y-58426307D01*
X124576384Y-58403103D01*
X124572874Y-58379442D01*
X124571700Y-58355550D01*
X124571700Y-57443050D01*
X124572874Y-57419158D01*
X124576384Y-57395497D01*
X124582196Y-57372293D01*
X124590254Y-57349771D01*
X124600482Y-57328147D01*
X124612779Y-57307630D01*
X124627029Y-57288417D01*
X124643093Y-57270693D01*
X124660817Y-57254629D01*
X124680030Y-57240379D01*
X124700547Y-57228082D01*
X124722171Y-57217854D01*
X124744693Y-57209796D01*
X124767897Y-57203984D01*
X124791558Y-57200474D01*
X124815450Y-57199300D01*
X125302950Y-57199300D01*
X125326842Y-57200474D01*
X125326842Y-57200474D01*
G37*
D24*
X125059200Y-57899300D03*
D10*
G36*
X127201842Y-57200474D02*
G01*
X127225503Y-57203984D01*
X127248707Y-57209796D01*
X127271229Y-57217854D01*
X127292853Y-57228082D01*
X127313370Y-57240379D01*
X127332583Y-57254629D01*
X127350307Y-57270693D01*
X127366371Y-57288417D01*
X127380621Y-57307630D01*
X127392918Y-57328147D01*
X127403146Y-57349771D01*
X127411204Y-57372293D01*
X127417016Y-57395497D01*
X127420526Y-57419158D01*
X127421700Y-57443050D01*
X127421700Y-58355550D01*
X127420526Y-58379442D01*
X127417016Y-58403103D01*
X127411204Y-58426307D01*
X127403146Y-58448829D01*
X127392918Y-58470453D01*
X127380621Y-58490970D01*
X127366371Y-58510183D01*
X127350307Y-58527907D01*
X127332583Y-58543971D01*
X127313370Y-58558221D01*
X127292853Y-58570518D01*
X127271229Y-58580746D01*
X127248707Y-58588804D01*
X127225503Y-58594616D01*
X127201842Y-58598126D01*
X127177950Y-58599300D01*
X126690450Y-58599300D01*
X126666558Y-58598126D01*
X126642897Y-58594616D01*
X126619693Y-58588804D01*
X126597171Y-58580746D01*
X126575547Y-58570518D01*
X126555030Y-58558221D01*
X126535817Y-58543971D01*
X126518093Y-58527907D01*
X126502029Y-58510183D01*
X126487779Y-58490970D01*
X126475482Y-58470453D01*
X126465254Y-58448829D01*
X126457196Y-58426307D01*
X126451384Y-58403103D01*
X126447874Y-58379442D01*
X126446700Y-58355550D01*
X126446700Y-57443050D01*
X126447874Y-57419158D01*
X126451384Y-57395497D01*
X126457196Y-57372293D01*
X126465254Y-57349771D01*
X126475482Y-57328147D01*
X126487779Y-57307630D01*
X126502029Y-57288417D01*
X126518093Y-57270693D01*
X126535817Y-57254629D01*
X126555030Y-57240379D01*
X126575547Y-57228082D01*
X126597171Y-57217854D01*
X126619693Y-57209796D01*
X126642897Y-57203984D01*
X126666558Y-57200474D01*
X126690450Y-57199300D01*
X127177950Y-57199300D01*
X127201842Y-57200474D01*
X127201842Y-57200474D01*
G37*
D24*
X126934200Y-57899300D03*
D10*
G36*
X125537042Y-61123674D02*
G01*
X125560703Y-61127184D01*
X125583907Y-61132996D01*
X125606429Y-61141054D01*
X125628053Y-61151282D01*
X125648570Y-61163579D01*
X125667783Y-61177829D01*
X125685507Y-61193893D01*
X125701571Y-61211617D01*
X125715821Y-61230830D01*
X125728118Y-61251347D01*
X125738346Y-61272971D01*
X125746404Y-61295493D01*
X125752216Y-61318697D01*
X125755726Y-61342358D01*
X125756900Y-61366250D01*
X125756900Y-61853750D01*
X125755726Y-61877642D01*
X125752216Y-61901303D01*
X125746404Y-61924507D01*
X125738346Y-61947029D01*
X125728118Y-61968653D01*
X125715821Y-61989170D01*
X125701571Y-62008383D01*
X125685507Y-62026107D01*
X125667783Y-62042171D01*
X125648570Y-62056421D01*
X125628053Y-62068718D01*
X125606429Y-62078946D01*
X125583907Y-62087004D01*
X125560703Y-62092816D01*
X125537042Y-62096326D01*
X125513150Y-62097500D01*
X124600650Y-62097500D01*
X124576758Y-62096326D01*
X124553097Y-62092816D01*
X124529893Y-62087004D01*
X124507371Y-62078946D01*
X124485747Y-62068718D01*
X124465230Y-62056421D01*
X124446017Y-62042171D01*
X124428293Y-62026107D01*
X124412229Y-62008383D01*
X124397979Y-61989170D01*
X124385682Y-61968653D01*
X124375454Y-61947029D01*
X124367396Y-61924507D01*
X124361584Y-61901303D01*
X124358074Y-61877642D01*
X124356900Y-61853750D01*
X124356900Y-61366250D01*
X124358074Y-61342358D01*
X124361584Y-61318697D01*
X124367396Y-61295493D01*
X124375454Y-61272971D01*
X124385682Y-61251347D01*
X124397979Y-61230830D01*
X124412229Y-61211617D01*
X124428293Y-61193893D01*
X124446017Y-61177829D01*
X124465230Y-61163579D01*
X124485747Y-61151282D01*
X124507371Y-61141054D01*
X124529893Y-61132996D01*
X124553097Y-61127184D01*
X124576758Y-61123674D01*
X124600650Y-61122500D01*
X125513150Y-61122500D01*
X125537042Y-61123674D01*
X125537042Y-61123674D01*
G37*
D24*
X125056900Y-61610000D03*
D10*
G36*
X125537042Y-62998674D02*
G01*
X125560703Y-63002184D01*
X125583907Y-63007996D01*
X125606429Y-63016054D01*
X125628053Y-63026282D01*
X125648570Y-63038579D01*
X125667783Y-63052829D01*
X125685507Y-63068893D01*
X125701571Y-63086617D01*
X125715821Y-63105830D01*
X125728118Y-63126347D01*
X125738346Y-63147971D01*
X125746404Y-63170493D01*
X125752216Y-63193697D01*
X125755726Y-63217358D01*
X125756900Y-63241250D01*
X125756900Y-63728750D01*
X125755726Y-63752642D01*
X125752216Y-63776303D01*
X125746404Y-63799507D01*
X125738346Y-63822029D01*
X125728118Y-63843653D01*
X125715821Y-63864170D01*
X125701571Y-63883383D01*
X125685507Y-63901107D01*
X125667783Y-63917171D01*
X125648570Y-63931421D01*
X125628053Y-63943718D01*
X125606429Y-63953946D01*
X125583907Y-63962004D01*
X125560703Y-63967816D01*
X125537042Y-63971326D01*
X125513150Y-63972500D01*
X124600650Y-63972500D01*
X124576758Y-63971326D01*
X124553097Y-63967816D01*
X124529893Y-63962004D01*
X124507371Y-63953946D01*
X124485747Y-63943718D01*
X124465230Y-63931421D01*
X124446017Y-63917171D01*
X124428293Y-63901107D01*
X124412229Y-63883383D01*
X124397979Y-63864170D01*
X124385682Y-63843653D01*
X124375454Y-63822029D01*
X124367396Y-63799507D01*
X124361584Y-63776303D01*
X124358074Y-63752642D01*
X124356900Y-63728750D01*
X124356900Y-63241250D01*
X124358074Y-63217358D01*
X124361584Y-63193697D01*
X124367396Y-63170493D01*
X124375454Y-63147971D01*
X124385682Y-63126347D01*
X124397979Y-63105830D01*
X124412229Y-63086617D01*
X124428293Y-63068893D01*
X124446017Y-63052829D01*
X124465230Y-63038579D01*
X124485747Y-63026282D01*
X124507371Y-63016054D01*
X124529893Y-63007996D01*
X124553097Y-63002184D01*
X124576758Y-62998674D01*
X124600650Y-62997500D01*
X125513150Y-62997500D01*
X125537042Y-62998674D01*
X125537042Y-62998674D01*
G37*
D24*
X125056900Y-63485000D03*
D10*
G36*
X141519852Y-58215202D02*
G01*
X141531986Y-58217002D01*
X141543886Y-58219982D01*
X141555435Y-58224115D01*
X141566525Y-58229360D01*
X141577046Y-58235666D01*
X141586899Y-58242974D01*
X141595988Y-58251212D01*
X141604226Y-58260301D01*
X141611534Y-58270154D01*
X141617840Y-58280675D01*
X141623085Y-58291765D01*
X141627218Y-58303314D01*
X141630198Y-58315214D01*
X141631998Y-58327348D01*
X141632600Y-58339600D01*
X141632600Y-58589600D01*
X141631998Y-58601852D01*
X141630198Y-58613986D01*
X141627218Y-58625886D01*
X141623085Y-58637435D01*
X141617840Y-58648525D01*
X141611534Y-58659046D01*
X141604226Y-58668899D01*
X141595988Y-58677988D01*
X141586899Y-58686226D01*
X141577046Y-58693534D01*
X141566525Y-58699840D01*
X141555435Y-58705085D01*
X141543886Y-58709218D01*
X141531986Y-58712198D01*
X141519852Y-58713998D01*
X141507600Y-58714600D01*
X141232600Y-58714600D01*
X141220348Y-58713998D01*
X141208214Y-58712198D01*
X141196314Y-58709218D01*
X141184765Y-58705085D01*
X141173675Y-58699840D01*
X141163154Y-58693534D01*
X141153301Y-58686226D01*
X141144212Y-58677988D01*
X141135974Y-58668899D01*
X141128666Y-58659046D01*
X141122360Y-58648525D01*
X141117115Y-58637435D01*
X141112982Y-58625886D01*
X141110002Y-58613986D01*
X141108202Y-58601852D01*
X141107600Y-58589600D01*
X141107600Y-58339600D01*
X141108202Y-58327348D01*
X141110002Y-58315214D01*
X141112982Y-58303314D01*
X141117115Y-58291765D01*
X141122360Y-58280675D01*
X141128666Y-58270154D01*
X141135974Y-58260301D01*
X141144212Y-58251212D01*
X141153301Y-58242974D01*
X141163154Y-58235666D01*
X141173675Y-58229360D01*
X141184765Y-58224115D01*
X141196314Y-58219982D01*
X141208214Y-58217002D01*
X141220348Y-58215202D01*
X141232600Y-58214600D01*
X141507600Y-58214600D01*
X141519852Y-58215202D01*
X141519852Y-58215202D01*
G37*
D27*
X141370100Y-58464600D03*
D10*
G36*
X141519852Y-59015202D02*
G01*
X141531986Y-59017002D01*
X141543886Y-59019982D01*
X141555435Y-59024115D01*
X141566525Y-59029360D01*
X141577046Y-59035666D01*
X141586899Y-59042974D01*
X141595988Y-59051212D01*
X141604226Y-59060301D01*
X141611534Y-59070154D01*
X141617840Y-59080675D01*
X141623085Y-59091765D01*
X141627218Y-59103314D01*
X141630198Y-59115214D01*
X141631998Y-59127348D01*
X141632600Y-59139600D01*
X141632600Y-59389600D01*
X141631998Y-59401852D01*
X141630198Y-59413986D01*
X141627218Y-59425886D01*
X141623085Y-59437435D01*
X141617840Y-59448525D01*
X141611534Y-59459046D01*
X141604226Y-59468899D01*
X141595988Y-59477988D01*
X141586899Y-59486226D01*
X141577046Y-59493534D01*
X141566525Y-59499840D01*
X141555435Y-59505085D01*
X141543886Y-59509218D01*
X141531986Y-59512198D01*
X141519852Y-59513998D01*
X141507600Y-59514600D01*
X141232600Y-59514600D01*
X141220348Y-59513998D01*
X141208214Y-59512198D01*
X141196314Y-59509218D01*
X141184765Y-59505085D01*
X141173675Y-59499840D01*
X141163154Y-59493534D01*
X141153301Y-59486226D01*
X141144212Y-59477988D01*
X141135974Y-59468899D01*
X141128666Y-59459046D01*
X141122360Y-59448525D01*
X141117115Y-59437435D01*
X141112982Y-59425886D01*
X141110002Y-59413986D01*
X141108202Y-59401852D01*
X141107600Y-59389600D01*
X141107600Y-59139600D01*
X141108202Y-59127348D01*
X141110002Y-59115214D01*
X141112982Y-59103314D01*
X141117115Y-59091765D01*
X141122360Y-59080675D01*
X141128666Y-59070154D01*
X141135974Y-59060301D01*
X141144212Y-59051212D01*
X141153301Y-59042974D01*
X141163154Y-59035666D01*
X141173675Y-59029360D01*
X141184765Y-59024115D01*
X141196314Y-59019982D01*
X141208214Y-59017002D01*
X141220348Y-59015202D01*
X141232600Y-59014600D01*
X141507600Y-59014600D01*
X141519852Y-59015202D01*
X141519852Y-59015202D01*
G37*
D27*
X141370100Y-59264600D03*
D10*
G36*
X141519852Y-59815202D02*
G01*
X141531986Y-59817002D01*
X141543886Y-59819982D01*
X141555435Y-59824115D01*
X141566525Y-59829360D01*
X141577046Y-59835666D01*
X141586899Y-59842974D01*
X141595988Y-59851212D01*
X141604226Y-59860301D01*
X141611534Y-59870154D01*
X141617840Y-59880675D01*
X141623085Y-59891765D01*
X141627218Y-59903314D01*
X141630198Y-59915214D01*
X141631998Y-59927348D01*
X141632600Y-59939600D01*
X141632600Y-60189600D01*
X141631998Y-60201852D01*
X141630198Y-60213986D01*
X141627218Y-60225886D01*
X141623085Y-60237435D01*
X141617840Y-60248525D01*
X141611534Y-60259046D01*
X141604226Y-60268899D01*
X141595988Y-60277988D01*
X141586899Y-60286226D01*
X141577046Y-60293534D01*
X141566525Y-60299840D01*
X141555435Y-60305085D01*
X141543886Y-60309218D01*
X141531986Y-60312198D01*
X141519852Y-60313998D01*
X141507600Y-60314600D01*
X141232600Y-60314600D01*
X141220348Y-60313998D01*
X141208214Y-60312198D01*
X141196314Y-60309218D01*
X141184765Y-60305085D01*
X141173675Y-60299840D01*
X141163154Y-60293534D01*
X141153301Y-60286226D01*
X141144212Y-60277988D01*
X141135974Y-60268899D01*
X141128666Y-60259046D01*
X141122360Y-60248525D01*
X141117115Y-60237435D01*
X141112982Y-60225886D01*
X141110002Y-60213986D01*
X141108202Y-60201852D01*
X141107600Y-60189600D01*
X141107600Y-59939600D01*
X141108202Y-59927348D01*
X141110002Y-59915214D01*
X141112982Y-59903314D01*
X141117115Y-59891765D01*
X141122360Y-59880675D01*
X141128666Y-59870154D01*
X141135974Y-59860301D01*
X141144212Y-59851212D01*
X141153301Y-59842974D01*
X141163154Y-59835666D01*
X141173675Y-59829360D01*
X141184765Y-59824115D01*
X141196314Y-59819982D01*
X141208214Y-59817002D01*
X141220348Y-59815202D01*
X141232600Y-59814600D01*
X141507600Y-59814600D01*
X141519852Y-59815202D01*
X141519852Y-59815202D01*
G37*
D27*
X141370100Y-60064600D03*
D10*
G36*
X141519852Y-60615202D02*
G01*
X141531986Y-60617002D01*
X141543886Y-60619982D01*
X141555435Y-60624115D01*
X141566525Y-60629360D01*
X141577046Y-60635666D01*
X141586899Y-60642974D01*
X141595988Y-60651212D01*
X141604226Y-60660301D01*
X141611534Y-60670154D01*
X141617840Y-60680675D01*
X141623085Y-60691765D01*
X141627218Y-60703314D01*
X141630198Y-60715214D01*
X141631998Y-60727348D01*
X141632600Y-60739600D01*
X141632600Y-60989600D01*
X141631998Y-61001852D01*
X141630198Y-61013986D01*
X141627218Y-61025886D01*
X141623085Y-61037435D01*
X141617840Y-61048525D01*
X141611534Y-61059046D01*
X141604226Y-61068899D01*
X141595988Y-61077988D01*
X141586899Y-61086226D01*
X141577046Y-61093534D01*
X141566525Y-61099840D01*
X141555435Y-61105085D01*
X141543886Y-61109218D01*
X141531986Y-61112198D01*
X141519852Y-61113998D01*
X141507600Y-61114600D01*
X141232600Y-61114600D01*
X141220348Y-61113998D01*
X141208214Y-61112198D01*
X141196314Y-61109218D01*
X141184765Y-61105085D01*
X141173675Y-61099840D01*
X141163154Y-61093534D01*
X141153301Y-61086226D01*
X141144212Y-61077988D01*
X141135974Y-61068899D01*
X141128666Y-61059046D01*
X141122360Y-61048525D01*
X141117115Y-61037435D01*
X141112982Y-61025886D01*
X141110002Y-61013986D01*
X141108202Y-61001852D01*
X141107600Y-60989600D01*
X141107600Y-60739600D01*
X141108202Y-60727348D01*
X141110002Y-60715214D01*
X141112982Y-60703314D01*
X141117115Y-60691765D01*
X141122360Y-60680675D01*
X141128666Y-60670154D01*
X141135974Y-60660301D01*
X141144212Y-60651212D01*
X141153301Y-60642974D01*
X141163154Y-60635666D01*
X141173675Y-60629360D01*
X141184765Y-60624115D01*
X141196314Y-60619982D01*
X141208214Y-60617002D01*
X141220348Y-60615202D01*
X141232600Y-60614600D01*
X141507600Y-60614600D01*
X141519852Y-60615202D01*
X141519852Y-60615202D01*
G37*
D27*
X141370100Y-60864600D03*
D10*
G36*
X139144852Y-60615202D02*
G01*
X139156986Y-60617002D01*
X139168886Y-60619982D01*
X139180435Y-60624115D01*
X139191525Y-60629360D01*
X139202046Y-60635666D01*
X139211899Y-60642974D01*
X139220988Y-60651212D01*
X139229226Y-60660301D01*
X139236534Y-60670154D01*
X139242840Y-60680675D01*
X139248085Y-60691765D01*
X139252218Y-60703314D01*
X139255198Y-60715214D01*
X139256998Y-60727348D01*
X139257600Y-60739600D01*
X139257600Y-60989600D01*
X139256998Y-61001852D01*
X139255198Y-61013986D01*
X139252218Y-61025886D01*
X139248085Y-61037435D01*
X139242840Y-61048525D01*
X139236534Y-61059046D01*
X139229226Y-61068899D01*
X139220988Y-61077988D01*
X139211899Y-61086226D01*
X139202046Y-61093534D01*
X139191525Y-61099840D01*
X139180435Y-61105085D01*
X139168886Y-61109218D01*
X139156986Y-61112198D01*
X139144852Y-61113998D01*
X139132600Y-61114600D01*
X138857600Y-61114600D01*
X138845348Y-61113998D01*
X138833214Y-61112198D01*
X138821314Y-61109218D01*
X138809765Y-61105085D01*
X138798675Y-61099840D01*
X138788154Y-61093534D01*
X138778301Y-61086226D01*
X138769212Y-61077988D01*
X138760974Y-61068899D01*
X138753666Y-61059046D01*
X138747360Y-61048525D01*
X138742115Y-61037435D01*
X138737982Y-61025886D01*
X138735002Y-61013986D01*
X138733202Y-61001852D01*
X138732600Y-60989600D01*
X138732600Y-60739600D01*
X138733202Y-60727348D01*
X138735002Y-60715214D01*
X138737982Y-60703314D01*
X138742115Y-60691765D01*
X138747360Y-60680675D01*
X138753666Y-60670154D01*
X138760974Y-60660301D01*
X138769212Y-60651212D01*
X138778301Y-60642974D01*
X138788154Y-60635666D01*
X138798675Y-60629360D01*
X138809765Y-60624115D01*
X138821314Y-60619982D01*
X138833214Y-60617002D01*
X138845348Y-60615202D01*
X138857600Y-60614600D01*
X139132600Y-60614600D01*
X139144852Y-60615202D01*
X139144852Y-60615202D01*
G37*
D27*
X138995100Y-60864600D03*
D10*
G36*
X139144852Y-59815202D02*
G01*
X139156986Y-59817002D01*
X139168886Y-59819982D01*
X139180435Y-59824115D01*
X139191525Y-59829360D01*
X139202046Y-59835666D01*
X139211899Y-59842974D01*
X139220988Y-59851212D01*
X139229226Y-59860301D01*
X139236534Y-59870154D01*
X139242840Y-59880675D01*
X139248085Y-59891765D01*
X139252218Y-59903314D01*
X139255198Y-59915214D01*
X139256998Y-59927348D01*
X139257600Y-59939600D01*
X139257600Y-60189600D01*
X139256998Y-60201852D01*
X139255198Y-60213986D01*
X139252218Y-60225886D01*
X139248085Y-60237435D01*
X139242840Y-60248525D01*
X139236534Y-60259046D01*
X139229226Y-60268899D01*
X139220988Y-60277988D01*
X139211899Y-60286226D01*
X139202046Y-60293534D01*
X139191525Y-60299840D01*
X139180435Y-60305085D01*
X139168886Y-60309218D01*
X139156986Y-60312198D01*
X139144852Y-60313998D01*
X139132600Y-60314600D01*
X138857600Y-60314600D01*
X138845348Y-60313998D01*
X138833214Y-60312198D01*
X138821314Y-60309218D01*
X138809765Y-60305085D01*
X138798675Y-60299840D01*
X138788154Y-60293534D01*
X138778301Y-60286226D01*
X138769212Y-60277988D01*
X138760974Y-60268899D01*
X138753666Y-60259046D01*
X138747360Y-60248525D01*
X138742115Y-60237435D01*
X138737982Y-60225886D01*
X138735002Y-60213986D01*
X138733202Y-60201852D01*
X138732600Y-60189600D01*
X138732600Y-59939600D01*
X138733202Y-59927348D01*
X138735002Y-59915214D01*
X138737982Y-59903314D01*
X138742115Y-59891765D01*
X138747360Y-59880675D01*
X138753666Y-59870154D01*
X138760974Y-59860301D01*
X138769212Y-59851212D01*
X138778301Y-59842974D01*
X138788154Y-59835666D01*
X138798675Y-59829360D01*
X138809765Y-59824115D01*
X138821314Y-59819982D01*
X138833214Y-59817002D01*
X138845348Y-59815202D01*
X138857600Y-59814600D01*
X139132600Y-59814600D01*
X139144852Y-59815202D01*
X139144852Y-59815202D01*
G37*
D27*
X138995100Y-60064600D03*
D10*
G36*
X139144852Y-59015202D02*
G01*
X139156986Y-59017002D01*
X139168886Y-59019982D01*
X139180435Y-59024115D01*
X139191525Y-59029360D01*
X139202046Y-59035666D01*
X139211899Y-59042974D01*
X139220988Y-59051212D01*
X139229226Y-59060301D01*
X139236534Y-59070154D01*
X139242840Y-59080675D01*
X139248085Y-59091765D01*
X139252218Y-59103314D01*
X139255198Y-59115214D01*
X139256998Y-59127348D01*
X139257600Y-59139600D01*
X139257600Y-59389600D01*
X139256998Y-59401852D01*
X139255198Y-59413986D01*
X139252218Y-59425886D01*
X139248085Y-59437435D01*
X139242840Y-59448525D01*
X139236534Y-59459046D01*
X139229226Y-59468899D01*
X139220988Y-59477988D01*
X139211899Y-59486226D01*
X139202046Y-59493534D01*
X139191525Y-59499840D01*
X139180435Y-59505085D01*
X139168886Y-59509218D01*
X139156986Y-59512198D01*
X139144852Y-59513998D01*
X139132600Y-59514600D01*
X138857600Y-59514600D01*
X138845348Y-59513998D01*
X138833214Y-59512198D01*
X138821314Y-59509218D01*
X138809765Y-59505085D01*
X138798675Y-59499840D01*
X138788154Y-59493534D01*
X138778301Y-59486226D01*
X138769212Y-59477988D01*
X138760974Y-59468899D01*
X138753666Y-59459046D01*
X138747360Y-59448525D01*
X138742115Y-59437435D01*
X138737982Y-59425886D01*
X138735002Y-59413986D01*
X138733202Y-59401852D01*
X138732600Y-59389600D01*
X138732600Y-59139600D01*
X138733202Y-59127348D01*
X138735002Y-59115214D01*
X138737982Y-59103314D01*
X138742115Y-59091765D01*
X138747360Y-59080675D01*
X138753666Y-59070154D01*
X138760974Y-59060301D01*
X138769212Y-59051212D01*
X138778301Y-59042974D01*
X138788154Y-59035666D01*
X138798675Y-59029360D01*
X138809765Y-59024115D01*
X138821314Y-59019982D01*
X138833214Y-59017002D01*
X138845348Y-59015202D01*
X138857600Y-59014600D01*
X139132600Y-59014600D01*
X139144852Y-59015202D01*
X139144852Y-59015202D01*
G37*
D27*
X138995100Y-59264600D03*
D10*
G36*
X139144852Y-58215202D02*
G01*
X139156986Y-58217002D01*
X139168886Y-58219982D01*
X139180435Y-58224115D01*
X139191525Y-58229360D01*
X139202046Y-58235666D01*
X139211899Y-58242974D01*
X139220988Y-58251212D01*
X139229226Y-58260301D01*
X139236534Y-58270154D01*
X139242840Y-58280675D01*
X139248085Y-58291765D01*
X139252218Y-58303314D01*
X139255198Y-58315214D01*
X139256998Y-58327348D01*
X139257600Y-58339600D01*
X139257600Y-58589600D01*
X139256998Y-58601852D01*
X139255198Y-58613986D01*
X139252218Y-58625886D01*
X139248085Y-58637435D01*
X139242840Y-58648525D01*
X139236534Y-58659046D01*
X139229226Y-58668899D01*
X139220988Y-58677988D01*
X139211899Y-58686226D01*
X139202046Y-58693534D01*
X139191525Y-58699840D01*
X139180435Y-58705085D01*
X139168886Y-58709218D01*
X139156986Y-58712198D01*
X139144852Y-58713998D01*
X139132600Y-58714600D01*
X138857600Y-58714600D01*
X138845348Y-58713998D01*
X138833214Y-58712198D01*
X138821314Y-58709218D01*
X138809765Y-58705085D01*
X138798675Y-58699840D01*
X138788154Y-58693534D01*
X138778301Y-58686226D01*
X138769212Y-58677988D01*
X138760974Y-58668899D01*
X138753666Y-58659046D01*
X138747360Y-58648525D01*
X138742115Y-58637435D01*
X138737982Y-58625886D01*
X138735002Y-58613986D01*
X138733202Y-58601852D01*
X138732600Y-58589600D01*
X138732600Y-58339600D01*
X138733202Y-58327348D01*
X138735002Y-58315214D01*
X138737982Y-58303314D01*
X138742115Y-58291765D01*
X138747360Y-58280675D01*
X138753666Y-58270154D01*
X138760974Y-58260301D01*
X138769212Y-58251212D01*
X138778301Y-58242974D01*
X138788154Y-58235666D01*
X138798675Y-58229360D01*
X138809765Y-58224115D01*
X138821314Y-58219982D01*
X138833214Y-58217002D01*
X138845348Y-58215202D01*
X138857600Y-58214600D01*
X139132600Y-58214600D01*
X139144852Y-58215202D01*
X139144852Y-58215202D01*
G37*
D27*
X138995100Y-58464600D03*
D28*
X122262900Y-66754155D03*
X122262900Y-57454155D03*
D29*
X149503700Y-70548500D03*
X151003700Y-70548500D03*
D30*
X138861800Y-69786500D03*
X147015200Y-68948300D03*
X152455880Y-60365640D03*
X148082000Y-61864240D03*
X139306300Y-68948300D03*
X146138900Y-68491100D03*
X151719280Y-59903360D03*
X147330160Y-61371480D03*
X151130000Y-59273440D03*
X146847560Y-60604400D03*
X146410680Y-63103760D03*
X132384799Y-68986399D03*
X128905000Y-70612000D03*
D31*
X134200900Y-52197000D03*
X142214600Y-51625500D03*
D30*
X126022100Y-60528200D03*
X124498100Y-65138300D03*
X153847800Y-71196200D03*
X152476200Y-69926200D03*
X140157600Y-58464600D03*
X137947400Y-58242200D03*
X131267200Y-69240400D03*
X132765800Y-69799200D03*
X130276600Y-70485000D03*
X129209800Y-69342000D03*
X139153900Y-55168800D03*
D32*
X132842000Y-54241700D03*
X131864100Y-55232300D03*
X134683500Y-54673500D03*
X133261100Y-55689500D03*
X141122400Y-57696100D03*
X141782800Y-56667400D03*
D30*
X142265400Y-55067200D03*
D32*
X144157700Y-55079900D03*
X144881600Y-56629300D03*
D30*
X150850600Y-66001900D03*
X123634500Y-51676300D03*
X134480300Y-67792600D03*
X139788900Y-66560700D03*
X140017500Y-70129400D03*
X139776200Y-68046600D03*
X145249900Y-69189600D03*
X146672300Y-70129400D03*
X149387560Y-58648600D03*
X152262840Y-53512720D03*
X151069040Y-55041800D03*
X151023320Y-61788040D03*
X145496280Y-57856120D03*
X148981160Y-61757560D03*
X155641040Y-54183280D03*
X154523440Y-55869840D03*
X155646120Y-71236840D03*
X153908760Y-69499480D03*
X158186120Y-70744080D03*
X165333680Y-70672960D03*
X165877240Y-72882760D03*
X150942040Y-64135000D03*
X152120600Y-64160400D03*
X152069800Y-65389760D03*
X152186640Y-61691520D03*
X144876520Y-58648600D03*
X124871480Y-55153560D03*
X126075440Y-54315360D03*
X130423920Y-54234080D03*
X129702560Y-57271920D03*
X130931920Y-55377080D03*
X121508520Y-59039760D03*
X123718320Y-59065160D03*
X127579120Y-60116720D03*
X121478040Y-65166240D03*
X123484640Y-61513720D03*
X123235720Y-63271400D03*
X128132840Y-66898520D03*
X124729240Y-66675000D03*
X135021320Y-59766200D03*
X134975600Y-62565280D03*
X134833360Y-65140840D03*
X161198560Y-70647560D03*
X148325840Y-68737480D03*
X126685040Y-66614040D03*
X152603200Y-71551800D03*
X156806900Y-70446900D03*
X152184100Y-70777100D03*
X156070300Y-69354700D03*
X124002800Y-68605400D03*
X124383800Y-69418200D03*
X146375120Y-59842400D03*
X150774400Y-54203600D03*
X156301440Y-55646320D03*
X151399240Y-57439560D03*
D32*
X134454900Y-55727600D03*
X131635500Y-54356000D03*
D30*
X150515320Y-57500520D03*
X145978880Y-59070240D03*
X151404320Y-53594000D03*
X156941520Y-54737000D03*
D32*
X141071600Y-56045100D03*
X145161000Y-55791100D03*
X140335000Y-55587900D03*
X145237200Y-54978300D03*
D31*
X140103400Y-60118800D03*
D30*
X153944320Y-57180480D03*
X157793600Y-57353200D03*
X166730680Y-55935880D03*
X168955720Y-57353200D03*
X168940480Y-67467480D03*
X157793600Y-67467480D03*
X163306760Y-61259720D03*
X155529280Y-56581040D03*
X155163520Y-61584840D03*
D33*
X157811101Y-53110499D02*
X158661100Y-52260500D01*
X155580523Y-53386701D02*
X157372339Y-53386701D01*
X155504422Y-53375560D02*
X155569382Y-53375560D01*
X153690329Y-55189653D02*
X155504422Y-53375560D01*
X153690329Y-56001929D02*
X153690329Y-55189653D01*
X155569382Y-53375560D02*
X155580523Y-53386701D01*
X152455880Y-60365640D02*
X152455880Y-59383658D01*
X152967837Y-58871701D02*
X154462161Y-58871701D01*
X157534899Y-53386701D02*
X157811101Y-53110499D01*
X152455880Y-59383658D02*
X152967837Y-58871701D01*
X154462161Y-58871701D02*
X154550721Y-58783141D01*
X154550721Y-58783141D02*
X154550721Y-56862321D01*
X154550721Y-56862321D02*
X153690329Y-56001929D01*
X157372339Y-53386701D02*
X157534899Y-53386701D01*
X138741150Y-69665850D02*
X138861800Y-69786500D01*
X138039400Y-63992200D02*
X137749720Y-64281880D01*
X138738900Y-63992200D02*
X138039400Y-63992200D01*
X137749720Y-68944203D02*
X138106227Y-69300710D01*
X137749720Y-64281880D02*
X137749720Y-68944203D01*
X138106227Y-69300710D02*
X138376010Y-69300710D01*
X138376010Y-69300710D02*
X138741150Y-69665850D01*
X147015200Y-67754260D02*
X147586460Y-67183000D01*
X147015200Y-68948300D02*
X147015200Y-67754260D01*
X147586460Y-67183000D02*
X148350170Y-66419290D01*
X148082000Y-62331213D02*
X148082000Y-61864240D01*
X148350170Y-62599383D02*
X148082000Y-62331213D01*
X148350170Y-66419290D02*
X148350170Y-62599383D01*
X138162699Y-64771239D02*
X138162699Y-68858799D01*
X138738900Y-64592200D02*
X138341738Y-64592200D01*
X138341738Y-64592200D02*
X138162699Y-64771239D01*
X138162699Y-68858799D02*
X138162699Y-68858799D01*
X138252200Y-68948300D02*
X139001500Y-68948300D01*
X138162699Y-68858799D02*
X138252200Y-68948300D01*
X139001500Y-68948300D02*
X139306300Y-68948300D01*
X152103470Y-59519170D02*
X152103471Y-59237685D01*
X151719280Y-59903360D02*
X152103470Y-59519170D01*
X152103471Y-59237685D02*
X152764999Y-58576157D01*
X152764999Y-57374539D02*
X152820239Y-57319299D01*
X152764999Y-58576157D02*
X152764999Y-57374539D01*
X155271101Y-53110499D02*
X156121100Y-52260500D01*
X153337919Y-55043681D02*
X155271101Y-53110499D01*
X153337919Y-57172201D02*
X153337919Y-55043681D01*
X153190821Y-57319299D02*
X153337919Y-57172201D01*
X152820239Y-57319299D02*
X153190821Y-57319299D01*
X146863187Y-61371480D02*
X145475960Y-62758707D01*
X147330160Y-61371480D02*
X146863187Y-61371480D01*
X145475960Y-67828160D02*
X146138900Y-68491100D01*
X145569940Y-66103500D02*
X145475960Y-66009520D01*
X146913360Y-66103500D02*
X145569940Y-66103500D01*
X147586460Y-65430400D02*
X146913360Y-66103500D01*
X145475960Y-62758707D02*
X145475960Y-66009520D01*
X145475960Y-66009520D02*
X145475960Y-67828160D01*
X152412589Y-57228566D02*
X152674266Y-56966889D01*
X151130000Y-59273440D02*
X152412589Y-57990851D01*
X152412589Y-57990851D02*
X152412589Y-57228566D01*
X152985509Y-54810467D02*
X153929080Y-53866896D01*
X152985509Y-56950571D02*
X152985509Y-54810467D01*
X152674266Y-56966889D02*
X152969191Y-56966889D01*
X152969191Y-56966889D02*
X152985509Y-56950571D01*
X153581100Y-53518916D02*
X153581100Y-52260500D01*
X153929080Y-53866896D02*
X153724052Y-53661868D01*
X153724052Y-53661868D02*
X153581100Y-53518916D01*
X147586460Y-63334900D02*
X147586460Y-62786020D01*
X144972829Y-62479131D02*
X146847560Y-60604400D01*
X144972829Y-68562567D02*
X144972829Y-62479131D01*
X141291300Y-65192200D02*
X141593570Y-65494470D01*
X141593570Y-65494470D02*
X141593570Y-68562566D01*
X140838900Y-65192200D02*
X141291300Y-65192200D01*
X141593570Y-68562566D02*
X142197534Y-69166530D01*
X142197534Y-69166530D02*
X144368866Y-69166530D01*
X144368866Y-69166530D02*
X144972829Y-68562567D01*
X146641820Y-63334900D02*
X146410680Y-63103760D01*
X147586460Y-63334900D02*
X146641820Y-63334900D01*
X132781807Y-62872500D02*
X132568700Y-62872500D01*
X132384799Y-69088001D02*
X132384799Y-68808601D01*
X132384799Y-65067891D02*
X133244910Y-64207779D01*
X133244910Y-64207779D02*
X133244910Y-63335603D01*
X133244910Y-63335603D02*
X132781807Y-62872500D01*
X132384799Y-68808601D02*
X132384799Y-65067891D01*
X128157390Y-71359610D02*
X128905000Y-70612000D01*
X125095374Y-71359610D02*
X128157390Y-71359610D01*
X122120940Y-68385176D02*
X125095374Y-71359610D01*
X119681879Y-56291248D02*
X119681879Y-67917062D01*
X122875677Y-55706701D02*
X120266426Y-55706701D01*
X120149993Y-68385176D02*
X122120940Y-68385176D01*
X120266426Y-55706701D02*
X119681879Y-56291248D01*
X119681879Y-67917062D02*
X120149993Y-68385176D01*
X125274089Y-53308289D02*
X122875677Y-55706701D01*
X134237650Y-53308289D02*
X125274089Y-53308289D01*
X134316062Y-53386701D02*
X134237650Y-53308289D01*
X144834899Y-53386701D02*
X134316062Y-53386701D01*
X145961100Y-52260500D02*
X144834899Y-53386701D01*
X134200900Y-52197000D02*
X132907800Y-52197000D01*
X134315200Y-52197000D02*
X134200900Y-52197000D01*
X142429599Y-51410501D02*
X142214600Y-51625500D01*
X142571101Y-51410501D02*
X142429599Y-51410501D01*
X143421100Y-52260500D02*
X142571101Y-51410501D01*
X122262900Y-58816000D02*
X125056900Y-61610000D01*
X122262900Y-57454155D02*
X122262900Y-58816000D01*
X127561700Y-62222500D02*
X128568700Y-62222500D01*
X126949200Y-61610000D02*
X127561700Y-62222500D01*
X130568700Y-63670100D02*
X130568700Y-62547500D01*
X130893700Y-63995100D02*
X130568700Y-63670100D01*
X130893700Y-64547500D02*
X130893700Y-63995100D01*
X130243700Y-62222500D02*
X130568700Y-62547500D01*
X128568700Y-62222500D02*
X130243700Y-62222500D01*
X129593700Y-63522500D02*
X130568700Y-62547500D01*
X128568700Y-63522500D02*
X129593700Y-63522500D01*
X125056900Y-61610000D02*
X126949200Y-61610000D01*
X124548900Y-65189100D02*
X124498100Y-65138300D01*
X125541800Y-65189100D02*
X124548900Y-65189100D01*
X126949200Y-61455300D02*
X126022100Y-60528200D01*
X126949200Y-61610000D02*
X126949200Y-61455300D01*
X125056900Y-61493400D02*
X126022100Y-60528200D01*
X125056900Y-61610000D02*
X125056900Y-61493400D01*
X122708045Y-57899300D02*
X122262900Y-57454155D01*
X125059200Y-57899300D02*
X122708045Y-57899300D01*
X140157600Y-58464600D02*
X140157600Y-58464600D01*
X139357600Y-59264600D02*
X140157600Y-58464600D01*
X138995100Y-59264600D02*
X139357600Y-59264600D01*
X137947400Y-57025300D02*
X138000500Y-56972200D01*
X137947400Y-57020700D02*
X137898900Y-56972200D01*
X137947400Y-58242200D02*
X137947400Y-57020700D01*
X131826000Y-69799200D02*
X132765800Y-69799200D01*
X131267200Y-69240400D02*
X131826000Y-69799200D01*
X130276600Y-70408800D02*
X130276600Y-70485000D01*
X129209800Y-69342000D02*
X130276600Y-70408800D01*
X131864100Y-55219600D02*
X132842000Y-54241700D01*
X131864100Y-55232300D02*
X131864100Y-55219600D01*
X134277100Y-54673500D02*
X134683500Y-54673500D01*
X133261100Y-55689500D02*
X134277100Y-54673500D01*
X141370100Y-57943800D02*
X141122400Y-57696100D01*
X141370100Y-58464600D02*
X141370100Y-57943800D01*
X141782800Y-56236348D02*
X141782800Y-56667400D01*
X141782800Y-56016773D02*
X141782800Y-56236348D01*
X142265400Y-55534173D02*
X141782800Y-56016773D01*
X142265400Y-55067200D02*
X142265400Y-55534173D01*
X144157700Y-55905400D02*
X144881600Y-56629300D01*
X144157700Y-55079900D02*
X144157700Y-55905400D01*
X141798427Y-55067200D02*
X142265400Y-55067200D01*
X141738126Y-55006899D02*
X141798427Y-55067200D01*
X140056119Y-55006899D02*
X141738126Y-55006899D01*
X139894218Y-55168800D02*
X140056119Y-55006899D01*
X139153900Y-55168800D02*
X139894218Y-55168800D01*
X152577800Y-69926200D02*
X152476200Y-69926200D01*
X153847800Y-71196200D02*
X152577800Y-69926200D01*
X124155200Y-52197000D02*
X123634500Y-51676300D01*
X124919500Y-52197000D02*
X124155200Y-52197000D01*
X139788900Y-66753500D02*
X139788900Y-66560700D01*
X138927600Y-67614800D02*
X139788900Y-66753500D01*
X139938900Y-64592200D02*
X139788900Y-64742200D01*
X139938900Y-63492200D02*
X139938900Y-64592200D01*
X139788900Y-63492200D02*
X139788900Y-64742200D01*
X139788900Y-66560700D02*
X139788900Y-64742200D01*
X140017500Y-68287900D02*
X139776200Y-68046600D01*
X140017500Y-70129400D02*
X140017500Y-68287900D01*
X139359400Y-68046600D02*
X138927600Y-67614800D01*
X139776200Y-68046600D02*
X139359400Y-68046600D01*
X135104900Y-68417200D02*
X134480300Y-67792600D01*
X135104900Y-69570600D02*
X135104900Y-68417200D01*
X145732500Y-69189600D02*
X145249900Y-69189600D01*
X146672300Y-70129400D02*
X145732500Y-69189600D01*
X149387560Y-60152280D02*
X151023320Y-61788040D01*
X149387560Y-58648600D02*
X149387560Y-60152280D01*
X145496280Y-57243980D02*
X144881600Y-56629300D01*
X145496280Y-57856120D02*
X145496280Y-57243980D01*
X145496280Y-58323093D02*
X145496280Y-57856120D01*
X145617997Y-58444810D02*
X145496280Y-58323093D01*
X146250924Y-58444810D02*
X145617997Y-58444810D01*
X148072490Y-60266376D02*
X146250924Y-58444810D01*
X148072490Y-60848890D02*
X148072490Y-60266376D01*
X148981160Y-61757560D02*
X148072490Y-60848890D01*
X152262840Y-53848000D02*
X152262840Y-53512720D01*
X151069040Y-55041800D02*
X152262840Y-53848000D01*
X155641040Y-54752240D02*
X155641040Y-54183280D01*
X154523440Y-55869840D02*
X155641040Y-54752240D01*
X153091300Y-65145500D02*
X153641200Y-65145500D01*
X153635700Y-65151000D02*
X153641200Y-65145500D01*
X153988362Y-65145500D02*
X153641200Y-65145500D01*
X153908760Y-69499480D02*
X153908760Y-69077840D01*
X153908760Y-69077840D02*
X154064899Y-68921701D01*
X154517401Y-65674539D02*
X154261191Y-65418329D01*
X154517401Y-68866461D02*
X154517401Y-65674539D01*
X154462161Y-68921701D02*
X154517401Y-68866461D01*
X154064899Y-68921701D02*
X154462161Y-68921701D01*
X154261191Y-65418329D02*
X153988362Y-65145500D01*
X155646120Y-71236840D02*
X153908760Y-69499480D01*
X156113093Y-71236840D02*
X155646120Y-71236840D01*
X157226387Y-71236840D02*
X156113093Y-71236840D01*
X157719147Y-70744080D02*
X157226387Y-71236840D01*
X158186120Y-70744080D02*
X157719147Y-70744080D01*
X155271101Y-71730501D02*
X156121100Y-72580500D01*
X152764999Y-69224399D02*
X155271101Y-71730501D01*
X152764999Y-66369301D02*
X152764999Y-69224399D01*
X152888800Y-66245500D02*
X152764999Y-66369301D01*
X153641200Y-66245500D02*
X152888800Y-66245500D01*
X153288999Y-72288399D02*
X153581100Y-72580500D01*
X153581100Y-72529700D02*
X152603200Y-71551800D01*
X153581100Y-72580500D02*
X153581100Y-72529700D01*
X156806900Y-70446900D02*
X156806900Y-64664038D01*
X156806900Y-64664038D02*
X153988362Y-61845500D01*
X153988362Y-61845500D02*
X153641200Y-61845500D01*
X151041100Y-71920100D02*
X151041100Y-72580500D01*
X152184100Y-70777100D02*
X151041100Y-71920100D01*
X154393600Y-64045500D02*
X153641200Y-64045500D01*
X156070300Y-65722200D02*
X154393600Y-64045500D01*
X156070300Y-69354700D02*
X156070300Y-65722200D01*
X151003000Y-70547800D02*
X151003700Y-70548500D01*
X151003000Y-69352400D02*
X151003000Y-70547800D01*
X136651099Y-71730501D02*
X135801100Y-72580500D01*
X136927301Y-71454299D02*
X136651099Y-71730501D01*
X150650301Y-71454299D02*
X136927301Y-71454299D01*
X151003700Y-71100900D02*
X150650301Y-71454299D01*
X151003700Y-70548500D02*
X151003700Y-71100900D01*
D34*
X129593700Y-64772500D02*
X129593700Y-64547500D01*
X129177100Y-65189100D02*
X129593700Y-64772500D01*
X129593700Y-64547500D02*
X130243700Y-64547500D01*
X129669300Y-64623100D02*
X129593700Y-64547500D01*
D35*
X127442200Y-70485000D02*
X127442200Y-68605400D01*
X127416800Y-65189100D02*
X129177100Y-65189100D01*
X135385990Y-57143710D02*
X134010400Y-58519300D01*
X133959600Y-58570100D02*
X134010400Y-58519300D01*
X132130800Y-58570100D02*
X133959600Y-58570100D01*
D34*
X139773900Y-57685800D02*
X138995100Y-58464600D01*
X139773900Y-56972200D02*
X139773900Y-57685800D01*
X138632600Y-60064600D02*
X138995100Y-60064600D01*
X138405590Y-59837590D02*
X138632600Y-60064600D01*
X138670370Y-58687590D02*
X138405590Y-58952370D01*
X138797410Y-58687590D02*
X138670370Y-58687590D01*
X138995100Y-58489900D02*
X138797410Y-58687590D01*
X138405590Y-58952370D02*
X138405590Y-59837590D01*
X138995100Y-58464600D02*
X138995100Y-58489900D01*
D35*
X139217663Y-56415963D02*
X139773900Y-56972200D01*
X138177690Y-55375990D02*
X139217663Y-56415963D01*
X135681233Y-55375990D02*
X138177690Y-55375990D01*
X135385990Y-55671233D02*
X135681233Y-55375990D01*
X135385990Y-57143710D02*
X135385990Y-55671233D01*
X129491500Y-66268600D02*
X129504200Y-66255900D01*
X129491500Y-67995800D02*
X129491500Y-66268600D01*
X129504200Y-65455900D02*
X129504200Y-66255900D01*
X129237400Y-65189100D02*
X129504200Y-65455900D01*
X129177100Y-65189100D02*
X129237400Y-65189100D01*
X130805901Y-71276499D02*
X131485100Y-70597300D01*
X130095179Y-71276499D02*
X130805901Y-71276499D01*
X128791178Y-72580500D02*
X130095179Y-71276499D01*
X128181100Y-72580500D02*
X128791178Y-72580500D01*
X131485100Y-70575900D02*
X130048000Y-69138800D01*
X131485100Y-70597300D02*
X131485100Y-70575900D01*
X130048000Y-68552300D02*
X129491500Y-67995800D01*
X130048000Y-69138800D02*
X130048000Y-68552300D01*
X128881900Y-68605400D02*
X129491500Y-67995800D01*
X127442200Y-68605400D02*
X128881900Y-68605400D01*
X146735800Y-57681100D02*
X148602700Y-57681100D01*
X134116000Y-70891400D02*
X133821900Y-70597300D01*
X149503700Y-69064877D02*
X149503700Y-70548500D01*
X149779810Y-68788767D02*
X149503700Y-69064877D01*
X148602700Y-57681100D02*
X148602700Y-60259923D01*
X148602700Y-60259923D02*
X149779810Y-61437033D01*
X149503700Y-70879400D02*
X149459011Y-70924089D01*
X149503700Y-70548500D02*
X149503700Y-70879400D01*
X134148689Y-70924089D02*
X134116000Y-70891400D01*
X140892901Y-66205401D02*
X140892901Y-65846201D01*
X140892901Y-66724499D02*
X140892901Y-66205401D01*
X140802600Y-67614800D02*
X140802600Y-66814800D01*
X140802600Y-66814800D02*
X140892901Y-66724499D01*
X140802600Y-68414800D02*
X140804900Y-68417100D01*
X140802600Y-67614800D02*
X140802600Y-68414800D01*
X140804900Y-70827900D02*
X140901089Y-70924089D01*
X140804900Y-68417100D02*
X140804900Y-70827900D01*
X149459011Y-70924089D02*
X140901089Y-70924089D01*
X140901089Y-70924089D02*
X134148689Y-70924089D01*
X133550001Y-70284999D02*
X133237700Y-70597300D01*
X133550001Y-68990983D02*
X133550001Y-70284999D01*
X132915009Y-68355991D02*
X133550001Y-68990983D01*
X132915009Y-65287510D02*
X132915009Y-68355991D01*
X133237700Y-70597300D02*
X131485100Y-70597300D01*
X133821900Y-70597300D02*
X133237700Y-70597300D01*
X134010400Y-58519300D02*
X134010400Y-61755630D01*
X134010400Y-61755630D02*
X133775120Y-61990910D01*
X133775120Y-61990910D02*
X133775120Y-64427399D01*
X133775120Y-64427399D02*
X132915009Y-65287510D01*
X149675568Y-67247950D02*
X149779810Y-67247950D01*
X149610618Y-67183000D02*
X149675568Y-67247950D01*
X149461460Y-67183000D02*
X149610618Y-67183000D01*
X149779810Y-67247950D02*
X149779810Y-68788767D01*
X149643740Y-65430400D02*
X149779810Y-65566470D01*
X149461460Y-65430400D02*
X149643740Y-65430400D01*
X149779810Y-61437033D02*
X149779810Y-65566470D01*
X149779810Y-65566470D02*
X149779810Y-67247950D01*
X149850860Y-62945500D02*
X149461460Y-63334900D01*
X153641200Y-62945500D02*
X149850860Y-62945500D01*
D33*
X126149200Y-63485000D02*
X125056900Y-63485000D01*
X126949200Y-63485000D02*
X126149200Y-63485000D01*
X124729655Y-63485000D02*
X125056900Y-63485000D01*
X122262900Y-65951755D02*
X124729655Y-63485000D01*
X122262900Y-66754155D02*
X122262900Y-65951755D01*
X127561700Y-62872500D02*
X126949200Y-63485000D01*
X128568700Y-62872500D02*
X127561700Y-62872500D01*
X128568700Y-59533800D02*
X126934200Y-57899300D01*
X128568700Y-61572500D02*
X128568700Y-59533800D01*
X126794500Y-52197000D02*
X128221500Y-52197000D01*
X124979700Y-68605400D02*
X124002800Y-68605400D01*
X125567200Y-68605400D02*
X124979700Y-68605400D01*
X129593700Y-59995100D02*
X129593700Y-60547500D01*
X126998190Y-56527954D02*
X129593700Y-59123464D01*
X129593700Y-59123464D02*
X129593700Y-59995100D01*
X124002800Y-68605400D02*
X123077756Y-67680356D01*
X123077756Y-67680356D02*
X120441939Y-67680356D01*
X120441939Y-67680356D02*
X120386699Y-67625116D01*
X120386699Y-56583194D02*
X120441939Y-56527954D01*
X120386699Y-67625116D02*
X120386699Y-56583194D01*
X120441939Y-56527954D02*
X126998190Y-56527954D01*
X130243700Y-59275081D02*
X130243700Y-60547500D01*
X127144163Y-56175544D02*
X130243700Y-59275081D01*
X120295966Y-56175544D02*
X127144163Y-56175544D01*
X120034289Y-56437221D02*
X120295966Y-56175544D01*
X120034289Y-67771089D02*
X120034289Y-56437221D01*
X120034289Y-67771089D02*
X120295966Y-68032766D01*
X123916827Y-69418200D02*
X124383800Y-69418200D01*
X122531393Y-68032766D02*
X123916827Y-69418200D01*
X120295966Y-68032766D02*
X122531393Y-68032766D01*
X125349000Y-70383400D02*
X125554500Y-70383400D01*
X124383800Y-69418200D02*
X125349000Y-70383400D01*
X131994910Y-65640190D02*
X131994910Y-64959397D01*
X131379200Y-66255900D02*
X131994910Y-65640190D01*
X132568700Y-64385607D02*
X132568700Y-63522500D01*
X131994910Y-64959397D02*
X132568700Y-64385607D01*
X131607800Y-52197000D02*
X130096500Y-52197000D01*
X138286500Y-63392200D02*
X138738900Y-63392200D01*
X136979900Y-69132530D02*
X137397310Y-68715120D01*
X137397310Y-68715120D02*
X137397310Y-63402390D01*
X137397310Y-63402390D02*
X137401300Y-63398400D01*
X138280300Y-63398400D02*
X138286500Y-63392200D01*
X137401300Y-63398400D02*
X138280300Y-63398400D01*
X136979900Y-69570600D02*
X136979900Y-69132530D01*
X138738900Y-65192200D02*
X138738900Y-65792200D01*
X131330800Y-56695100D02*
X132130800Y-56695100D01*
X130802180Y-57223720D02*
X131330800Y-56695100D01*
X130802180Y-59175199D02*
X130802180Y-57223720D01*
X131543700Y-59916719D02*
X130802180Y-59175199D01*
X131543700Y-60547500D02*
X131543700Y-59916719D01*
X161910079Y-54091521D02*
X161910079Y-54091521D01*
X132130800Y-55959918D02*
X132130800Y-56695100D01*
X143268700Y-54131842D02*
X143228379Y-54091521D01*
X142726590Y-56176680D02*
X143268700Y-55634570D01*
X142726590Y-60368993D02*
X142726590Y-56176680D01*
X143228379Y-54091521D02*
X133999197Y-54091521D01*
X141007600Y-60064600D02*
X140831390Y-60240810D01*
X143268700Y-55634570D02*
X143268700Y-54131842D01*
X141370100Y-60064600D02*
X141007600Y-60064600D01*
X133999197Y-54091521D02*
X132130800Y-55959918D01*
X140831390Y-61155788D02*
X141066412Y-61390810D01*
X140831390Y-60240810D02*
X140831390Y-61155788D01*
X141066412Y-61390810D02*
X141704773Y-61390810D01*
X141704773Y-61390810D02*
X142726590Y-60368993D01*
X144620419Y-61597101D02*
X146375120Y-59842400D01*
X144620419Y-68416594D02*
X144620419Y-61597101D01*
X144222893Y-68814120D02*
X144620419Y-68416594D01*
X141291300Y-63992200D02*
X141300900Y-63982600D01*
X140838900Y-63992200D02*
X141291300Y-63992200D01*
X141945980Y-63982600D02*
X141945980Y-68416593D01*
X141300900Y-63982600D02*
X141945980Y-63982600D01*
X141945980Y-68416593D02*
X142343507Y-68814120D01*
X142343507Y-68814120D02*
X144222893Y-68814120D01*
X161910079Y-54091521D02*
X163741100Y-52260500D01*
X148087148Y-54091521D02*
X143228379Y-54091521D01*
X148199227Y-54203600D02*
X150774400Y-54203600D01*
X148087148Y-54091521D02*
X148199227Y-54203600D01*
X160355280Y-55646320D02*
X161910079Y-54091521D01*
X156301440Y-55646320D02*
X160355280Y-55646320D01*
X150444201Y-56484521D02*
X151399240Y-57439560D01*
X150774400Y-54203600D02*
X150444201Y-54533799D01*
X150444201Y-54533799D02*
X150444201Y-56484521D01*
X132793700Y-62222500D02*
X132568700Y-62222500D01*
X133244910Y-61771290D02*
X132793700Y-62222500D01*
X133454163Y-57200537D02*
X134010400Y-56644300D01*
X133195890Y-57458810D02*
X133454163Y-57200537D01*
X131806754Y-57458810D02*
X133195890Y-57458810D01*
X131154590Y-58110974D02*
X131806754Y-57458810D01*
X131154590Y-59029226D02*
X131154590Y-58110974D01*
X133244910Y-61119546D02*
X131154590Y-59029226D01*
X133244910Y-61771290D02*
X133244910Y-61119546D01*
X134454900Y-56199800D02*
X134010400Y-56644300D01*
X134454900Y-55727600D02*
X134454900Y-56199800D01*
X141370100Y-60864600D02*
X141732600Y-60864600D01*
X142374180Y-60223020D02*
X142374180Y-56030707D01*
X141732600Y-60864600D02*
X142374180Y-60223020D01*
X142374180Y-56030707D02*
X142916290Y-55488597D01*
X135738569Y-54443931D02*
X142835931Y-54443931D01*
X134454900Y-55727600D02*
X135738569Y-54443931D01*
X142916290Y-55488597D02*
X142916290Y-54524290D01*
X142916290Y-54524290D02*
X142835931Y-54443931D01*
X159722489Y-53739111D02*
X159722489Y-53739111D01*
X141291300Y-63392200D02*
X140838900Y-63392200D01*
X141310200Y-63411100D02*
X141291300Y-63392200D01*
X141884400Y-63411100D02*
X141310200Y-63411100D01*
X145978880Y-59070240D02*
X144268009Y-60781111D01*
X144268010Y-68270620D02*
X144076920Y-68461710D01*
X144076920Y-68461710D02*
X142489480Y-68461710D01*
X144268009Y-60781111D02*
X144268010Y-68270620D01*
X142489480Y-68461710D02*
X142298390Y-68270620D01*
X142298390Y-63825090D02*
X141884400Y-63411100D01*
X142298390Y-68270620D02*
X142298390Y-63825090D01*
X132330801Y-53660699D02*
X131635500Y-54356000D01*
X151404320Y-53594000D02*
X148493867Y-53583840D01*
X148338596Y-53739111D02*
X134170089Y-53739111D01*
X134170089Y-53739111D02*
X134091677Y-53660699D01*
X134091677Y-53660699D02*
X132330801Y-53660699D01*
X148493867Y-53583840D02*
X148338596Y-53739111D01*
X159824420Y-53637180D02*
X161201100Y-52260500D01*
X159054799Y-54406801D02*
X159824420Y-53637180D01*
X157271719Y-54406801D02*
X159054799Y-54406801D01*
X156941520Y-54737000D02*
X157271719Y-54406801D01*
X151404320Y-53507640D02*
X151404320Y-53594000D01*
X152005641Y-52906319D02*
X151404320Y-53507640D01*
X152553913Y-52906319D02*
X152005641Y-52906319D01*
X152869241Y-53221647D02*
X152553913Y-52906319D01*
X152060179Y-54612855D02*
X152869241Y-53803793D01*
X152060179Y-57676095D02*
X152060179Y-54612855D01*
X151690313Y-58045961D02*
X152060179Y-57676095D01*
X151060761Y-58045961D02*
X151690313Y-58045961D01*
X152869241Y-53803793D02*
X152869241Y-53221647D01*
X150515320Y-57500520D02*
X151060761Y-58045961D01*
X131543700Y-64772500D02*
X131543700Y-64547500D01*
X131092490Y-65223710D02*
X131543700Y-64772500D01*
X130976054Y-65223710D02*
X131092490Y-65223710D01*
X130615490Y-65584274D02*
X130976054Y-65223710D01*
X130615490Y-67832290D02*
X130615490Y-65584274D01*
X130779000Y-67995800D02*
X130615490Y-67832290D01*
X131366500Y-67995800D02*
X130779000Y-67995800D01*
X141732600Y-59264600D02*
X141908810Y-59088390D01*
X141370100Y-59264600D02*
X141732600Y-59264600D01*
X141908810Y-57622628D02*
X141401281Y-57115099D01*
X141908810Y-59088390D02*
X141908810Y-57622628D01*
X141401281Y-57115099D02*
X140982700Y-57115099D01*
X141071600Y-57026199D02*
X141071600Y-56045100D01*
X140982700Y-57115099D02*
X141071600Y-57026199D01*
X145939710Y-56569810D02*
X145161000Y-55791100D01*
X148602700Y-55806100D02*
X147838990Y-56569810D01*
X147838990Y-56569810D02*
X145939710Y-56569810D01*
X139357600Y-60864600D02*
X140764001Y-59458199D01*
X138995100Y-60864600D02*
X139357600Y-60864600D01*
X140233026Y-55689874D02*
X140335000Y-55587900D01*
X140233026Y-55995990D02*
X140233026Y-55689874D01*
X140537610Y-56300574D02*
X140233026Y-55995990D01*
X140764001Y-59458199D02*
X140764001Y-58173527D01*
X140537610Y-57947136D02*
X140537610Y-57658590D01*
X140764001Y-58173527D02*
X140537610Y-57947136D01*
X140537610Y-57792884D02*
X140537610Y-57658590D01*
X140537610Y-57658590D02*
X140537610Y-56300574D01*
X145908000Y-54978300D02*
X146735800Y-55806100D01*
X145237200Y-54978300D02*
X145908000Y-54978300D01*
X153641200Y-57483600D02*
X153944320Y-57180480D01*
X153641200Y-58095500D02*
X153641200Y-57483600D01*
D34*
G36*
X163386706Y-70276037D02*
G01*
X163497020Y-70335002D01*
X163616718Y-70371312D01*
X163741200Y-70383572D01*
X164541200Y-70383572D01*
X164665682Y-70371312D01*
X164785380Y-70335002D01*
X164895694Y-70276037D01*
X164950572Y-70231000D01*
X166005328Y-70231000D01*
X165880634Y-70417618D01*
X165738539Y-70760666D01*
X165666100Y-71124844D01*
X165666100Y-71496156D01*
X165738539Y-71860334D01*
X165880634Y-72203382D01*
X166086925Y-72512118D01*
X166349482Y-72774675D01*
X166658218Y-72980966D01*
X167001266Y-73123061D01*
X167340307Y-73190500D01*
X165092796Y-73190500D01*
X165182581Y-72937391D01*
X165061914Y-72707500D01*
X163868100Y-72707500D01*
X163868100Y-72727500D01*
X163614100Y-72727500D01*
X163614100Y-72707500D01*
X163594100Y-72707500D01*
X163594100Y-72453500D01*
X163614100Y-72453500D01*
X163614100Y-71260345D01*
X163868100Y-71260345D01*
X163868100Y-72453500D01*
X165061914Y-72453500D01*
X165182581Y-72223609D01*
X165085257Y-71949248D01*
X164936278Y-71699145D01*
X164741369Y-71482912D01*
X164508020Y-71308859D01*
X164245199Y-71183675D01*
X164097990Y-71139024D01*
X163868100Y-71260345D01*
X163614100Y-71260345D01*
X163384210Y-71139024D01*
X163237001Y-71183675D01*
X162974180Y-71308859D01*
X162740831Y-71482912D01*
X162545922Y-71699145D01*
X162476301Y-71816023D01*
X162441806Y-71751486D01*
X162256234Y-71525366D01*
X162030114Y-71339794D01*
X161772134Y-71201901D01*
X161492211Y-71116987D01*
X161274050Y-71095500D01*
X161128150Y-71095500D01*
X160909989Y-71116987D01*
X160630066Y-71201901D01*
X160372086Y-71339794D01*
X160145966Y-71525366D01*
X159960394Y-71751486D01*
X159931100Y-71806291D01*
X159901806Y-71751486D01*
X159716234Y-71525366D01*
X159490114Y-71339794D01*
X159232134Y-71201901D01*
X158952211Y-71116987D01*
X158734050Y-71095500D01*
X158588150Y-71095500D01*
X158369989Y-71116987D01*
X158090066Y-71201901D01*
X157832086Y-71339794D01*
X157605966Y-71525366D01*
X157420394Y-71751486D01*
X157391100Y-71806291D01*
X157361806Y-71751486D01*
X157176234Y-71525366D01*
X157011637Y-71390285D01*
X157088438Y-71375008D01*
X157264094Y-71302249D01*
X157422179Y-71196620D01*
X157556620Y-71062179D01*
X157662249Y-70904094D01*
X157735008Y-70728438D01*
X157772100Y-70541964D01*
X157772100Y-70383572D01*
X158541200Y-70383572D01*
X158665682Y-70371312D01*
X158785380Y-70335002D01*
X158895694Y-70276037D01*
X158950572Y-70231000D01*
X163331828Y-70231000D01*
X163386706Y-70276037D01*
X163386706Y-70276037D01*
G37*
X163386706Y-70276037D02*
X163497020Y-70335002D01*
X163616718Y-70371312D01*
X163741200Y-70383572D01*
X164541200Y-70383572D01*
X164665682Y-70371312D01*
X164785380Y-70335002D01*
X164895694Y-70276037D01*
X164950572Y-70231000D01*
X166005328Y-70231000D01*
X165880634Y-70417618D01*
X165738539Y-70760666D01*
X165666100Y-71124844D01*
X165666100Y-71496156D01*
X165738539Y-71860334D01*
X165880634Y-72203382D01*
X166086925Y-72512118D01*
X166349482Y-72774675D01*
X166658218Y-72980966D01*
X167001266Y-73123061D01*
X167340307Y-73190500D01*
X165092796Y-73190500D01*
X165182581Y-72937391D01*
X165061914Y-72707500D01*
X163868100Y-72707500D01*
X163868100Y-72727500D01*
X163614100Y-72727500D01*
X163614100Y-72707500D01*
X163594100Y-72707500D01*
X163594100Y-72453500D01*
X163614100Y-72453500D01*
X163614100Y-71260345D01*
X163868100Y-71260345D01*
X163868100Y-72453500D01*
X165061914Y-72453500D01*
X165182581Y-72223609D01*
X165085257Y-71949248D01*
X164936278Y-71699145D01*
X164741369Y-71482912D01*
X164508020Y-71308859D01*
X164245199Y-71183675D01*
X164097990Y-71139024D01*
X163868100Y-71260345D01*
X163614100Y-71260345D01*
X163384210Y-71139024D01*
X163237001Y-71183675D01*
X162974180Y-71308859D01*
X162740831Y-71482912D01*
X162545922Y-71699145D01*
X162476301Y-71816023D01*
X162441806Y-71751486D01*
X162256234Y-71525366D01*
X162030114Y-71339794D01*
X161772134Y-71201901D01*
X161492211Y-71116987D01*
X161274050Y-71095500D01*
X161128150Y-71095500D01*
X160909989Y-71116987D01*
X160630066Y-71201901D01*
X160372086Y-71339794D01*
X160145966Y-71525366D01*
X159960394Y-71751486D01*
X159931100Y-71806291D01*
X159901806Y-71751486D01*
X159716234Y-71525366D01*
X159490114Y-71339794D01*
X159232134Y-71201901D01*
X158952211Y-71116987D01*
X158734050Y-71095500D01*
X158588150Y-71095500D01*
X158369989Y-71116987D01*
X158090066Y-71201901D01*
X157832086Y-71339794D01*
X157605966Y-71525366D01*
X157420394Y-71751486D01*
X157391100Y-71806291D01*
X157361806Y-71751486D01*
X157176234Y-71525366D01*
X157011637Y-71390285D01*
X157088438Y-71375008D01*
X157264094Y-71302249D01*
X157422179Y-71196620D01*
X157556620Y-71062179D01*
X157662249Y-70904094D01*
X157735008Y-70728438D01*
X157772100Y-70541964D01*
X157772100Y-70383572D01*
X158541200Y-70383572D01*
X158665682Y-70371312D01*
X158785380Y-70335002D01*
X158895694Y-70276037D01*
X158950572Y-70231000D01*
X163331828Y-70231000D01*
X163386706Y-70276037D01*
G36*
X133388100Y-72453500D02*
G01*
X133408100Y-72453500D01*
X133408100Y-72707500D01*
X133388100Y-72707500D01*
X133388100Y-72727500D01*
X133134100Y-72727500D01*
X133134100Y-72707500D01*
X133114100Y-72707500D01*
X133114100Y-72453500D01*
X133134100Y-72453500D01*
X133134100Y-72433500D01*
X133388100Y-72433500D01*
X133388100Y-72453500D01*
X133388100Y-72453500D01*
G37*
X133388100Y-72453500D02*
X133408100Y-72453500D01*
X133408100Y-72707500D01*
X133388100Y-72707500D01*
X133388100Y-72727500D01*
X133134100Y-72727500D01*
X133134100Y-72707500D01*
X133114100Y-72707500D01*
X133114100Y-72453500D01*
X133134100Y-72453500D01*
X133134100Y-72433500D01*
X133388100Y-72433500D01*
X133388100Y-72453500D01*
G36*
X139915901Y-70035089D02*
G01*
X139796462Y-70035089D01*
X139827000Y-69881564D01*
X139827000Y-69761216D01*
X139915901Y-69701814D01*
X139915901Y-70035089D01*
X139915901Y-70035089D01*
G37*
X139915901Y-70035089D02*
X139796462Y-70035089D01*
X139827000Y-69881564D01*
X139827000Y-69761216D01*
X139915901Y-69701814D01*
X139915901Y-70035089D01*
G36*
X152363485Y-69828673D02*
G01*
X152309063Y-69817847D01*
X152319210Y-69784397D01*
X152363485Y-69828673D01*
X152363485Y-69828673D01*
G37*
X152363485Y-69828673D02*
X152309063Y-69817847D01*
X152319210Y-69784397D01*
X152363485Y-69828673D01*
G36*
X135205000Y-68546353D02*
G01*
X135201686Y-68580000D01*
X135214912Y-68714283D01*
X135231900Y-68770285D01*
X135231900Y-69443600D01*
X135251900Y-69443600D01*
X135251900Y-69697600D01*
X135231900Y-69697600D01*
X135231900Y-69717600D01*
X134977900Y-69717600D01*
X134977900Y-69697600D01*
X134957900Y-69697600D01*
X134957900Y-69443600D01*
X134977900Y-69443600D01*
X134977900Y-68394350D01*
X134819150Y-68235600D01*
X134617400Y-68232528D01*
X134492918Y-68244788D01*
X134373220Y-68281098D01*
X134262906Y-68340063D01*
X134204912Y-68387657D01*
X134181660Y-68359324D01*
X134147738Y-68331485D01*
X133804009Y-67987756D01*
X133804009Y-65655745D01*
X134372861Y-65086894D01*
X134406779Y-65059058D01*
X134437757Y-65021312D01*
X134479814Y-64970065D01*
X134517873Y-64923690D01*
X134600423Y-64769250D01*
X134642111Y-64631820D01*
X134651256Y-64601674D01*
X134655019Y-64563468D01*
X134664120Y-64471066D01*
X134664120Y-64471059D01*
X134668420Y-64427399D01*
X134664120Y-64383739D01*
X134664120Y-62360408D01*
X134753153Y-62251921D01*
X134835703Y-62097481D01*
X134867053Y-61994133D01*
X134886536Y-61929906D01*
X134894849Y-61845500D01*
X134899400Y-61799297D01*
X134899400Y-61799291D01*
X134903700Y-61755631D01*
X134899400Y-61711971D01*
X134899400Y-59526813D01*
X134956564Y-59496258D01*
X135090192Y-59386592D01*
X135199858Y-59252964D01*
X135205001Y-59243343D01*
X135205000Y-68546353D01*
X135205000Y-68546353D01*
G37*
X135205000Y-68546353D02*
X135201686Y-68580000D01*
X135214912Y-68714283D01*
X135231900Y-68770285D01*
X135231900Y-69443600D01*
X135251900Y-69443600D01*
X135251900Y-69697600D01*
X135231900Y-69697600D01*
X135231900Y-69717600D01*
X134977900Y-69717600D01*
X134977900Y-69697600D01*
X134957900Y-69697600D01*
X134957900Y-69443600D01*
X134977900Y-69443600D01*
X134977900Y-68394350D01*
X134819150Y-68235600D01*
X134617400Y-68232528D01*
X134492918Y-68244788D01*
X134373220Y-68281098D01*
X134262906Y-68340063D01*
X134204912Y-68387657D01*
X134181660Y-68359324D01*
X134147738Y-68331485D01*
X133804009Y-67987756D01*
X133804009Y-65655745D01*
X134372861Y-65086894D01*
X134406779Y-65059058D01*
X134437757Y-65021312D01*
X134479814Y-64970065D01*
X134517873Y-64923690D01*
X134600423Y-64769250D01*
X134642111Y-64631820D01*
X134651256Y-64601674D01*
X134655019Y-64563468D01*
X134664120Y-64471066D01*
X134664120Y-64471059D01*
X134668420Y-64427399D01*
X134664120Y-64383739D01*
X134664120Y-62360408D01*
X134753153Y-62251921D01*
X134835703Y-62097481D01*
X134867053Y-61994133D01*
X134886536Y-61929906D01*
X134894849Y-61845500D01*
X134899400Y-61799297D01*
X134899400Y-61799291D01*
X134903700Y-61755631D01*
X134899400Y-61711971D01*
X134899400Y-59526813D01*
X134956564Y-59496258D01*
X135090192Y-59386592D01*
X135199858Y-59252964D01*
X135205001Y-59243343D01*
X135205000Y-68546353D01*
G36*
X124419300Y-64903350D02*
G01*
X124578050Y-65062100D01*
X125414800Y-65062100D01*
X125414800Y-65042100D01*
X125668800Y-65042100D01*
X125668800Y-65062100D01*
X125688800Y-65062100D01*
X125688800Y-65316100D01*
X125668800Y-65316100D01*
X125668800Y-66365350D01*
X125827550Y-66524100D01*
X126029300Y-66527172D01*
X126153782Y-66514912D01*
X126273480Y-66478602D01*
X126383794Y-66419637D01*
X126480485Y-66340285D01*
X126544292Y-66262536D01*
X126549508Y-66268892D01*
X126683136Y-66378558D01*
X126835591Y-66460047D01*
X127001015Y-66510228D01*
X127173050Y-66527172D01*
X127660550Y-66527172D01*
X127832585Y-66510228D01*
X127998009Y-66460047D01*
X128150464Y-66378558D01*
X128284092Y-66268892D01*
X128378628Y-66153700D01*
X128378628Y-66712150D01*
X128395572Y-66884185D01*
X128445753Y-67049609D01*
X128480155Y-67113970D01*
X128433053Y-67202091D01*
X128382872Y-67367515D01*
X128365928Y-67539550D01*
X128365928Y-67594375D01*
X128309492Y-67525608D01*
X128175864Y-67415942D01*
X128023409Y-67334453D01*
X127857985Y-67284272D01*
X127685950Y-67267328D01*
X127198450Y-67267328D01*
X127026415Y-67284272D01*
X126860991Y-67334453D01*
X126708536Y-67415942D01*
X126574908Y-67525608D01*
X126504700Y-67611156D01*
X126434492Y-67525608D01*
X126300864Y-67415942D01*
X126148409Y-67334453D01*
X125982985Y-67284272D01*
X125810950Y-67267328D01*
X125323450Y-67267328D01*
X125151415Y-67284272D01*
X124985991Y-67334453D01*
X124833536Y-67415942D01*
X124699908Y-67525608D01*
X124590242Y-67659236D01*
X124520198Y-67790278D01*
X124459994Y-67750051D01*
X124409265Y-67729038D01*
X124452402Y-67648335D01*
X124488712Y-67528637D01*
X124500972Y-67404155D01*
X124500972Y-66200956D01*
X124523763Y-66243594D01*
X124603115Y-66340285D01*
X124699806Y-66419637D01*
X124810120Y-66478602D01*
X124929818Y-66514912D01*
X125054300Y-66527172D01*
X125256050Y-66524100D01*
X125414800Y-66365350D01*
X125414800Y-65316100D01*
X124578050Y-65316100D01*
X124419300Y-65474850D01*
X124416936Y-65793624D01*
X124393437Y-65749661D01*
X124314085Y-65652970D01*
X124217394Y-65573618D01*
X124107080Y-65514653D01*
X123987382Y-65478343D01*
X123862900Y-65466083D01*
X123754360Y-65466083D01*
X124418548Y-64801896D01*
X124419300Y-64903350D01*
X124419300Y-64903350D01*
G37*
X124419300Y-64903350D02*
X124578050Y-65062100D01*
X125414800Y-65062100D01*
X125414800Y-65042100D01*
X125668800Y-65042100D01*
X125668800Y-65062100D01*
X125688800Y-65062100D01*
X125688800Y-65316100D01*
X125668800Y-65316100D01*
X125668800Y-66365350D01*
X125827550Y-66524100D01*
X126029300Y-66527172D01*
X126153782Y-66514912D01*
X126273480Y-66478602D01*
X126383794Y-66419637D01*
X126480485Y-66340285D01*
X126544292Y-66262536D01*
X126549508Y-66268892D01*
X126683136Y-66378558D01*
X126835591Y-66460047D01*
X127001015Y-66510228D01*
X127173050Y-66527172D01*
X127660550Y-66527172D01*
X127832585Y-66510228D01*
X127998009Y-66460047D01*
X128150464Y-66378558D01*
X128284092Y-66268892D01*
X128378628Y-66153700D01*
X128378628Y-66712150D01*
X128395572Y-66884185D01*
X128445753Y-67049609D01*
X128480155Y-67113970D01*
X128433053Y-67202091D01*
X128382872Y-67367515D01*
X128365928Y-67539550D01*
X128365928Y-67594375D01*
X128309492Y-67525608D01*
X128175864Y-67415942D01*
X128023409Y-67334453D01*
X127857985Y-67284272D01*
X127685950Y-67267328D01*
X127198450Y-67267328D01*
X127026415Y-67284272D01*
X126860991Y-67334453D01*
X126708536Y-67415942D01*
X126574908Y-67525608D01*
X126504700Y-67611156D01*
X126434492Y-67525608D01*
X126300864Y-67415942D01*
X126148409Y-67334453D01*
X125982985Y-67284272D01*
X125810950Y-67267328D01*
X125323450Y-67267328D01*
X125151415Y-67284272D01*
X124985991Y-67334453D01*
X124833536Y-67415942D01*
X124699908Y-67525608D01*
X124590242Y-67659236D01*
X124520198Y-67790278D01*
X124459994Y-67750051D01*
X124409265Y-67729038D01*
X124452402Y-67648335D01*
X124488712Y-67528637D01*
X124500972Y-67404155D01*
X124500972Y-66200956D01*
X124523763Y-66243594D01*
X124603115Y-66340285D01*
X124699806Y-66419637D01*
X124810120Y-66478602D01*
X124929818Y-66514912D01*
X125054300Y-66527172D01*
X125256050Y-66524100D01*
X125414800Y-66365350D01*
X125414800Y-65316100D01*
X124578050Y-65316100D01*
X124419300Y-65474850D01*
X124416936Y-65793624D01*
X124393437Y-65749661D01*
X124314085Y-65652970D01*
X124217394Y-65573618D01*
X124107080Y-65514653D01*
X123987382Y-65478343D01*
X123862900Y-65466083D01*
X123754360Y-65466083D01*
X124418548Y-64801896D01*
X124419300Y-64903350D01*
G36*
X152403128Y-64395500D02*
G01*
X152415388Y-64519982D01*
X152438296Y-64595500D01*
X152415388Y-64671018D01*
X152403128Y-64795500D01*
X152406200Y-64859750D01*
X152527000Y-64980550D01*
X152527000Y-65310450D01*
X152406200Y-65431250D01*
X152403128Y-65495500D01*
X152415388Y-65619982D01*
X152438219Y-65695244D01*
X152383473Y-65740173D01*
X152361198Y-65767315D01*
X152286810Y-65841703D01*
X152259672Y-65863975D01*
X152170797Y-65972269D01*
X152104757Y-66095821D01*
X152064090Y-66229882D01*
X152053799Y-66334366D01*
X152053799Y-66334375D01*
X152050359Y-66369301D01*
X152053799Y-66404227D01*
X152053799Y-66457388D01*
X151947180Y-66400398D01*
X151827482Y-66364088D01*
X151703000Y-66351828D01*
X151288750Y-66354900D01*
X151130000Y-66513650D01*
X151130000Y-67350400D01*
X151150000Y-67350400D01*
X151150000Y-67604400D01*
X151130000Y-67604400D01*
X151130000Y-67624400D01*
X150876000Y-67624400D01*
X150876000Y-67604400D01*
X150856000Y-67604400D01*
X150856000Y-67350400D01*
X150876000Y-67350400D01*
X150876000Y-66513650D01*
X150717250Y-66354900D01*
X150668810Y-66354541D01*
X150668810Y-65610129D01*
X150673110Y-65566469D01*
X150668810Y-65522809D01*
X150668810Y-63834500D01*
X152403128Y-63834500D01*
X152403128Y-64395500D01*
X152403128Y-64395500D01*
G37*
X152403128Y-64395500D02*
X152415388Y-64519982D01*
X152438296Y-64595500D01*
X152415388Y-64671018D01*
X152403128Y-64795500D01*
X152406200Y-64859750D01*
X152527000Y-64980550D01*
X152527000Y-65310450D01*
X152406200Y-65431250D01*
X152403128Y-65495500D01*
X152415388Y-65619982D01*
X152438219Y-65695244D01*
X152383473Y-65740173D01*
X152361198Y-65767315D01*
X152286810Y-65841703D01*
X152259672Y-65863975D01*
X152170797Y-65972269D01*
X152104757Y-66095821D01*
X152064090Y-66229882D01*
X152053799Y-66334366D01*
X152053799Y-66334375D01*
X152050359Y-66369301D01*
X152053799Y-66404227D01*
X152053799Y-66457388D01*
X151947180Y-66400398D01*
X151827482Y-66364088D01*
X151703000Y-66351828D01*
X151288750Y-66354900D01*
X151130000Y-66513650D01*
X151130000Y-67350400D01*
X151150000Y-67350400D01*
X151150000Y-67604400D01*
X151130000Y-67604400D01*
X151130000Y-67624400D01*
X150876000Y-67624400D01*
X150876000Y-67604400D01*
X150856000Y-67604400D01*
X150856000Y-67350400D01*
X150876000Y-67350400D01*
X150876000Y-66513650D01*
X150717250Y-66354900D01*
X150668810Y-66354541D01*
X150668810Y-65610129D01*
X150673110Y-65566469D01*
X150668810Y-65522809D01*
X150668810Y-63834500D01*
X152403128Y-63834500D01*
X152403128Y-64395500D01*
G36*
X122389900Y-57327155D02*
G01*
X122409900Y-57327155D01*
X122409900Y-57581155D01*
X122389900Y-57581155D01*
X122389900Y-58580405D01*
X122548650Y-58739155D01*
X123862900Y-58742227D01*
X123948913Y-58733756D01*
X123982198Y-58843480D01*
X124041163Y-58953794D01*
X124120515Y-59050485D01*
X124217206Y-59129837D01*
X124327520Y-59188802D01*
X124447218Y-59225112D01*
X124571700Y-59237372D01*
X124773450Y-59234300D01*
X124932200Y-59075550D01*
X124932200Y-58026300D01*
X124912200Y-58026300D01*
X124912200Y-57772300D01*
X124932200Y-57772300D01*
X124932200Y-57752300D01*
X125186200Y-57752300D01*
X125186200Y-57772300D01*
X125206200Y-57772300D01*
X125206200Y-58026300D01*
X125186200Y-58026300D01*
X125186200Y-59075550D01*
X125344950Y-59234300D01*
X125546700Y-59237372D01*
X125671182Y-59225112D01*
X125790880Y-59188802D01*
X125901194Y-59129837D01*
X125997885Y-59050485D01*
X126061692Y-58972736D01*
X126066908Y-58979092D01*
X126200536Y-59088758D01*
X126352991Y-59170247D01*
X126518415Y-59220428D01*
X126690450Y-59237372D01*
X127177950Y-59237372D01*
X127258546Y-59229434D01*
X127857501Y-59828389D01*
X127857501Y-60522114D01*
X127773682Y-60496688D01*
X127649200Y-60484428D01*
X127234950Y-60487500D01*
X127076200Y-60646250D01*
X127076200Y-61483000D01*
X127096200Y-61483000D01*
X127096200Y-61737000D01*
X127076200Y-61737000D01*
X127076200Y-61757000D01*
X126822200Y-61757000D01*
X126822200Y-61737000D01*
X125183900Y-61737000D01*
X125183900Y-61757000D01*
X124929900Y-61757000D01*
X124929900Y-61737000D01*
X123880650Y-61737000D01*
X123721900Y-61895750D01*
X123718828Y-62097500D01*
X123731088Y-62221982D01*
X123767398Y-62341680D01*
X123826363Y-62451994D01*
X123905715Y-62548685D01*
X123983464Y-62612492D01*
X123977108Y-62617708D01*
X123867442Y-62751336D01*
X123785953Y-62903791D01*
X123735772Y-63069215D01*
X123718828Y-63241250D01*
X123718828Y-63490038D01*
X121784710Y-65424158D01*
X121757574Y-65446428D01*
X121741443Y-65466083D01*
X121097899Y-65466083D01*
X121097899Y-61122500D01*
X123718828Y-61122500D01*
X123721900Y-61324250D01*
X123880650Y-61483000D01*
X124929900Y-61483000D01*
X124929900Y-60646250D01*
X125183900Y-60646250D01*
X125183900Y-61483000D01*
X126822200Y-61483000D01*
X126822200Y-60646250D01*
X126663450Y-60487500D01*
X126249200Y-60484428D01*
X126124718Y-60496688D01*
X126005020Y-60532998D01*
X126003050Y-60534051D01*
X126001080Y-60532998D01*
X125881382Y-60496688D01*
X125756900Y-60484428D01*
X125342650Y-60487500D01*
X125183900Y-60646250D01*
X124929900Y-60646250D01*
X124771150Y-60487500D01*
X124356900Y-60484428D01*
X124232418Y-60496688D01*
X124112720Y-60532998D01*
X124002406Y-60591963D01*
X123905715Y-60671315D01*
X123826363Y-60768006D01*
X123767398Y-60878320D01*
X123731088Y-60998018D01*
X123718828Y-61122500D01*
X121097899Y-61122500D01*
X121097899Y-58741210D01*
X121977150Y-58739155D01*
X122135900Y-58580405D01*
X122135900Y-57581155D01*
X122115900Y-57581155D01*
X122115900Y-57327155D01*
X122135900Y-57327155D01*
X122135900Y-57307155D01*
X122389900Y-57307155D01*
X122389900Y-57327155D01*
X122389900Y-57327155D01*
G37*
X122389900Y-57327155D02*
X122409900Y-57327155D01*
X122409900Y-57581155D01*
X122389900Y-57581155D01*
X122389900Y-58580405D01*
X122548650Y-58739155D01*
X123862900Y-58742227D01*
X123948913Y-58733756D01*
X123982198Y-58843480D01*
X124041163Y-58953794D01*
X124120515Y-59050485D01*
X124217206Y-59129837D01*
X124327520Y-59188802D01*
X124447218Y-59225112D01*
X124571700Y-59237372D01*
X124773450Y-59234300D01*
X124932200Y-59075550D01*
X124932200Y-58026300D01*
X124912200Y-58026300D01*
X124912200Y-57772300D01*
X124932200Y-57772300D01*
X124932200Y-57752300D01*
X125186200Y-57752300D01*
X125186200Y-57772300D01*
X125206200Y-57772300D01*
X125206200Y-58026300D01*
X125186200Y-58026300D01*
X125186200Y-59075550D01*
X125344950Y-59234300D01*
X125546700Y-59237372D01*
X125671182Y-59225112D01*
X125790880Y-59188802D01*
X125901194Y-59129837D01*
X125997885Y-59050485D01*
X126061692Y-58972736D01*
X126066908Y-58979092D01*
X126200536Y-59088758D01*
X126352991Y-59170247D01*
X126518415Y-59220428D01*
X126690450Y-59237372D01*
X127177950Y-59237372D01*
X127258546Y-59229434D01*
X127857501Y-59828389D01*
X127857501Y-60522114D01*
X127773682Y-60496688D01*
X127649200Y-60484428D01*
X127234950Y-60487500D01*
X127076200Y-60646250D01*
X127076200Y-61483000D01*
X127096200Y-61483000D01*
X127096200Y-61737000D01*
X127076200Y-61737000D01*
X127076200Y-61757000D01*
X126822200Y-61757000D01*
X126822200Y-61737000D01*
X125183900Y-61737000D01*
X125183900Y-61757000D01*
X124929900Y-61757000D01*
X124929900Y-61737000D01*
X123880650Y-61737000D01*
X123721900Y-61895750D01*
X123718828Y-62097500D01*
X123731088Y-62221982D01*
X123767398Y-62341680D01*
X123826363Y-62451994D01*
X123905715Y-62548685D01*
X123983464Y-62612492D01*
X123977108Y-62617708D01*
X123867442Y-62751336D01*
X123785953Y-62903791D01*
X123735772Y-63069215D01*
X123718828Y-63241250D01*
X123718828Y-63490038D01*
X121784710Y-65424158D01*
X121757574Y-65446428D01*
X121741443Y-65466083D01*
X121097899Y-65466083D01*
X121097899Y-61122500D01*
X123718828Y-61122500D01*
X123721900Y-61324250D01*
X123880650Y-61483000D01*
X124929900Y-61483000D01*
X124929900Y-60646250D01*
X125183900Y-60646250D01*
X125183900Y-61483000D01*
X126822200Y-61483000D01*
X126822200Y-60646250D01*
X126663450Y-60487500D01*
X126249200Y-60484428D01*
X126124718Y-60496688D01*
X126005020Y-60532998D01*
X126003050Y-60534051D01*
X126001080Y-60532998D01*
X125881382Y-60496688D01*
X125756900Y-60484428D01*
X125342650Y-60487500D01*
X125183900Y-60646250D01*
X124929900Y-60646250D01*
X124771150Y-60487500D01*
X124356900Y-60484428D01*
X124232418Y-60496688D01*
X124112720Y-60532998D01*
X124002406Y-60591963D01*
X123905715Y-60671315D01*
X123826363Y-60768006D01*
X123767398Y-60878320D01*
X123731088Y-60998018D01*
X123718828Y-61122500D01*
X121097899Y-61122500D01*
X121097899Y-58741210D01*
X121977150Y-58739155D01*
X122135900Y-58580405D01*
X122135900Y-57581155D01*
X122115900Y-57581155D01*
X122115900Y-57327155D01*
X122135900Y-57327155D01*
X122135900Y-57307155D01*
X122389900Y-57307155D01*
X122389900Y-57327155D01*
G36*
X130695700Y-62420500D02*
G01*
X130715700Y-62420500D01*
X130715700Y-62674500D01*
X130695700Y-62674500D01*
X130695700Y-62694500D01*
X130441700Y-62694500D01*
X130441700Y-62674500D01*
X130421700Y-62674500D01*
X130421700Y-62420500D01*
X130441700Y-62420500D01*
X130441700Y-62400500D01*
X130695700Y-62400500D01*
X130695700Y-62420500D01*
X130695700Y-62420500D01*
G37*
X130695700Y-62420500D02*
X130715700Y-62420500D01*
X130715700Y-62674500D01*
X130695700Y-62674500D01*
X130695700Y-62694500D01*
X130441700Y-62694500D01*
X130441700Y-62674500D01*
X130421700Y-62674500D01*
X130421700Y-62420500D01*
X130441700Y-62420500D01*
X130441700Y-62400500D01*
X130695700Y-62400500D01*
X130695700Y-62420500D01*
G36*
X149900041Y-58250240D02*
G01*
X150058126Y-58355869D01*
X150233782Y-58428628D01*
X150420256Y-58465720D01*
X150474732Y-58465720D01*
X150525518Y-58516506D01*
X150514721Y-58523720D01*
X150380280Y-58658161D01*
X150274651Y-58816246D01*
X150201892Y-58991902D01*
X150164800Y-59178376D01*
X150164800Y-59368504D01*
X150201892Y-59554978D01*
X150274651Y-59730634D01*
X150380280Y-59888719D01*
X150514721Y-60023160D01*
X150672806Y-60128789D01*
X150789637Y-60177182D01*
X150791172Y-60184898D01*
X150863931Y-60360554D01*
X150969560Y-60518639D01*
X151104001Y-60653080D01*
X151262086Y-60758709D01*
X151437742Y-60831468D01*
X151624216Y-60868560D01*
X151631084Y-60868560D01*
X151706160Y-60980919D01*
X151840601Y-61115360D01*
X151998686Y-61220989D01*
X152174342Y-61293748D01*
X152360816Y-61330840D01*
X152427576Y-61330840D01*
X152415388Y-61371018D01*
X152403128Y-61495500D01*
X152403128Y-62056500D01*
X150668810Y-62056500D01*
X150668810Y-61480693D01*
X150673110Y-61437033D01*
X150668810Y-61393373D01*
X150668810Y-61393366D01*
X150655946Y-61262759D01*
X150655605Y-61261633D01*
X150622894Y-61153800D01*
X150605113Y-61095182D01*
X150522563Y-60940742D01*
X150411469Y-60805374D01*
X150377553Y-60777540D01*
X149491700Y-59891688D01*
X149491700Y-58688613D01*
X149548864Y-58658058D01*
X149682492Y-58548392D01*
X149792158Y-58414764D01*
X149873647Y-58262309D01*
X149882599Y-58232798D01*
X149900041Y-58250240D01*
X149900041Y-58250240D01*
G37*
X149900041Y-58250240D02*
X150058126Y-58355869D01*
X150233782Y-58428628D01*
X150420256Y-58465720D01*
X150474732Y-58465720D01*
X150525518Y-58516506D01*
X150514721Y-58523720D01*
X150380280Y-58658161D01*
X150274651Y-58816246D01*
X150201892Y-58991902D01*
X150164800Y-59178376D01*
X150164800Y-59368504D01*
X150201892Y-59554978D01*
X150274651Y-59730634D01*
X150380280Y-59888719D01*
X150514721Y-60023160D01*
X150672806Y-60128789D01*
X150789637Y-60177182D01*
X150791172Y-60184898D01*
X150863931Y-60360554D01*
X150969560Y-60518639D01*
X151104001Y-60653080D01*
X151262086Y-60758709D01*
X151437742Y-60831468D01*
X151624216Y-60868560D01*
X151631084Y-60868560D01*
X151706160Y-60980919D01*
X151840601Y-61115360D01*
X151998686Y-61220989D01*
X152174342Y-61293748D01*
X152360816Y-61330840D01*
X152427576Y-61330840D01*
X152415388Y-61371018D01*
X152403128Y-61495500D01*
X152403128Y-62056500D01*
X150668810Y-62056500D01*
X150668810Y-61480693D01*
X150673110Y-61437033D01*
X150668810Y-61393373D01*
X150668810Y-61393366D01*
X150655946Y-61262759D01*
X150655605Y-61261633D01*
X150622894Y-61153800D01*
X150605113Y-61095182D01*
X150522563Y-60940742D01*
X150411469Y-60805374D01*
X150377553Y-60777540D01*
X149491700Y-59891688D01*
X149491700Y-58688613D01*
X149548864Y-58658058D01*
X149682492Y-58548392D01*
X149792158Y-58414764D01*
X149873647Y-58262309D01*
X149882599Y-58232798D01*
X149900041Y-58250240D01*
G36*
X144257316Y-56065229D02*
G01*
X144328160Y-56236262D01*
X144431010Y-56390187D01*
X144561913Y-56521090D01*
X144715838Y-56623940D01*
X144886871Y-56694784D01*
X145068438Y-56730900D01*
X145095012Y-56730900D01*
X145412117Y-57048006D01*
X145434383Y-57075137D01*
X145461514Y-57097403D01*
X145461518Y-57097407D01*
X145464792Y-57100094D01*
X145414672Y-57265315D01*
X145397728Y-57437350D01*
X145397728Y-57924850D01*
X145414672Y-58096885D01*
X145462471Y-58254457D01*
X145363601Y-58320520D01*
X145229160Y-58454961D01*
X145123531Y-58613046D01*
X145050772Y-58788702D01*
X145013680Y-58975176D01*
X145013680Y-59029652D01*
X144626800Y-59416532D01*
X144626800Y-56955047D01*
X144630114Y-56921400D01*
X144616888Y-56787117D01*
X144577719Y-56657994D01*
X144514112Y-56538993D01*
X144428511Y-56434689D01*
X144324207Y-56349088D01*
X144232253Y-56299938D01*
X144232944Y-55942703D01*
X144257316Y-56065229D01*
X144257316Y-56065229D01*
G37*
X144257316Y-56065229D02*
X144328160Y-56236262D01*
X144431010Y-56390187D01*
X144561913Y-56521090D01*
X144715838Y-56623940D01*
X144886871Y-56694784D01*
X145068438Y-56730900D01*
X145095012Y-56730900D01*
X145412117Y-57048006D01*
X145434383Y-57075137D01*
X145461514Y-57097403D01*
X145461518Y-57097407D01*
X145464792Y-57100094D01*
X145414672Y-57265315D01*
X145397728Y-57437350D01*
X145397728Y-57924850D01*
X145414672Y-58096885D01*
X145462471Y-58254457D01*
X145363601Y-58320520D01*
X145229160Y-58454961D01*
X145123531Y-58613046D01*
X145050772Y-58788702D01*
X145013680Y-58975176D01*
X145013680Y-59029652D01*
X144626800Y-59416532D01*
X144626800Y-56955047D01*
X144630114Y-56921400D01*
X144616888Y-56787117D01*
X144577719Y-56657994D01*
X144514112Y-56538993D01*
X144428511Y-56434689D01*
X144324207Y-56349088D01*
X144232253Y-56299938D01*
X144232944Y-55942703D01*
X144257316Y-56065229D01*
G36*
X130731816Y-54081871D02*
G01*
X130695700Y-54263438D01*
X130695700Y-54448562D01*
X130731816Y-54630129D01*
X130802660Y-54801162D01*
X130905510Y-54955087D01*
X131036413Y-55085990D01*
X131190338Y-55188840D01*
X131361371Y-55259684D01*
X131542938Y-55295800D01*
X131728062Y-55295800D01*
X131804294Y-55280636D01*
X131652610Y-55432321D01*
X131625473Y-55454592D01*
X131536598Y-55562886D01*
X131525184Y-55584239D01*
X131502515Y-55586472D01*
X131337091Y-55636653D01*
X131184636Y-55718142D01*
X131051008Y-55827808D01*
X130941342Y-55961436D01*
X130859853Y-56113891D01*
X130840600Y-56177358D01*
X130825473Y-56189773D01*
X130803207Y-56216905D01*
X130323989Y-56696124D01*
X130296854Y-56718393D01*
X130274584Y-56745529D01*
X130274583Y-56745530D01*
X130207978Y-56826688D01*
X130152109Y-56931213D01*
X130141939Y-56950239D01*
X130101272Y-57084300D01*
X130097543Y-57122156D01*
X130087540Y-57223720D01*
X130090981Y-57258656D01*
X130090981Y-58116573D01*
X127671765Y-55697359D01*
X127649490Y-55670217D01*
X127541196Y-55581342D01*
X127417644Y-55515302D01*
X127283583Y-55474635D01*
X127179099Y-55464344D01*
X127179089Y-55464344D01*
X127144163Y-55460904D01*
X127109237Y-55464344D01*
X124123821Y-55464344D01*
X125568677Y-54019489D01*
X130757655Y-54019489D01*
X130731816Y-54081871D01*
X130731816Y-54081871D01*
G37*
X130731816Y-54081871D02*
X130695700Y-54263438D01*
X130695700Y-54448562D01*
X130731816Y-54630129D01*
X130802660Y-54801162D01*
X130905510Y-54955087D01*
X131036413Y-55085990D01*
X131190338Y-55188840D01*
X131361371Y-55259684D01*
X131542938Y-55295800D01*
X131728062Y-55295800D01*
X131804294Y-55280636D01*
X131652610Y-55432321D01*
X131625473Y-55454592D01*
X131536598Y-55562886D01*
X131525184Y-55584239D01*
X131502515Y-55586472D01*
X131337091Y-55636653D01*
X131184636Y-55718142D01*
X131051008Y-55827808D01*
X130941342Y-55961436D01*
X130859853Y-56113891D01*
X130840600Y-56177358D01*
X130825473Y-56189773D01*
X130803207Y-56216905D01*
X130323989Y-56696124D01*
X130296854Y-56718393D01*
X130274584Y-56745529D01*
X130274583Y-56745530D01*
X130207978Y-56826688D01*
X130152109Y-56931213D01*
X130141939Y-56950239D01*
X130101272Y-57084300D01*
X130097543Y-57122156D01*
X130087540Y-57223720D01*
X130090981Y-57258656D01*
X130090981Y-58116573D01*
X127671765Y-55697359D01*
X127649490Y-55670217D01*
X127541196Y-55581342D01*
X127417644Y-55515302D01*
X127283583Y-55474635D01*
X127179099Y-55464344D01*
X127179089Y-55464344D01*
X127144163Y-55460904D01*
X127109237Y-55464344D01*
X124123821Y-55464344D01*
X125568677Y-54019489D01*
X130757655Y-54019489D01*
X130731816Y-54081871D01*
G36*
X144297400Y-54885738D02*
G01*
X144297400Y-55070862D01*
X144333516Y-55252429D01*
X144355377Y-55305206D01*
X144328160Y-55345938D01*
X144257316Y-55516971D01*
X144233536Y-55636520D01*
X144233900Y-55448446D01*
X144231460Y-55423424D01*
X144224233Y-55399599D01*
X144212497Y-55377643D01*
X144196703Y-55358397D01*
X144177457Y-55342603D01*
X144155501Y-55330867D01*
X144131676Y-55323640D01*
X144106900Y-55321200D01*
X143979900Y-55321200D01*
X143979900Y-54802721D01*
X144313913Y-54802721D01*
X144297400Y-54885738D01*
X144297400Y-54885738D01*
G37*
X144297400Y-54885738D02*
X144297400Y-55070862D01*
X144333516Y-55252429D01*
X144355377Y-55305206D01*
X144328160Y-55345938D01*
X144257316Y-55516971D01*
X144233536Y-55636520D01*
X144233900Y-55448446D01*
X144231460Y-55423424D01*
X144224233Y-55399599D01*
X144212497Y-55377643D01*
X144196703Y-55358397D01*
X144177457Y-55342603D01*
X144155501Y-55330867D01*
X144131676Y-55323640D01*
X144106900Y-55321200D01*
X143979900Y-55321200D01*
X143979900Y-54802721D01*
X144313913Y-54802721D01*
X144297400Y-54885738D01*
G36*
X139431316Y-55313771D02*
G01*
X139429838Y-55321200D01*
X139380136Y-55321200D01*
X139214066Y-55155131D01*
X139497027Y-55155131D01*
X139431316Y-55313771D01*
X139431316Y-55313771D01*
G37*
X139431316Y-55313771D02*
X139429838Y-55321200D01*
X139380136Y-55321200D01*
X139214066Y-55155131D01*
X139497027Y-55155131D01*
X139431316Y-55313771D01*
G36*
X142205090Y-55194008D02*
G01*
X142077899Y-55321200D01*
X141676777Y-55321200D01*
X141670687Y-55315110D01*
X141516762Y-55212260D01*
X141378840Y-55155131D01*
X142205090Y-55155131D01*
X142205090Y-55194008D01*
X142205090Y-55194008D01*
G37*
X142205090Y-55194008D02*
X142077899Y-55321200D01*
X141676777Y-55321200D01*
X141670687Y-55315110D01*
X141516762Y-55212260D01*
X141378840Y-55155131D01*
X142205090Y-55155131D01*
X142205090Y-55194008D01*
G36*
X132560137Y-54524793D02*
G01*
X132575300Y-54448562D01*
X132575300Y-54421988D01*
X132625389Y-54371899D01*
X132713031Y-54371899D01*
X132560137Y-54524793D01*
X132560137Y-54524793D01*
G37*
X132560137Y-54524793D02*
X132575300Y-54448562D01*
X132575300Y-54421988D01*
X132625389Y-54371899D01*
X132713031Y-54371899D01*
X132560137Y-54524793D01*
G36*
X156191800Y-54121721D02*
G01*
X156086171Y-54279806D01*
X156013412Y-54455462D01*
X156007934Y-54483000D01*
X155402770Y-54483000D01*
X155787869Y-54097901D01*
X156215620Y-54097901D01*
X156191800Y-54121721D01*
X156191800Y-54121721D01*
G37*
X156191800Y-54121721D02*
X156086171Y-54279806D01*
X156013412Y-54455462D01*
X156007934Y-54483000D01*
X155402770Y-54483000D01*
X155787869Y-54097901D01*
X156215620Y-54097901D01*
X156191800Y-54121721D01*
G36*
X125046500Y-52070000D02*
G01*
X125066500Y-52070000D01*
X125066500Y-52324000D01*
X125046500Y-52324000D01*
X125046500Y-52344000D01*
X124792500Y-52344000D01*
X124792500Y-52324000D01*
X124772500Y-52324000D01*
X124772500Y-52070000D01*
X124792500Y-52070000D01*
X124792500Y-52050000D01*
X125046500Y-52050000D01*
X125046500Y-52070000D01*
X125046500Y-52070000D01*
G37*
X125046500Y-52070000D02*
X125066500Y-52070000D01*
X125066500Y-52324000D01*
X125046500Y-52324000D01*
X125046500Y-52344000D01*
X124792500Y-52344000D01*
X124792500Y-52324000D01*
X124772500Y-52324000D01*
X124772500Y-52070000D01*
X124792500Y-52070000D01*
X124792500Y-52050000D01*
X125046500Y-52050000D01*
X125046500Y-52070000D01*
G36*
X123797000Y-51911250D02*
G01*
X123955748Y-52069998D01*
X123904042Y-52069998D01*
X123800163Y-51914532D01*
X123536131Y-51650500D01*
X123795066Y-51650500D01*
X123797000Y-51911250D01*
X123797000Y-51911250D01*
G37*
X123797000Y-51911250D02*
X123955748Y-52069998D01*
X123904042Y-52069998D01*
X123800163Y-51914532D01*
X123536131Y-51650500D01*
X123795066Y-51650500D01*
X123797000Y-51911250D01*
G36*
X167314950Y-55618500D02*
G01*
X168614200Y-55618500D01*
X168614200Y-55598500D01*
X168868200Y-55598500D01*
X168868200Y-55618500D01*
X168888200Y-55618500D01*
X168888200Y-55872500D01*
X168868200Y-55872500D01*
X168868200Y-56871750D01*
X169026950Y-57030500D01*
X169431101Y-57032369D01*
X169431100Y-68108145D01*
X168576950Y-68110500D01*
X168418200Y-68269250D01*
X168418200Y-69009479D01*
X168164200Y-69012958D01*
X168164200Y-68269250D01*
X168005450Y-68110500D01*
X166891200Y-68107428D01*
X166766718Y-68119688D01*
X166647020Y-68155998D01*
X166536706Y-68214963D01*
X166440015Y-68294315D01*
X166360663Y-68391006D01*
X166301698Y-68501320D01*
X166265388Y-68621018D01*
X166253128Y-68745500D01*
X166256200Y-68959750D01*
X166334473Y-69038023D01*
X165179272Y-69053847D01*
X165179272Y-68745500D01*
X165167012Y-68621018D01*
X165130702Y-68501320D01*
X165071737Y-68391006D01*
X164992385Y-68294315D01*
X164895694Y-68214963D01*
X164785380Y-68155998D01*
X164665682Y-68119688D01*
X164541200Y-68107428D01*
X163741200Y-68107428D01*
X163616718Y-68119688D01*
X163497020Y-68155998D01*
X163386706Y-68214963D01*
X163290015Y-68294315D01*
X163210663Y-68391006D01*
X163151698Y-68501320D01*
X163115388Y-68621018D01*
X163103128Y-68745500D01*
X163103128Y-69082288D01*
X159176200Y-69136081D01*
X159176200Y-69118498D01*
X159017452Y-69118498D01*
X159176200Y-68959750D01*
X159179272Y-68745500D01*
X159167012Y-68621018D01*
X159130702Y-68501320D01*
X159071737Y-68391006D01*
X158992385Y-68294315D01*
X158895694Y-68214963D01*
X158785380Y-68155998D01*
X158665682Y-68119688D01*
X158541200Y-68107428D01*
X158226950Y-68110500D01*
X158068200Y-68269250D01*
X158068200Y-69118500D01*
X158088200Y-69118500D01*
X158088200Y-69150985D01*
X157794200Y-69155013D01*
X157794200Y-69118500D01*
X157814200Y-69118500D01*
X157814200Y-68269250D01*
X157655450Y-68110500D01*
X157518100Y-68109157D01*
X157518100Y-64698966D01*
X157521540Y-64664038D01*
X157518100Y-64629109D01*
X157518100Y-64629102D01*
X157507809Y-64524618D01*
X157495869Y-64485258D01*
X157467142Y-64390556D01*
X157401102Y-64267005D01*
X157334498Y-64185847D01*
X157334493Y-64185842D01*
X157312227Y-64158711D01*
X157285096Y-64136445D01*
X154879272Y-61730623D01*
X154879272Y-61495500D01*
X154867012Y-61371018D01*
X154844104Y-61295500D01*
X154867012Y-61219982D01*
X154879272Y-61095500D01*
X154879272Y-60395500D01*
X154867012Y-60271018D01*
X154844104Y-60195500D01*
X154867012Y-60119982D01*
X154879272Y-59995500D01*
X154879272Y-59449425D01*
X154967488Y-59377028D01*
X154989763Y-59349886D01*
X155028911Y-59310738D01*
X155056047Y-59288468D01*
X155144923Y-59180174D01*
X155210963Y-59056622D01*
X155251630Y-58922561D01*
X155261921Y-58818077D01*
X155261921Y-58818069D01*
X155265361Y-58783141D01*
X155261921Y-58748213D01*
X155261921Y-56897246D01*
X155265361Y-56862320D01*
X155261921Y-56827394D01*
X155261921Y-56827385D01*
X155251630Y-56722901D01*
X155210963Y-56588840D01*
X155196499Y-56561780D01*
X155273160Y-56485119D01*
X155378789Y-56327034D01*
X155451548Y-56151378D01*
X155457633Y-56120788D01*
X155551720Y-56261599D01*
X155686161Y-56396040D01*
X155844246Y-56501669D01*
X156019902Y-56574428D01*
X156206376Y-56611520D01*
X156396504Y-56611520D01*
X156582978Y-56574428D01*
X156758634Y-56501669D01*
X156916719Y-56396040D01*
X156917259Y-56395500D01*
X167153128Y-56395500D01*
X167165388Y-56519982D01*
X167201698Y-56639680D01*
X167260663Y-56749994D01*
X167340015Y-56846685D01*
X167436706Y-56926037D01*
X167547020Y-56985002D01*
X167666718Y-57021312D01*
X167791200Y-57033572D01*
X168455450Y-57030500D01*
X168614200Y-56871750D01*
X168614200Y-55872500D01*
X167314950Y-55872500D01*
X167156200Y-56031250D01*
X167153128Y-56395500D01*
X156917259Y-56395500D01*
X156955239Y-56357520D01*
X160320354Y-56357520D01*
X160355280Y-56360960D01*
X160390206Y-56357520D01*
X160390216Y-56357520D01*
X160494700Y-56347229D01*
X160628761Y-56306562D01*
X160752313Y-56240522D01*
X160860607Y-56151647D01*
X160882882Y-56124505D01*
X161508387Y-55499000D01*
X167195450Y-55499000D01*
X167314950Y-55618500D01*
X167314950Y-55618500D01*
G37*
X167314950Y-55618500D02*
X168614200Y-55618500D01*
X168614200Y-55598500D01*
X168868200Y-55598500D01*
X168868200Y-55618500D01*
X168888200Y-55618500D01*
X168888200Y-55872500D01*
X168868200Y-55872500D01*
X168868200Y-56871750D01*
X169026950Y-57030500D01*
X169431101Y-57032369D01*
X169431100Y-68108145D01*
X168576950Y-68110500D01*
X168418200Y-68269250D01*
X168418200Y-69009479D01*
X168164200Y-69012958D01*
X168164200Y-68269250D01*
X168005450Y-68110500D01*
X166891200Y-68107428D01*
X166766718Y-68119688D01*
X166647020Y-68155998D01*
X166536706Y-68214963D01*
X166440015Y-68294315D01*
X166360663Y-68391006D01*
X166301698Y-68501320D01*
X166265388Y-68621018D01*
X166253128Y-68745500D01*
X166256200Y-68959750D01*
X166334473Y-69038023D01*
X165179272Y-69053847D01*
X165179272Y-68745500D01*
X165167012Y-68621018D01*
X165130702Y-68501320D01*
X165071737Y-68391006D01*
X164992385Y-68294315D01*
X164895694Y-68214963D01*
X164785380Y-68155998D01*
X164665682Y-68119688D01*
X164541200Y-68107428D01*
X163741200Y-68107428D01*
X163616718Y-68119688D01*
X163497020Y-68155998D01*
X163386706Y-68214963D01*
X163290015Y-68294315D01*
X163210663Y-68391006D01*
X163151698Y-68501320D01*
X163115388Y-68621018D01*
X163103128Y-68745500D01*
X163103128Y-69082288D01*
X159176200Y-69136081D01*
X159176200Y-69118498D01*
X159017452Y-69118498D01*
X159176200Y-68959750D01*
X159179272Y-68745500D01*
X159167012Y-68621018D01*
X159130702Y-68501320D01*
X159071737Y-68391006D01*
X158992385Y-68294315D01*
X158895694Y-68214963D01*
X158785380Y-68155998D01*
X158665682Y-68119688D01*
X158541200Y-68107428D01*
X158226950Y-68110500D01*
X158068200Y-68269250D01*
X158068200Y-69118500D01*
X158088200Y-69118500D01*
X158088200Y-69150985D01*
X157794200Y-69155013D01*
X157794200Y-69118500D01*
X157814200Y-69118500D01*
X157814200Y-68269250D01*
X157655450Y-68110500D01*
X157518100Y-68109157D01*
X157518100Y-64698966D01*
X157521540Y-64664038D01*
X157518100Y-64629109D01*
X157518100Y-64629102D01*
X157507809Y-64524618D01*
X157495869Y-64485258D01*
X157467142Y-64390556D01*
X157401102Y-64267005D01*
X157334498Y-64185847D01*
X157334493Y-64185842D01*
X157312227Y-64158711D01*
X157285096Y-64136445D01*
X154879272Y-61730623D01*
X154879272Y-61495500D01*
X154867012Y-61371018D01*
X154844104Y-61295500D01*
X154867012Y-61219982D01*
X154879272Y-61095500D01*
X154879272Y-60395500D01*
X154867012Y-60271018D01*
X154844104Y-60195500D01*
X154867012Y-60119982D01*
X154879272Y-59995500D01*
X154879272Y-59449425D01*
X154967488Y-59377028D01*
X154989763Y-59349886D01*
X155028911Y-59310738D01*
X155056047Y-59288468D01*
X155144923Y-59180174D01*
X155210963Y-59056622D01*
X155251630Y-58922561D01*
X155261921Y-58818077D01*
X155261921Y-58818069D01*
X155265361Y-58783141D01*
X155261921Y-58748213D01*
X155261921Y-56897246D01*
X155265361Y-56862320D01*
X155261921Y-56827394D01*
X155261921Y-56827385D01*
X155251630Y-56722901D01*
X155210963Y-56588840D01*
X155196499Y-56561780D01*
X155273160Y-56485119D01*
X155378789Y-56327034D01*
X155451548Y-56151378D01*
X155457633Y-56120788D01*
X155551720Y-56261599D01*
X155686161Y-56396040D01*
X155844246Y-56501669D01*
X156019902Y-56574428D01*
X156206376Y-56611520D01*
X156396504Y-56611520D01*
X156582978Y-56574428D01*
X156758634Y-56501669D01*
X156916719Y-56396040D01*
X156917259Y-56395500D01*
X167153128Y-56395500D01*
X167165388Y-56519982D01*
X167201698Y-56639680D01*
X167260663Y-56749994D01*
X167340015Y-56846685D01*
X167436706Y-56926037D01*
X167547020Y-56985002D01*
X167666718Y-57021312D01*
X167791200Y-57033572D01*
X168455450Y-57030500D01*
X168614200Y-56871750D01*
X168614200Y-55872500D01*
X167314950Y-55872500D01*
X167156200Y-56031250D01*
X167153128Y-56395500D01*
X156917259Y-56395500D01*
X156955239Y-56357520D01*
X160320354Y-56357520D01*
X160355280Y-56360960D01*
X160390206Y-56357520D01*
X160390216Y-56357520D01*
X160494700Y-56347229D01*
X160628761Y-56306562D01*
X160752313Y-56240522D01*
X160860607Y-56151647D01*
X160882882Y-56124505D01*
X161508387Y-55499000D01*
X167195450Y-55499000D01*
X167314950Y-55618500D01*
G36*
X153768200Y-57968500D02*
G01*
X153788200Y-57968500D01*
X153788200Y-58160501D01*
X153543000Y-58160501D01*
X153543000Y-57948500D01*
X153768200Y-57948500D01*
X153768200Y-57968500D01*
X153768200Y-57968500D01*
G37*
X153768200Y-57968500D02*
X153788200Y-57968500D01*
X153788200Y-58160501D01*
X153543000Y-58160501D01*
X153543000Y-57948500D01*
X153768200Y-57948500D01*
X153768200Y-57968500D01*
M02*
