G04 #@! TF.GenerationSoftware,KiCad,Pcbnew,(5.1.4)-1*
G04 #@! TF.CreationDate,2019-12-01T21:56:44-05:00*
G04 #@! TF.ProjectId,Feather-weather-station,46656174-6865-4722-9d77-656174686572,rev?*
G04 #@! TF.SameCoordinates,Original*
G04 #@! TF.FileFunction,Copper,L2,Bot*
G04 #@! TF.FilePolarity,Positive*
%FSLAX46Y46*%
G04 Gerber Fmt 4.6, Leading zero omitted, Abs format (unit mm)*
G04 Created by KiCad (PCBNEW (5.1.4)-1) date 2019-12-01 21:56:44*
%MOMM*%
%LPD*%
G04 APERTURE LIST*
%ADD10C,0.500000*%
%ADD11C,0.100000*%
%ADD12C,3.800000*%
%ADD13O,1.700000X1.700000*%
%ADD14R,1.700000X1.700000*%
%ADD15C,0.660400*%
%ADD16C,0.800000*%
%ADD17C,0.609600*%
%ADD18C,0.152400*%
%ADD19C,0.254000*%
G04 APERTURE END LIST*
D10*
X139331700Y-60058300D03*
D11*
G36*
X139331700Y-59308902D02*
G01*
X139356234Y-59308902D01*
X139405065Y-59313712D01*
X139453190Y-59323284D01*
X139500145Y-59337528D01*
X139545478Y-59356305D01*
X139588751Y-59379436D01*
X139629550Y-59406696D01*
X139667479Y-59437824D01*
X139702176Y-59472521D01*
X139733304Y-59510450D01*
X139760564Y-59551249D01*
X139783695Y-59594522D01*
X139802472Y-59639855D01*
X139816716Y-59686810D01*
X139826288Y-59734935D01*
X139831098Y-59783766D01*
X139831098Y-59808300D01*
X139831700Y-59808300D01*
X139831700Y-60308300D01*
X139831098Y-60308300D01*
X139831098Y-60332834D01*
X139826288Y-60381665D01*
X139816716Y-60429790D01*
X139802472Y-60476745D01*
X139783695Y-60522078D01*
X139760564Y-60565351D01*
X139733304Y-60606150D01*
X139702176Y-60644079D01*
X139667479Y-60678776D01*
X139629550Y-60709904D01*
X139588751Y-60737164D01*
X139545478Y-60760295D01*
X139500145Y-60779072D01*
X139453190Y-60793316D01*
X139405065Y-60802888D01*
X139356234Y-60807698D01*
X139331700Y-60807698D01*
X139331700Y-60808300D01*
X138831700Y-60808300D01*
X138831700Y-59308300D01*
X139331700Y-59308300D01*
X139331700Y-59308902D01*
X139331700Y-59308902D01*
G37*
D10*
X138031700Y-60058300D03*
D11*
G36*
X138531700Y-60808300D02*
G01*
X138031700Y-60808300D01*
X138031700Y-60807698D01*
X138007166Y-60807698D01*
X137958335Y-60802888D01*
X137910210Y-60793316D01*
X137863255Y-60779072D01*
X137817922Y-60760295D01*
X137774649Y-60737164D01*
X137733850Y-60709904D01*
X137695921Y-60678776D01*
X137661224Y-60644079D01*
X137630096Y-60606150D01*
X137602836Y-60565351D01*
X137579705Y-60522078D01*
X137560928Y-60476745D01*
X137546684Y-60429790D01*
X137537112Y-60381665D01*
X137532302Y-60332834D01*
X137532302Y-60308300D01*
X137531700Y-60308300D01*
X137531700Y-59808300D01*
X137532302Y-59808300D01*
X137532302Y-59783766D01*
X137537112Y-59734935D01*
X137546684Y-59686810D01*
X137560928Y-59639855D01*
X137579705Y-59594522D01*
X137602836Y-59551249D01*
X137630096Y-59510450D01*
X137661224Y-59472521D01*
X137695921Y-59437824D01*
X137733850Y-59406696D01*
X137774649Y-59379436D01*
X137817922Y-59356305D01*
X137863255Y-59337528D01*
X137910210Y-59323284D01*
X137958335Y-59313712D01*
X138007166Y-59308902D01*
X138031700Y-59308902D01*
X138031700Y-59308300D01*
X138531700Y-59308300D01*
X138531700Y-60808300D01*
X138531700Y-60808300D01*
G37*
D12*
X121831100Y-71310500D03*
X121831100Y-53530500D03*
D13*
X163741100Y-72580500D03*
X161201100Y-72580500D03*
X158661100Y-72580500D03*
X156121100Y-72580500D03*
X153581100Y-72580500D03*
X151041100Y-72580500D03*
X148501100Y-72580500D03*
X145961100Y-72580500D03*
X143421100Y-72580500D03*
X140881100Y-72580500D03*
X138341100Y-72580500D03*
X135801100Y-72580500D03*
X133261100Y-72580500D03*
X130721100Y-72580500D03*
X128181100Y-72580500D03*
D14*
X125641100Y-72580500D03*
D13*
X163741100Y-52260500D03*
X161201100Y-52260500D03*
X158661100Y-52260500D03*
X156121100Y-52260500D03*
X153581100Y-52260500D03*
X151041100Y-52260500D03*
X148501100Y-52260500D03*
X145961100Y-52260500D03*
X143421100Y-52260500D03*
X140881100Y-52260500D03*
X138341100Y-52260500D03*
D14*
X135801100Y-52260500D03*
D10*
X126936500Y-70167500D03*
D11*
G36*
X126936500Y-69418102D02*
G01*
X126961034Y-69418102D01*
X127009865Y-69422912D01*
X127057990Y-69432484D01*
X127104945Y-69446728D01*
X127150278Y-69465505D01*
X127193551Y-69488636D01*
X127234350Y-69515896D01*
X127272279Y-69547024D01*
X127306976Y-69581721D01*
X127338104Y-69619650D01*
X127365364Y-69660449D01*
X127388495Y-69703722D01*
X127407272Y-69749055D01*
X127421516Y-69796010D01*
X127431088Y-69844135D01*
X127435898Y-69892966D01*
X127435898Y-69917500D01*
X127436500Y-69917500D01*
X127436500Y-70417500D01*
X127435898Y-70417500D01*
X127435898Y-70442034D01*
X127431088Y-70490865D01*
X127421516Y-70538990D01*
X127407272Y-70585945D01*
X127388495Y-70631278D01*
X127365364Y-70674551D01*
X127338104Y-70715350D01*
X127306976Y-70753279D01*
X127272279Y-70787976D01*
X127234350Y-70819104D01*
X127193551Y-70846364D01*
X127150278Y-70869495D01*
X127104945Y-70888272D01*
X127057990Y-70902516D01*
X127009865Y-70912088D01*
X126961034Y-70916898D01*
X126936500Y-70916898D01*
X126936500Y-70917500D01*
X126436500Y-70917500D01*
X126436500Y-69417500D01*
X126936500Y-69417500D01*
X126936500Y-69418102D01*
X126936500Y-69418102D01*
G37*
D10*
X125636500Y-70167500D03*
D11*
G36*
X126136500Y-70917500D02*
G01*
X125636500Y-70917500D01*
X125636500Y-70916898D01*
X125611966Y-70916898D01*
X125563135Y-70912088D01*
X125515010Y-70902516D01*
X125468055Y-70888272D01*
X125422722Y-70869495D01*
X125379449Y-70846364D01*
X125338650Y-70819104D01*
X125300721Y-70787976D01*
X125266024Y-70753279D01*
X125234896Y-70715350D01*
X125207636Y-70674551D01*
X125184505Y-70631278D01*
X125165728Y-70585945D01*
X125151484Y-70538990D01*
X125141912Y-70490865D01*
X125137102Y-70442034D01*
X125137102Y-70417500D01*
X125136500Y-70417500D01*
X125136500Y-69917500D01*
X125137102Y-69917500D01*
X125137102Y-69892966D01*
X125141912Y-69844135D01*
X125151484Y-69796010D01*
X125165728Y-69749055D01*
X125184505Y-69703722D01*
X125207636Y-69660449D01*
X125234896Y-69619650D01*
X125266024Y-69581721D01*
X125300721Y-69547024D01*
X125338650Y-69515896D01*
X125379449Y-69488636D01*
X125422722Y-69465505D01*
X125468055Y-69446728D01*
X125515010Y-69432484D01*
X125563135Y-69422912D01*
X125611966Y-69418102D01*
X125636500Y-69418102D01*
X125636500Y-69417500D01*
X126136500Y-69417500D01*
X126136500Y-70917500D01*
X126136500Y-70917500D01*
G37*
D10*
X126936500Y-68021200D03*
D11*
G36*
X126936500Y-67271802D02*
G01*
X126961034Y-67271802D01*
X127009865Y-67276612D01*
X127057990Y-67286184D01*
X127104945Y-67300428D01*
X127150278Y-67319205D01*
X127193551Y-67342336D01*
X127234350Y-67369596D01*
X127272279Y-67400724D01*
X127306976Y-67435421D01*
X127338104Y-67473350D01*
X127365364Y-67514149D01*
X127388495Y-67557422D01*
X127407272Y-67602755D01*
X127421516Y-67649710D01*
X127431088Y-67697835D01*
X127435898Y-67746666D01*
X127435898Y-67771200D01*
X127436500Y-67771200D01*
X127436500Y-68271200D01*
X127435898Y-68271200D01*
X127435898Y-68295734D01*
X127431088Y-68344565D01*
X127421516Y-68392690D01*
X127407272Y-68439645D01*
X127388495Y-68484978D01*
X127365364Y-68528251D01*
X127338104Y-68569050D01*
X127306976Y-68606979D01*
X127272279Y-68641676D01*
X127234350Y-68672804D01*
X127193551Y-68700064D01*
X127150278Y-68723195D01*
X127104945Y-68741972D01*
X127057990Y-68756216D01*
X127009865Y-68765788D01*
X126961034Y-68770598D01*
X126936500Y-68770598D01*
X126936500Y-68771200D01*
X126436500Y-68771200D01*
X126436500Y-67271200D01*
X126936500Y-67271200D01*
X126936500Y-67271802D01*
X126936500Y-67271802D01*
G37*
D10*
X125636500Y-68021200D03*
D11*
G36*
X126136500Y-68771200D02*
G01*
X125636500Y-68771200D01*
X125636500Y-68770598D01*
X125611966Y-68770598D01*
X125563135Y-68765788D01*
X125515010Y-68756216D01*
X125468055Y-68741972D01*
X125422722Y-68723195D01*
X125379449Y-68700064D01*
X125338650Y-68672804D01*
X125300721Y-68641676D01*
X125266024Y-68606979D01*
X125234896Y-68569050D01*
X125207636Y-68528251D01*
X125184505Y-68484978D01*
X125165728Y-68439645D01*
X125151484Y-68392690D01*
X125141912Y-68344565D01*
X125137102Y-68295734D01*
X125137102Y-68271200D01*
X125136500Y-68271200D01*
X125136500Y-67771200D01*
X125137102Y-67771200D01*
X125137102Y-67746666D01*
X125141912Y-67697835D01*
X125151484Y-67649710D01*
X125165728Y-67602755D01*
X125184505Y-67557422D01*
X125207636Y-67514149D01*
X125234896Y-67473350D01*
X125266024Y-67435421D01*
X125300721Y-67400724D01*
X125338650Y-67369596D01*
X125379449Y-67342336D01*
X125422722Y-67319205D01*
X125468055Y-67300428D01*
X125515010Y-67286184D01*
X125563135Y-67276612D01*
X125611966Y-67271802D01*
X125636500Y-67271802D01*
X125636500Y-67271200D01*
X126136500Y-67271200D01*
X126136500Y-68771200D01*
X126136500Y-68771200D01*
G37*
D15*
X138861800Y-69786500D03*
X147015200Y-68948300D03*
X152455880Y-60365640D03*
X148082000Y-61864240D03*
X139306300Y-68948300D03*
X146138900Y-68491100D03*
X151719280Y-59903360D03*
X147330160Y-61371480D03*
X151130000Y-59273440D03*
X146847560Y-60604400D03*
X146410680Y-63103760D03*
X132384799Y-68986399D03*
X128905000Y-70612000D03*
D16*
X134200900Y-52197000D03*
X142214600Y-51625500D03*
D15*
X126022100Y-60528200D03*
X124498100Y-65138300D03*
X153847800Y-71196200D03*
X152476200Y-69926200D03*
X140157600Y-58464600D03*
X137947400Y-58242200D03*
X131267200Y-69240400D03*
X132765800Y-69799200D03*
X130276600Y-70485000D03*
X129209800Y-69342000D03*
X139153900Y-55168800D03*
D17*
X132842000Y-54241700D03*
X131864100Y-55232300D03*
X134683500Y-54673500D03*
X133261100Y-55689500D03*
X141122400Y-57696100D03*
X141782800Y-56667400D03*
D15*
X142265400Y-55067200D03*
D17*
X144157700Y-55079900D03*
X144881600Y-56629300D03*
D15*
X150850600Y-66001900D03*
X123634500Y-51676300D03*
X134480300Y-67792600D03*
X139788900Y-66560700D03*
X140017500Y-70129400D03*
X139776200Y-68046600D03*
X145249900Y-69189600D03*
X146672300Y-70129400D03*
X149387560Y-58648600D03*
X152262840Y-53512720D03*
X151069040Y-55041800D03*
X151023320Y-61788040D03*
X145496280Y-57856120D03*
X148981160Y-61757560D03*
X155641040Y-54183280D03*
X154523440Y-55869840D03*
X155646120Y-71236840D03*
X153908760Y-69499480D03*
X158186120Y-70744080D03*
X165333680Y-70672960D03*
X165877240Y-72882760D03*
X150942040Y-64135000D03*
X152120600Y-64160400D03*
X152069800Y-65389760D03*
X152186640Y-61691520D03*
X144876520Y-58648600D03*
X124871480Y-55153560D03*
X126075440Y-54315360D03*
X130423920Y-54234080D03*
X129702560Y-57271920D03*
X130931920Y-55377080D03*
X121508520Y-59039760D03*
X123718320Y-59065160D03*
X127579120Y-60116720D03*
X121478040Y-65166240D03*
X123484640Y-61513720D03*
X123235720Y-63271400D03*
X128132840Y-66898520D03*
X124729240Y-66675000D03*
X135021320Y-59766200D03*
X134975600Y-62565280D03*
X134833360Y-65140840D03*
X161198560Y-70647560D03*
X148325840Y-68737480D03*
X126685040Y-66614040D03*
X152603200Y-71551800D03*
X156806900Y-70446900D03*
X152184100Y-70777100D03*
X156070300Y-69354700D03*
X124002800Y-68605400D03*
X124383800Y-69418200D03*
X146375120Y-59842400D03*
X150774400Y-54203600D03*
X156301440Y-55646320D03*
X151399240Y-57439560D03*
D17*
X134454900Y-55727600D03*
X131635500Y-54356000D03*
D15*
X150515320Y-57500520D03*
X145978880Y-59070240D03*
X151404320Y-53594000D03*
X156941520Y-54737000D03*
D17*
X141071600Y-56045100D03*
X145161000Y-55791100D03*
X140335000Y-55587900D03*
X145237200Y-54978300D03*
D16*
X140103400Y-60118800D03*
D15*
X153944320Y-57180480D03*
X157793600Y-57353200D03*
X166730680Y-55935880D03*
X168955720Y-57353200D03*
X168940480Y-67467480D03*
X157793600Y-67467480D03*
X163306760Y-61259720D03*
X155529280Y-56581040D03*
X155163520Y-61584840D03*
D18*
X139328773Y-69786500D02*
X138861800Y-69786500D01*
X139365574Y-69786500D02*
X139328773Y-69786500D01*
X140308573Y-69522999D02*
X139629075Y-69522999D01*
X139629075Y-69522999D02*
X139365574Y-69786500D01*
X140933985Y-70148411D02*
X140308573Y-69522999D01*
X145686946Y-70148411D02*
X140933985Y-70148411D01*
X146556857Y-69278499D02*
X145686946Y-70148411D01*
X146685001Y-69278499D02*
X146556857Y-69278499D01*
X147015200Y-68948300D02*
X146685001Y-69278499D01*
X148412199Y-61534041D02*
X148082000Y-61864240D01*
X148412199Y-61429047D02*
X148412199Y-61534041D01*
X148690087Y-61151159D02*
X148412199Y-61429047D01*
X151670361Y-61151159D02*
X148690087Y-61151159D01*
X152455880Y-60365640D02*
X151670361Y-61151159D01*
X139773273Y-68948300D02*
X139785973Y-68961000D01*
X139306300Y-68948300D02*
X139773273Y-68948300D01*
X139785973Y-68961000D02*
X141173200Y-68961000D01*
X141173200Y-68961000D02*
X141897100Y-69684900D01*
X146138900Y-68958073D02*
X146138900Y-68491100D01*
X146138900Y-69198074D02*
X146138900Y-68958073D01*
X145540973Y-69796001D02*
X146138900Y-69198074D01*
X144958827Y-69796001D02*
X145540973Y-69796001D01*
X144847726Y-69684900D02*
X144958827Y-69796001D01*
X141897100Y-69684900D02*
X144847726Y-69684900D01*
X148301583Y-61041281D02*
X148544114Y-60798749D01*
X147330160Y-61371480D02*
X147660359Y-61041281D01*
X147660359Y-61041281D02*
X148301583Y-61041281D01*
X150823891Y-60798749D02*
X151719280Y-59903360D01*
X148544114Y-60798749D02*
X150823891Y-60798749D01*
X151112879Y-59632239D02*
X151130000Y-59615118D01*
X151112879Y-60011379D02*
X151112879Y-59632239D01*
X151130000Y-59615118D02*
X151130000Y-59273440D01*
X146847560Y-60604400D02*
X148240080Y-60604400D01*
X148398141Y-60446339D02*
X150505741Y-60446339D01*
X150505741Y-60446339D02*
X150510240Y-60441840D01*
X150510240Y-60441840D02*
X150682418Y-60441840D01*
X148240080Y-60604400D02*
X148398141Y-60446339D01*
X150682418Y-60441840D02*
X151112879Y-60011379D01*
X146410680Y-61041280D02*
X146410680Y-63103760D01*
X146847560Y-60604400D02*
X146410680Y-61041280D01*
X132054600Y-69316598D02*
X132384799Y-68986399D01*
X131524397Y-69846801D02*
X132054600Y-69316598D01*
X129670199Y-69846801D02*
X131524397Y-69846801D01*
X128905000Y-70612000D02*
X129670199Y-69846801D01*
X134200900Y-52762685D02*
X134200900Y-52197000D01*
X134824916Y-53386701D02*
X134200900Y-52762685D01*
X141421677Y-53386701D02*
X134824916Y-53386701D01*
X142007301Y-52801077D02*
X141421677Y-53386701D01*
X142007301Y-51719923D02*
X142007301Y-52801077D01*
X142101724Y-51625500D02*
X142007301Y-51719923D01*
X142214600Y-51625500D02*
X142101724Y-51625500D01*
X138414373Y-58242200D02*
X138795373Y-57861200D01*
X137947400Y-58242200D02*
X138414373Y-58242200D01*
X139554200Y-57861200D02*
X140157600Y-58464600D01*
X138795373Y-57861200D02*
X139554200Y-57861200D01*
X140347700Y-57807527D02*
X140157600Y-57997627D01*
X140157600Y-57997627D02*
X140157600Y-58464600D01*
X139153900Y-55168800D02*
X139153900Y-55635773D01*
X139153900Y-55635773D02*
X139636500Y-56118373D01*
X139636500Y-56118373D02*
X139636500Y-56146700D01*
X139636500Y-56146700D02*
X140119100Y-56146700D01*
X140119100Y-56146700D02*
X140347700Y-56375300D01*
X140347700Y-56375300D02*
X140347700Y-57807527D01*
X140353900Y-58464600D02*
X141122400Y-57696100D01*
X140157600Y-58464600D02*
X140353900Y-58464600D01*
X138031700Y-58326500D02*
X137947400Y-58242200D01*
X138031700Y-60058300D02*
X138031700Y-58326500D01*
X151399239Y-55371999D02*
X151069040Y-55041800D01*
X151643089Y-55615849D02*
X151399239Y-55371999D01*
X153802476Y-55615849D02*
X151643089Y-55615849D01*
X154056467Y-55869840D02*
X153802476Y-55615849D01*
X154523440Y-55869840D02*
X154056467Y-55869840D01*
X153888440Y-71236840D02*
X153847800Y-71196200D01*
X155646120Y-71236840D02*
X153888440Y-71236840D01*
X155902001Y-70513599D02*
X155968700Y-70446900D01*
X153641401Y-70513599D02*
X152603200Y-71551800D01*
X155902001Y-70513599D02*
X153641401Y-70513599D01*
X155968700Y-70446900D02*
X156806900Y-70446900D01*
X155740101Y-69684899D02*
X156070300Y-69354700D01*
X155311499Y-70113501D02*
X155740101Y-69684899D01*
X153543118Y-70113501D02*
X155311499Y-70113501D01*
X152879519Y-70777100D02*
X153543118Y-70113501D01*
X152184100Y-70777100D02*
X152879519Y-70777100D01*
X125534900Y-68605400D02*
X125674600Y-68465700D01*
X124587000Y-68021200D02*
X125636500Y-68021200D01*
X124002800Y-68605400D02*
X124587000Y-68021200D01*
X125217400Y-69748400D02*
X125636500Y-70167500D01*
X124887200Y-69418200D02*
X125636500Y-70167500D01*
X124383800Y-69418200D02*
X124887200Y-69418200D01*
X150774400Y-54203600D02*
X151557864Y-54203600D01*
X151557864Y-54203600D02*
X152617703Y-55263439D01*
X155918559Y-55263439D02*
X156301440Y-55646320D01*
X152617703Y-55263439D02*
X155918559Y-55263439D01*
X151399240Y-58069480D02*
X151399240Y-57439560D01*
X150523599Y-58945121D02*
X151399240Y-58069480D01*
X150523599Y-60022081D02*
X150523599Y-58945121D01*
X148262409Y-60093929D02*
X150451751Y-60093929D01*
X150451751Y-60093929D02*
X150523599Y-60022081D01*
X146842093Y-59842400D02*
X146872960Y-59873267D01*
X146872960Y-59873267D02*
X146872960Y-59979560D01*
X146375120Y-59842400D02*
X146842093Y-59842400D01*
X146872960Y-59979560D02*
X146891399Y-59997999D01*
X146891399Y-59997999D02*
X148166479Y-59997999D01*
X148166479Y-59997999D02*
X148262409Y-60093929D01*
X134150101Y-55422801D02*
X134454900Y-55727600D01*
X133835799Y-55108499D02*
X134150101Y-55422801D01*
X132848917Y-55108499D02*
X133835799Y-55108499D01*
X132096418Y-54356000D02*
X132848917Y-55108499D01*
X131635500Y-54356000D02*
X132096418Y-54356000D01*
X150515320Y-57967493D02*
X150515320Y-57500520D01*
X150515320Y-58418314D02*
X150515320Y-57967493D01*
X149678633Y-59255001D02*
X150515320Y-58418314D01*
X146753077Y-59255001D02*
X149678633Y-59255001D01*
X146568316Y-59070240D02*
X146753077Y-59255001D01*
X145978880Y-59070240D02*
X146568316Y-59070240D01*
X151446646Y-53594000D02*
X152642327Y-54789681D01*
X151404320Y-53594000D02*
X151446646Y-53594000D01*
X156474547Y-54737000D02*
X156941520Y-54737000D01*
X156421866Y-54789681D02*
X156474547Y-54737000D01*
X152642327Y-54789681D02*
X156421866Y-54789681D01*
X144907000Y-56045100D02*
X145161000Y-55791100D01*
X141071600Y-56045100D02*
X144907000Y-56045100D01*
X144882119Y-55210099D02*
X145005401Y-55210099D01*
X140335000Y-55587900D02*
X140458801Y-55464099D01*
X145005401Y-55210099D02*
X145237200Y-54978300D01*
X141430399Y-55464099D02*
X141658990Y-55692690D01*
X141658990Y-55692690D02*
X144579999Y-55692690D01*
X144579999Y-55692690D02*
X144579999Y-55512219D01*
X140458801Y-55464099D02*
X141430399Y-55464099D01*
X144579999Y-55512219D02*
X144882119Y-55210099D01*
X139392200Y-60118800D02*
X139331700Y-60058300D01*
X140103400Y-60118800D02*
X139392200Y-60118800D01*
D19*
G36*
X165880634Y-70417618D02*
G01*
X165738539Y-70760666D01*
X165666100Y-71124844D01*
X165666100Y-71496156D01*
X165738539Y-71860334D01*
X165880634Y-72203382D01*
X166086925Y-72512118D01*
X166349482Y-72774675D01*
X166658218Y-72980966D01*
X167001266Y-73123061D01*
X167340307Y-73190500D01*
X165092796Y-73190500D01*
X165182581Y-72937391D01*
X165061914Y-72707500D01*
X163868100Y-72707500D01*
X163868100Y-72727500D01*
X163614100Y-72727500D01*
X163614100Y-72707500D01*
X163594100Y-72707500D01*
X163594100Y-72453500D01*
X163614100Y-72453500D01*
X163614100Y-71260345D01*
X163868100Y-71260345D01*
X163868100Y-72453500D01*
X165061914Y-72453500D01*
X165182581Y-72223609D01*
X165085257Y-71949248D01*
X164936278Y-71699145D01*
X164741369Y-71482912D01*
X164508020Y-71308859D01*
X164245199Y-71183675D01*
X164097990Y-71139024D01*
X163868100Y-71260345D01*
X163614100Y-71260345D01*
X163384210Y-71139024D01*
X163237001Y-71183675D01*
X162974180Y-71308859D01*
X162740831Y-71482912D01*
X162545922Y-71699145D01*
X162476301Y-71816023D01*
X162441806Y-71751486D01*
X162256234Y-71525366D01*
X162030114Y-71339794D01*
X161772134Y-71201901D01*
X161492211Y-71116987D01*
X161274050Y-71095500D01*
X161128150Y-71095500D01*
X160909989Y-71116987D01*
X160630066Y-71201901D01*
X160372086Y-71339794D01*
X160145966Y-71525366D01*
X159960394Y-71751486D01*
X159931100Y-71806291D01*
X159901806Y-71751486D01*
X159716234Y-71525366D01*
X159490114Y-71339794D01*
X159232134Y-71201901D01*
X158952211Y-71116987D01*
X158734050Y-71095500D01*
X158588150Y-71095500D01*
X158369989Y-71116987D01*
X158090066Y-71201901D01*
X157832086Y-71339794D01*
X157605966Y-71525366D01*
X157420394Y-71751486D01*
X157391100Y-71806291D01*
X157361806Y-71751486D01*
X157176234Y-71525366D01*
X157011637Y-71390285D01*
X157088438Y-71375008D01*
X157264094Y-71302249D01*
X157422179Y-71196620D01*
X157556620Y-71062179D01*
X157662249Y-70904094D01*
X157735008Y-70728438D01*
X157772100Y-70541964D01*
X157772100Y-70351836D01*
X157748064Y-70231000D01*
X166005328Y-70231000D01*
X165880634Y-70417618D01*
X165880634Y-70417618D01*
G37*
X165880634Y-70417618D02*
X165738539Y-70760666D01*
X165666100Y-71124844D01*
X165666100Y-71496156D01*
X165738539Y-71860334D01*
X165880634Y-72203382D01*
X166086925Y-72512118D01*
X166349482Y-72774675D01*
X166658218Y-72980966D01*
X167001266Y-73123061D01*
X167340307Y-73190500D01*
X165092796Y-73190500D01*
X165182581Y-72937391D01*
X165061914Y-72707500D01*
X163868100Y-72707500D01*
X163868100Y-72727500D01*
X163614100Y-72727500D01*
X163614100Y-72707500D01*
X163594100Y-72707500D01*
X163594100Y-72453500D01*
X163614100Y-72453500D01*
X163614100Y-71260345D01*
X163868100Y-71260345D01*
X163868100Y-72453500D01*
X165061914Y-72453500D01*
X165182581Y-72223609D01*
X165085257Y-71949248D01*
X164936278Y-71699145D01*
X164741369Y-71482912D01*
X164508020Y-71308859D01*
X164245199Y-71183675D01*
X164097990Y-71139024D01*
X163868100Y-71260345D01*
X163614100Y-71260345D01*
X163384210Y-71139024D01*
X163237001Y-71183675D01*
X162974180Y-71308859D01*
X162740831Y-71482912D01*
X162545922Y-71699145D01*
X162476301Y-71816023D01*
X162441806Y-71751486D01*
X162256234Y-71525366D01*
X162030114Y-71339794D01*
X161772134Y-71201901D01*
X161492211Y-71116987D01*
X161274050Y-71095500D01*
X161128150Y-71095500D01*
X160909989Y-71116987D01*
X160630066Y-71201901D01*
X160372086Y-71339794D01*
X160145966Y-71525366D01*
X159960394Y-71751486D01*
X159931100Y-71806291D01*
X159901806Y-71751486D01*
X159716234Y-71525366D01*
X159490114Y-71339794D01*
X159232134Y-71201901D01*
X158952211Y-71116987D01*
X158734050Y-71095500D01*
X158588150Y-71095500D01*
X158369989Y-71116987D01*
X158090066Y-71201901D01*
X157832086Y-71339794D01*
X157605966Y-71525366D01*
X157420394Y-71751486D01*
X157391100Y-71806291D01*
X157361806Y-71751486D01*
X157176234Y-71525366D01*
X157011637Y-71390285D01*
X157088438Y-71375008D01*
X157264094Y-71302249D01*
X157422179Y-71196620D01*
X157556620Y-71062179D01*
X157662249Y-70904094D01*
X157735008Y-70728438D01*
X157772100Y-70541964D01*
X157772100Y-70351836D01*
X157748064Y-70231000D01*
X166005328Y-70231000D01*
X165880634Y-70417618D01*
G36*
X133283695Y-51706744D02*
G01*
X133205674Y-51895102D01*
X133165900Y-52095061D01*
X133165900Y-52298939D01*
X133205674Y-52498898D01*
X133283695Y-52687256D01*
X133396963Y-52856774D01*
X133525115Y-52984926D01*
X133540658Y-53036165D01*
X133606698Y-53159717D01*
X133695573Y-53268011D01*
X133722710Y-53290282D01*
X134297318Y-53864891D01*
X134319589Y-53892028D01*
X134427883Y-53980903D01*
X134551435Y-54046943D01*
X134685496Y-54087610D01*
X134789980Y-54097901D01*
X134789987Y-54097901D01*
X134824916Y-54101341D01*
X134859844Y-54097901D01*
X141386751Y-54097901D01*
X141421677Y-54101341D01*
X141456603Y-54097901D01*
X141456613Y-54097901D01*
X141561097Y-54087610D01*
X141695158Y-54046943D01*
X141818710Y-53980903D01*
X141927004Y-53892028D01*
X141949278Y-53864887D01*
X142438778Y-53375389D01*
X142592086Y-53501206D01*
X142850066Y-53639099D01*
X143129989Y-53724013D01*
X143348150Y-53745500D01*
X143494050Y-53745500D01*
X143712211Y-53724013D01*
X143992134Y-53639099D01*
X144250114Y-53501206D01*
X144476234Y-53315634D01*
X144661806Y-53089514D01*
X144691100Y-53034709D01*
X144720394Y-53089514D01*
X144905966Y-53315634D01*
X145132086Y-53501206D01*
X145390066Y-53639099D01*
X145669989Y-53724013D01*
X145888150Y-53745500D01*
X146034050Y-53745500D01*
X146252211Y-53724013D01*
X146532134Y-53639099D01*
X146790114Y-53501206D01*
X147016234Y-53315634D01*
X147201806Y-53089514D01*
X147231100Y-53034709D01*
X147260394Y-53089514D01*
X147445966Y-53315634D01*
X147672086Y-53501206D01*
X147930066Y-53639099D01*
X148209989Y-53724013D01*
X148428150Y-53745500D01*
X148574050Y-53745500D01*
X148792211Y-53724013D01*
X149072134Y-53639099D01*
X149330114Y-53501206D01*
X149556234Y-53315634D01*
X149741806Y-53089514D01*
X149771100Y-53034709D01*
X149800394Y-53089514D01*
X149985966Y-53315634D01*
X150157002Y-53455999D01*
X150024680Y-53588321D01*
X149919051Y-53746406D01*
X149846292Y-53922062D01*
X149809200Y-54108536D01*
X149809200Y-54298664D01*
X149846292Y-54485138D01*
X149919051Y-54660794D01*
X150024680Y-54818879D01*
X150159121Y-54953320D01*
X150317206Y-55058949D01*
X150492862Y-55131708D01*
X150679336Y-55168800D01*
X150869464Y-55168800D01*
X151055938Y-55131708D01*
X151231594Y-55058949D01*
X151336997Y-54988521D01*
X152090110Y-55741635D01*
X152112376Y-55768766D01*
X152139507Y-55791032D01*
X152139512Y-55791037D01*
X152220670Y-55857641D01*
X152344221Y-55923681D01*
X152478283Y-55964348D01*
X152527000Y-55969146D01*
X152527000Y-59374884D01*
X152469000Y-59288081D01*
X152334559Y-59153640D01*
X152176474Y-59048011D01*
X152059643Y-58999618D01*
X152058108Y-58991902D01*
X151985349Y-58816246D01*
X151879720Y-58658161D01*
X151848034Y-58626475D01*
X151877440Y-58597069D01*
X151904566Y-58574807D01*
X151926828Y-58547681D01*
X151926837Y-58547672D01*
X151993442Y-58466513D01*
X152023650Y-58409998D01*
X152059482Y-58342961D01*
X152100149Y-58208900D01*
X152110440Y-58104416D01*
X152110440Y-58104407D01*
X152111647Y-58092152D01*
X152148960Y-58054839D01*
X152254589Y-57896754D01*
X152327348Y-57721098D01*
X152364440Y-57534624D01*
X152364440Y-57344496D01*
X152327348Y-57158022D01*
X152254589Y-56982366D01*
X152148960Y-56824281D01*
X152014519Y-56689840D01*
X151856434Y-56584211D01*
X151680778Y-56511452D01*
X151494304Y-56474360D01*
X151304176Y-56474360D01*
X151117702Y-56511452D01*
X150942046Y-56584211D01*
X150897386Y-56614052D01*
X150796858Y-56572412D01*
X150610384Y-56535320D01*
X150420256Y-56535320D01*
X150233782Y-56572412D01*
X150058126Y-56645171D01*
X149900041Y-56750800D01*
X149765600Y-56885241D01*
X149659971Y-57043326D01*
X149587212Y-57218982D01*
X149550120Y-57405456D01*
X149550120Y-57595584D01*
X149587212Y-57782058D01*
X149659971Y-57957714D01*
X149765600Y-58115799D01*
X149788824Y-58139023D01*
X149384046Y-58543801D01*
X147047918Y-58543801D01*
X146965349Y-58476038D01*
X146841797Y-58409998D01*
X146707736Y-58369331D01*
X146635894Y-58362255D01*
X146594159Y-58320520D01*
X146436074Y-58214891D01*
X146260418Y-58142132D01*
X146073944Y-58105040D01*
X145883816Y-58105040D01*
X145697342Y-58142132D01*
X145521686Y-58214891D01*
X145363601Y-58320520D01*
X145229160Y-58454961D01*
X145123531Y-58613046D01*
X145050772Y-58788702D01*
X145013680Y-58975176D01*
X145013680Y-59165304D01*
X145050772Y-59351778D01*
X145123531Y-59527434D01*
X145229160Y-59685519D01*
X145363601Y-59819960D01*
X145409920Y-59850909D01*
X145409920Y-59937464D01*
X145447012Y-60123938D01*
X145519771Y-60299594D01*
X145625400Y-60457679D01*
X145759841Y-60592120D01*
X145824049Y-60635023D01*
X145816478Y-60644248D01*
X145750438Y-60767800D01*
X145709771Y-60901861D01*
X145699480Y-61006345D01*
X145699480Y-61006354D01*
X145696040Y-61041280D01*
X145699480Y-61076206D01*
X145699481Y-62449960D01*
X145660960Y-62488481D01*
X145555331Y-62646566D01*
X145482572Y-62822222D01*
X145445480Y-63008696D01*
X145445480Y-63198824D01*
X145482572Y-63385298D01*
X145555331Y-63560954D01*
X145660960Y-63719039D01*
X145795401Y-63853480D01*
X145953486Y-63959109D01*
X146129142Y-64031868D01*
X146315616Y-64068960D01*
X146505744Y-64068960D01*
X146692218Y-64031868D01*
X146867874Y-63959109D01*
X147025959Y-63853480D01*
X147160400Y-63719039D01*
X147266029Y-63560954D01*
X147338788Y-63385298D01*
X147375880Y-63198824D01*
X147375880Y-63008696D01*
X147338788Y-62822222D01*
X147266029Y-62646566D01*
X147160400Y-62488481D01*
X147121880Y-62449961D01*
X147121880Y-62314160D01*
X147235096Y-62336680D01*
X147236838Y-62336680D01*
X147332280Y-62479519D01*
X147466721Y-62613960D01*
X147624806Y-62719589D01*
X147800462Y-62792348D01*
X147986936Y-62829440D01*
X148177064Y-62829440D01*
X148363538Y-62792348D01*
X148539194Y-62719589D01*
X148697279Y-62613960D01*
X148831720Y-62479519D01*
X148937349Y-62321434D01*
X149010108Y-62145778D01*
X149047200Y-61959304D01*
X149047200Y-61862359D01*
X151635435Y-61862359D01*
X151670361Y-61865799D01*
X151705287Y-61862359D01*
X151705297Y-61862359D01*
X151809781Y-61852068D01*
X151943842Y-61811401D01*
X152067394Y-61745361D01*
X152175688Y-61656486D01*
X152197962Y-61629345D01*
X152496468Y-61330840D01*
X152527000Y-61330840D01*
X152527000Y-69855080D01*
X152480336Y-69855080D01*
X152465638Y-69848992D01*
X152279164Y-69811900D01*
X152089036Y-69811900D01*
X151902562Y-69848992D01*
X151726906Y-69921751D01*
X151568821Y-70027380D01*
X151434380Y-70161821D01*
X151328751Y-70319906D01*
X151255992Y-70495562D01*
X151218900Y-70682036D01*
X151218900Y-70872164D01*
X151255992Y-71058638D01*
X151277947Y-71111642D01*
X151114050Y-71095500D01*
X150968150Y-71095500D01*
X150749989Y-71116987D01*
X150470066Y-71201901D01*
X150212086Y-71339794D01*
X149985966Y-71525366D01*
X149800394Y-71751486D01*
X149771100Y-71806291D01*
X149741806Y-71751486D01*
X149556234Y-71525366D01*
X149330114Y-71339794D01*
X149072134Y-71201901D01*
X148792211Y-71116987D01*
X148574050Y-71095500D01*
X148428150Y-71095500D01*
X148209989Y-71116987D01*
X147930066Y-71201901D01*
X147672086Y-71339794D01*
X147445966Y-71525366D01*
X147260394Y-71751486D01*
X147231100Y-71806291D01*
X147201806Y-71751486D01*
X147016234Y-71525366D01*
X146790114Y-71339794D01*
X146532134Y-71201901D01*
X146252211Y-71116987D01*
X146034050Y-71095500D01*
X145888150Y-71095500D01*
X145669989Y-71116987D01*
X145390066Y-71201901D01*
X145132086Y-71339794D01*
X144905966Y-71525366D01*
X144720394Y-71751486D01*
X144691100Y-71806291D01*
X144661806Y-71751486D01*
X144476234Y-71525366D01*
X144250114Y-71339794D01*
X143992134Y-71201901D01*
X143712211Y-71116987D01*
X143494050Y-71095500D01*
X143348150Y-71095500D01*
X143129989Y-71116987D01*
X142850066Y-71201901D01*
X142592086Y-71339794D01*
X142365966Y-71525366D01*
X142180394Y-71751486D01*
X142151100Y-71806291D01*
X142121806Y-71751486D01*
X141936234Y-71525366D01*
X141710114Y-71339794D01*
X141452134Y-71201901D01*
X141172211Y-71116987D01*
X140954050Y-71095500D01*
X140808150Y-71095500D01*
X140589989Y-71116987D01*
X140310066Y-71201901D01*
X140052086Y-71339794D01*
X139825966Y-71525366D01*
X139640394Y-71751486D01*
X139611100Y-71806291D01*
X139581806Y-71751486D01*
X139396234Y-71525366D01*
X139170114Y-71339794D01*
X138912134Y-71201901D01*
X138632211Y-71116987D01*
X138414050Y-71095500D01*
X138268150Y-71095500D01*
X138049989Y-71116987D01*
X137770066Y-71201901D01*
X137512086Y-71339794D01*
X137285966Y-71525366D01*
X137100394Y-71751486D01*
X137071100Y-71806291D01*
X137041806Y-71751486D01*
X136856234Y-71525366D01*
X136630114Y-71339794D01*
X136372134Y-71201901D01*
X136092211Y-71116987D01*
X135874050Y-71095500D01*
X135728150Y-71095500D01*
X135509989Y-71116987D01*
X135230066Y-71201901D01*
X134972086Y-71339794D01*
X134745966Y-71525366D01*
X134560394Y-71751486D01*
X134525899Y-71816023D01*
X134456278Y-71699145D01*
X134261369Y-71482912D01*
X134028020Y-71308859D01*
X133765199Y-71183675D01*
X133617990Y-71139024D01*
X133388100Y-71260345D01*
X133388100Y-72453500D01*
X133408100Y-72453500D01*
X133408100Y-72707500D01*
X133388100Y-72707500D01*
X133388100Y-72727500D01*
X133134100Y-72727500D01*
X133134100Y-72707500D01*
X133114100Y-72707500D01*
X133114100Y-72453500D01*
X133134100Y-72453500D01*
X133134100Y-71260345D01*
X132904210Y-71139024D01*
X132757001Y-71183675D01*
X132494180Y-71308859D01*
X132260831Y-71482912D01*
X132065922Y-71699145D01*
X131996301Y-71816023D01*
X131961806Y-71751486D01*
X131776234Y-71525366D01*
X131550114Y-71339794D01*
X131292134Y-71201901D01*
X131012211Y-71116987D01*
X130794050Y-71095500D01*
X130648150Y-71095500D01*
X130429989Y-71116987D01*
X130150066Y-71201901D01*
X129892086Y-71339794D01*
X129665966Y-71525366D01*
X129480394Y-71751486D01*
X129451100Y-71806291D01*
X129421806Y-71751486D01*
X129236234Y-71525366D01*
X129231503Y-71521483D01*
X129362194Y-71467349D01*
X129520279Y-71361720D01*
X129654720Y-71227279D01*
X129760349Y-71069194D01*
X129833108Y-70893538D01*
X129870200Y-70707064D01*
X129870200Y-70652588D01*
X129964787Y-70558001D01*
X131489471Y-70558001D01*
X131524397Y-70561441D01*
X131559323Y-70558001D01*
X131559333Y-70558001D01*
X131663817Y-70547710D01*
X131797878Y-70507043D01*
X131921430Y-70441003D01*
X132029724Y-70352128D01*
X132051998Y-70324987D01*
X132425387Y-69951599D01*
X132479863Y-69951599D01*
X132666337Y-69914507D01*
X132841993Y-69841748D01*
X133000078Y-69736119D01*
X133134519Y-69601678D01*
X133240148Y-69443593D01*
X133312907Y-69267937D01*
X133349999Y-69081463D01*
X133349999Y-68891335D01*
X133312907Y-68704861D01*
X133240148Y-68529205D01*
X133134519Y-68371120D01*
X133000078Y-68236679D01*
X132841993Y-68131050D01*
X132666337Y-68058291D01*
X132479863Y-68021199D01*
X132289735Y-68021199D01*
X132103261Y-68058291D01*
X131927605Y-68131050D01*
X131769520Y-68236679D01*
X131635079Y-68371120D01*
X131529450Y-68529205D01*
X131456691Y-68704861D01*
X131419599Y-68891335D01*
X131419599Y-68945811D01*
X131229809Y-69135601D01*
X129705127Y-69135601D01*
X129670199Y-69132161D01*
X129635270Y-69135601D01*
X129635263Y-69135601D01*
X129530779Y-69145892D01*
X129396717Y-69186559D01*
X129312540Y-69231553D01*
X129273166Y-69252599D01*
X129164872Y-69341474D01*
X129142601Y-69368611D01*
X128864412Y-69646800D01*
X128809936Y-69646800D01*
X128623462Y-69683892D01*
X128447806Y-69756651D01*
X128289721Y-69862280D01*
X128155280Y-69996721D01*
X128049651Y-70154806D01*
X127976892Y-70330462D01*
X127939800Y-70516936D01*
X127939800Y-70707064D01*
X127976892Y-70893538D01*
X128049651Y-71069194D01*
X128069755Y-71099282D01*
X127889989Y-71116987D01*
X127610066Y-71201901D01*
X127352086Y-71339794D01*
X127125966Y-71525366D01*
X127101493Y-71555187D01*
X127080602Y-71486320D01*
X127021637Y-71376006D01*
X126942285Y-71279315D01*
X126845594Y-71199963D01*
X126735280Y-71140998D01*
X126732529Y-71140163D01*
X126762312Y-71041982D01*
X126774572Y-70917500D01*
X126774572Y-69417500D01*
X126762312Y-69293018D01*
X126726002Y-69173320D01*
X126683791Y-69094350D01*
X126726002Y-69015380D01*
X126762312Y-68895682D01*
X126774572Y-68771200D01*
X126774572Y-67271200D01*
X126762312Y-67146718D01*
X126726002Y-67027020D01*
X126667037Y-66916706D01*
X126587685Y-66820015D01*
X126490994Y-66740663D01*
X126380680Y-66681698D01*
X126260982Y-66645388D01*
X126136500Y-66633128D01*
X125636500Y-66633128D01*
X125612050Y-66635536D01*
X125587491Y-66635536D01*
X125463010Y-66647796D01*
X125366877Y-66666918D01*
X125247181Y-66703227D01*
X125156625Y-66740736D01*
X125046308Y-66799702D01*
X124964809Y-66854158D01*
X124868118Y-66933510D01*
X124798810Y-67002818D01*
X124719458Y-67099509D01*
X124665002Y-67181008D01*
X124606036Y-67291325D01*
X124599227Y-67307764D01*
X124587000Y-67306560D01*
X124552071Y-67310000D01*
X124552064Y-67310000D01*
X124447580Y-67320291D01*
X124313518Y-67360958D01*
X124189967Y-67426998D01*
X124108809Y-67493602D01*
X124108804Y-67493607D01*
X124081673Y-67515873D01*
X124059407Y-67543005D01*
X123962211Y-67640200D01*
X123907736Y-67640200D01*
X123721262Y-67677292D01*
X123545606Y-67750051D01*
X123387521Y-67855680D01*
X123253080Y-67990121D01*
X123147451Y-68148206D01*
X123074692Y-68323862D01*
X123037600Y-68510336D01*
X123037600Y-68700464D01*
X123074692Y-68886938D01*
X123147451Y-69062594D01*
X123242384Y-69204671D01*
X123031873Y-69064012D01*
X122570532Y-68872918D01*
X122080776Y-68775500D01*
X121581424Y-68775500D01*
X121091668Y-68872918D01*
X120630327Y-69064012D01*
X120215132Y-69341437D01*
X119951100Y-69605469D01*
X119951100Y-55235531D01*
X120215132Y-55499563D01*
X120630327Y-55776988D01*
X121091668Y-55968082D01*
X121581424Y-56065500D01*
X122080776Y-56065500D01*
X122570532Y-55968082D01*
X123031873Y-55776988D01*
X123447068Y-55499563D01*
X123800163Y-55146468D01*
X124077588Y-54731273D01*
X124268682Y-54269932D01*
X124269973Y-54263438D01*
X130695700Y-54263438D01*
X130695700Y-54448562D01*
X130731816Y-54630129D01*
X130802660Y-54801162D01*
X130905510Y-54955087D01*
X131036413Y-55085990D01*
X131190338Y-55188840D01*
X131361371Y-55259684D01*
X131542938Y-55295800D01*
X131728062Y-55295800D01*
X131909629Y-55259684D01*
X131969510Y-55234880D01*
X132321324Y-55586695D01*
X132343590Y-55613826D01*
X132370721Y-55636092D01*
X132370725Y-55636096D01*
X132444062Y-55696282D01*
X132451884Y-55702701D01*
X132575436Y-55768741D01*
X132709497Y-55809408D01*
X132813981Y-55819699D01*
X132813990Y-55819699D01*
X132848916Y-55823139D01*
X132883842Y-55819699D01*
X133515100Y-55819699D01*
X133515100Y-55820162D01*
X133551216Y-56001729D01*
X133622060Y-56172762D01*
X133724910Y-56326687D01*
X133855813Y-56457590D01*
X134009738Y-56560440D01*
X134180771Y-56631284D01*
X134362338Y-56667400D01*
X134547462Y-56667400D01*
X134729029Y-56631284D01*
X134900062Y-56560440D01*
X135053987Y-56457590D01*
X135184890Y-56326687D01*
X135205001Y-56296589D01*
X135205000Y-68546353D01*
X135201686Y-68580000D01*
X135214912Y-68714283D01*
X135254081Y-68843406D01*
X135317688Y-68962407D01*
X135403289Y-69066711D01*
X135488524Y-69136662D01*
X135507593Y-69152312D01*
X135626594Y-69215919D01*
X135755717Y-69255088D01*
X135890000Y-69268314D01*
X135923647Y-69265000D01*
X137037453Y-69265000D01*
X137071100Y-69268314D01*
X137205383Y-69255088D01*
X137334506Y-69215919D01*
X137453507Y-69152312D01*
X137557811Y-69066711D01*
X137643412Y-68962407D01*
X137707019Y-68843406D01*
X137746188Y-68714283D01*
X137746905Y-68707000D01*
X138370188Y-68707000D01*
X138341100Y-68853236D01*
X138341100Y-68973584D01*
X138246521Y-69036780D01*
X138112080Y-69171221D01*
X138006451Y-69329306D01*
X137933692Y-69504962D01*
X137896600Y-69691436D01*
X137896600Y-69881564D01*
X137933692Y-70068038D01*
X138006451Y-70243694D01*
X138112080Y-70401779D01*
X138246521Y-70536220D01*
X138404606Y-70641849D01*
X138580262Y-70714608D01*
X138766736Y-70751700D01*
X138956864Y-70751700D01*
X139143338Y-70714608D01*
X139318994Y-70641849D01*
X139477079Y-70536220D01*
X139534989Y-70478310D01*
X139639055Y-70446742D01*
X139762607Y-70380702D01*
X139870901Y-70291827D01*
X139893175Y-70264686D01*
X139923662Y-70234199D01*
X140013986Y-70234199D01*
X140406387Y-70626601D01*
X140428658Y-70653738D01*
X140536952Y-70742613D01*
X140660504Y-70808653D01*
X140794565Y-70849320D01*
X140899049Y-70859611D01*
X140899058Y-70859611D01*
X140933984Y-70863051D01*
X140968910Y-70859611D01*
X145652018Y-70859611D01*
X145686946Y-70863051D01*
X145721872Y-70859611D01*
X145721882Y-70859611D01*
X145826366Y-70849320D01*
X145960427Y-70808653D01*
X146083979Y-70742613D01*
X146192273Y-70653738D01*
X146214543Y-70626602D01*
X146877986Y-69963159D01*
X146958482Y-69938741D01*
X147005705Y-69913500D01*
X147110264Y-69913500D01*
X147296738Y-69876408D01*
X147472394Y-69803649D01*
X147630479Y-69698020D01*
X147764920Y-69563579D01*
X147870549Y-69405494D01*
X147943308Y-69229838D01*
X147980400Y-69043364D01*
X147980400Y-68853236D01*
X147943308Y-68666762D01*
X147870549Y-68491106D01*
X147764920Y-68333021D01*
X147630479Y-68198580D01*
X147472394Y-68092951D01*
X147296738Y-68020192D01*
X147110264Y-67983100D01*
X146960302Y-67983100D01*
X146888620Y-67875821D01*
X146754179Y-67741380D01*
X146596094Y-67635751D01*
X146420438Y-67562992D01*
X146233964Y-67525900D01*
X146043836Y-67525900D01*
X145857362Y-67562992D01*
X145681706Y-67635751D01*
X145523621Y-67741380D01*
X145389180Y-67875821D01*
X145283551Y-68033906D01*
X145210792Y-68209562D01*
X145173700Y-68396036D01*
X145173700Y-68586164D01*
X145210792Y-68772638D01*
X145283551Y-68948294D01*
X145323341Y-69007845D01*
X145246385Y-69084801D01*
X145233727Y-69084801D01*
X145121207Y-69024658D01*
X144998440Y-68987417D01*
X144998440Y-68615560D01*
X144996000Y-68590784D01*
X144988773Y-68566959D01*
X144977037Y-68545003D01*
X144961243Y-68525757D01*
X144941997Y-68509963D01*
X144920041Y-68498227D01*
X144896216Y-68491000D01*
X144871440Y-68488560D01*
X144529798Y-68488560D01*
X144577719Y-68398906D01*
X144616888Y-68269783D01*
X144630114Y-68135500D01*
X144626800Y-68101853D01*
X144626800Y-56955047D01*
X144630114Y-56921400D01*
X144616888Y-56787117D01*
X144607540Y-56756300D01*
X144872074Y-56756300D01*
X144907000Y-56759740D01*
X144941926Y-56756300D01*
X144941936Y-56756300D01*
X145046420Y-56746009D01*
X145096228Y-56730900D01*
X145253562Y-56730900D01*
X145435129Y-56694784D01*
X145606162Y-56623940D01*
X145760087Y-56521090D01*
X145890990Y-56390187D01*
X145993840Y-56236262D01*
X146064684Y-56065229D01*
X146100800Y-55883662D01*
X146100800Y-55698538D01*
X146064684Y-55516971D01*
X146042823Y-55464194D01*
X146070040Y-55423462D01*
X146140884Y-55252429D01*
X146177000Y-55070862D01*
X146177000Y-54885738D01*
X146140884Y-54704171D01*
X146070040Y-54533138D01*
X145967190Y-54379213D01*
X145836287Y-54248310D01*
X145682362Y-54145460D01*
X145511329Y-54074616D01*
X145329762Y-54038500D01*
X145144638Y-54038500D01*
X144963071Y-54074616D01*
X144792038Y-54145460D01*
X144638113Y-54248310D01*
X144507210Y-54379213D01*
X144404360Y-54533138D01*
X144333516Y-54704171D01*
X144321413Y-54765017D01*
X144104941Y-54981490D01*
X141954370Y-54981490D01*
X141935726Y-54958772D01*
X141827432Y-54869897D01*
X141703880Y-54803857D01*
X141569819Y-54763190D01*
X141465335Y-54752899D01*
X141465325Y-54752899D01*
X141430399Y-54749459D01*
X141395473Y-54752899D01*
X140774945Y-54752899D01*
X140609129Y-54684216D01*
X140427562Y-54648100D01*
X140242438Y-54648100D01*
X140060871Y-54684216D01*
X139889838Y-54755060D01*
X139735913Y-54857910D01*
X139605010Y-54988813D01*
X139502160Y-55142738D01*
X139431316Y-55313771D01*
X139429838Y-55321200D01*
X137558871Y-55321200D01*
X137542407Y-55307688D01*
X137423406Y-55244081D01*
X137294283Y-55204912D01*
X137193647Y-55195000D01*
X137160000Y-55191686D01*
X137126353Y-55195000D01*
X135923647Y-55195000D01*
X135890000Y-55191686D01*
X135856353Y-55195000D01*
X135755717Y-55204912D01*
X135626594Y-55244081D01*
X135507593Y-55307688D01*
X135403289Y-55393289D01*
X135357012Y-55449677D01*
X135287740Y-55282438D01*
X135184890Y-55128513D01*
X135053987Y-54997610D01*
X134900062Y-54894760D01*
X134729029Y-54823916D01*
X134547462Y-54787800D01*
X134520887Y-54787800D01*
X134363401Y-54630314D01*
X134341126Y-54603172D01*
X134232832Y-54514297D01*
X134109280Y-54448257D01*
X133975219Y-54407590D01*
X133870735Y-54397299D01*
X133870725Y-54397299D01*
X133835799Y-54393859D01*
X133800873Y-54397299D01*
X133143505Y-54397299D01*
X132624019Y-53877814D01*
X132601745Y-53850673D01*
X132493451Y-53761798D01*
X132369899Y-53695758D01*
X132275786Y-53667209D01*
X132234587Y-53626010D01*
X132080662Y-53523160D01*
X131909629Y-53452316D01*
X131728062Y-53416200D01*
X131542938Y-53416200D01*
X131361371Y-53452316D01*
X131190338Y-53523160D01*
X131036413Y-53626010D01*
X130905510Y-53756913D01*
X130802660Y-53910838D01*
X130731816Y-54081871D01*
X130695700Y-54263438D01*
X124269973Y-54263438D01*
X124366100Y-53780176D01*
X124366100Y-53280824D01*
X124268682Y-52791068D01*
X124077588Y-52329727D01*
X123800163Y-51914532D01*
X123536131Y-51650500D01*
X133321276Y-51650500D01*
X133283695Y-51706744D01*
X133283695Y-51706744D01*
G37*
X133283695Y-51706744D02*
X133205674Y-51895102D01*
X133165900Y-52095061D01*
X133165900Y-52298939D01*
X133205674Y-52498898D01*
X133283695Y-52687256D01*
X133396963Y-52856774D01*
X133525115Y-52984926D01*
X133540658Y-53036165D01*
X133606698Y-53159717D01*
X133695573Y-53268011D01*
X133722710Y-53290282D01*
X134297318Y-53864891D01*
X134319589Y-53892028D01*
X134427883Y-53980903D01*
X134551435Y-54046943D01*
X134685496Y-54087610D01*
X134789980Y-54097901D01*
X134789987Y-54097901D01*
X134824916Y-54101341D01*
X134859844Y-54097901D01*
X141386751Y-54097901D01*
X141421677Y-54101341D01*
X141456603Y-54097901D01*
X141456613Y-54097901D01*
X141561097Y-54087610D01*
X141695158Y-54046943D01*
X141818710Y-53980903D01*
X141927004Y-53892028D01*
X141949278Y-53864887D01*
X142438778Y-53375389D01*
X142592086Y-53501206D01*
X142850066Y-53639099D01*
X143129989Y-53724013D01*
X143348150Y-53745500D01*
X143494050Y-53745500D01*
X143712211Y-53724013D01*
X143992134Y-53639099D01*
X144250114Y-53501206D01*
X144476234Y-53315634D01*
X144661806Y-53089514D01*
X144691100Y-53034709D01*
X144720394Y-53089514D01*
X144905966Y-53315634D01*
X145132086Y-53501206D01*
X145390066Y-53639099D01*
X145669989Y-53724013D01*
X145888150Y-53745500D01*
X146034050Y-53745500D01*
X146252211Y-53724013D01*
X146532134Y-53639099D01*
X146790114Y-53501206D01*
X147016234Y-53315634D01*
X147201806Y-53089514D01*
X147231100Y-53034709D01*
X147260394Y-53089514D01*
X147445966Y-53315634D01*
X147672086Y-53501206D01*
X147930066Y-53639099D01*
X148209989Y-53724013D01*
X148428150Y-53745500D01*
X148574050Y-53745500D01*
X148792211Y-53724013D01*
X149072134Y-53639099D01*
X149330114Y-53501206D01*
X149556234Y-53315634D01*
X149741806Y-53089514D01*
X149771100Y-53034709D01*
X149800394Y-53089514D01*
X149985966Y-53315634D01*
X150157002Y-53455999D01*
X150024680Y-53588321D01*
X149919051Y-53746406D01*
X149846292Y-53922062D01*
X149809200Y-54108536D01*
X149809200Y-54298664D01*
X149846292Y-54485138D01*
X149919051Y-54660794D01*
X150024680Y-54818879D01*
X150159121Y-54953320D01*
X150317206Y-55058949D01*
X150492862Y-55131708D01*
X150679336Y-55168800D01*
X150869464Y-55168800D01*
X151055938Y-55131708D01*
X151231594Y-55058949D01*
X151336997Y-54988521D01*
X152090110Y-55741635D01*
X152112376Y-55768766D01*
X152139507Y-55791032D01*
X152139512Y-55791037D01*
X152220670Y-55857641D01*
X152344221Y-55923681D01*
X152478283Y-55964348D01*
X152527000Y-55969146D01*
X152527000Y-59374884D01*
X152469000Y-59288081D01*
X152334559Y-59153640D01*
X152176474Y-59048011D01*
X152059643Y-58999618D01*
X152058108Y-58991902D01*
X151985349Y-58816246D01*
X151879720Y-58658161D01*
X151848034Y-58626475D01*
X151877440Y-58597069D01*
X151904566Y-58574807D01*
X151926828Y-58547681D01*
X151926837Y-58547672D01*
X151993442Y-58466513D01*
X152023650Y-58409998D01*
X152059482Y-58342961D01*
X152100149Y-58208900D01*
X152110440Y-58104416D01*
X152110440Y-58104407D01*
X152111647Y-58092152D01*
X152148960Y-58054839D01*
X152254589Y-57896754D01*
X152327348Y-57721098D01*
X152364440Y-57534624D01*
X152364440Y-57344496D01*
X152327348Y-57158022D01*
X152254589Y-56982366D01*
X152148960Y-56824281D01*
X152014519Y-56689840D01*
X151856434Y-56584211D01*
X151680778Y-56511452D01*
X151494304Y-56474360D01*
X151304176Y-56474360D01*
X151117702Y-56511452D01*
X150942046Y-56584211D01*
X150897386Y-56614052D01*
X150796858Y-56572412D01*
X150610384Y-56535320D01*
X150420256Y-56535320D01*
X150233782Y-56572412D01*
X150058126Y-56645171D01*
X149900041Y-56750800D01*
X149765600Y-56885241D01*
X149659971Y-57043326D01*
X149587212Y-57218982D01*
X149550120Y-57405456D01*
X149550120Y-57595584D01*
X149587212Y-57782058D01*
X149659971Y-57957714D01*
X149765600Y-58115799D01*
X149788824Y-58139023D01*
X149384046Y-58543801D01*
X147047918Y-58543801D01*
X146965349Y-58476038D01*
X146841797Y-58409998D01*
X146707736Y-58369331D01*
X146635894Y-58362255D01*
X146594159Y-58320520D01*
X146436074Y-58214891D01*
X146260418Y-58142132D01*
X146073944Y-58105040D01*
X145883816Y-58105040D01*
X145697342Y-58142132D01*
X145521686Y-58214891D01*
X145363601Y-58320520D01*
X145229160Y-58454961D01*
X145123531Y-58613046D01*
X145050772Y-58788702D01*
X145013680Y-58975176D01*
X145013680Y-59165304D01*
X145050772Y-59351778D01*
X145123531Y-59527434D01*
X145229160Y-59685519D01*
X145363601Y-59819960D01*
X145409920Y-59850909D01*
X145409920Y-59937464D01*
X145447012Y-60123938D01*
X145519771Y-60299594D01*
X145625400Y-60457679D01*
X145759841Y-60592120D01*
X145824049Y-60635023D01*
X145816478Y-60644248D01*
X145750438Y-60767800D01*
X145709771Y-60901861D01*
X145699480Y-61006345D01*
X145699480Y-61006354D01*
X145696040Y-61041280D01*
X145699480Y-61076206D01*
X145699481Y-62449960D01*
X145660960Y-62488481D01*
X145555331Y-62646566D01*
X145482572Y-62822222D01*
X145445480Y-63008696D01*
X145445480Y-63198824D01*
X145482572Y-63385298D01*
X145555331Y-63560954D01*
X145660960Y-63719039D01*
X145795401Y-63853480D01*
X145953486Y-63959109D01*
X146129142Y-64031868D01*
X146315616Y-64068960D01*
X146505744Y-64068960D01*
X146692218Y-64031868D01*
X146867874Y-63959109D01*
X147025959Y-63853480D01*
X147160400Y-63719039D01*
X147266029Y-63560954D01*
X147338788Y-63385298D01*
X147375880Y-63198824D01*
X147375880Y-63008696D01*
X147338788Y-62822222D01*
X147266029Y-62646566D01*
X147160400Y-62488481D01*
X147121880Y-62449961D01*
X147121880Y-62314160D01*
X147235096Y-62336680D01*
X147236838Y-62336680D01*
X147332280Y-62479519D01*
X147466721Y-62613960D01*
X147624806Y-62719589D01*
X147800462Y-62792348D01*
X147986936Y-62829440D01*
X148177064Y-62829440D01*
X148363538Y-62792348D01*
X148539194Y-62719589D01*
X148697279Y-62613960D01*
X148831720Y-62479519D01*
X148937349Y-62321434D01*
X149010108Y-62145778D01*
X149047200Y-61959304D01*
X149047200Y-61862359D01*
X151635435Y-61862359D01*
X151670361Y-61865799D01*
X151705287Y-61862359D01*
X151705297Y-61862359D01*
X151809781Y-61852068D01*
X151943842Y-61811401D01*
X152067394Y-61745361D01*
X152175688Y-61656486D01*
X152197962Y-61629345D01*
X152496468Y-61330840D01*
X152527000Y-61330840D01*
X152527000Y-69855080D01*
X152480336Y-69855080D01*
X152465638Y-69848992D01*
X152279164Y-69811900D01*
X152089036Y-69811900D01*
X151902562Y-69848992D01*
X151726906Y-69921751D01*
X151568821Y-70027380D01*
X151434380Y-70161821D01*
X151328751Y-70319906D01*
X151255992Y-70495562D01*
X151218900Y-70682036D01*
X151218900Y-70872164D01*
X151255992Y-71058638D01*
X151277947Y-71111642D01*
X151114050Y-71095500D01*
X150968150Y-71095500D01*
X150749989Y-71116987D01*
X150470066Y-71201901D01*
X150212086Y-71339794D01*
X149985966Y-71525366D01*
X149800394Y-71751486D01*
X149771100Y-71806291D01*
X149741806Y-71751486D01*
X149556234Y-71525366D01*
X149330114Y-71339794D01*
X149072134Y-71201901D01*
X148792211Y-71116987D01*
X148574050Y-71095500D01*
X148428150Y-71095500D01*
X148209989Y-71116987D01*
X147930066Y-71201901D01*
X147672086Y-71339794D01*
X147445966Y-71525366D01*
X147260394Y-71751486D01*
X147231100Y-71806291D01*
X147201806Y-71751486D01*
X147016234Y-71525366D01*
X146790114Y-71339794D01*
X146532134Y-71201901D01*
X146252211Y-71116987D01*
X146034050Y-71095500D01*
X145888150Y-71095500D01*
X145669989Y-71116987D01*
X145390066Y-71201901D01*
X145132086Y-71339794D01*
X144905966Y-71525366D01*
X144720394Y-71751486D01*
X144691100Y-71806291D01*
X144661806Y-71751486D01*
X144476234Y-71525366D01*
X144250114Y-71339794D01*
X143992134Y-71201901D01*
X143712211Y-71116987D01*
X143494050Y-71095500D01*
X143348150Y-71095500D01*
X143129989Y-71116987D01*
X142850066Y-71201901D01*
X142592086Y-71339794D01*
X142365966Y-71525366D01*
X142180394Y-71751486D01*
X142151100Y-71806291D01*
X142121806Y-71751486D01*
X141936234Y-71525366D01*
X141710114Y-71339794D01*
X141452134Y-71201901D01*
X141172211Y-71116987D01*
X140954050Y-71095500D01*
X140808150Y-71095500D01*
X140589989Y-71116987D01*
X140310066Y-71201901D01*
X140052086Y-71339794D01*
X139825966Y-71525366D01*
X139640394Y-71751486D01*
X139611100Y-71806291D01*
X139581806Y-71751486D01*
X139396234Y-71525366D01*
X139170114Y-71339794D01*
X138912134Y-71201901D01*
X138632211Y-71116987D01*
X138414050Y-71095500D01*
X138268150Y-71095500D01*
X138049989Y-71116987D01*
X137770066Y-71201901D01*
X137512086Y-71339794D01*
X137285966Y-71525366D01*
X137100394Y-71751486D01*
X137071100Y-71806291D01*
X137041806Y-71751486D01*
X136856234Y-71525366D01*
X136630114Y-71339794D01*
X136372134Y-71201901D01*
X136092211Y-71116987D01*
X135874050Y-71095500D01*
X135728150Y-71095500D01*
X135509989Y-71116987D01*
X135230066Y-71201901D01*
X134972086Y-71339794D01*
X134745966Y-71525366D01*
X134560394Y-71751486D01*
X134525899Y-71816023D01*
X134456278Y-71699145D01*
X134261369Y-71482912D01*
X134028020Y-71308859D01*
X133765199Y-71183675D01*
X133617990Y-71139024D01*
X133388100Y-71260345D01*
X133388100Y-72453500D01*
X133408100Y-72453500D01*
X133408100Y-72707500D01*
X133388100Y-72707500D01*
X133388100Y-72727500D01*
X133134100Y-72727500D01*
X133134100Y-72707500D01*
X133114100Y-72707500D01*
X133114100Y-72453500D01*
X133134100Y-72453500D01*
X133134100Y-71260345D01*
X132904210Y-71139024D01*
X132757001Y-71183675D01*
X132494180Y-71308859D01*
X132260831Y-71482912D01*
X132065922Y-71699145D01*
X131996301Y-71816023D01*
X131961806Y-71751486D01*
X131776234Y-71525366D01*
X131550114Y-71339794D01*
X131292134Y-71201901D01*
X131012211Y-71116987D01*
X130794050Y-71095500D01*
X130648150Y-71095500D01*
X130429989Y-71116987D01*
X130150066Y-71201901D01*
X129892086Y-71339794D01*
X129665966Y-71525366D01*
X129480394Y-71751486D01*
X129451100Y-71806291D01*
X129421806Y-71751486D01*
X129236234Y-71525366D01*
X129231503Y-71521483D01*
X129362194Y-71467349D01*
X129520279Y-71361720D01*
X129654720Y-71227279D01*
X129760349Y-71069194D01*
X129833108Y-70893538D01*
X129870200Y-70707064D01*
X129870200Y-70652588D01*
X129964787Y-70558001D01*
X131489471Y-70558001D01*
X131524397Y-70561441D01*
X131559323Y-70558001D01*
X131559333Y-70558001D01*
X131663817Y-70547710D01*
X131797878Y-70507043D01*
X131921430Y-70441003D01*
X132029724Y-70352128D01*
X132051998Y-70324987D01*
X132425387Y-69951599D01*
X132479863Y-69951599D01*
X132666337Y-69914507D01*
X132841993Y-69841748D01*
X133000078Y-69736119D01*
X133134519Y-69601678D01*
X133240148Y-69443593D01*
X133312907Y-69267937D01*
X133349999Y-69081463D01*
X133349999Y-68891335D01*
X133312907Y-68704861D01*
X133240148Y-68529205D01*
X133134519Y-68371120D01*
X133000078Y-68236679D01*
X132841993Y-68131050D01*
X132666337Y-68058291D01*
X132479863Y-68021199D01*
X132289735Y-68021199D01*
X132103261Y-68058291D01*
X131927605Y-68131050D01*
X131769520Y-68236679D01*
X131635079Y-68371120D01*
X131529450Y-68529205D01*
X131456691Y-68704861D01*
X131419599Y-68891335D01*
X131419599Y-68945811D01*
X131229809Y-69135601D01*
X129705127Y-69135601D01*
X129670199Y-69132161D01*
X129635270Y-69135601D01*
X129635263Y-69135601D01*
X129530779Y-69145892D01*
X129396717Y-69186559D01*
X129312540Y-69231553D01*
X129273166Y-69252599D01*
X129164872Y-69341474D01*
X129142601Y-69368611D01*
X128864412Y-69646800D01*
X128809936Y-69646800D01*
X128623462Y-69683892D01*
X128447806Y-69756651D01*
X128289721Y-69862280D01*
X128155280Y-69996721D01*
X128049651Y-70154806D01*
X127976892Y-70330462D01*
X127939800Y-70516936D01*
X127939800Y-70707064D01*
X127976892Y-70893538D01*
X128049651Y-71069194D01*
X128069755Y-71099282D01*
X127889989Y-71116987D01*
X127610066Y-71201901D01*
X127352086Y-71339794D01*
X127125966Y-71525366D01*
X127101493Y-71555187D01*
X127080602Y-71486320D01*
X127021637Y-71376006D01*
X126942285Y-71279315D01*
X126845594Y-71199963D01*
X126735280Y-71140998D01*
X126732529Y-71140163D01*
X126762312Y-71041982D01*
X126774572Y-70917500D01*
X126774572Y-69417500D01*
X126762312Y-69293018D01*
X126726002Y-69173320D01*
X126683791Y-69094350D01*
X126726002Y-69015380D01*
X126762312Y-68895682D01*
X126774572Y-68771200D01*
X126774572Y-67271200D01*
X126762312Y-67146718D01*
X126726002Y-67027020D01*
X126667037Y-66916706D01*
X126587685Y-66820015D01*
X126490994Y-66740663D01*
X126380680Y-66681698D01*
X126260982Y-66645388D01*
X126136500Y-66633128D01*
X125636500Y-66633128D01*
X125612050Y-66635536D01*
X125587491Y-66635536D01*
X125463010Y-66647796D01*
X125366877Y-66666918D01*
X125247181Y-66703227D01*
X125156625Y-66740736D01*
X125046308Y-66799702D01*
X124964809Y-66854158D01*
X124868118Y-66933510D01*
X124798810Y-67002818D01*
X124719458Y-67099509D01*
X124665002Y-67181008D01*
X124606036Y-67291325D01*
X124599227Y-67307764D01*
X124587000Y-67306560D01*
X124552071Y-67310000D01*
X124552064Y-67310000D01*
X124447580Y-67320291D01*
X124313518Y-67360958D01*
X124189967Y-67426998D01*
X124108809Y-67493602D01*
X124108804Y-67493607D01*
X124081673Y-67515873D01*
X124059407Y-67543005D01*
X123962211Y-67640200D01*
X123907736Y-67640200D01*
X123721262Y-67677292D01*
X123545606Y-67750051D01*
X123387521Y-67855680D01*
X123253080Y-67990121D01*
X123147451Y-68148206D01*
X123074692Y-68323862D01*
X123037600Y-68510336D01*
X123037600Y-68700464D01*
X123074692Y-68886938D01*
X123147451Y-69062594D01*
X123242384Y-69204671D01*
X123031873Y-69064012D01*
X122570532Y-68872918D01*
X122080776Y-68775500D01*
X121581424Y-68775500D01*
X121091668Y-68872918D01*
X120630327Y-69064012D01*
X120215132Y-69341437D01*
X119951100Y-69605469D01*
X119951100Y-55235531D01*
X120215132Y-55499563D01*
X120630327Y-55776988D01*
X121091668Y-55968082D01*
X121581424Y-56065500D01*
X122080776Y-56065500D01*
X122570532Y-55968082D01*
X123031873Y-55776988D01*
X123447068Y-55499563D01*
X123800163Y-55146468D01*
X124077588Y-54731273D01*
X124268682Y-54269932D01*
X124269973Y-54263438D01*
X130695700Y-54263438D01*
X130695700Y-54448562D01*
X130731816Y-54630129D01*
X130802660Y-54801162D01*
X130905510Y-54955087D01*
X131036413Y-55085990D01*
X131190338Y-55188840D01*
X131361371Y-55259684D01*
X131542938Y-55295800D01*
X131728062Y-55295800D01*
X131909629Y-55259684D01*
X131969510Y-55234880D01*
X132321324Y-55586695D01*
X132343590Y-55613826D01*
X132370721Y-55636092D01*
X132370725Y-55636096D01*
X132444062Y-55696282D01*
X132451884Y-55702701D01*
X132575436Y-55768741D01*
X132709497Y-55809408D01*
X132813981Y-55819699D01*
X132813990Y-55819699D01*
X132848916Y-55823139D01*
X132883842Y-55819699D01*
X133515100Y-55819699D01*
X133515100Y-55820162D01*
X133551216Y-56001729D01*
X133622060Y-56172762D01*
X133724910Y-56326687D01*
X133855813Y-56457590D01*
X134009738Y-56560440D01*
X134180771Y-56631284D01*
X134362338Y-56667400D01*
X134547462Y-56667400D01*
X134729029Y-56631284D01*
X134900062Y-56560440D01*
X135053987Y-56457590D01*
X135184890Y-56326687D01*
X135205001Y-56296589D01*
X135205000Y-68546353D01*
X135201686Y-68580000D01*
X135214912Y-68714283D01*
X135254081Y-68843406D01*
X135317688Y-68962407D01*
X135403289Y-69066711D01*
X135488524Y-69136662D01*
X135507593Y-69152312D01*
X135626594Y-69215919D01*
X135755717Y-69255088D01*
X135890000Y-69268314D01*
X135923647Y-69265000D01*
X137037453Y-69265000D01*
X137071100Y-69268314D01*
X137205383Y-69255088D01*
X137334506Y-69215919D01*
X137453507Y-69152312D01*
X137557811Y-69066711D01*
X137643412Y-68962407D01*
X137707019Y-68843406D01*
X137746188Y-68714283D01*
X137746905Y-68707000D01*
X138370188Y-68707000D01*
X138341100Y-68853236D01*
X138341100Y-68973584D01*
X138246521Y-69036780D01*
X138112080Y-69171221D01*
X138006451Y-69329306D01*
X137933692Y-69504962D01*
X137896600Y-69691436D01*
X137896600Y-69881564D01*
X137933692Y-70068038D01*
X138006451Y-70243694D01*
X138112080Y-70401779D01*
X138246521Y-70536220D01*
X138404606Y-70641849D01*
X138580262Y-70714608D01*
X138766736Y-70751700D01*
X138956864Y-70751700D01*
X139143338Y-70714608D01*
X139318994Y-70641849D01*
X139477079Y-70536220D01*
X139534989Y-70478310D01*
X139639055Y-70446742D01*
X139762607Y-70380702D01*
X139870901Y-70291827D01*
X139893175Y-70264686D01*
X139923662Y-70234199D01*
X140013986Y-70234199D01*
X140406387Y-70626601D01*
X140428658Y-70653738D01*
X140536952Y-70742613D01*
X140660504Y-70808653D01*
X140794565Y-70849320D01*
X140899049Y-70859611D01*
X140899058Y-70859611D01*
X140933984Y-70863051D01*
X140968910Y-70859611D01*
X145652018Y-70859611D01*
X145686946Y-70863051D01*
X145721872Y-70859611D01*
X145721882Y-70859611D01*
X145826366Y-70849320D01*
X145960427Y-70808653D01*
X146083979Y-70742613D01*
X146192273Y-70653738D01*
X146214543Y-70626602D01*
X146877986Y-69963159D01*
X146958482Y-69938741D01*
X147005705Y-69913500D01*
X147110264Y-69913500D01*
X147296738Y-69876408D01*
X147472394Y-69803649D01*
X147630479Y-69698020D01*
X147764920Y-69563579D01*
X147870549Y-69405494D01*
X147943308Y-69229838D01*
X147980400Y-69043364D01*
X147980400Y-68853236D01*
X147943308Y-68666762D01*
X147870549Y-68491106D01*
X147764920Y-68333021D01*
X147630479Y-68198580D01*
X147472394Y-68092951D01*
X147296738Y-68020192D01*
X147110264Y-67983100D01*
X146960302Y-67983100D01*
X146888620Y-67875821D01*
X146754179Y-67741380D01*
X146596094Y-67635751D01*
X146420438Y-67562992D01*
X146233964Y-67525900D01*
X146043836Y-67525900D01*
X145857362Y-67562992D01*
X145681706Y-67635751D01*
X145523621Y-67741380D01*
X145389180Y-67875821D01*
X145283551Y-68033906D01*
X145210792Y-68209562D01*
X145173700Y-68396036D01*
X145173700Y-68586164D01*
X145210792Y-68772638D01*
X145283551Y-68948294D01*
X145323341Y-69007845D01*
X145246385Y-69084801D01*
X145233727Y-69084801D01*
X145121207Y-69024658D01*
X144998440Y-68987417D01*
X144998440Y-68615560D01*
X144996000Y-68590784D01*
X144988773Y-68566959D01*
X144977037Y-68545003D01*
X144961243Y-68525757D01*
X144941997Y-68509963D01*
X144920041Y-68498227D01*
X144896216Y-68491000D01*
X144871440Y-68488560D01*
X144529798Y-68488560D01*
X144577719Y-68398906D01*
X144616888Y-68269783D01*
X144630114Y-68135500D01*
X144626800Y-68101853D01*
X144626800Y-56955047D01*
X144630114Y-56921400D01*
X144616888Y-56787117D01*
X144607540Y-56756300D01*
X144872074Y-56756300D01*
X144907000Y-56759740D01*
X144941926Y-56756300D01*
X144941936Y-56756300D01*
X145046420Y-56746009D01*
X145096228Y-56730900D01*
X145253562Y-56730900D01*
X145435129Y-56694784D01*
X145606162Y-56623940D01*
X145760087Y-56521090D01*
X145890990Y-56390187D01*
X145993840Y-56236262D01*
X146064684Y-56065229D01*
X146100800Y-55883662D01*
X146100800Y-55698538D01*
X146064684Y-55516971D01*
X146042823Y-55464194D01*
X146070040Y-55423462D01*
X146140884Y-55252429D01*
X146177000Y-55070862D01*
X146177000Y-54885738D01*
X146140884Y-54704171D01*
X146070040Y-54533138D01*
X145967190Y-54379213D01*
X145836287Y-54248310D01*
X145682362Y-54145460D01*
X145511329Y-54074616D01*
X145329762Y-54038500D01*
X145144638Y-54038500D01*
X144963071Y-54074616D01*
X144792038Y-54145460D01*
X144638113Y-54248310D01*
X144507210Y-54379213D01*
X144404360Y-54533138D01*
X144333516Y-54704171D01*
X144321413Y-54765017D01*
X144104941Y-54981490D01*
X141954370Y-54981490D01*
X141935726Y-54958772D01*
X141827432Y-54869897D01*
X141703880Y-54803857D01*
X141569819Y-54763190D01*
X141465335Y-54752899D01*
X141465325Y-54752899D01*
X141430399Y-54749459D01*
X141395473Y-54752899D01*
X140774945Y-54752899D01*
X140609129Y-54684216D01*
X140427562Y-54648100D01*
X140242438Y-54648100D01*
X140060871Y-54684216D01*
X139889838Y-54755060D01*
X139735913Y-54857910D01*
X139605010Y-54988813D01*
X139502160Y-55142738D01*
X139431316Y-55313771D01*
X139429838Y-55321200D01*
X137558871Y-55321200D01*
X137542407Y-55307688D01*
X137423406Y-55244081D01*
X137294283Y-55204912D01*
X137193647Y-55195000D01*
X137160000Y-55191686D01*
X137126353Y-55195000D01*
X135923647Y-55195000D01*
X135890000Y-55191686D01*
X135856353Y-55195000D01*
X135755717Y-55204912D01*
X135626594Y-55244081D01*
X135507593Y-55307688D01*
X135403289Y-55393289D01*
X135357012Y-55449677D01*
X135287740Y-55282438D01*
X135184890Y-55128513D01*
X135053987Y-54997610D01*
X134900062Y-54894760D01*
X134729029Y-54823916D01*
X134547462Y-54787800D01*
X134520887Y-54787800D01*
X134363401Y-54630314D01*
X134341126Y-54603172D01*
X134232832Y-54514297D01*
X134109280Y-54448257D01*
X133975219Y-54407590D01*
X133870735Y-54397299D01*
X133870725Y-54397299D01*
X133835799Y-54393859D01*
X133800873Y-54397299D01*
X133143505Y-54397299D01*
X132624019Y-53877814D01*
X132601745Y-53850673D01*
X132493451Y-53761798D01*
X132369899Y-53695758D01*
X132275786Y-53667209D01*
X132234587Y-53626010D01*
X132080662Y-53523160D01*
X131909629Y-53452316D01*
X131728062Y-53416200D01*
X131542938Y-53416200D01*
X131361371Y-53452316D01*
X131190338Y-53523160D01*
X131036413Y-53626010D01*
X130905510Y-53756913D01*
X130802660Y-53910838D01*
X130731816Y-54081871D01*
X130695700Y-54263438D01*
X124269973Y-54263438D01*
X124366100Y-53780176D01*
X124366100Y-53280824D01*
X124268682Y-52791068D01*
X124077588Y-52329727D01*
X123800163Y-51914532D01*
X123536131Y-51650500D01*
X133321276Y-51650500D01*
X133283695Y-51706744D01*
G36*
X167001266Y-51717939D02*
G01*
X166658218Y-51860034D01*
X166349482Y-52066325D01*
X166086925Y-52328882D01*
X165880634Y-52637618D01*
X165738539Y-52980666D01*
X165666100Y-53344844D01*
X165666100Y-53716156D01*
X165738539Y-54080334D01*
X165880634Y-54423382D01*
X165920470Y-54483000D01*
X157875106Y-54483000D01*
X157869628Y-54455462D01*
X157796869Y-54279806D01*
X157691240Y-54121721D01*
X157556799Y-53987280D01*
X157398714Y-53881651D01*
X157223058Y-53808892D01*
X157036584Y-53771800D01*
X156846456Y-53771800D01*
X156659982Y-53808892D01*
X156484326Y-53881651D01*
X156326241Y-53987280D01*
X156252307Y-54061214D01*
X156201066Y-54076758D01*
X156197842Y-54078481D01*
X152936916Y-54078481D01*
X152369520Y-53511086D01*
X152369520Y-53498936D01*
X152332428Y-53312462D01*
X152259669Y-53136806D01*
X152252186Y-53125606D01*
X152281806Y-53089514D01*
X152311100Y-53034709D01*
X152340394Y-53089514D01*
X152525966Y-53315634D01*
X152752086Y-53501206D01*
X153010066Y-53639099D01*
X153289989Y-53724013D01*
X153508150Y-53745500D01*
X153654050Y-53745500D01*
X153872211Y-53724013D01*
X154152134Y-53639099D01*
X154410114Y-53501206D01*
X154636234Y-53315634D01*
X154821806Y-53089514D01*
X154851100Y-53034709D01*
X154880394Y-53089514D01*
X155065966Y-53315634D01*
X155292086Y-53501206D01*
X155550066Y-53639099D01*
X155829989Y-53724013D01*
X156048150Y-53745500D01*
X156194050Y-53745500D01*
X156412211Y-53724013D01*
X156692134Y-53639099D01*
X156950114Y-53501206D01*
X157176234Y-53315634D01*
X157361806Y-53089514D01*
X157391100Y-53034709D01*
X157420394Y-53089514D01*
X157605966Y-53315634D01*
X157832086Y-53501206D01*
X158090066Y-53639099D01*
X158369989Y-53724013D01*
X158588150Y-53745500D01*
X158734050Y-53745500D01*
X158952211Y-53724013D01*
X159232134Y-53639099D01*
X159490114Y-53501206D01*
X159716234Y-53315634D01*
X159901806Y-53089514D01*
X159931100Y-53034709D01*
X159960394Y-53089514D01*
X160145966Y-53315634D01*
X160372086Y-53501206D01*
X160630066Y-53639099D01*
X160909989Y-53724013D01*
X161128150Y-53745500D01*
X161274050Y-53745500D01*
X161492211Y-53724013D01*
X161772134Y-53639099D01*
X162030114Y-53501206D01*
X162256234Y-53315634D01*
X162441806Y-53089514D01*
X162471100Y-53034709D01*
X162500394Y-53089514D01*
X162685966Y-53315634D01*
X162912086Y-53501206D01*
X163170066Y-53639099D01*
X163449989Y-53724013D01*
X163668150Y-53745500D01*
X163814050Y-53745500D01*
X164032211Y-53724013D01*
X164312134Y-53639099D01*
X164570114Y-53501206D01*
X164796234Y-53315634D01*
X164981806Y-53089514D01*
X165119699Y-52831534D01*
X165204613Y-52551611D01*
X165233285Y-52260500D01*
X165204613Y-51969389D01*
X165119699Y-51689466D01*
X165098871Y-51650500D01*
X167340307Y-51650500D01*
X167001266Y-51717939D01*
X167001266Y-51717939D01*
G37*
X167001266Y-51717939D02*
X166658218Y-51860034D01*
X166349482Y-52066325D01*
X166086925Y-52328882D01*
X165880634Y-52637618D01*
X165738539Y-52980666D01*
X165666100Y-53344844D01*
X165666100Y-53716156D01*
X165738539Y-54080334D01*
X165880634Y-54423382D01*
X165920470Y-54483000D01*
X157875106Y-54483000D01*
X157869628Y-54455462D01*
X157796869Y-54279806D01*
X157691240Y-54121721D01*
X157556799Y-53987280D01*
X157398714Y-53881651D01*
X157223058Y-53808892D01*
X157036584Y-53771800D01*
X156846456Y-53771800D01*
X156659982Y-53808892D01*
X156484326Y-53881651D01*
X156326241Y-53987280D01*
X156252307Y-54061214D01*
X156201066Y-54076758D01*
X156197842Y-54078481D01*
X152936916Y-54078481D01*
X152369520Y-53511086D01*
X152369520Y-53498936D01*
X152332428Y-53312462D01*
X152259669Y-53136806D01*
X152252186Y-53125606D01*
X152281806Y-53089514D01*
X152311100Y-53034709D01*
X152340394Y-53089514D01*
X152525966Y-53315634D01*
X152752086Y-53501206D01*
X153010066Y-53639099D01*
X153289989Y-53724013D01*
X153508150Y-53745500D01*
X153654050Y-53745500D01*
X153872211Y-53724013D01*
X154152134Y-53639099D01*
X154410114Y-53501206D01*
X154636234Y-53315634D01*
X154821806Y-53089514D01*
X154851100Y-53034709D01*
X154880394Y-53089514D01*
X155065966Y-53315634D01*
X155292086Y-53501206D01*
X155550066Y-53639099D01*
X155829989Y-53724013D01*
X156048150Y-53745500D01*
X156194050Y-53745500D01*
X156412211Y-53724013D01*
X156692134Y-53639099D01*
X156950114Y-53501206D01*
X157176234Y-53315634D01*
X157361806Y-53089514D01*
X157391100Y-53034709D01*
X157420394Y-53089514D01*
X157605966Y-53315634D01*
X157832086Y-53501206D01*
X158090066Y-53639099D01*
X158369989Y-53724013D01*
X158588150Y-53745500D01*
X158734050Y-53745500D01*
X158952211Y-53724013D01*
X159232134Y-53639099D01*
X159490114Y-53501206D01*
X159716234Y-53315634D01*
X159901806Y-53089514D01*
X159931100Y-53034709D01*
X159960394Y-53089514D01*
X160145966Y-53315634D01*
X160372086Y-53501206D01*
X160630066Y-53639099D01*
X160909989Y-53724013D01*
X161128150Y-53745500D01*
X161274050Y-53745500D01*
X161492211Y-53724013D01*
X161772134Y-53639099D01*
X162030114Y-53501206D01*
X162256234Y-53315634D01*
X162441806Y-53089514D01*
X162471100Y-53034709D01*
X162500394Y-53089514D01*
X162685966Y-53315634D01*
X162912086Y-53501206D01*
X163170066Y-53639099D01*
X163449989Y-53724013D01*
X163668150Y-53745500D01*
X163814050Y-53745500D01*
X164032211Y-53724013D01*
X164312134Y-53639099D01*
X164570114Y-53501206D01*
X164796234Y-53315634D01*
X164981806Y-53089514D01*
X165119699Y-52831534D01*
X165204613Y-52551611D01*
X165233285Y-52260500D01*
X165204613Y-51969389D01*
X165119699Y-51689466D01*
X165098871Y-51650500D01*
X167340307Y-51650500D01*
X167001266Y-51717939D01*
G36*
X169431100Y-68995603D02*
G01*
X157016807Y-69165662D01*
X156998408Y-69073162D01*
X156925649Y-68897506D01*
X156820020Y-68739421D01*
X156685579Y-68604980D01*
X156527494Y-68499351D01*
X156351838Y-68426592D01*
X156165364Y-68389500D01*
X155975236Y-68389500D01*
X155788762Y-68426592D01*
X155613106Y-68499351D01*
X155455021Y-68604980D01*
X155320580Y-68739421D01*
X155214951Y-68897506D01*
X155142192Y-69073162D01*
X155118620Y-69191664D01*
X154827634Y-69195650D01*
X154764109Y-69042286D01*
X154658480Y-68884201D01*
X154524039Y-68749760D01*
X154365954Y-68644131D01*
X154190298Y-68571372D01*
X154003824Y-68534280D01*
X153813696Y-68534280D01*
X153627222Y-68571372D01*
X153543000Y-68606258D01*
X153543000Y-56365248D01*
X153551140Y-56375167D01*
X153659434Y-56464042D01*
X153782986Y-56530082D01*
X153834227Y-56545626D01*
X153908161Y-56619560D01*
X154066246Y-56725189D01*
X154241902Y-56797948D01*
X154428376Y-56835040D01*
X154618504Y-56835040D01*
X154804978Y-56797948D01*
X154980634Y-56725189D01*
X155138719Y-56619560D01*
X155273160Y-56485119D01*
X155378789Y-56327034D01*
X155451548Y-56151378D01*
X155457633Y-56120788D01*
X155551720Y-56261599D01*
X155686161Y-56396040D01*
X155844246Y-56501669D01*
X156019902Y-56574428D01*
X156206376Y-56611520D01*
X156396504Y-56611520D01*
X156582978Y-56574428D01*
X156758634Y-56501669D01*
X156916719Y-56396040D01*
X157051160Y-56261599D01*
X157156789Y-56103514D01*
X157229548Y-55927858D01*
X157266640Y-55741384D01*
X157266640Y-55647056D01*
X157398714Y-55592349D01*
X157538421Y-55499000D01*
X169431101Y-55499000D01*
X169431100Y-68995603D01*
X169431100Y-68995603D01*
G37*
X169431100Y-68995603D02*
X157016807Y-69165662D01*
X156998408Y-69073162D01*
X156925649Y-68897506D01*
X156820020Y-68739421D01*
X156685579Y-68604980D01*
X156527494Y-68499351D01*
X156351838Y-68426592D01*
X156165364Y-68389500D01*
X155975236Y-68389500D01*
X155788762Y-68426592D01*
X155613106Y-68499351D01*
X155455021Y-68604980D01*
X155320580Y-68739421D01*
X155214951Y-68897506D01*
X155142192Y-69073162D01*
X155118620Y-69191664D01*
X154827634Y-69195650D01*
X154764109Y-69042286D01*
X154658480Y-68884201D01*
X154524039Y-68749760D01*
X154365954Y-68644131D01*
X154190298Y-68571372D01*
X154003824Y-68534280D01*
X153813696Y-68534280D01*
X153627222Y-68571372D01*
X153543000Y-68606258D01*
X153543000Y-56365248D01*
X153551140Y-56375167D01*
X153659434Y-56464042D01*
X153782986Y-56530082D01*
X153834227Y-56545626D01*
X153908161Y-56619560D01*
X154066246Y-56725189D01*
X154241902Y-56797948D01*
X154428376Y-56835040D01*
X154618504Y-56835040D01*
X154804978Y-56797948D01*
X154980634Y-56725189D01*
X155138719Y-56619560D01*
X155273160Y-56485119D01*
X155378789Y-56327034D01*
X155451548Y-56151378D01*
X155457633Y-56120788D01*
X155551720Y-56261599D01*
X155686161Y-56396040D01*
X155844246Y-56501669D01*
X156019902Y-56574428D01*
X156206376Y-56611520D01*
X156396504Y-56611520D01*
X156582978Y-56574428D01*
X156758634Y-56501669D01*
X156916719Y-56396040D01*
X157051160Y-56261599D01*
X157156789Y-56103514D01*
X157229548Y-55927858D01*
X157266640Y-55741384D01*
X157266640Y-55647056D01*
X157398714Y-55592349D01*
X157538421Y-55499000D01*
X169431101Y-55499000D01*
X169431100Y-68995603D01*
M02*
