M48
; DRILL file {KiCad (5.1.4)-1} date 12/20/2019 11:24:33 AM
; FORMAT={-:-/ absolute / inch / decimal}
; #@! TF.CreationDate,2019-12-20T11:24:33-05:00
; #@! TF.GenerationSoftware,Kicad,Pcbnew,(5.1.4)-1
; #@! TF.FileFunction,Plated,1,2,PTH
FMAT,2
INCH
T1C0.0120
T2C0.0130
T3C0.0157
T4C0.0394
T5C0.0866
%
G90
G05
T1
X5.1825Y-2.14
X5.1915Y-2.1745
X5.23Y-2.1355
X5.2465Y-2.1925
X5.2935Y-2.194
X5.3025Y-2.1525
X5.525Y-2.1885
X5.554Y-2.2065
X5.6755Y-2.1685
X5.704Y-2.2295
X5.715Y-2.1965
X5.718Y-2.1645
T2
X4.7826Y-2.5656
X4.7838Y-2.3244
X4.8518Y-2.491
X4.8616Y-2.4218
X4.8675Y-2.0345
X4.8708Y-2.3254
X4.882Y-2.701
X4.897Y-2.733
X4.9015Y-2.5645
X4.9106Y-2.625
X4.9162Y-2.1714
X4.9615Y-2.383
X4.9636Y-2.1384
X4.9876Y-2.6226
X5.0228Y-2.3668
X5.0446Y-2.6338
X5.075Y-2.78
X5.087Y-2.73
X5.1064Y-2.2548
X5.129Y-2.775
X5.1348Y-2.1352
X5.1548Y-2.1802
X5.168Y-2.726
X5.212Y-2.716
X5.227Y-2.748
X5.28Y-2.67
X5.3084Y-2.5646
X5.314Y-2.4632
X5.314Y-2.744
X5.32Y-2.352
X5.368Y-2.18
X5.456Y-2.208
X5.456Y-2.57
X5.4805Y-2.4015
X5.52Y-2.452
X5.56Y-2.244
X5.59Y-2.168
X5.7038Y-2.309
X5.706Y-2.746
X5.712Y-2.442
X5.712Y-2.602
X5.802Y-2.326
X5.84Y-2.746
X5.85Y-2.442
X5.852Y-2.594
X5.896Y-2.09
X5.9Y-2.158
X5.902Y-2.328
X5.94Y-2.182
X5.942Y-2.526
X5.948Y-2.422
X5.982Y-2.286
X5.982Y-2.606
X5.986Y-2.158
X5.9915Y-2.7865
X5.9916Y-2.4288
X6.003Y-2.753
X6.008Y-2.817
X6.057Y-2.803
X6.094Y-2.672
X6.118Y-2.64
X6.1232Y-2.2276
X6.1278Y-2.8046
X6.13Y-2.418
X6.152Y-2.638
X6.178Y-2.672
X6.2123Y-2.258
X6.222Y-2.636
X6.2278Y-2.7852
X6.3464Y-2.7814
X6.408Y-2.712
X6.4294Y-2.4118
X6.5092Y-2.7824
X6.5306Y-2.8694
X6.5642Y-2.2022
X6.6512Y-2.6562
X6.6518Y-2.258
T3
X5.2835Y-2.055
X5.599Y-2.0325
T4
X4.9465Y-2.8575
X5.0465Y-2.8575
X5.1465Y-2.8575
X5.2465Y-2.8575
X5.3465Y-2.8575
X5.4465Y-2.8575
X5.5465Y-2.8575
X5.6465Y-2.8575
X5.7465Y-2.8575
X5.8465Y-2.8575
X5.9465Y-2.8575
X6.0465Y-2.8575
X6.1465Y-2.8575
X6.2465Y-2.8575
X6.3465Y-2.8575
X6.4465Y-2.8575
X5.3465Y-2.0575
X5.4465Y-2.0575
X5.5465Y-2.0575
X5.6465Y-2.0575
X5.7465Y-2.0575
X5.8465Y-2.0575
X5.9465Y-2.0575
X6.0465Y-2.0575
X6.1465Y-2.0575
X6.2465Y-2.0575
X6.3465Y-2.0575
X6.4465Y-2.0575
T5
X4.7965Y-2.1075
X4.7965Y-2.8075
T0
M30
