G04 #@! TF.GenerationSoftware,KiCad,Pcbnew,(5.1.4)-1*
G04 #@! TF.CreationDate,2019-12-20T11:27:30-05:00*
G04 #@! TF.ProjectId,Feather-weather-station,46656174-6865-4722-9d77-656174686572,rev?*
G04 #@! TF.SameCoordinates,Original*
G04 #@! TF.FileFunction,Legend,Bot*
G04 #@! TF.FilePolarity,Positive*
%FSLAX46Y46*%
G04 Gerber Fmt 4.6, Leading zero omitted, Abs format (unit mm)*
G04 Created by KiCad (PCBNEW (5.1.4)-1) date 2019-12-20 11:27:30*
%MOMM*%
%LPD*%
G04 APERTURE LIST*
%ADD10C,0.125000*%
%ADD11C,0.150000*%
%ADD12C,0.120000*%
G04 APERTURE END LIST*
D10*
X138656585Y-58723542D02*
X138680395Y-58794971D01*
X138704204Y-58818780D01*
X138751823Y-58842590D01*
X138823252Y-58842590D01*
X138870871Y-58818780D01*
X138894680Y-58794971D01*
X138918490Y-58747352D01*
X138918490Y-58556876D01*
X138418490Y-58556876D01*
X138418490Y-58723542D01*
X138442300Y-58771161D01*
X138466109Y-58794971D01*
X138513728Y-58818780D01*
X138561347Y-58818780D01*
X138608966Y-58794971D01*
X138632776Y-58771161D01*
X138656585Y-58723542D01*
X138656585Y-58556876D01*
X138918490Y-59056876D02*
X138418490Y-59056876D01*
X138775633Y-59223542D01*
X138418490Y-59390209D01*
X138918490Y-59390209D01*
X138656585Y-59628304D02*
X138656585Y-59794971D01*
X138918490Y-59866400D02*
X138918490Y-59628304D01*
X138418490Y-59628304D01*
X138418490Y-59866400D01*
X138418490Y-60294971D02*
X138418490Y-60199733D01*
X138442300Y-60152114D01*
X138466109Y-60128304D01*
X138537538Y-60080685D01*
X138632776Y-60056876D01*
X138823252Y-60056876D01*
X138870871Y-60080685D01*
X138894680Y-60104495D01*
X138918490Y-60152114D01*
X138918490Y-60247352D01*
X138894680Y-60294971D01*
X138870871Y-60318780D01*
X138823252Y-60342590D01*
X138704204Y-60342590D01*
X138656585Y-60318780D01*
X138632776Y-60294971D01*
X138608966Y-60247352D01*
X138608966Y-60152114D01*
X138632776Y-60104495D01*
X138656585Y-60080685D01*
X138704204Y-60056876D01*
X138632776Y-60628304D02*
X138608966Y-60580685D01*
X138585157Y-60556876D01*
X138537538Y-60533066D01*
X138513728Y-60533066D01*
X138466109Y-60556876D01*
X138442300Y-60580685D01*
X138418490Y-60628304D01*
X138418490Y-60723542D01*
X138442300Y-60771161D01*
X138466109Y-60794971D01*
X138513728Y-60818780D01*
X138537538Y-60818780D01*
X138585157Y-60794971D01*
X138608966Y-60771161D01*
X138632776Y-60723542D01*
X138632776Y-60628304D01*
X138656585Y-60580685D01*
X138680395Y-60556876D01*
X138728014Y-60533066D01*
X138823252Y-60533066D01*
X138870871Y-60556876D01*
X138894680Y-60580685D01*
X138918490Y-60628304D01*
X138918490Y-60723542D01*
X138894680Y-60771161D01*
X138870871Y-60794971D01*
X138823252Y-60818780D01*
X138728014Y-60818780D01*
X138680395Y-60794971D01*
X138656585Y-60771161D01*
X138632776Y-60723542D01*
X138418490Y-61128304D02*
X138418490Y-61175923D01*
X138442300Y-61223542D01*
X138466109Y-61247352D01*
X138513728Y-61271161D01*
X138608966Y-61294971D01*
X138728014Y-61294971D01*
X138823252Y-61271161D01*
X138870871Y-61247352D01*
X138894680Y-61223542D01*
X138918490Y-61175923D01*
X138918490Y-61128304D01*
X138894680Y-61080685D01*
X138870871Y-61056876D01*
X138823252Y-61033066D01*
X138728014Y-61009257D01*
X138608966Y-61009257D01*
X138513728Y-61033066D01*
X138466109Y-61056876D01*
X138442300Y-61080685D01*
X138418490Y-61128304D01*
X138894680Y-61866400D02*
X138918490Y-61937828D01*
X138918490Y-62056876D01*
X138894680Y-62104495D01*
X138870871Y-62128304D01*
X138823252Y-62152114D01*
X138775633Y-62152114D01*
X138728014Y-62128304D01*
X138704204Y-62104495D01*
X138680395Y-62056876D01*
X138656585Y-61961638D01*
X138632776Y-61914019D01*
X138608966Y-61890209D01*
X138561347Y-61866400D01*
X138513728Y-61866400D01*
X138466109Y-61890209D01*
X138442300Y-61914019D01*
X138418490Y-61961638D01*
X138418490Y-62080685D01*
X138442300Y-62152114D01*
X138894680Y-62556876D02*
X138918490Y-62509257D01*
X138918490Y-62414019D01*
X138894680Y-62366400D01*
X138847061Y-62342590D01*
X138656585Y-62342590D01*
X138608966Y-62366400D01*
X138585157Y-62414019D01*
X138585157Y-62509257D01*
X138608966Y-62556876D01*
X138656585Y-62580685D01*
X138704204Y-62580685D01*
X138751823Y-62342590D01*
X138585157Y-62794971D02*
X138918490Y-62794971D01*
X138632776Y-62794971D02*
X138608966Y-62818780D01*
X138585157Y-62866400D01*
X138585157Y-62937828D01*
X138608966Y-62985447D01*
X138656585Y-63009257D01*
X138918490Y-63009257D01*
X138894680Y-63223542D02*
X138918490Y-63271161D01*
X138918490Y-63366400D01*
X138894680Y-63414019D01*
X138847061Y-63437828D01*
X138823252Y-63437828D01*
X138775633Y-63414019D01*
X138751823Y-63366400D01*
X138751823Y-63294971D01*
X138728014Y-63247352D01*
X138680395Y-63223542D01*
X138656585Y-63223542D01*
X138608966Y-63247352D01*
X138585157Y-63294971D01*
X138585157Y-63366400D01*
X138608966Y-63414019D01*
X138918490Y-63723542D02*
X138894680Y-63675923D01*
X138870871Y-63652114D01*
X138823252Y-63628304D01*
X138680395Y-63628304D01*
X138632776Y-63652114D01*
X138608966Y-63675923D01*
X138585157Y-63723542D01*
X138585157Y-63794971D01*
X138608966Y-63842590D01*
X138632776Y-63866400D01*
X138680395Y-63890209D01*
X138823252Y-63890209D01*
X138870871Y-63866400D01*
X138894680Y-63842590D01*
X138918490Y-63794971D01*
X138918490Y-63723542D01*
X138918490Y-64104495D02*
X138585157Y-64104495D01*
X138680395Y-64104495D02*
X138632776Y-64128304D01*
X138608966Y-64152114D01*
X138585157Y-64199733D01*
X138585157Y-64247352D01*
X139793490Y-57604495D02*
X139293490Y-57604495D01*
X139293490Y-57723542D01*
X139317300Y-57794971D01*
X139364919Y-57842590D01*
X139412538Y-57866400D01*
X139507776Y-57890209D01*
X139579204Y-57890209D01*
X139674442Y-57866400D01*
X139722061Y-57842590D01*
X139769680Y-57794971D01*
X139793490Y-57723542D01*
X139793490Y-57604495D01*
X139769680Y-58294971D02*
X139793490Y-58247352D01*
X139793490Y-58152114D01*
X139769680Y-58104495D01*
X139722061Y-58080685D01*
X139531585Y-58080685D01*
X139483966Y-58104495D01*
X139460157Y-58152114D01*
X139460157Y-58247352D01*
X139483966Y-58294971D01*
X139531585Y-58318780D01*
X139579204Y-58318780D01*
X139626823Y-58080685D01*
X139460157Y-58461638D02*
X139460157Y-58652114D01*
X139793490Y-58533066D02*
X139364919Y-58533066D01*
X139317300Y-58556876D01*
X139293490Y-58604495D01*
X139293490Y-58652114D01*
X139793490Y-59033066D02*
X139531585Y-59033066D01*
X139483966Y-59009257D01*
X139460157Y-58961638D01*
X139460157Y-58866400D01*
X139483966Y-58818780D01*
X139769680Y-59033066D02*
X139793490Y-58985447D01*
X139793490Y-58866400D01*
X139769680Y-58818780D01*
X139722061Y-58794971D01*
X139674442Y-58794971D01*
X139626823Y-58818780D01*
X139603014Y-58866400D01*
X139603014Y-58985447D01*
X139579204Y-59033066D01*
X139460157Y-59485447D02*
X139793490Y-59485447D01*
X139460157Y-59271161D02*
X139722061Y-59271161D01*
X139769680Y-59294971D01*
X139793490Y-59342590D01*
X139793490Y-59414019D01*
X139769680Y-59461638D01*
X139745871Y-59485447D01*
X139793490Y-59794971D02*
X139769680Y-59747352D01*
X139722061Y-59723542D01*
X139293490Y-59723542D01*
X139460157Y-59914019D02*
X139460157Y-60104495D01*
X139293490Y-59985447D02*
X139722061Y-59985447D01*
X139769680Y-60009257D01*
X139793490Y-60056876D01*
X139793490Y-60104495D01*
X139793490Y-60652114D02*
X139293490Y-60652114D01*
X139341109Y-60866400D02*
X139317300Y-60890209D01*
X139293490Y-60937828D01*
X139293490Y-61056876D01*
X139317300Y-61104495D01*
X139341109Y-61128304D01*
X139388728Y-61152114D01*
X139436347Y-61152114D01*
X139507776Y-61128304D01*
X139793490Y-60842590D01*
X139793490Y-61152114D01*
X139745871Y-61652114D02*
X139769680Y-61628304D01*
X139793490Y-61556876D01*
X139793490Y-61509257D01*
X139769680Y-61437828D01*
X139722061Y-61390209D01*
X139674442Y-61366400D01*
X139579204Y-61342590D01*
X139507776Y-61342590D01*
X139412538Y-61366400D01*
X139364919Y-61390209D01*
X139317300Y-61437828D01*
X139293490Y-61509257D01*
X139293490Y-61556876D01*
X139317300Y-61628304D01*
X139341109Y-61652114D01*
X139650633Y-62223542D02*
X139650633Y-62461638D01*
X139793490Y-62175923D02*
X139293490Y-62342590D01*
X139793490Y-62509257D01*
X139793490Y-62890209D02*
X139293490Y-62890209D01*
X139769680Y-62890209D02*
X139793490Y-62842590D01*
X139793490Y-62747352D01*
X139769680Y-62699733D01*
X139745871Y-62675923D01*
X139698252Y-62652114D01*
X139555395Y-62652114D01*
X139507776Y-62675923D01*
X139483966Y-62699733D01*
X139460157Y-62747352D01*
X139460157Y-62842590D01*
X139483966Y-62890209D01*
X139793490Y-63342590D02*
X139293490Y-63342590D01*
X139769680Y-63342590D02*
X139793490Y-63294971D01*
X139793490Y-63199733D01*
X139769680Y-63152114D01*
X139745871Y-63128304D01*
X139698252Y-63104495D01*
X139555395Y-63104495D01*
X139507776Y-63128304D01*
X139483966Y-63152114D01*
X139460157Y-63199733D01*
X139460157Y-63294971D01*
X139483966Y-63342590D01*
X139793490Y-63580685D02*
X139460157Y-63580685D01*
X139555395Y-63580685D02*
X139507776Y-63604495D01*
X139483966Y-63628304D01*
X139460157Y-63675923D01*
X139460157Y-63723542D01*
X139769680Y-64080685D02*
X139793490Y-64033066D01*
X139793490Y-63937828D01*
X139769680Y-63890209D01*
X139722061Y-63866400D01*
X139531585Y-63866400D01*
X139483966Y-63890209D01*
X139460157Y-63937828D01*
X139460157Y-64033066D01*
X139483966Y-64080685D01*
X139531585Y-64104495D01*
X139579204Y-64104495D01*
X139626823Y-63866400D01*
X139769680Y-64294971D02*
X139793490Y-64342590D01*
X139793490Y-64437828D01*
X139769680Y-64485447D01*
X139722061Y-64509257D01*
X139698252Y-64509257D01*
X139650633Y-64485447D01*
X139626823Y-64437828D01*
X139626823Y-64366400D01*
X139603014Y-64318780D01*
X139555395Y-64294971D01*
X139531585Y-64294971D01*
X139483966Y-64318780D01*
X139460157Y-64366400D01*
X139460157Y-64437828D01*
X139483966Y-64485447D01*
X139769680Y-64699733D02*
X139793490Y-64747352D01*
X139793490Y-64842590D01*
X139769680Y-64890209D01*
X139722061Y-64914019D01*
X139698252Y-64914019D01*
X139650633Y-64890209D01*
X139626823Y-64842590D01*
X139626823Y-64771161D01*
X139603014Y-64723542D01*
X139555395Y-64699733D01*
X139531585Y-64699733D01*
X139483966Y-64723542D01*
X139460157Y-64771161D01*
X139460157Y-64842590D01*
X139483966Y-64890209D01*
X139745871Y-65128304D02*
X139769680Y-65152114D01*
X139793490Y-65128304D01*
X139769680Y-65104495D01*
X139745871Y-65128304D01*
X139793490Y-65128304D01*
X139483966Y-65128304D02*
X139507776Y-65152114D01*
X139531585Y-65128304D01*
X139507776Y-65104495D01*
X139483966Y-65128304D01*
X139531585Y-65128304D01*
X140168490Y-59247352D02*
X140168490Y-59294971D01*
X140192300Y-59342590D01*
X140216109Y-59366400D01*
X140263728Y-59390209D01*
X140358966Y-59414019D01*
X140478014Y-59414019D01*
X140573252Y-59390209D01*
X140620871Y-59366400D01*
X140644680Y-59342590D01*
X140668490Y-59294971D01*
X140668490Y-59247352D01*
X140644680Y-59199733D01*
X140620871Y-59175923D01*
X140573252Y-59152114D01*
X140478014Y-59128304D01*
X140358966Y-59128304D01*
X140263728Y-59152114D01*
X140216109Y-59175923D01*
X140192300Y-59199733D01*
X140168490Y-59247352D01*
X140668490Y-59580685D02*
X140335157Y-59842590D01*
X140335157Y-59580685D02*
X140668490Y-59842590D01*
X140168490Y-59985447D02*
X140168490Y-60318780D01*
X140668490Y-60104495D01*
X140168490Y-60461638D02*
X140168490Y-60794971D01*
X140668490Y-60580685D01*
X140858966Y-61509257D02*
X140835157Y-61485447D01*
X140763728Y-61437828D01*
X140716109Y-61414019D01*
X140644680Y-61390209D01*
X140525633Y-61366400D01*
X140430395Y-61366400D01*
X140311347Y-61390209D01*
X140239919Y-61414019D01*
X140192300Y-61437828D01*
X140120871Y-61485447D01*
X140097061Y-61509257D01*
X140668490Y-61771161D02*
X140644680Y-61723542D01*
X140620871Y-61699733D01*
X140573252Y-61675923D01*
X140430395Y-61675923D01*
X140382776Y-61699733D01*
X140358966Y-61723542D01*
X140335157Y-61771161D01*
X140335157Y-61842590D01*
X140358966Y-61890209D01*
X140382776Y-61914019D01*
X140430395Y-61937828D01*
X140573252Y-61937828D01*
X140620871Y-61914019D01*
X140644680Y-61890209D01*
X140668490Y-61842590D01*
X140668490Y-61771161D01*
X140335157Y-62152114D02*
X140835157Y-62152114D01*
X140358966Y-62152114D02*
X140335157Y-62199733D01*
X140335157Y-62294971D01*
X140358966Y-62342590D01*
X140382776Y-62366400D01*
X140430395Y-62390209D01*
X140573252Y-62390209D01*
X140620871Y-62366400D01*
X140644680Y-62342590D01*
X140668490Y-62294971D01*
X140668490Y-62199733D01*
X140644680Y-62152114D01*
X140644680Y-62794971D02*
X140668490Y-62747352D01*
X140668490Y-62652114D01*
X140644680Y-62604495D01*
X140597061Y-62580685D01*
X140406585Y-62580685D01*
X140358966Y-62604495D01*
X140335157Y-62652114D01*
X140335157Y-62747352D01*
X140358966Y-62794971D01*
X140406585Y-62818780D01*
X140454204Y-62818780D01*
X140501823Y-62580685D01*
X140335157Y-63033066D02*
X140668490Y-63033066D01*
X140382776Y-63033066D02*
X140358966Y-63056876D01*
X140335157Y-63104495D01*
X140335157Y-63175923D01*
X140358966Y-63223542D01*
X140406585Y-63247352D01*
X140668490Y-63247352D01*
X140858966Y-63437828D02*
X140835157Y-63461638D01*
X140763728Y-63509257D01*
X140716109Y-63533066D01*
X140644680Y-63556876D01*
X140525633Y-63580685D01*
X140430395Y-63580685D01*
X140311347Y-63556876D01*
X140239919Y-63533066D01*
X140192300Y-63509257D01*
X140120871Y-63461638D01*
X140097061Y-63437828D01*
X141043490Y-59152114D02*
X141043490Y-59199733D01*
X141067300Y-59247352D01*
X141091109Y-59271161D01*
X141138728Y-59294971D01*
X141233966Y-59318780D01*
X141353014Y-59318780D01*
X141448252Y-59294971D01*
X141495871Y-59271161D01*
X141519680Y-59247352D01*
X141543490Y-59199733D01*
X141543490Y-59152114D01*
X141519680Y-59104495D01*
X141495871Y-59080685D01*
X141448252Y-59056876D01*
X141353014Y-59033066D01*
X141233966Y-59033066D01*
X141138728Y-59056876D01*
X141091109Y-59080685D01*
X141067300Y-59104495D01*
X141043490Y-59152114D01*
X141543490Y-59485447D02*
X141210157Y-59747352D01*
X141210157Y-59485447D02*
X141543490Y-59747352D01*
X141043490Y-59890209D02*
X141043490Y-60223542D01*
X141543490Y-60009257D01*
X141043490Y-60628304D02*
X141043490Y-60533066D01*
X141067300Y-60485447D01*
X141091109Y-60461638D01*
X141162538Y-60414019D01*
X141257776Y-60390209D01*
X141448252Y-60390209D01*
X141495871Y-60414019D01*
X141519680Y-60437828D01*
X141543490Y-60485447D01*
X141543490Y-60580685D01*
X141519680Y-60628304D01*
X141495871Y-60652114D01*
X141448252Y-60675923D01*
X141329204Y-60675923D01*
X141281585Y-60652114D01*
X141257776Y-60628304D01*
X141233966Y-60580685D01*
X141233966Y-60485447D01*
X141257776Y-60437828D01*
X141281585Y-60414019D01*
X141329204Y-60390209D01*
X141733966Y-61414019D02*
X141710157Y-61390209D01*
X141638728Y-61342590D01*
X141591109Y-61318780D01*
X141519680Y-61294971D01*
X141400633Y-61271161D01*
X141305395Y-61271161D01*
X141186347Y-61294971D01*
X141114919Y-61318780D01*
X141067300Y-61342590D01*
X140995871Y-61390209D01*
X140972061Y-61414019D01*
X141519680Y-61818780D02*
X141543490Y-61771161D01*
X141543490Y-61675923D01*
X141519680Y-61628304D01*
X141495871Y-61604495D01*
X141448252Y-61580685D01*
X141305395Y-61580685D01*
X141257776Y-61604495D01*
X141233966Y-61628304D01*
X141210157Y-61675923D01*
X141210157Y-61771161D01*
X141233966Y-61818780D01*
X141543490Y-62104495D02*
X141519680Y-62056876D01*
X141472061Y-62033066D01*
X141043490Y-62033066D01*
X141543490Y-62366400D02*
X141519680Y-62318780D01*
X141495871Y-62294971D01*
X141448252Y-62271161D01*
X141305395Y-62271161D01*
X141257776Y-62294971D01*
X141233966Y-62318780D01*
X141210157Y-62366400D01*
X141210157Y-62437828D01*
X141233966Y-62485447D01*
X141257776Y-62509257D01*
X141305395Y-62533066D01*
X141448252Y-62533066D01*
X141495871Y-62509257D01*
X141519680Y-62485447D01*
X141543490Y-62437828D01*
X141543490Y-62366400D01*
X141519680Y-62723542D02*
X141543490Y-62771161D01*
X141543490Y-62866400D01*
X141519680Y-62914019D01*
X141472061Y-62937828D01*
X141448252Y-62937828D01*
X141400633Y-62914019D01*
X141376823Y-62866400D01*
X141376823Y-62794971D01*
X141353014Y-62747352D01*
X141305395Y-62723542D01*
X141281585Y-62723542D01*
X141233966Y-62747352D01*
X141210157Y-62794971D01*
X141210157Y-62866400D01*
X141233966Y-62914019D01*
X141519680Y-63342590D02*
X141543490Y-63294971D01*
X141543490Y-63199733D01*
X141519680Y-63152114D01*
X141472061Y-63128304D01*
X141281585Y-63128304D01*
X141233966Y-63152114D01*
X141210157Y-63199733D01*
X141210157Y-63294971D01*
X141233966Y-63342590D01*
X141281585Y-63366400D01*
X141329204Y-63366400D01*
X141376823Y-63128304D01*
X141733966Y-63533066D02*
X141710157Y-63556876D01*
X141638728Y-63604495D01*
X141591109Y-63628304D01*
X141519680Y-63652114D01*
X141400633Y-63675923D01*
X141305395Y-63675923D01*
X141186347Y-63652114D01*
X141114919Y-63628304D01*
X141067300Y-63604495D01*
X140995871Y-63556876D01*
X140972061Y-63533066D01*
X129461982Y-63547150D02*
X129700078Y-63547150D01*
X129700078Y-63047150D01*
X129295316Y-63547150D02*
X129295316Y-63213817D01*
X129295316Y-63047150D02*
X129319125Y-63070960D01*
X129295316Y-63094769D01*
X129271506Y-63070960D01*
X129295316Y-63047150D01*
X129295316Y-63094769D01*
X128842935Y-63213817D02*
X128842935Y-63618579D01*
X128866744Y-63666198D01*
X128890554Y-63690007D01*
X128938173Y-63713817D01*
X129009601Y-63713817D01*
X129057220Y-63690007D01*
X128842935Y-63523340D02*
X128890554Y-63547150D01*
X128985792Y-63547150D01*
X129033411Y-63523340D01*
X129057220Y-63499531D01*
X129081030Y-63451912D01*
X129081030Y-63309055D01*
X129057220Y-63261436D01*
X129033411Y-63237626D01*
X128985792Y-63213817D01*
X128890554Y-63213817D01*
X128842935Y-63237626D01*
X128604840Y-63547150D02*
X128604840Y-63047150D01*
X128390554Y-63547150D02*
X128390554Y-63285245D01*
X128414363Y-63237626D01*
X128461982Y-63213817D01*
X128533411Y-63213817D01*
X128581030Y-63237626D01*
X128604840Y-63261436D01*
X128223887Y-63213817D02*
X128033411Y-63213817D01*
X128152459Y-63047150D02*
X128152459Y-63475721D01*
X128128649Y-63523340D01*
X128081030Y-63547150D01*
X128033411Y-63547150D01*
X127866744Y-63213817D02*
X127866744Y-63547150D01*
X127866744Y-63261436D02*
X127842935Y-63237626D01*
X127795316Y-63213817D01*
X127723887Y-63213817D01*
X127676268Y-63237626D01*
X127652459Y-63285245D01*
X127652459Y-63547150D01*
X127414363Y-63547150D02*
X127414363Y-63213817D01*
X127414363Y-63047150D02*
X127438173Y-63070960D01*
X127414363Y-63094769D01*
X127390554Y-63070960D01*
X127414363Y-63047150D01*
X127414363Y-63094769D01*
X127176268Y-63213817D02*
X127176268Y-63547150D01*
X127176268Y-63261436D02*
X127152459Y-63237626D01*
X127104840Y-63213817D01*
X127033411Y-63213817D01*
X126985792Y-63237626D01*
X126961982Y-63285245D01*
X126961982Y-63547150D01*
X126509601Y-63213817D02*
X126509601Y-63618579D01*
X126533411Y-63666198D01*
X126557220Y-63690007D01*
X126604840Y-63713817D01*
X126676268Y-63713817D01*
X126723887Y-63690007D01*
X126509601Y-63523340D02*
X126557220Y-63547150D01*
X126652459Y-63547150D01*
X126700078Y-63523340D01*
X126723887Y-63499531D01*
X126747697Y-63451912D01*
X126747697Y-63309055D01*
X126723887Y-63261436D01*
X126700078Y-63237626D01*
X126652459Y-63213817D01*
X126557220Y-63213817D01*
X126509601Y-63237626D01*
X125890554Y-63547150D02*
X125890554Y-63047150D01*
X125771506Y-63047150D01*
X125700078Y-63070960D01*
X125652459Y-63118579D01*
X125628649Y-63166198D01*
X125604840Y-63261436D01*
X125604840Y-63332864D01*
X125628649Y-63428102D01*
X125652459Y-63475721D01*
X125700078Y-63523340D01*
X125771506Y-63547150D01*
X125890554Y-63547150D01*
X125200078Y-63523340D02*
X125247697Y-63547150D01*
X125342935Y-63547150D01*
X125390554Y-63523340D01*
X125414363Y-63475721D01*
X125414363Y-63285245D01*
X125390554Y-63237626D01*
X125342935Y-63213817D01*
X125247697Y-63213817D01*
X125200078Y-63237626D01*
X125176268Y-63285245D01*
X125176268Y-63332864D01*
X125414363Y-63380483D01*
X125033411Y-63213817D02*
X124842935Y-63213817D01*
X124961982Y-63047150D02*
X124961982Y-63475721D01*
X124938173Y-63523340D01*
X124890554Y-63547150D01*
X124842935Y-63547150D01*
X124485792Y-63523340D02*
X124533411Y-63547150D01*
X124628649Y-63547150D01*
X124676268Y-63523340D01*
X124700078Y-63475721D01*
X124700078Y-63285245D01*
X124676268Y-63237626D01*
X124628649Y-63213817D01*
X124533411Y-63213817D01*
X124485792Y-63237626D01*
X124461982Y-63285245D01*
X124461982Y-63332864D01*
X124700078Y-63380483D01*
X124033411Y-63523340D02*
X124081030Y-63547150D01*
X124176268Y-63547150D01*
X124223887Y-63523340D01*
X124247697Y-63499531D01*
X124271506Y-63451912D01*
X124271506Y-63309055D01*
X124247697Y-63261436D01*
X124223887Y-63237626D01*
X124176268Y-63213817D01*
X124081030Y-63213817D01*
X124033411Y-63237626D01*
X123890554Y-63213817D02*
X123700078Y-63213817D01*
X123819125Y-63047150D02*
X123819125Y-63475721D01*
X123795316Y-63523340D01*
X123747697Y-63547150D01*
X123700078Y-63547150D01*
X123461982Y-63547150D02*
X123509601Y-63523340D01*
X123533411Y-63499531D01*
X123557220Y-63451912D01*
X123557220Y-63309055D01*
X123533411Y-63261436D01*
X123509601Y-63237626D01*
X123461982Y-63213817D01*
X123390554Y-63213817D01*
X123342935Y-63237626D01*
X123319125Y-63261436D01*
X123295316Y-63309055D01*
X123295316Y-63451912D01*
X123319125Y-63499531D01*
X123342935Y-63523340D01*
X123390554Y-63547150D01*
X123461982Y-63547150D01*
X123081030Y-63547150D02*
X123081030Y-63213817D01*
X123081030Y-63309055D02*
X123057220Y-63261436D01*
X123033411Y-63237626D01*
X122985792Y-63213817D01*
X122938173Y-63213817D01*
X130116744Y-64422150D02*
X130116744Y-63922150D01*
X129997697Y-63922150D01*
X129926268Y-63945960D01*
X129878649Y-63993579D01*
X129854840Y-64041198D01*
X129831030Y-64136436D01*
X129831030Y-64207864D01*
X129854840Y-64303102D01*
X129878649Y-64350721D01*
X129926268Y-64398340D01*
X129997697Y-64422150D01*
X130116744Y-64422150D01*
X129426268Y-64398340D02*
X129473887Y-64422150D01*
X129569125Y-64422150D01*
X129616744Y-64398340D01*
X129640554Y-64350721D01*
X129640554Y-64160245D01*
X129616744Y-64112626D01*
X129569125Y-64088817D01*
X129473887Y-64088817D01*
X129426268Y-64112626D01*
X129402459Y-64160245D01*
X129402459Y-64207864D01*
X129640554Y-64255483D01*
X129259601Y-64088817D02*
X129069125Y-64088817D01*
X129188173Y-64422150D02*
X129188173Y-63993579D01*
X129164363Y-63945960D01*
X129116744Y-63922150D01*
X129069125Y-63922150D01*
X128688173Y-64422150D02*
X128688173Y-64160245D01*
X128711982Y-64112626D01*
X128759601Y-64088817D01*
X128854840Y-64088817D01*
X128902459Y-64112626D01*
X128688173Y-64398340D02*
X128735792Y-64422150D01*
X128854840Y-64422150D01*
X128902459Y-64398340D01*
X128926268Y-64350721D01*
X128926268Y-64303102D01*
X128902459Y-64255483D01*
X128854840Y-64231674D01*
X128735792Y-64231674D01*
X128688173Y-64207864D01*
X128235792Y-64088817D02*
X128235792Y-64422150D01*
X128450078Y-64088817D02*
X128450078Y-64350721D01*
X128426268Y-64398340D01*
X128378649Y-64422150D01*
X128307220Y-64422150D01*
X128259601Y-64398340D01*
X128235792Y-64374531D01*
X127926268Y-64422150D02*
X127973887Y-64398340D01*
X127997697Y-64350721D01*
X127997697Y-63922150D01*
X127807220Y-64088817D02*
X127616744Y-64088817D01*
X127735792Y-63922150D02*
X127735792Y-64350721D01*
X127711982Y-64398340D01*
X127664363Y-64422150D01*
X127616744Y-64422150D01*
X127069125Y-64422150D02*
X127069125Y-63922150D01*
X126854840Y-63969769D02*
X126831030Y-63945960D01*
X126783411Y-63922150D01*
X126664363Y-63922150D01*
X126616744Y-63945960D01*
X126592935Y-63969769D01*
X126569125Y-64017388D01*
X126569125Y-64065007D01*
X126592935Y-64136436D01*
X126878649Y-64422150D01*
X126569125Y-64422150D01*
X126069125Y-64374531D02*
X126092935Y-64398340D01*
X126164363Y-64422150D01*
X126211982Y-64422150D01*
X126283411Y-64398340D01*
X126331030Y-64350721D01*
X126354840Y-64303102D01*
X126378649Y-64207864D01*
X126378649Y-64136436D01*
X126354840Y-64041198D01*
X126331030Y-63993579D01*
X126283411Y-63945960D01*
X126211982Y-63922150D01*
X126164363Y-63922150D01*
X126092935Y-63945960D01*
X126069125Y-63969769D01*
X125497697Y-64279293D02*
X125259601Y-64279293D01*
X125545316Y-64422150D02*
X125378649Y-63922150D01*
X125211982Y-64422150D01*
X124831030Y-64422150D02*
X124831030Y-63922150D01*
X124831030Y-64398340D02*
X124878649Y-64422150D01*
X124973887Y-64422150D01*
X125021506Y-64398340D01*
X125045316Y-64374531D01*
X125069125Y-64326912D01*
X125069125Y-64184055D01*
X125045316Y-64136436D01*
X125021506Y-64112626D01*
X124973887Y-64088817D01*
X124878649Y-64088817D01*
X124831030Y-64112626D01*
X124378649Y-64422150D02*
X124378649Y-63922150D01*
X124378649Y-64398340D02*
X124426268Y-64422150D01*
X124521506Y-64422150D01*
X124569125Y-64398340D01*
X124592935Y-64374531D01*
X124616744Y-64326912D01*
X124616744Y-64184055D01*
X124592935Y-64136436D01*
X124569125Y-64112626D01*
X124521506Y-64088817D01*
X124426268Y-64088817D01*
X124378649Y-64112626D01*
X124140554Y-64422150D02*
X124140554Y-64088817D01*
X124140554Y-64184055D02*
X124116744Y-64136436D01*
X124092935Y-64112626D01*
X124045316Y-64088817D01*
X123997697Y-64088817D01*
X123640554Y-64398340D02*
X123688173Y-64422150D01*
X123783411Y-64422150D01*
X123831030Y-64398340D01*
X123854840Y-64350721D01*
X123854840Y-64160245D01*
X123831030Y-64112626D01*
X123783411Y-64088817D01*
X123688173Y-64088817D01*
X123640554Y-64112626D01*
X123616744Y-64160245D01*
X123616744Y-64207864D01*
X123854840Y-64255483D01*
X123426268Y-64398340D02*
X123378649Y-64422150D01*
X123283411Y-64422150D01*
X123235792Y-64398340D01*
X123211982Y-64350721D01*
X123211982Y-64326912D01*
X123235792Y-64279293D01*
X123283411Y-64255483D01*
X123354840Y-64255483D01*
X123402459Y-64231674D01*
X123426268Y-64184055D01*
X123426268Y-64160245D01*
X123402459Y-64112626D01*
X123354840Y-64088817D01*
X123283411Y-64088817D01*
X123235792Y-64112626D01*
X123021506Y-64398340D02*
X122973887Y-64422150D01*
X122878649Y-64422150D01*
X122831030Y-64398340D01*
X122807220Y-64350721D01*
X122807220Y-64326912D01*
X122831030Y-64279293D01*
X122878649Y-64255483D01*
X122950078Y-64255483D01*
X122997697Y-64231674D01*
X123021506Y-64184055D01*
X123021506Y-64160245D01*
X122997697Y-64112626D01*
X122950078Y-64088817D01*
X122878649Y-64088817D01*
X122831030Y-64112626D01*
X122592935Y-64374531D02*
X122569125Y-64398340D01*
X122592935Y-64422150D01*
X122616744Y-64398340D01*
X122592935Y-64374531D01*
X122592935Y-64422150D01*
X122592935Y-64112626D02*
X122569125Y-64136436D01*
X122592935Y-64160245D01*
X122616744Y-64136436D01*
X122592935Y-64112626D01*
X122592935Y-64160245D01*
X130140554Y-64797150D02*
X130092935Y-64797150D01*
X130045316Y-64820960D01*
X130021506Y-64844769D01*
X129997697Y-64892388D01*
X129973887Y-64987626D01*
X129973887Y-65106674D01*
X129997697Y-65201912D01*
X130021506Y-65249531D01*
X130045316Y-65273340D01*
X130092935Y-65297150D01*
X130140554Y-65297150D01*
X130188173Y-65273340D01*
X130211982Y-65249531D01*
X130235792Y-65201912D01*
X130259601Y-65106674D01*
X130259601Y-64987626D01*
X130235792Y-64892388D01*
X130211982Y-64844769D01*
X130188173Y-64820960D01*
X130140554Y-64797150D01*
X129807220Y-65297150D02*
X129545316Y-64963817D01*
X129807220Y-64963817D02*
X129545316Y-65297150D01*
X129259601Y-64797150D02*
X129211982Y-64797150D01*
X129164363Y-64820960D01*
X129140554Y-64844769D01*
X129116744Y-64892388D01*
X129092935Y-64987626D01*
X129092935Y-65106674D01*
X129116744Y-65201912D01*
X129140554Y-65249531D01*
X129164363Y-65273340D01*
X129211982Y-65297150D01*
X129259601Y-65297150D01*
X129307220Y-65273340D01*
X129331030Y-65249531D01*
X129354840Y-65201912D01*
X129378649Y-65106674D01*
X129378649Y-64987626D01*
X129354840Y-64892388D01*
X129331030Y-64844769D01*
X129307220Y-64820960D01*
X129259601Y-64797150D01*
X128926268Y-64797150D02*
X128616744Y-64797150D01*
X128783411Y-64987626D01*
X128711982Y-64987626D01*
X128664363Y-65011436D01*
X128640554Y-65035245D01*
X128616744Y-65082864D01*
X128616744Y-65201912D01*
X128640554Y-65249531D01*
X128664363Y-65273340D01*
X128711982Y-65297150D01*
X128854840Y-65297150D01*
X128902459Y-65273340D01*
X128926268Y-65249531D01*
X127878649Y-65487626D02*
X127902459Y-65463817D01*
X127950078Y-65392388D01*
X127973887Y-65344769D01*
X127997697Y-65273340D01*
X128021506Y-65154293D01*
X128021506Y-65059055D01*
X127997697Y-64940007D01*
X127973887Y-64868579D01*
X127950078Y-64820960D01*
X127902459Y-64749531D01*
X127878649Y-64725721D01*
X127688173Y-64963817D02*
X127688173Y-65392388D01*
X127711982Y-65440007D01*
X127759601Y-65463817D01*
X127783411Y-65463817D01*
X127688173Y-64797150D02*
X127711982Y-64820960D01*
X127688173Y-64844769D01*
X127664363Y-64820960D01*
X127688173Y-64797150D01*
X127688173Y-64844769D01*
X127235792Y-64963817D02*
X127235792Y-65297150D01*
X127450078Y-64963817D02*
X127450078Y-65225721D01*
X127426268Y-65273340D01*
X127378649Y-65297150D01*
X127307220Y-65297150D01*
X127259601Y-65273340D01*
X127235792Y-65249531D01*
X126997697Y-65297150D02*
X126997697Y-64963817D01*
X126997697Y-65011436D02*
X126973887Y-64987626D01*
X126926268Y-64963817D01*
X126854840Y-64963817D01*
X126807220Y-64987626D01*
X126783411Y-65035245D01*
X126783411Y-65297150D01*
X126783411Y-65035245D02*
X126759601Y-64987626D01*
X126711982Y-64963817D01*
X126640554Y-64963817D01*
X126592935Y-64987626D01*
X126569125Y-65035245D01*
X126569125Y-65297150D01*
X126331030Y-64963817D02*
X126331030Y-65463817D01*
X126331030Y-64987626D02*
X126283411Y-64963817D01*
X126188173Y-64963817D01*
X126140554Y-64987626D01*
X126116744Y-65011436D01*
X126092935Y-65059055D01*
X126092935Y-65201912D01*
X126116744Y-65249531D01*
X126140554Y-65273340D01*
X126188173Y-65297150D01*
X126283411Y-65297150D01*
X126331030Y-65273340D01*
X125688173Y-65273340D02*
X125735792Y-65297150D01*
X125831030Y-65297150D01*
X125878649Y-65273340D01*
X125902459Y-65225721D01*
X125902459Y-65035245D01*
X125878649Y-64987626D01*
X125831030Y-64963817D01*
X125735792Y-64963817D01*
X125688173Y-64987626D01*
X125664363Y-65035245D01*
X125664363Y-65082864D01*
X125902459Y-65130483D01*
X125450078Y-65297150D02*
X125450078Y-64963817D01*
X125450078Y-65059055D02*
X125426268Y-65011436D01*
X125402459Y-64987626D01*
X125354840Y-64963817D01*
X125307220Y-64963817D01*
X125164363Y-65273340D02*
X125116744Y-65297150D01*
X125021506Y-65297150D01*
X124973887Y-65273340D01*
X124950078Y-65225721D01*
X124950078Y-65201912D01*
X124973887Y-65154293D01*
X125021506Y-65130483D01*
X125092935Y-65130483D01*
X125140554Y-65106674D01*
X125164363Y-65059055D01*
X125164363Y-65035245D01*
X125140554Y-64987626D01*
X125092935Y-64963817D01*
X125021506Y-64963817D01*
X124973887Y-64987626D01*
X124283411Y-65297150D02*
X124331030Y-65273340D01*
X124354840Y-65249531D01*
X124378649Y-65201912D01*
X124378649Y-65059055D01*
X124354840Y-65011436D01*
X124331030Y-64987626D01*
X124283411Y-64963817D01*
X124211982Y-64963817D01*
X124164363Y-64987626D01*
X124140554Y-65011436D01*
X124116744Y-65059055D01*
X124116744Y-65201912D01*
X124140554Y-65249531D01*
X124164363Y-65273340D01*
X124211982Y-65297150D01*
X124283411Y-65297150D01*
X123902459Y-64963817D02*
X123902459Y-65463817D01*
X123902459Y-64987626D02*
X123854840Y-64963817D01*
X123759601Y-64963817D01*
X123711982Y-64987626D01*
X123688173Y-65011436D01*
X123664363Y-65059055D01*
X123664363Y-65201912D01*
X123688173Y-65249531D01*
X123711982Y-65273340D01*
X123759601Y-65297150D01*
X123854840Y-65297150D01*
X123902459Y-65273340D01*
X123259601Y-65273340D02*
X123307220Y-65297150D01*
X123402459Y-65297150D01*
X123450078Y-65273340D01*
X123473887Y-65225721D01*
X123473887Y-65035245D01*
X123450078Y-64987626D01*
X123402459Y-64963817D01*
X123307220Y-64963817D01*
X123259601Y-64987626D01*
X123235792Y-65035245D01*
X123235792Y-65082864D01*
X123473887Y-65130483D01*
X123021506Y-64963817D02*
X123021506Y-65297150D01*
X123021506Y-65011436D02*
X122997697Y-64987626D01*
X122950078Y-64963817D01*
X122878649Y-64963817D01*
X122831030Y-64987626D01*
X122807220Y-65035245D01*
X122807220Y-65297150D01*
X122616744Y-65487626D02*
X122592935Y-65463817D01*
X122545316Y-65392388D01*
X122521506Y-65344769D01*
X122497697Y-65273340D01*
X122473887Y-65154293D01*
X122473887Y-65059055D01*
X122497697Y-64940007D01*
X122521506Y-64868579D01*
X122545316Y-64820960D01*
X122592935Y-64749531D01*
X122616744Y-64725721D01*
X167874095Y-57059990D02*
X168040761Y-56821895D01*
X168159809Y-57059990D02*
X168159809Y-56559990D01*
X167969333Y-56559990D01*
X167921714Y-56583800D01*
X167897904Y-56607609D01*
X167874095Y-56655228D01*
X167874095Y-56726657D01*
X167897904Y-56774276D01*
X167921714Y-56798085D01*
X167969333Y-56821895D01*
X168159809Y-56821895D01*
X167469333Y-57036180D02*
X167516952Y-57059990D01*
X167612190Y-57059990D01*
X167659809Y-57036180D01*
X167683619Y-56988561D01*
X167683619Y-56798085D01*
X167659809Y-56750466D01*
X167612190Y-56726657D01*
X167516952Y-56726657D01*
X167469333Y-56750466D01*
X167445523Y-56798085D01*
X167445523Y-56845704D01*
X167683619Y-56893323D01*
X167278857Y-56726657D02*
X167159809Y-57059990D01*
X167040761Y-56726657D01*
X166874095Y-56607609D02*
X166850285Y-56583800D01*
X166802666Y-56559990D01*
X166683619Y-56559990D01*
X166636000Y-56583800D01*
X166612190Y-56607609D01*
X166588380Y-56655228D01*
X166588380Y-56702847D01*
X166612190Y-56774276D01*
X166897904Y-57059990D01*
X166588380Y-57059990D01*
X168040761Y-57792133D02*
X167802666Y-57792133D01*
X168088380Y-57934990D02*
X167921714Y-57434990D01*
X167755047Y-57934990D01*
X167421714Y-57673085D02*
X167350285Y-57696895D01*
X167326476Y-57720704D01*
X167302666Y-57768323D01*
X167302666Y-57839752D01*
X167326476Y-57887371D01*
X167350285Y-57911180D01*
X167397904Y-57934990D01*
X167588380Y-57934990D01*
X167588380Y-57434990D01*
X167421714Y-57434990D01*
X167374095Y-57458800D01*
X167350285Y-57482609D01*
X167326476Y-57530228D01*
X167326476Y-57577847D01*
X167350285Y-57625466D01*
X167374095Y-57649276D01*
X167421714Y-57673085D01*
X167588380Y-57673085D01*
X167136000Y-57434990D02*
X167016952Y-57934990D01*
X166921714Y-57577847D01*
X166826476Y-57934990D01*
X166707428Y-57434990D01*
X168957428Y-58809990D02*
X169243142Y-58809990D01*
X169100285Y-58809990D02*
X169100285Y-58309990D01*
X169147904Y-58381419D01*
X169195523Y-58429038D01*
X169243142Y-58452847D01*
X168766952Y-58357609D02*
X168743142Y-58333800D01*
X168695523Y-58309990D01*
X168576476Y-58309990D01*
X168528857Y-58333800D01*
X168505047Y-58357609D01*
X168481238Y-58405228D01*
X168481238Y-58452847D01*
X168505047Y-58524276D01*
X168790761Y-58809990D01*
X168481238Y-58809990D01*
X167909809Y-58286180D02*
X168338380Y-58929038D01*
X167766952Y-58357609D02*
X167743142Y-58333800D01*
X167695523Y-58309990D01*
X167576476Y-58309990D01*
X167528857Y-58333800D01*
X167505047Y-58357609D01*
X167481238Y-58405228D01*
X167481238Y-58452847D01*
X167505047Y-58524276D01*
X167790761Y-58809990D01*
X167481238Y-58809990D01*
X167171714Y-58309990D02*
X167124095Y-58309990D01*
X167076476Y-58333800D01*
X167052666Y-58357609D01*
X167028857Y-58405228D01*
X167005047Y-58500466D01*
X167005047Y-58619514D01*
X167028857Y-58714752D01*
X167052666Y-58762371D01*
X167076476Y-58786180D01*
X167124095Y-58809990D01*
X167171714Y-58809990D01*
X167219333Y-58786180D01*
X167243142Y-58762371D01*
X167266952Y-58714752D01*
X167290761Y-58619514D01*
X167290761Y-58500466D01*
X167266952Y-58405228D01*
X167243142Y-58357609D01*
X167219333Y-58333800D01*
X167171714Y-58309990D01*
X166433619Y-58286180D02*
X166862190Y-58929038D01*
X166005047Y-58809990D02*
X166290761Y-58809990D01*
X166147904Y-58809990D02*
X166147904Y-58309990D01*
X166195523Y-58381419D01*
X166243142Y-58429038D01*
X166290761Y-58452847D01*
X165766952Y-58809990D02*
X165671714Y-58809990D01*
X165624095Y-58786180D01*
X165600285Y-58762371D01*
X165552666Y-58690942D01*
X165528857Y-58595704D01*
X165528857Y-58405228D01*
X165552666Y-58357609D01*
X165576476Y-58333800D01*
X165624095Y-58309990D01*
X165719333Y-58309990D01*
X165766952Y-58333800D01*
X165790761Y-58357609D01*
X165814571Y-58405228D01*
X165814571Y-58524276D01*
X165790761Y-58571895D01*
X165766952Y-58595704D01*
X165719333Y-58619514D01*
X165624095Y-58619514D01*
X165576476Y-58595704D01*
X165552666Y-58571895D01*
X165528857Y-58524276D01*
D11*
X168797523Y-64334140D02*
X168559428Y-65334140D01*
X168368952Y-64619855D01*
X168178476Y-65334140D01*
X167940380Y-64334140D01*
X167178476Y-65286521D02*
X167273714Y-65334140D01*
X167464190Y-65334140D01*
X167559428Y-65286521D01*
X167607047Y-65191283D01*
X167607047Y-64810331D01*
X167559428Y-64715093D01*
X167464190Y-64667474D01*
X167273714Y-64667474D01*
X167178476Y-64715093D01*
X167130857Y-64810331D01*
X167130857Y-64905569D01*
X167607047Y-65000807D01*
X166273714Y-65334140D02*
X166273714Y-64810331D01*
X166321333Y-64715093D01*
X166416571Y-64667474D01*
X166607047Y-64667474D01*
X166702285Y-64715093D01*
X166273714Y-65286521D02*
X166368952Y-65334140D01*
X166607047Y-65334140D01*
X166702285Y-65286521D01*
X166749904Y-65191283D01*
X166749904Y-65096045D01*
X166702285Y-65000807D01*
X166607047Y-64953188D01*
X166368952Y-64953188D01*
X166273714Y-64905569D01*
X165940380Y-64667474D02*
X165559428Y-64667474D01*
X165797523Y-64334140D02*
X165797523Y-65191283D01*
X165749904Y-65286521D01*
X165654666Y-65334140D01*
X165559428Y-65334140D01*
X165226095Y-65334140D02*
X165226095Y-64334140D01*
X164797523Y-65334140D02*
X164797523Y-64810331D01*
X164845142Y-64715093D01*
X164940380Y-64667474D01*
X165083238Y-64667474D01*
X165178476Y-64715093D01*
X165226095Y-64762712D01*
X163940380Y-65286521D02*
X164035619Y-65334140D01*
X164226095Y-65334140D01*
X164321333Y-65286521D01*
X164368952Y-65191283D01*
X164368952Y-64810331D01*
X164321333Y-64715093D01*
X164226095Y-64667474D01*
X164035619Y-64667474D01*
X163940380Y-64715093D01*
X163892761Y-64810331D01*
X163892761Y-64905569D01*
X164368952Y-65000807D01*
X163464190Y-65334140D02*
X163464190Y-64667474D01*
X163464190Y-64857950D02*
X163416571Y-64762712D01*
X163368952Y-64715093D01*
X163273714Y-64667474D01*
X163178476Y-64667474D01*
X162845142Y-64953188D02*
X162083238Y-64953188D01*
X161654666Y-65286521D02*
X161559428Y-65334140D01*
X161368952Y-65334140D01*
X161273714Y-65286521D01*
X161226095Y-65191283D01*
X161226095Y-65143664D01*
X161273714Y-65048426D01*
X161368952Y-65000807D01*
X161511809Y-65000807D01*
X161607047Y-64953188D01*
X161654666Y-64857950D01*
X161654666Y-64810331D01*
X161607047Y-64715093D01*
X161511809Y-64667474D01*
X161368952Y-64667474D01*
X161273714Y-64715093D01*
X160940380Y-64667474D02*
X160559428Y-64667474D01*
X160797523Y-64334140D02*
X160797523Y-65191283D01*
X160749904Y-65286521D01*
X160654666Y-65334140D01*
X160559428Y-65334140D01*
X159797523Y-65334140D02*
X159797523Y-64810331D01*
X159845142Y-64715093D01*
X159940380Y-64667474D01*
X160130857Y-64667474D01*
X160226095Y-64715093D01*
X159797523Y-65286521D02*
X159892761Y-65334140D01*
X160130857Y-65334140D01*
X160226095Y-65286521D01*
X160273714Y-65191283D01*
X160273714Y-65096045D01*
X160226095Y-65000807D01*
X160130857Y-64953188D01*
X159892761Y-64953188D01*
X159797523Y-64905569D01*
X159464190Y-64667474D02*
X159083238Y-64667474D01*
X159321333Y-64334140D02*
X159321333Y-65191283D01*
X159273714Y-65286521D01*
X159178476Y-65334140D01*
X159083238Y-65334140D01*
X158749904Y-65334140D02*
X158749904Y-64667474D01*
X158749904Y-64334140D02*
X158797523Y-64381760D01*
X158749904Y-64429379D01*
X158702285Y-64381760D01*
X158749904Y-64334140D01*
X158749904Y-64429379D01*
X158130857Y-65334140D02*
X158226095Y-65286521D01*
X158273714Y-65238902D01*
X158321333Y-65143664D01*
X158321333Y-64857950D01*
X158273714Y-64762712D01*
X158226095Y-64715093D01*
X158130857Y-64667474D01*
X157988000Y-64667474D01*
X157892761Y-64715093D01*
X157845142Y-64762712D01*
X157797523Y-64857950D01*
X157797523Y-65143664D01*
X157845142Y-65238902D01*
X157892761Y-65286521D01*
X157988000Y-65334140D01*
X158130857Y-65334140D01*
X157368952Y-64667474D02*
X157368952Y-65334140D01*
X157368952Y-64762712D02*
X157321333Y-64715093D01*
X157226095Y-64667474D01*
X157083238Y-64667474D01*
X156988000Y-64715093D01*
X156940380Y-64810331D01*
X156940380Y-65334140D01*
X155368952Y-64810331D02*
X155702285Y-64810331D01*
X155702285Y-65334140D02*
X155702285Y-64334140D01*
X155226095Y-64334140D01*
X154464190Y-65286521D02*
X154559428Y-65334140D01*
X154749904Y-65334140D01*
X154845142Y-65286521D01*
X154892761Y-65191283D01*
X154892761Y-64810331D01*
X154845142Y-64715093D01*
X154749904Y-64667474D01*
X154559428Y-64667474D01*
X154464190Y-64715093D01*
X154416571Y-64810331D01*
X154416571Y-64905569D01*
X154892761Y-65000807D01*
X153559428Y-65334140D02*
X153559428Y-64810331D01*
X153607047Y-64715093D01*
X153702285Y-64667474D01*
X153892761Y-64667474D01*
X153988000Y-64715093D01*
X153559428Y-65286521D02*
X153654666Y-65334140D01*
X153892761Y-65334140D01*
X153988000Y-65286521D01*
X154035619Y-65191283D01*
X154035619Y-65096045D01*
X153988000Y-65000807D01*
X153892761Y-64953188D01*
X153654666Y-64953188D01*
X153559428Y-64905569D01*
X153226095Y-64667474D02*
X152845142Y-64667474D01*
X153083238Y-64334140D02*
X153083238Y-65191283D01*
X153035619Y-65286521D01*
X152940380Y-65334140D01*
X152845142Y-65334140D01*
X152511809Y-65334140D02*
X152511809Y-64334140D01*
X152083238Y-65334140D02*
X152083238Y-64810331D01*
X152130857Y-64715093D01*
X152226095Y-64667474D01*
X152368952Y-64667474D01*
X152464190Y-64715093D01*
X152511809Y-64762712D01*
X151226095Y-65286521D02*
X151321333Y-65334140D01*
X151511809Y-65334140D01*
X151607047Y-65286521D01*
X151654666Y-65191283D01*
X151654666Y-64810331D01*
X151607047Y-64715093D01*
X151511809Y-64667474D01*
X151321333Y-64667474D01*
X151226095Y-64715093D01*
X151178476Y-64810331D01*
X151178476Y-64905569D01*
X151654666Y-65000807D01*
X150749904Y-65334140D02*
X150749904Y-64667474D01*
X150749904Y-64857950D02*
X150702285Y-64762712D01*
X150654666Y-64715093D01*
X150559428Y-64667474D01*
X150464190Y-64667474D01*
X150226095Y-64667474D02*
X150035619Y-65334140D01*
X149845142Y-64857950D01*
X149654666Y-65334140D01*
X149464190Y-64667474D01*
X149083238Y-65334140D02*
X149083238Y-64667474D01*
X149083238Y-64334140D02*
X149130857Y-64381760D01*
X149083238Y-64429379D01*
X149035619Y-64381760D01*
X149083238Y-64334140D01*
X149083238Y-64429379D01*
X148607047Y-64667474D02*
X148607047Y-65334140D01*
X148607047Y-64762712D02*
X148559428Y-64715093D01*
X148464190Y-64667474D01*
X148321333Y-64667474D01*
X148226095Y-64715093D01*
X148178476Y-64810331D01*
X148178476Y-65334140D01*
X147273714Y-64667474D02*
X147273714Y-65476998D01*
X147321333Y-65572236D01*
X147368952Y-65619855D01*
X147464190Y-65667474D01*
X147607047Y-65667474D01*
X147702285Y-65619855D01*
X147273714Y-65286521D02*
X147368952Y-65334140D01*
X147559428Y-65334140D01*
X147654666Y-65286521D01*
X147702285Y-65238902D01*
X147749904Y-65143664D01*
X147749904Y-64857950D01*
X147702285Y-64762712D01*
X147654666Y-64715093D01*
X147559428Y-64667474D01*
X147368952Y-64667474D01*
X147273714Y-64715093D01*
X128393819Y-69708780D02*
X128298580Y-69708780D01*
X128203342Y-69756400D01*
X128155723Y-69804019D01*
X128108104Y-69899257D01*
X128060485Y-70089733D01*
X128060485Y-70327828D01*
X128108104Y-70518304D01*
X128155723Y-70613542D01*
X128203342Y-70661161D01*
X128298580Y-70708780D01*
X128393819Y-70708780D01*
X128489057Y-70661161D01*
X128536676Y-70613542D01*
X128584295Y-70518304D01*
X128631914Y-70327828D01*
X128631914Y-70089733D01*
X128584295Y-69899257D01*
X128536676Y-69804019D01*
X128489057Y-69756400D01*
X128393819Y-69708780D01*
X128022385Y-68397380D02*
X128593814Y-68397380D01*
X128308100Y-68397380D02*
X128308100Y-67397380D01*
X128403338Y-67540238D01*
X128498576Y-67635476D01*
X128593814Y-67683095D01*
X127526895Y-66422566D02*
X127050704Y-66422566D01*
X127622133Y-66708280D02*
X127288800Y-65708280D01*
X126955466Y-66708280D01*
X126622133Y-66708280D02*
X126622133Y-65708280D01*
X126384038Y-65708280D01*
X126241180Y-65755900D01*
X126145942Y-65851138D01*
X126098323Y-65946376D01*
X126050704Y-66136852D01*
X126050704Y-66279709D01*
X126098323Y-66470185D01*
X126145942Y-66565423D01*
X126241180Y-66660661D01*
X126384038Y-66708280D01*
X126622133Y-66708280D01*
X125050704Y-66708280D02*
X125384038Y-66232090D01*
X125622133Y-66708280D02*
X125622133Y-65708280D01*
X125241180Y-65708280D01*
X125145942Y-65755900D01*
X125098323Y-65803519D01*
X125050704Y-65898757D01*
X125050704Y-66041614D01*
X125098323Y-66136852D01*
X125145942Y-66184471D01*
X125241180Y-66232090D01*
X125622133Y-66232090D01*
D12*
X140196800Y-65802000D02*
X138796800Y-65802000D01*
X138096800Y-66502000D02*
X138096800Y-67102000D01*
X138796800Y-67802000D02*
X140196800Y-67802000D01*
X140896800Y-67102000D02*
X140896800Y-66502000D01*
X140896800Y-66502000D02*
G75*
G03X140196800Y-65802000I-700000J0D01*
G01*
X140196800Y-67802000D02*
G75*
G03X140896800Y-67102000I0J700000D01*
G01*
X138096800Y-67102000D02*
G75*
G03X138796800Y-67802000I700000J0D01*
G01*
X138796800Y-65802000D02*
G75*
G03X138096800Y-66502000I0J-700000D01*
G01*
X125586500Y-71167500D02*
X126986500Y-71167500D01*
X127686500Y-70467500D02*
X127686500Y-69867500D01*
X126986500Y-69167500D02*
X125586500Y-69167500D01*
X124886500Y-69867500D02*
X124886500Y-70467500D01*
X124886500Y-70467500D02*
G75*
G03X125586500Y-71167500I700000J0D01*
G01*
X125586500Y-69167500D02*
G75*
G03X124886500Y-69867500I0J-700000D01*
G01*
X127686500Y-69867500D02*
G75*
G03X126986500Y-69167500I-700000J0D01*
G01*
X126986500Y-71167500D02*
G75*
G03X127686500Y-70467500I0J700000D01*
G01*
X125586500Y-69021200D02*
X126986500Y-69021200D01*
X127686500Y-68321200D02*
X127686500Y-67721200D01*
X126986500Y-67021200D02*
X125586500Y-67021200D01*
X124886500Y-67721200D02*
X124886500Y-68321200D01*
X124886500Y-68321200D02*
G75*
G03X125586500Y-69021200I700000J0D01*
G01*
X125586500Y-67021200D02*
G75*
G03X124886500Y-67721200I0J-700000D01*
G01*
X127686500Y-67721200D02*
G75*
G03X126986500Y-67021200I-700000J0D01*
G01*
X126986500Y-69021200D02*
G75*
G03X127686500Y-68321200I0J700000D01*
G01*
D11*
X140342833Y-68286380D02*
X140342833Y-69000666D01*
X140390452Y-69143523D01*
X140485690Y-69238761D01*
X140628547Y-69286380D01*
X140723785Y-69286380D01*
X139866642Y-69286380D02*
X139866642Y-68286380D01*
X139485690Y-68286380D01*
X139390452Y-68334000D01*
X139342833Y-68381619D01*
X139295214Y-68476857D01*
X139295214Y-68619714D01*
X139342833Y-68714952D01*
X139390452Y-68762571D01*
X139485690Y-68810190D01*
X139866642Y-68810190D01*
X138390452Y-68286380D02*
X138866642Y-68286380D01*
X138914261Y-68762571D01*
X138866642Y-68714952D01*
X138771404Y-68667333D01*
X138533309Y-68667333D01*
X138438071Y-68714952D01*
X138390452Y-68762571D01*
X138342833Y-68857809D01*
X138342833Y-69095904D01*
X138390452Y-69191142D01*
X138438071Y-69238761D01*
X138533309Y-69286380D01*
X138771404Y-69286380D01*
X138866642Y-69238761D01*
X138914261Y-69191142D01*
M02*
