G04 #@! TF.GenerationSoftware,KiCad,Pcbnew,(5.1.4)-1*
G04 #@! TF.CreationDate,2019-12-20T11:27:30-05:00*
G04 #@! TF.ProjectId,Feather-weather-station,46656174-6865-4722-9d77-656174686572,rev?*
G04 #@! TF.SameCoordinates,Original*
G04 #@! TF.FileFunction,Legend,Top*
G04 #@! TF.FilePolarity,Positive*
%FSLAX46Y46*%
G04 Gerber Fmt 4.6, Leading zero omitted, Abs format (unit mm)*
G04 Created by KiCad (PCBNEW (5.1.4)-1) date 2019-12-20 11:27:30*
%MOMM*%
%LPD*%
G04 APERTURE LIST*
%ADD10C,0.120000*%
%ADD11C,0.100000*%
%ADD12C,0.200000*%
%ADD13C,0.150000*%
%ADD14C,0.400000*%
%ADD15C,0.254000*%
G04 APERTURE END LIST*
D10*
X132957800Y-53197000D02*
X131557800Y-53197000D01*
X130857800Y-52497000D02*
X130857800Y-51897000D01*
X131557800Y-51197000D02*
X132957800Y-51197000D01*
X133657800Y-51897000D02*
X133657800Y-52497000D01*
X133657800Y-52497000D02*
G75*
G02X132957800Y-53197000I-700000J0D01*
G01*
X132957800Y-51197000D02*
G75*
G02X133657800Y-51897000I0J-700000D01*
G01*
X130857800Y-51897000D02*
G75*
G02X131557800Y-51197000I700000J0D01*
G01*
X131557800Y-53197000D02*
G75*
G02X130857800Y-52497000I0J700000D01*
G01*
X139852400Y-61483600D02*
X138352400Y-61483600D01*
X141352400Y-64703600D02*
X138352400Y-64703600D01*
D11*
X150053700Y-70148500D02*
X150453700Y-70148500D01*
X150053700Y-70948500D02*
X150453700Y-70948500D01*
D12*
X148753700Y-70448500D02*
X148753700Y-70448500D01*
X148753700Y-70648500D02*
X148753700Y-70648500D01*
X148753700Y-70648500D02*
G75*
G03X148753700Y-70448500I0J100000D01*
G01*
X148753700Y-70448500D02*
G75*
G03X148753700Y-70648500I0J-100000D01*
G01*
D10*
X169751200Y-59415500D02*
X169401200Y-59925500D01*
X169551200Y-56905500D02*
X169551200Y-56645500D01*
X169751200Y-57105500D02*
X169551200Y-56905500D01*
X169751200Y-66505500D02*
X169551200Y-66295500D01*
X169401200Y-66295500D02*
X169551200Y-66295500D01*
X169401200Y-66295500D02*
X169401200Y-59925500D01*
X164791200Y-69395500D02*
X166591200Y-69395500D01*
X158791200Y-69395500D02*
X163491200Y-69395500D01*
X169751200Y-68365500D02*
X169551200Y-68565500D01*
X169751200Y-68365500D02*
X169751200Y-66505500D01*
X169751200Y-57105500D02*
X169751200Y-59415500D01*
X153481200Y-69395500D02*
X157091200Y-69395500D01*
X153481200Y-68945500D02*
X153481200Y-69395500D01*
X153481200Y-55425500D02*
X167491200Y-55425500D01*
X153481200Y-57345500D02*
X153481200Y-55425500D01*
D13*
X132743700Y-60372500D02*
X132743700Y-61172500D01*
X128393700Y-64722500D02*
X128393700Y-63922500D01*
X132743700Y-64722500D02*
X132743700Y-63922500D01*
X128393700Y-60372500D02*
X129193700Y-60372500D01*
X128393700Y-64722500D02*
X129193700Y-64722500D01*
X132743700Y-64722500D02*
X131943700Y-64722500D01*
X132743700Y-60372500D02*
X131943700Y-60372500D01*
D10*
X127659200Y-62806078D02*
X127659200Y-62288922D01*
X126239200Y-62806078D02*
X126239200Y-62288922D01*
X130700278Y-65545900D02*
X130183122Y-65545900D01*
X130700278Y-66965900D02*
X130183122Y-66965900D01*
X138730222Y-60552400D02*
X139247378Y-60552400D01*
X138730222Y-59132400D02*
X139247378Y-59132400D01*
X129417578Y-51487000D02*
X128900422Y-51487000D01*
X129417578Y-52907000D02*
X128900422Y-52907000D01*
X124172000Y-53157000D02*
X126857000Y-53157000D01*
X124172000Y-51237000D02*
X124172000Y-53157000D01*
X126857000Y-51237000D02*
X124172000Y-51237000D01*
X134720400Y-57840378D02*
X134720400Y-57323222D01*
X133300400Y-57840378D02*
X133300400Y-57323222D01*
X132840800Y-57891178D02*
X132840800Y-57374022D01*
X131420800Y-57891178D02*
X131420800Y-57374022D01*
X151713000Y-68673478D02*
X151713000Y-68156322D01*
X150293000Y-68673478D02*
X150293000Y-68156322D01*
X130170422Y-68705800D02*
X130687578Y-68705800D01*
X130170422Y-67285800D02*
X130687578Y-67285800D01*
X147445800Y-57002178D02*
X147445800Y-56485022D01*
X146025800Y-57002178D02*
X146025800Y-56485022D01*
X147892700Y-56485022D02*
X147892700Y-57002178D01*
X149312700Y-56485022D02*
X149312700Y-57002178D01*
X126750578Y-69673400D02*
X126233422Y-69673400D01*
X126750578Y-71093400D02*
X126233422Y-71093400D01*
X126763278Y-67895400D02*
X126246122Y-67895400D01*
X126763278Y-69315400D02*
X126246122Y-69315400D01*
X126737878Y-64479100D02*
X126220722Y-64479100D01*
X126737878Y-65899100D02*
X126220722Y-65899100D01*
X126255278Y-57189300D02*
X125738122Y-57189300D01*
X126255278Y-58609300D02*
X125738122Y-58609300D01*
X125766900Y-62806078D02*
X125766900Y-62288922D01*
X124346900Y-62806078D02*
X124346900Y-62288922D01*
D12*
X120512900Y-67954155D02*
X124012900Y-67954155D01*
X124012900Y-67954155D02*
X124012900Y-56254155D01*
X124012900Y-56254155D02*
X120512900Y-56254155D01*
X120512900Y-56254155D02*
X120512900Y-67954155D01*
D14*
X122345590Y-68599155D02*
G75*
G03X122345590Y-68599155I-141690J0D01*
G01*
D13*
X165223866Y-51712880D02*
X165223866Y-52427166D01*
X165176247Y-52570023D01*
X165081009Y-52665261D01*
X164938152Y-52712880D01*
X164842914Y-52712880D01*
X165604819Y-51712880D02*
X166223866Y-51712880D01*
X165890533Y-52093833D01*
X166033390Y-52093833D01*
X166128628Y-52141452D01*
X166176247Y-52189071D01*
X166223866Y-52284309D01*
X166223866Y-52522404D01*
X166176247Y-52617642D01*
X166128628Y-52665261D01*
X166033390Y-52712880D01*
X165747676Y-52712880D01*
X165652438Y-52665261D01*
X165604819Y-52617642D01*
X131424466Y-53449380D02*
X131424466Y-54163666D01*
X131376847Y-54306523D01*
X131281609Y-54401761D01*
X131138752Y-54449380D01*
X131043514Y-54449380D01*
X131900657Y-54449380D02*
X131900657Y-53449380D01*
X132281609Y-53449380D01*
X132376847Y-53497000D01*
X132424466Y-53544619D01*
X132472085Y-53639857D01*
X132472085Y-53782714D01*
X132424466Y-53877952D01*
X132376847Y-53925571D01*
X132281609Y-53973190D01*
X131900657Y-53973190D01*
X133329228Y-53782714D02*
X133329228Y-54449380D01*
X133091133Y-53401761D02*
X132853038Y-54116047D01*
X133472085Y-54116047D01*
X139090495Y-65187580D02*
X139090495Y-65997104D01*
X139138114Y-66092342D01*
X139185733Y-66139961D01*
X139280971Y-66187580D01*
X139471447Y-66187580D01*
X139566685Y-66139961D01*
X139614304Y-66092342D01*
X139661923Y-65997104D01*
X139661923Y-65187580D01*
X140042876Y-65187580D02*
X140661923Y-65187580D01*
X140328590Y-65568533D01*
X140471447Y-65568533D01*
X140566685Y-65616152D01*
X140614304Y-65663771D01*
X140661923Y-65759009D01*
X140661923Y-65997104D01*
X140614304Y-66092342D01*
X140566685Y-66139961D01*
X140471447Y-66187580D01*
X140185733Y-66187580D01*
X140090495Y-66139961D01*
X140042876Y-66092342D01*
X146822255Y-70353940D02*
X146822255Y-71163464D01*
X146869874Y-71258702D01*
X146917493Y-71306321D01*
X147012731Y-71353940D01*
X147203207Y-71353940D01*
X147298445Y-71306321D01*
X147346064Y-71258702D01*
X147393683Y-71163464D01*
X147393683Y-70353940D01*
X148393683Y-71353940D02*
X147822255Y-71353940D01*
X148107969Y-71353940D02*
X148107969Y-70353940D01*
X148012731Y-70496798D01*
X147917493Y-70592036D01*
X147822255Y-70639655D01*
X151440900Y-58931133D02*
X152155186Y-58931133D01*
X152298043Y-58978752D01*
X152393281Y-59073990D01*
X152440900Y-59216847D01*
X152440900Y-59312085D01*
X151774234Y-58026371D02*
X152440900Y-58026371D01*
X151393281Y-58264466D02*
X152107567Y-58502561D01*
X152107567Y-57883514D01*
X128422495Y-58837580D02*
X128422495Y-59647104D01*
X128470114Y-59742342D01*
X128517733Y-59789961D01*
X128612971Y-59837580D01*
X128803447Y-59837580D01*
X128898685Y-59789961D01*
X128946304Y-59742342D01*
X128993923Y-59647104D01*
X128993923Y-58837580D01*
X129422495Y-58932819D02*
X129470114Y-58885200D01*
X129565352Y-58837580D01*
X129803447Y-58837580D01*
X129898685Y-58885200D01*
X129946304Y-58932819D01*
X129993923Y-59028057D01*
X129993923Y-59123295D01*
X129946304Y-59266152D01*
X129374876Y-59837580D01*
X129993923Y-59837580D01*
X127401580Y-60237666D02*
X126925390Y-60571000D01*
X127401580Y-60809095D02*
X126401580Y-60809095D01*
X126401580Y-60428142D01*
X126449200Y-60332904D01*
X126496819Y-60285285D01*
X126592057Y-60237666D01*
X126734914Y-60237666D01*
X126830152Y-60285285D01*
X126877771Y-60332904D01*
X126925390Y-60428142D01*
X126925390Y-60809095D01*
X126496819Y-59856714D02*
X126449200Y-59809095D01*
X126401580Y-59713857D01*
X126401580Y-59475761D01*
X126449200Y-59380523D01*
X126496819Y-59332904D01*
X126592057Y-59285285D01*
X126687295Y-59285285D01*
X126830152Y-59332904D01*
X127401580Y-59904333D01*
X127401580Y-59285285D01*
X132827733Y-66695580D02*
X132494400Y-66219390D01*
X132256304Y-66695580D02*
X132256304Y-65695580D01*
X132637257Y-65695580D01*
X132732495Y-65743200D01*
X132780114Y-65790819D01*
X132827733Y-65886057D01*
X132827733Y-66028914D01*
X132780114Y-66124152D01*
X132732495Y-66171771D01*
X132637257Y-66219390D01*
X132256304Y-66219390D01*
X133161066Y-65695580D02*
X133827733Y-65695580D01*
X133399161Y-66695580D01*
X138822133Y-58472342D02*
X138774514Y-58519961D01*
X138631657Y-58567580D01*
X138536419Y-58567580D01*
X138393561Y-58519961D01*
X138298323Y-58424723D01*
X138250704Y-58329485D01*
X138203085Y-58139009D01*
X138203085Y-57996152D01*
X138250704Y-57805676D01*
X138298323Y-57710438D01*
X138393561Y-57615200D01*
X138536419Y-57567580D01*
X138631657Y-57567580D01*
X138774514Y-57615200D01*
X138822133Y-57662819D01*
X139679276Y-57900914D02*
X139679276Y-58567580D01*
X139441180Y-57519961D02*
X139203085Y-58234247D01*
X139822133Y-58234247D01*
X165579466Y-72629780D02*
X165579466Y-73344066D01*
X165531847Y-73486923D01*
X165436609Y-73582161D01*
X165293752Y-73629780D01*
X165198514Y-73629780D01*
X166531847Y-72629780D02*
X166055657Y-72629780D01*
X166008038Y-73105971D01*
X166055657Y-73058352D01*
X166150895Y-73010733D01*
X166388990Y-73010733D01*
X166484228Y-73058352D01*
X166531847Y-73105971D01*
X166579466Y-73201209D01*
X166579466Y-73439304D01*
X166531847Y-73534542D01*
X166484228Y-73582161D01*
X166388990Y-73629780D01*
X166150895Y-73629780D01*
X166055657Y-73582161D01*
X166008038Y-73534542D01*
X128516142Y-54198780D02*
X128182809Y-53722590D01*
X127944714Y-54198780D02*
X127944714Y-53198780D01*
X128325666Y-53198780D01*
X128420904Y-53246400D01*
X128468523Y-53294019D01*
X128516142Y-53389257D01*
X128516142Y-53532114D01*
X128468523Y-53627352D01*
X128420904Y-53674971D01*
X128325666Y-53722590D01*
X127944714Y-53722590D01*
X129468523Y-54198780D02*
X128897095Y-54198780D01*
X129182809Y-54198780D02*
X129182809Y-53198780D01*
X129087571Y-53341638D01*
X128992333Y-53436876D01*
X128897095Y-53484495D01*
X130087571Y-53198780D02*
X130182809Y-53198780D01*
X130278047Y-53246400D01*
X130325666Y-53294019D01*
X130373285Y-53389257D01*
X130420904Y-53579733D01*
X130420904Y-53817828D01*
X130373285Y-54008304D01*
X130325666Y-54103542D01*
X130278047Y-54151161D01*
X130182809Y-54198780D01*
X130087571Y-54198780D01*
X129992333Y-54151161D01*
X129944714Y-54103542D01*
X129897095Y-54008304D01*
X129849476Y-53817828D01*
X129849476Y-53579733D01*
X129897095Y-53389257D01*
X129944714Y-53294019D01*
X129992333Y-53246400D01*
X130087571Y-53198780D01*
X125118904Y-54401980D02*
X125118904Y-53401980D01*
X125357000Y-53401980D01*
X125499857Y-53449600D01*
X125595095Y-53544838D01*
X125642714Y-53640076D01*
X125690333Y-53830552D01*
X125690333Y-53973409D01*
X125642714Y-54163885D01*
X125595095Y-54259123D01*
X125499857Y-54354361D01*
X125357000Y-54401980D01*
X125118904Y-54401980D01*
X126642714Y-54401980D02*
X126071285Y-54401980D01*
X126357000Y-54401980D02*
X126357000Y-53401980D01*
X126261761Y-53544838D01*
X126166523Y-53640076D01*
X126071285Y-53687695D01*
X134513580Y-60288466D02*
X134037390Y-60621800D01*
X134513580Y-60859895D02*
X133513580Y-60859895D01*
X133513580Y-60478942D01*
X133561200Y-60383704D01*
X133608819Y-60336085D01*
X133704057Y-60288466D01*
X133846914Y-60288466D01*
X133942152Y-60336085D01*
X133989771Y-60383704D01*
X134037390Y-60478942D01*
X134037390Y-60859895D01*
X134513580Y-59812276D02*
X134513580Y-59621800D01*
X134465961Y-59526561D01*
X134418342Y-59478942D01*
X134275485Y-59383704D01*
X134085009Y-59336085D01*
X133704057Y-59336085D01*
X133608819Y-59383704D01*
X133561200Y-59431323D01*
X133513580Y-59526561D01*
X133513580Y-59717038D01*
X133561200Y-59812276D01*
X133608819Y-59859895D01*
X133704057Y-59907514D01*
X133942152Y-59907514D01*
X134037390Y-59859895D01*
X134085009Y-59812276D01*
X134132628Y-59717038D01*
X134132628Y-59526561D01*
X134085009Y-59431323D01*
X134037390Y-59383704D01*
X133942152Y-59336085D01*
X131084580Y-57519866D02*
X130608390Y-57853200D01*
X131084580Y-58091295D02*
X130084580Y-58091295D01*
X130084580Y-57710342D01*
X130132200Y-57615104D01*
X130179819Y-57567485D01*
X130275057Y-57519866D01*
X130417914Y-57519866D01*
X130513152Y-57567485D01*
X130560771Y-57615104D01*
X130608390Y-57710342D01*
X130608390Y-58091295D01*
X130513152Y-56948438D02*
X130465533Y-57043676D01*
X130417914Y-57091295D01*
X130322676Y-57138914D01*
X130275057Y-57138914D01*
X130179819Y-57091295D01*
X130132200Y-57043676D01*
X130084580Y-56948438D01*
X130084580Y-56757961D01*
X130132200Y-56662723D01*
X130179819Y-56615104D01*
X130275057Y-56567485D01*
X130322676Y-56567485D01*
X130417914Y-56615104D01*
X130465533Y-56662723D01*
X130513152Y-56757961D01*
X130513152Y-56948438D01*
X130560771Y-57043676D01*
X130608390Y-57091295D01*
X130703628Y-57138914D01*
X130894104Y-57138914D01*
X130989342Y-57091295D01*
X131036961Y-57043676D01*
X131084580Y-56948438D01*
X131084580Y-56757961D01*
X131036961Y-56662723D01*
X130989342Y-56615104D01*
X130894104Y-56567485D01*
X130703628Y-56567485D01*
X130608390Y-56615104D01*
X130560771Y-56662723D01*
X130513152Y-56757961D01*
X151506180Y-65622466D02*
X151029990Y-65955800D01*
X151506180Y-66193895D02*
X150506180Y-66193895D01*
X150506180Y-65812942D01*
X150553800Y-65717704D01*
X150601419Y-65670085D01*
X150696657Y-65622466D01*
X150839514Y-65622466D01*
X150934752Y-65670085D01*
X150982371Y-65717704D01*
X151029990Y-65812942D01*
X151029990Y-66193895D01*
X150839514Y-64765323D02*
X151506180Y-64765323D01*
X150458561Y-65003419D02*
X151172847Y-65241514D01*
X151172847Y-64622466D01*
X132738833Y-68448180D02*
X132405500Y-67971990D01*
X132167404Y-68448180D02*
X132167404Y-67448180D01*
X132548357Y-67448180D01*
X132643595Y-67495800D01*
X132691214Y-67543419D01*
X132738833Y-67638657D01*
X132738833Y-67781514D01*
X132691214Y-67876752D01*
X132643595Y-67924371D01*
X132548357Y-67971990D01*
X132167404Y-67971990D01*
X133072166Y-67448180D02*
X133691214Y-67448180D01*
X133357880Y-67829133D01*
X133500738Y-67829133D01*
X133595976Y-67876752D01*
X133643595Y-67924371D01*
X133691214Y-68019609D01*
X133691214Y-68257704D01*
X133643595Y-68352942D01*
X133595976Y-68400561D01*
X133500738Y-68448180D01*
X133215023Y-68448180D01*
X133119785Y-68400561D01*
X133072166Y-68352942D01*
X145538180Y-57386457D02*
X145061990Y-57719790D01*
X145538180Y-57957885D02*
X144538180Y-57957885D01*
X144538180Y-57576933D01*
X144585800Y-57481695D01*
X144633419Y-57434076D01*
X144728657Y-57386457D01*
X144871514Y-57386457D01*
X144966752Y-57434076D01*
X145014371Y-57481695D01*
X145061990Y-57576933D01*
X145061990Y-57957885D01*
X145538180Y-56434076D02*
X145538180Y-57005504D01*
X145538180Y-56719790D02*
X144538180Y-56719790D01*
X144681038Y-56815028D01*
X144776276Y-56910266D01*
X144823895Y-57005504D01*
X145538180Y-55481695D02*
X145538180Y-56053123D01*
X145538180Y-55767409D02*
X144538180Y-55767409D01*
X144681038Y-55862647D01*
X144776276Y-55957885D01*
X144823895Y-56053123D01*
X150705080Y-57386457D02*
X150228890Y-57719790D01*
X150705080Y-57957885D02*
X149705080Y-57957885D01*
X149705080Y-57576933D01*
X149752700Y-57481695D01*
X149800319Y-57434076D01*
X149895557Y-57386457D01*
X150038414Y-57386457D01*
X150133652Y-57434076D01*
X150181271Y-57481695D01*
X150228890Y-57576933D01*
X150228890Y-57957885D01*
X150705080Y-56434076D02*
X150705080Y-57005504D01*
X150705080Y-56719790D02*
X149705080Y-56719790D01*
X149847938Y-56815028D01*
X149943176Y-56910266D01*
X149990795Y-57005504D01*
X149800319Y-56053123D02*
X149752700Y-56005504D01*
X149705080Y-55910266D01*
X149705080Y-55672171D01*
X149752700Y-55576933D01*
X149800319Y-55529314D01*
X149895557Y-55481695D01*
X149990795Y-55481695D01*
X150133652Y-55529314D01*
X150705080Y-56100742D01*
X150705080Y-55481695D01*
X128916133Y-70823080D02*
X128582800Y-70346890D01*
X128344704Y-70823080D02*
X128344704Y-69823080D01*
X128725657Y-69823080D01*
X128820895Y-69870700D01*
X128868514Y-69918319D01*
X128916133Y-70013557D01*
X128916133Y-70156414D01*
X128868514Y-70251652D01*
X128820895Y-70299271D01*
X128725657Y-70346890D01*
X128344704Y-70346890D01*
X129773276Y-69823080D02*
X129582800Y-69823080D01*
X129487561Y-69870700D01*
X129439942Y-69918319D01*
X129344704Y-70061176D01*
X129297085Y-70251652D01*
X129297085Y-70632604D01*
X129344704Y-70727842D01*
X129392323Y-70775461D01*
X129487561Y-70823080D01*
X129678038Y-70823080D01*
X129773276Y-70775461D01*
X129820895Y-70727842D01*
X129868514Y-70632604D01*
X129868514Y-70394509D01*
X129820895Y-70299271D01*
X129773276Y-70251652D01*
X129678038Y-70204033D01*
X129487561Y-70204033D01*
X129392323Y-70251652D01*
X129344704Y-70299271D01*
X129297085Y-70394509D01*
X124019013Y-69479420D02*
X123685680Y-69003230D01*
X123447584Y-69479420D02*
X123447584Y-68479420D01*
X123828537Y-68479420D01*
X123923775Y-68527040D01*
X123971394Y-68574659D01*
X124019013Y-68669897D01*
X124019013Y-68812754D01*
X123971394Y-68907992D01*
X123923775Y-68955611D01*
X123828537Y-69003230D01*
X123447584Y-69003230D01*
X124923775Y-68479420D02*
X124447584Y-68479420D01*
X124399965Y-68955611D01*
X124447584Y-68907992D01*
X124542822Y-68860373D01*
X124780918Y-68860373D01*
X124876156Y-68907992D01*
X124923775Y-68955611D01*
X124971394Y-69050849D01*
X124971394Y-69288944D01*
X124923775Y-69384182D01*
X124876156Y-69431801D01*
X124780918Y-69479420D01*
X124542822Y-69479420D01*
X124447584Y-69431801D01*
X124399965Y-69384182D01*
X126320253Y-67052462D02*
X126272634Y-67100081D01*
X126129777Y-67147700D01*
X126034539Y-67147700D01*
X125891681Y-67100081D01*
X125796443Y-67004843D01*
X125748824Y-66909605D01*
X125701205Y-66719129D01*
X125701205Y-66576272D01*
X125748824Y-66385796D01*
X125796443Y-66290558D01*
X125891681Y-66195320D01*
X126034539Y-66147700D01*
X126129777Y-66147700D01*
X126272634Y-66195320D01*
X126320253Y-66242939D01*
X126701205Y-66242939D02*
X126748824Y-66195320D01*
X126844062Y-66147700D01*
X127082158Y-66147700D01*
X127177396Y-66195320D01*
X127225015Y-66242939D01*
X127272634Y-66338177D01*
X127272634Y-66433415D01*
X127225015Y-66576272D01*
X126653586Y-67147700D01*
X127272634Y-67147700D01*
X125804633Y-56783242D02*
X125757014Y-56830861D01*
X125614157Y-56878480D01*
X125518919Y-56878480D01*
X125376061Y-56830861D01*
X125280823Y-56735623D01*
X125233204Y-56640385D01*
X125185585Y-56449909D01*
X125185585Y-56307052D01*
X125233204Y-56116576D01*
X125280823Y-56021338D01*
X125376061Y-55926100D01*
X125518919Y-55878480D01*
X125614157Y-55878480D01*
X125757014Y-55926100D01*
X125804633Y-55973719D01*
X126137966Y-55878480D02*
X126757014Y-55878480D01*
X126423680Y-56259433D01*
X126566538Y-56259433D01*
X126661776Y-56307052D01*
X126709395Y-56354671D01*
X126757014Y-56449909D01*
X126757014Y-56688004D01*
X126709395Y-56783242D01*
X126661776Y-56830861D01*
X126566538Y-56878480D01*
X126280823Y-56878480D01*
X126185585Y-56830861D01*
X126137966Y-56783242D01*
X125414042Y-60199566D02*
X125461661Y-60247185D01*
X125509280Y-60390042D01*
X125509280Y-60485280D01*
X125461661Y-60628138D01*
X125366423Y-60723376D01*
X125271185Y-60770995D01*
X125080709Y-60818614D01*
X124937852Y-60818614D01*
X124747376Y-60770995D01*
X124652138Y-60723376D01*
X124556900Y-60628138D01*
X124509280Y-60485280D01*
X124509280Y-60390042D01*
X124556900Y-60247185D01*
X124604519Y-60199566D01*
X125509280Y-59247185D02*
X125509280Y-59818614D01*
X125509280Y-59532900D02*
X124509280Y-59532900D01*
X124652138Y-59628138D01*
X124747376Y-59723376D01*
X124794995Y-59818614D01*
D15*
X122412346Y-64514165D02*
X122412346Y-63909403D01*
X122775203Y-64635117D02*
X121505203Y-64211784D01*
X122775203Y-63788451D01*
X122775203Y-63365117D02*
X121505203Y-63365117D01*
X122775203Y-62639403D01*
X121505203Y-62639403D01*
X121505203Y-62216070D02*
X121505203Y-61490355D01*
X122775203Y-61853213D02*
X121505203Y-61853213D01*
X122775203Y-60401784D02*
X122775203Y-61127498D01*
X122775203Y-60764641D02*
X121505203Y-60764641D01*
X121686632Y-60885594D01*
X121807584Y-61006546D01*
X121868060Y-61127498D01*
M02*
