G04 #@! TF.GenerationSoftware,KiCad,Pcbnew,(5.1.4)-1*
G04 #@! TF.CreationDate,2019-12-20T11:27:30-05:00*
G04 #@! TF.ProjectId,Feather-weather-station,46656174-6865-4722-9d77-656174686572,rev?*
G04 #@! TF.SameCoordinates,Original*
G04 #@! TF.FileFunction,Paste,Top*
G04 #@! TF.FilePolarity,Positive*
%FSLAX46Y46*%
G04 Gerber Fmt 4.6, Leading zero omitted, Abs format (unit mm)*
G04 Created by KiCad (PCBNEW (5.1.4)-1) date 2019-12-20 11:27:30*
%MOMM*%
%LPD*%
G04 APERTURE LIST*
%ADD10C,0.100000*%
%ADD11C,0.500000*%
%ADD12R,0.800000X0.800000*%
%ADD13R,1.200000X0.700000*%
%ADD14R,1.200000X1.000000*%
%ADD15R,0.800000X1.000000*%
%ADD16R,2.800000X1.000000*%
%ADD17R,1.900000X1.300000*%
%ADD18O,0.800000X0.350000*%
%ADD19O,0.350000X0.800000*%
%ADD20R,1.130000X1.130000*%
%ADD21C,0.975000*%
%ADD22R,3.200000X1.300000*%
G04 APERTURE END LIST*
D10*
G36*
X141189652Y-61644202D02*
G01*
X141201786Y-61646002D01*
X141213686Y-61648982D01*
X141225235Y-61653115D01*
X141236325Y-61658360D01*
X141246846Y-61664666D01*
X141256699Y-61671974D01*
X141265788Y-61680212D01*
X141274026Y-61689301D01*
X141281334Y-61699154D01*
X141287640Y-61709675D01*
X141292885Y-61720765D01*
X141297018Y-61732314D01*
X141299998Y-61744214D01*
X141301798Y-61756348D01*
X141302400Y-61768600D01*
X141302400Y-62018600D01*
X141301798Y-62030852D01*
X141299998Y-62042986D01*
X141297018Y-62054886D01*
X141292885Y-62066435D01*
X141287640Y-62077525D01*
X141281334Y-62088046D01*
X141274026Y-62097899D01*
X141265788Y-62106988D01*
X141256699Y-62115226D01*
X141246846Y-62122534D01*
X141236325Y-62128840D01*
X141225235Y-62134085D01*
X141213686Y-62138218D01*
X141201786Y-62141198D01*
X141189652Y-62142998D01*
X141177400Y-62143600D01*
X140902400Y-62143600D01*
X140890148Y-62142998D01*
X140878014Y-62141198D01*
X140866114Y-62138218D01*
X140854565Y-62134085D01*
X140843475Y-62128840D01*
X140832954Y-62122534D01*
X140823101Y-62115226D01*
X140814012Y-62106988D01*
X140805774Y-62097899D01*
X140798466Y-62088046D01*
X140792160Y-62077525D01*
X140786915Y-62066435D01*
X140782782Y-62054886D01*
X140779802Y-62042986D01*
X140778002Y-62030852D01*
X140777400Y-62018600D01*
X140777400Y-61768600D01*
X140778002Y-61756348D01*
X140779802Y-61744214D01*
X140782782Y-61732314D01*
X140786915Y-61720765D01*
X140792160Y-61709675D01*
X140798466Y-61699154D01*
X140805774Y-61689301D01*
X140814012Y-61680212D01*
X140823101Y-61671974D01*
X140832954Y-61664666D01*
X140843475Y-61658360D01*
X140854565Y-61653115D01*
X140866114Y-61648982D01*
X140878014Y-61646002D01*
X140890148Y-61644202D01*
X140902400Y-61643600D01*
X141177400Y-61643600D01*
X141189652Y-61644202D01*
X141189652Y-61644202D01*
G37*
D11*
X141039900Y-61893600D03*
D10*
G36*
X141189652Y-62444202D02*
G01*
X141201786Y-62446002D01*
X141213686Y-62448982D01*
X141225235Y-62453115D01*
X141236325Y-62458360D01*
X141246846Y-62464666D01*
X141256699Y-62471974D01*
X141265788Y-62480212D01*
X141274026Y-62489301D01*
X141281334Y-62499154D01*
X141287640Y-62509675D01*
X141292885Y-62520765D01*
X141297018Y-62532314D01*
X141299998Y-62544214D01*
X141301798Y-62556348D01*
X141302400Y-62568600D01*
X141302400Y-62818600D01*
X141301798Y-62830852D01*
X141299998Y-62842986D01*
X141297018Y-62854886D01*
X141292885Y-62866435D01*
X141287640Y-62877525D01*
X141281334Y-62888046D01*
X141274026Y-62897899D01*
X141265788Y-62906988D01*
X141256699Y-62915226D01*
X141246846Y-62922534D01*
X141236325Y-62928840D01*
X141225235Y-62934085D01*
X141213686Y-62938218D01*
X141201786Y-62941198D01*
X141189652Y-62942998D01*
X141177400Y-62943600D01*
X140902400Y-62943600D01*
X140890148Y-62942998D01*
X140878014Y-62941198D01*
X140866114Y-62938218D01*
X140854565Y-62934085D01*
X140843475Y-62928840D01*
X140832954Y-62922534D01*
X140823101Y-62915226D01*
X140814012Y-62906988D01*
X140805774Y-62897899D01*
X140798466Y-62888046D01*
X140792160Y-62877525D01*
X140786915Y-62866435D01*
X140782782Y-62854886D01*
X140779802Y-62842986D01*
X140778002Y-62830852D01*
X140777400Y-62818600D01*
X140777400Y-62568600D01*
X140778002Y-62556348D01*
X140779802Y-62544214D01*
X140782782Y-62532314D01*
X140786915Y-62520765D01*
X140792160Y-62509675D01*
X140798466Y-62499154D01*
X140805774Y-62489301D01*
X140814012Y-62480212D01*
X140823101Y-62471974D01*
X140832954Y-62464666D01*
X140843475Y-62458360D01*
X140854565Y-62453115D01*
X140866114Y-62448982D01*
X140878014Y-62446002D01*
X140890148Y-62444202D01*
X140902400Y-62443600D01*
X141177400Y-62443600D01*
X141189652Y-62444202D01*
X141189652Y-62444202D01*
G37*
D11*
X141039900Y-62693600D03*
D10*
G36*
X141189652Y-63244202D02*
G01*
X141201786Y-63246002D01*
X141213686Y-63248982D01*
X141225235Y-63253115D01*
X141236325Y-63258360D01*
X141246846Y-63264666D01*
X141256699Y-63271974D01*
X141265788Y-63280212D01*
X141274026Y-63289301D01*
X141281334Y-63299154D01*
X141287640Y-63309675D01*
X141292885Y-63320765D01*
X141297018Y-63332314D01*
X141299998Y-63344214D01*
X141301798Y-63356348D01*
X141302400Y-63368600D01*
X141302400Y-63618600D01*
X141301798Y-63630852D01*
X141299998Y-63642986D01*
X141297018Y-63654886D01*
X141292885Y-63666435D01*
X141287640Y-63677525D01*
X141281334Y-63688046D01*
X141274026Y-63697899D01*
X141265788Y-63706988D01*
X141256699Y-63715226D01*
X141246846Y-63722534D01*
X141236325Y-63728840D01*
X141225235Y-63734085D01*
X141213686Y-63738218D01*
X141201786Y-63741198D01*
X141189652Y-63742998D01*
X141177400Y-63743600D01*
X140902400Y-63743600D01*
X140890148Y-63742998D01*
X140878014Y-63741198D01*
X140866114Y-63738218D01*
X140854565Y-63734085D01*
X140843475Y-63728840D01*
X140832954Y-63722534D01*
X140823101Y-63715226D01*
X140814012Y-63706988D01*
X140805774Y-63697899D01*
X140798466Y-63688046D01*
X140792160Y-63677525D01*
X140786915Y-63666435D01*
X140782782Y-63654886D01*
X140779802Y-63642986D01*
X140778002Y-63630852D01*
X140777400Y-63618600D01*
X140777400Y-63368600D01*
X140778002Y-63356348D01*
X140779802Y-63344214D01*
X140782782Y-63332314D01*
X140786915Y-63320765D01*
X140792160Y-63309675D01*
X140798466Y-63299154D01*
X140805774Y-63289301D01*
X140814012Y-63280212D01*
X140823101Y-63271974D01*
X140832954Y-63264666D01*
X140843475Y-63258360D01*
X140854565Y-63253115D01*
X140866114Y-63248982D01*
X140878014Y-63246002D01*
X140890148Y-63244202D01*
X140902400Y-63243600D01*
X141177400Y-63243600D01*
X141189652Y-63244202D01*
X141189652Y-63244202D01*
G37*
D11*
X141039900Y-63493600D03*
D10*
G36*
X141189652Y-64044202D02*
G01*
X141201786Y-64046002D01*
X141213686Y-64048982D01*
X141225235Y-64053115D01*
X141236325Y-64058360D01*
X141246846Y-64064666D01*
X141256699Y-64071974D01*
X141265788Y-64080212D01*
X141274026Y-64089301D01*
X141281334Y-64099154D01*
X141287640Y-64109675D01*
X141292885Y-64120765D01*
X141297018Y-64132314D01*
X141299998Y-64144214D01*
X141301798Y-64156348D01*
X141302400Y-64168600D01*
X141302400Y-64418600D01*
X141301798Y-64430852D01*
X141299998Y-64442986D01*
X141297018Y-64454886D01*
X141292885Y-64466435D01*
X141287640Y-64477525D01*
X141281334Y-64488046D01*
X141274026Y-64497899D01*
X141265788Y-64506988D01*
X141256699Y-64515226D01*
X141246846Y-64522534D01*
X141236325Y-64528840D01*
X141225235Y-64534085D01*
X141213686Y-64538218D01*
X141201786Y-64541198D01*
X141189652Y-64542998D01*
X141177400Y-64543600D01*
X140902400Y-64543600D01*
X140890148Y-64542998D01*
X140878014Y-64541198D01*
X140866114Y-64538218D01*
X140854565Y-64534085D01*
X140843475Y-64528840D01*
X140832954Y-64522534D01*
X140823101Y-64515226D01*
X140814012Y-64506988D01*
X140805774Y-64497899D01*
X140798466Y-64488046D01*
X140792160Y-64477525D01*
X140786915Y-64466435D01*
X140782782Y-64454886D01*
X140779802Y-64442986D01*
X140778002Y-64430852D01*
X140777400Y-64418600D01*
X140777400Y-64168600D01*
X140778002Y-64156348D01*
X140779802Y-64144214D01*
X140782782Y-64132314D01*
X140786915Y-64120765D01*
X140792160Y-64109675D01*
X140798466Y-64099154D01*
X140805774Y-64089301D01*
X140814012Y-64080212D01*
X140823101Y-64071974D01*
X140832954Y-64064666D01*
X140843475Y-64058360D01*
X140854565Y-64053115D01*
X140866114Y-64048982D01*
X140878014Y-64046002D01*
X140890148Y-64044202D01*
X140902400Y-64043600D01*
X141177400Y-64043600D01*
X141189652Y-64044202D01*
X141189652Y-64044202D01*
G37*
D11*
X141039900Y-64293600D03*
D10*
G36*
X138814652Y-64044202D02*
G01*
X138826786Y-64046002D01*
X138838686Y-64048982D01*
X138850235Y-64053115D01*
X138861325Y-64058360D01*
X138871846Y-64064666D01*
X138881699Y-64071974D01*
X138890788Y-64080212D01*
X138899026Y-64089301D01*
X138906334Y-64099154D01*
X138912640Y-64109675D01*
X138917885Y-64120765D01*
X138922018Y-64132314D01*
X138924998Y-64144214D01*
X138926798Y-64156348D01*
X138927400Y-64168600D01*
X138927400Y-64418600D01*
X138926798Y-64430852D01*
X138924998Y-64442986D01*
X138922018Y-64454886D01*
X138917885Y-64466435D01*
X138912640Y-64477525D01*
X138906334Y-64488046D01*
X138899026Y-64497899D01*
X138890788Y-64506988D01*
X138881699Y-64515226D01*
X138871846Y-64522534D01*
X138861325Y-64528840D01*
X138850235Y-64534085D01*
X138838686Y-64538218D01*
X138826786Y-64541198D01*
X138814652Y-64542998D01*
X138802400Y-64543600D01*
X138527400Y-64543600D01*
X138515148Y-64542998D01*
X138503014Y-64541198D01*
X138491114Y-64538218D01*
X138479565Y-64534085D01*
X138468475Y-64528840D01*
X138457954Y-64522534D01*
X138448101Y-64515226D01*
X138439012Y-64506988D01*
X138430774Y-64497899D01*
X138423466Y-64488046D01*
X138417160Y-64477525D01*
X138411915Y-64466435D01*
X138407782Y-64454886D01*
X138404802Y-64442986D01*
X138403002Y-64430852D01*
X138402400Y-64418600D01*
X138402400Y-64168600D01*
X138403002Y-64156348D01*
X138404802Y-64144214D01*
X138407782Y-64132314D01*
X138411915Y-64120765D01*
X138417160Y-64109675D01*
X138423466Y-64099154D01*
X138430774Y-64089301D01*
X138439012Y-64080212D01*
X138448101Y-64071974D01*
X138457954Y-64064666D01*
X138468475Y-64058360D01*
X138479565Y-64053115D01*
X138491114Y-64048982D01*
X138503014Y-64046002D01*
X138515148Y-64044202D01*
X138527400Y-64043600D01*
X138802400Y-64043600D01*
X138814652Y-64044202D01*
X138814652Y-64044202D01*
G37*
D11*
X138664900Y-64293600D03*
D10*
G36*
X138814652Y-63244202D02*
G01*
X138826786Y-63246002D01*
X138838686Y-63248982D01*
X138850235Y-63253115D01*
X138861325Y-63258360D01*
X138871846Y-63264666D01*
X138881699Y-63271974D01*
X138890788Y-63280212D01*
X138899026Y-63289301D01*
X138906334Y-63299154D01*
X138912640Y-63309675D01*
X138917885Y-63320765D01*
X138922018Y-63332314D01*
X138924998Y-63344214D01*
X138926798Y-63356348D01*
X138927400Y-63368600D01*
X138927400Y-63618600D01*
X138926798Y-63630852D01*
X138924998Y-63642986D01*
X138922018Y-63654886D01*
X138917885Y-63666435D01*
X138912640Y-63677525D01*
X138906334Y-63688046D01*
X138899026Y-63697899D01*
X138890788Y-63706988D01*
X138881699Y-63715226D01*
X138871846Y-63722534D01*
X138861325Y-63728840D01*
X138850235Y-63734085D01*
X138838686Y-63738218D01*
X138826786Y-63741198D01*
X138814652Y-63742998D01*
X138802400Y-63743600D01*
X138527400Y-63743600D01*
X138515148Y-63742998D01*
X138503014Y-63741198D01*
X138491114Y-63738218D01*
X138479565Y-63734085D01*
X138468475Y-63728840D01*
X138457954Y-63722534D01*
X138448101Y-63715226D01*
X138439012Y-63706988D01*
X138430774Y-63697899D01*
X138423466Y-63688046D01*
X138417160Y-63677525D01*
X138411915Y-63666435D01*
X138407782Y-63654886D01*
X138404802Y-63642986D01*
X138403002Y-63630852D01*
X138402400Y-63618600D01*
X138402400Y-63368600D01*
X138403002Y-63356348D01*
X138404802Y-63344214D01*
X138407782Y-63332314D01*
X138411915Y-63320765D01*
X138417160Y-63309675D01*
X138423466Y-63299154D01*
X138430774Y-63289301D01*
X138439012Y-63280212D01*
X138448101Y-63271974D01*
X138457954Y-63264666D01*
X138468475Y-63258360D01*
X138479565Y-63253115D01*
X138491114Y-63248982D01*
X138503014Y-63246002D01*
X138515148Y-63244202D01*
X138527400Y-63243600D01*
X138802400Y-63243600D01*
X138814652Y-63244202D01*
X138814652Y-63244202D01*
G37*
D11*
X138664900Y-63493600D03*
D10*
G36*
X138814652Y-62444202D02*
G01*
X138826786Y-62446002D01*
X138838686Y-62448982D01*
X138850235Y-62453115D01*
X138861325Y-62458360D01*
X138871846Y-62464666D01*
X138881699Y-62471974D01*
X138890788Y-62480212D01*
X138899026Y-62489301D01*
X138906334Y-62499154D01*
X138912640Y-62509675D01*
X138917885Y-62520765D01*
X138922018Y-62532314D01*
X138924998Y-62544214D01*
X138926798Y-62556348D01*
X138927400Y-62568600D01*
X138927400Y-62818600D01*
X138926798Y-62830852D01*
X138924998Y-62842986D01*
X138922018Y-62854886D01*
X138917885Y-62866435D01*
X138912640Y-62877525D01*
X138906334Y-62888046D01*
X138899026Y-62897899D01*
X138890788Y-62906988D01*
X138881699Y-62915226D01*
X138871846Y-62922534D01*
X138861325Y-62928840D01*
X138850235Y-62934085D01*
X138838686Y-62938218D01*
X138826786Y-62941198D01*
X138814652Y-62942998D01*
X138802400Y-62943600D01*
X138527400Y-62943600D01*
X138515148Y-62942998D01*
X138503014Y-62941198D01*
X138491114Y-62938218D01*
X138479565Y-62934085D01*
X138468475Y-62928840D01*
X138457954Y-62922534D01*
X138448101Y-62915226D01*
X138439012Y-62906988D01*
X138430774Y-62897899D01*
X138423466Y-62888046D01*
X138417160Y-62877525D01*
X138411915Y-62866435D01*
X138407782Y-62854886D01*
X138404802Y-62842986D01*
X138403002Y-62830852D01*
X138402400Y-62818600D01*
X138402400Y-62568600D01*
X138403002Y-62556348D01*
X138404802Y-62544214D01*
X138407782Y-62532314D01*
X138411915Y-62520765D01*
X138417160Y-62509675D01*
X138423466Y-62499154D01*
X138430774Y-62489301D01*
X138439012Y-62480212D01*
X138448101Y-62471974D01*
X138457954Y-62464666D01*
X138468475Y-62458360D01*
X138479565Y-62453115D01*
X138491114Y-62448982D01*
X138503014Y-62446002D01*
X138515148Y-62444202D01*
X138527400Y-62443600D01*
X138802400Y-62443600D01*
X138814652Y-62444202D01*
X138814652Y-62444202D01*
G37*
D11*
X138664900Y-62693600D03*
D10*
G36*
X138814652Y-61644202D02*
G01*
X138826786Y-61646002D01*
X138838686Y-61648982D01*
X138850235Y-61653115D01*
X138861325Y-61658360D01*
X138871846Y-61664666D01*
X138881699Y-61671974D01*
X138890788Y-61680212D01*
X138899026Y-61689301D01*
X138906334Y-61699154D01*
X138912640Y-61709675D01*
X138917885Y-61720765D01*
X138922018Y-61732314D01*
X138924998Y-61744214D01*
X138926798Y-61756348D01*
X138927400Y-61768600D01*
X138927400Y-62018600D01*
X138926798Y-62030852D01*
X138924998Y-62042986D01*
X138922018Y-62054886D01*
X138917885Y-62066435D01*
X138912640Y-62077525D01*
X138906334Y-62088046D01*
X138899026Y-62097899D01*
X138890788Y-62106988D01*
X138881699Y-62115226D01*
X138871846Y-62122534D01*
X138861325Y-62128840D01*
X138850235Y-62134085D01*
X138838686Y-62138218D01*
X138826786Y-62141198D01*
X138814652Y-62142998D01*
X138802400Y-62143600D01*
X138527400Y-62143600D01*
X138515148Y-62142998D01*
X138503014Y-62141198D01*
X138491114Y-62138218D01*
X138479565Y-62134085D01*
X138468475Y-62128840D01*
X138457954Y-62122534D01*
X138448101Y-62115226D01*
X138439012Y-62106988D01*
X138430774Y-62097899D01*
X138423466Y-62088046D01*
X138417160Y-62077525D01*
X138411915Y-62066435D01*
X138407782Y-62054886D01*
X138404802Y-62042986D01*
X138403002Y-62030852D01*
X138402400Y-62018600D01*
X138402400Y-61768600D01*
X138403002Y-61756348D01*
X138404802Y-61744214D01*
X138407782Y-61732314D01*
X138411915Y-61720765D01*
X138417160Y-61709675D01*
X138423466Y-61699154D01*
X138430774Y-61689301D01*
X138439012Y-61680212D01*
X138448101Y-61671974D01*
X138457954Y-61664666D01*
X138468475Y-61658360D01*
X138479565Y-61653115D01*
X138491114Y-61648982D01*
X138503014Y-61646002D01*
X138515148Y-61644202D01*
X138527400Y-61643600D01*
X138802400Y-61643600D01*
X138814652Y-61644202D01*
X138814652Y-61644202D01*
G37*
D11*
X138664900Y-61893600D03*
D12*
X149503700Y-70548500D03*
X151003700Y-70548500D03*
D13*
X153641200Y-68295500D03*
X153641200Y-67345500D03*
X153641200Y-59645500D03*
X153641200Y-60745500D03*
X153641200Y-61845500D03*
X153641200Y-62945500D03*
X153641200Y-64045500D03*
X153641200Y-65145500D03*
X153641200Y-66245500D03*
D14*
X153641200Y-58095500D03*
X157941200Y-69245500D03*
D15*
X164141200Y-69245500D03*
D16*
X168291200Y-69245500D03*
D17*
X168741200Y-55745500D03*
D18*
X128568700Y-61572500D03*
X128568700Y-62222500D03*
X128568700Y-62872500D03*
X128568700Y-63522500D03*
D19*
X129593700Y-64547500D03*
X130243700Y-64547500D03*
X130893700Y-64547500D03*
X131543700Y-64547500D03*
D18*
X132568700Y-63522500D03*
X132568700Y-62872500D03*
X132568700Y-62222500D03*
X132568700Y-61572500D03*
D19*
X131543700Y-60547500D03*
X130893700Y-60547500D03*
X130243700Y-60547500D03*
X129593700Y-60547500D03*
D20*
X131268700Y-63247500D03*
X131268700Y-61847500D03*
X129868700Y-61847500D03*
X129868700Y-63247500D03*
D10*
G36*
X127429342Y-61123674D02*
G01*
X127453003Y-61127184D01*
X127476207Y-61132996D01*
X127498729Y-61141054D01*
X127520353Y-61151282D01*
X127540870Y-61163579D01*
X127560083Y-61177829D01*
X127577807Y-61193893D01*
X127593871Y-61211617D01*
X127608121Y-61230830D01*
X127620418Y-61251347D01*
X127630646Y-61272971D01*
X127638704Y-61295493D01*
X127644516Y-61318697D01*
X127648026Y-61342358D01*
X127649200Y-61366250D01*
X127649200Y-61853750D01*
X127648026Y-61877642D01*
X127644516Y-61901303D01*
X127638704Y-61924507D01*
X127630646Y-61947029D01*
X127620418Y-61968653D01*
X127608121Y-61989170D01*
X127593871Y-62008383D01*
X127577807Y-62026107D01*
X127560083Y-62042171D01*
X127540870Y-62056421D01*
X127520353Y-62068718D01*
X127498729Y-62078946D01*
X127476207Y-62087004D01*
X127453003Y-62092816D01*
X127429342Y-62096326D01*
X127405450Y-62097500D01*
X126492950Y-62097500D01*
X126469058Y-62096326D01*
X126445397Y-62092816D01*
X126422193Y-62087004D01*
X126399671Y-62078946D01*
X126378047Y-62068718D01*
X126357530Y-62056421D01*
X126338317Y-62042171D01*
X126320593Y-62026107D01*
X126304529Y-62008383D01*
X126290279Y-61989170D01*
X126277982Y-61968653D01*
X126267754Y-61947029D01*
X126259696Y-61924507D01*
X126253884Y-61901303D01*
X126250374Y-61877642D01*
X126249200Y-61853750D01*
X126249200Y-61366250D01*
X126250374Y-61342358D01*
X126253884Y-61318697D01*
X126259696Y-61295493D01*
X126267754Y-61272971D01*
X126277982Y-61251347D01*
X126290279Y-61230830D01*
X126304529Y-61211617D01*
X126320593Y-61193893D01*
X126338317Y-61177829D01*
X126357530Y-61163579D01*
X126378047Y-61151282D01*
X126399671Y-61141054D01*
X126422193Y-61132996D01*
X126445397Y-61127184D01*
X126469058Y-61123674D01*
X126492950Y-61122500D01*
X127405450Y-61122500D01*
X127429342Y-61123674D01*
X127429342Y-61123674D01*
G37*
D21*
X126949200Y-61610000D03*
D10*
G36*
X127429342Y-62998674D02*
G01*
X127453003Y-63002184D01*
X127476207Y-63007996D01*
X127498729Y-63016054D01*
X127520353Y-63026282D01*
X127540870Y-63038579D01*
X127560083Y-63052829D01*
X127577807Y-63068893D01*
X127593871Y-63086617D01*
X127608121Y-63105830D01*
X127620418Y-63126347D01*
X127630646Y-63147971D01*
X127638704Y-63170493D01*
X127644516Y-63193697D01*
X127648026Y-63217358D01*
X127649200Y-63241250D01*
X127649200Y-63728750D01*
X127648026Y-63752642D01*
X127644516Y-63776303D01*
X127638704Y-63799507D01*
X127630646Y-63822029D01*
X127620418Y-63843653D01*
X127608121Y-63864170D01*
X127593871Y-63883383D01*
X127577807Y-63901107D01*
X127560083Y-63917171D01*
X127540870Y-63931421D01*
X127520353Y-63943718D01*
X127498729Y-63953946D01*
X127476207Y-63962004D01*
X127453003Y-63967816D01*
X127429342Y-63971326D01*
X127405450Y-63972500D01*
X126492950Y-63972500D01*
X126469058Y-63971326D01*
X126445397Y-63967816D01*
X126422193Y-63962004D01*
X126399671Y-63953946D01*
X126378047Y-63943718D01*
X126357530Y-63931421D01*
X126338317Y-63917171D01*
X126320593Y-63901107D01*
X126304529Y-63883383D01*
X126290279Y-63864170D01*
X126277982Y-63843653D01*
X126267754Y-63822029D01*
X126259696Y-63799507D01*
X126253884Y-63776303D01*
X126250374Y-63752642D01*
X126249200Y-63728750D01*
X126249200Y-63241250D01*
X126250374Y-63217358D01*
X126253884Y-63193697D01*
X126259696Y-63170493D01*
X126267754Y-63147971D01*
X126277982Y-63126347D01*
X126290279Y-63105830D01*
X126304529Y-63086617D01*
X126320593Y-63068893D01*
X126338317Y-63052829D01*
X126357530Y-63038579D01*
X126378047Y-63026282D01*
X126399671Y-63016054D01*
X126422193Y-63007996D01*
X126445397Y-63002184D01*
X126469058Y-62998674D01*
X126492950Y-62997500D01*
X127405450Y-62997500D01*
X127429342Y-62998674D01*
X127429342Y-62998674D01*
G37*
D21*
X126949200Y-63485000D03*
D10*
G36*
X129771842Y-65557074D02*
G01*
X129795503Y-65560584D01*
X129818707Y-65566396D01*
X129841229Y-65574454D01*
X129862853Y-65584682D01*
X129883370Y-65596979D01*
X129902583Y-65611229D01*
X129920307Y-65627293D01*
X129936371Y-65645017D01*
X129950621Y-65664230D01*
X129962918Y-65684747D01*
X129973146Y-65706371D01*
X129981204Y-65728893D01*
X129987016Y-65752097D01*
X129990526Y-65775758D01*
X129991700Y-65799650D01*
X129991700Y-66712150D01*
X129990526Y-66736042D01*
X129987016Y-66759703D01*
X129981204Y-66782907D01*
X129973146Y-66805429D01*
X129962918Y-66827053D01*
X129950621Y-66847570D01*
X129936371Y-66866783D01*
X129920307Y-66884507D01*
X129902583Y-66900571D01*
X129883370Y-66914821D01*
X129862853Y-66927118D01*
X129841229Y-66937346D01*
X129818707Y-66945404D01*
X129795503Y-66951216D01*
X129771842Y-66954726D01*
X129747950Y-66955900D01*
X129260450Y-66955900D01*
X129236558Y-66954726D01*
X129212897Y-66951216D01*
X129189693Y-66945404D01*
X129167171Y-66937346D01*
X129145547Y-66927118D01*
X129125030Y-66914821D01*
X129105817Y-66900571D01*
X129088093Y-66884507D01*
X129072029Y-66866783D01*
X129057779Y-66847570D01*
X129045482Y-66827053D01*
X129035254Y-66805429D01*
X129027196Y-66782907D01*
X129021384Y-66759703D01*
X129017874Y-66736042D01*
X129016700Y-66712150D01*
X129016700Y-65799650D01*
X129017874Y-65775758D01*
X129021384Y-65752097D01*
X129027196Y-65728893D01*
X129035254Y-65706371D01*
X129045482Y-65684747D01*
X129057779Y-65664230D01*
X129072029Y-65645017D01*
X129088093Y-65627293D01*
X129105817Y-65611229D01*
X129125030Y-65596979D01*
X129145547Y-65584682D01*
X129167171Y-65574454D01*
X129189693Y-65566396D01*
X129212897Y-65560584D01*
X129236558Y-65557074D01*
X129260450Y-65555900D01*
X129747950Y-65555900D01*
X129771842Y-65557074D01*
X129771842Y-65557074D01*
G37*
D21*
X129504200Y-66255900D03*
D10*
G36*
X131646842Y-65557074D02*
G01*
X131670503Y-65560584D01*
X131693707Y-65566396D01*
X131716229Y-65574454D01*
X131737853Y-65584682D01*
X131758370Y-65596979D01*
X131777583Y-65611229D01*
X131795307Y-65627293D01*
X131811371Y-65645017D01*
X131825621Y-65664230D01*
X131837918Y-65684747D01*
X131848146Y-65706371D01*
X131856204Y-65728893D01*
X131862016Y-65752097D01*
X131865526Y-65775758D01*
X131866700Y-65799650D01*
X131866700Y-66712150D01*
X131865526Y-66736042D01*
X131862016Y-66759703D01*
X131856204Y-66782907D01*
X131848146Y-66805429D01*
X131837918Y-66827053D01*
X131825621Y-66847570D01*
X131811371Y-66866783D01*
X131795307Y-66884507D01*
X131777583Y-66900571D01*
X131758370Y-66914821D01*
X131737853Y-66927118D01*
X131716229Y-66937346D01*
X131693707Y-66945404D01*
X131670503Y-66951216D01*
X131646842Y-66954726D01*
X131622950Y-66955900D01*
X131135450Y-66955900D01*
X131111558Y-66954726D01*
X131087897Y-66951216D01*
X131064693Y-66945404D01*
X131042171Y-66937346D01*
X131020547Y-66927118D01*
X131000030Y-66914821D01*
X130980817Y-66900571D01*
X130963093Y-66884507D01*
X130947029Y-66866783D01*
X130932779Y-66847570D01*
X130920482Y-66827053D01*
X130910254Y-66805429D01*
X130902196Y-66782907D01*
X130896384Y-66759703D01*
X130892874Y-66736042D01*
X130891700Y-66712150D01*
X130891700Y-65799650D01*
X130892874Y-65775758D01*
X130896384Y-65752097D01*
X130902196Y-65728893D01*
X130910254Y-65706371D01*
X130920482Y-65684747D01*
X130932779Y-65664230D01*
X130947029Y-65645017D01*
X130963093Y-65627293D01*
X130980817Y-65611229D01*
X131000030Y-65596979D01*
X131020547Y-65584682D01*
X131042171Y-65574454D01*
X131064693Y-65566396D01*
X131087897Y-65560584D01*
X131111558Y-65557074D01*
X131135450Y-65555900D01*
X131622950Y-65555900D01*
X131646842Y-65557074D01*
X131646842Y-65557074D01*
G37*
D21*
X131379200Y-66255900D03*
D10*
G36*
X140193942Y-59143574D02*
G01*
X140217603Y-59147084D01*
X140240807Y-59152896D01*
X140263329Y-59160954D01*
X140284953Y-59171182D01*
X140305470Y-59183479D01*
X140324683Y-59197729D01*
X140342407Y-59213793D01*
X140358471Y-59231517D01*
X140372721Y-59250730D01*
X140385018Y-59271247D01*
X140395246Y-59292871D01*
X140403304Y-59315393D01*
X140409116Y-59338597D01*
X140412626Y-59362258D01*
X140413800Y-59386150D01*
X140413800Y-60298650D01*
X140412626Y-60322542D01*
X140409116Y-60346203D01*
X140403304Y-60369407D01*
X140395246Y-60391929D01*
X140385018Y-60413553D01*
X140372721Y-60434070D01*
X140358471Y-60453283D01*
X140342407Y-60471007D01*
X140324683Y-60487071D01*
X140305470Y-60501321D01*
X140284953Y-60513618D01*
X140263329Y-60523846D01*
X140240807Y-60531904D01*
X140217603Y-60537716D01*
X140193942Y-60541226D01*
X140170050Y-60542400D01*
X139682550Y-60542400D01*
X139658658Y-60541226D01*
X139634997Y-60537716D01*
X139611793Y-60531904D01*
X139589271Y-60523846D01*
X139567647Y-60513618D01*
X139547130Y-60501321D01*
X139527917Y-60487071D01*
X139510193Y-60471007D01*
X139494129Y-60453283D01*
X139479879Y-60434070D01*
X139467582Y-60413553D01*
X139457354Y-60391929D01*
X139449296Y-60369407D01*
X139443484Y-60346203D01*
X139439974Y-60322542D01*
X139438800Y-60298650D01*
X139438800Y-59386150D01*
X139439974Y-59362258D01*
X139443484Y-59338597D01*
X139449296Y-59315393D01*
X139457354Y-59292871D01*
X139467582Y-59271247D01*
X139479879Y-59250730D01*
X139494129Y-59231517D01*
X139510193Y-59213793D01*
X139527917Y-59197729D01*
X139547130Y-59183479D01*
X139567647Y-59171182D01*
X139589271Y-59160954D01*
X139611793Y-59152896D01*
X139634997Y-59147084D01*
X139658658Y-59143574D01*
X139682550Y-59142400D01*
X140170050Y-59142400D01*
X140193942Y-59143574D01*
X140193942Y-59143574D01*
G37*
D21*
X139926300Y-59842400D03*
D10*
G36*
X138318942Y-59143574D02*
G01*
X138342603Y-59147084D01*
X138365807Y-59152896D01*
X138388329Y-59160954D01*
X138409953Y-59171182D01*
X138430470Y-59183479D01*
X138449683Y-59197729D01*
X138467407Y-59213793D01*
X138483471Y-59231517D01*
X138497721Y-59250730D01*
X138510018Y-59271247D01*
X138520246Y-59292871D01*
X138528304Y-59315393D01*
X138534116Y-59338597D01*
X138537626Y-59362258D01*
X138538800Y-59386150D01*
X138538800Y-60298650D01*
X138537626Y-60322542D01*
X138534116Y-60346203D01*
X138528304Y-60369407D01*
X138520246Y-60391929D01*
X138510018Y-60413553D01*
X138497721Y-60434070D01*
X138483471Y-60453283D01*
X138467407Y-60471007D01*
X138449683Y-60487071D01*
X138430470Y-60501321D01*
X138409953Y-60513618D01*
X138388329Y-60523846D01*
X138365807Y-60531904D01*
X138342603Y-60537716D01*
X138318942Y-60541226D01*
X138295050Y-60542400D01*
X137807550Y-60542400D01*
X137783658Y-60541226D01*
X137759997Y-60537716D01*
X137736793Y-60531904D01*
X137714271Y-60523846D01*
X137692647Y-60513618D01*
X137672130Y-60501321D01*
X137652917Y-60487071D01*
X137635193Y-60471007D01*
X137619129Y-60453283D01*
X137604879Y-60434070D01*
X137592582Y-60413553D01*
X137582354Y-60391929D01*
X137574296Y-60369407D01*
X137568484Y-60346203D01*
X137564974Y-60322542D01*
X137563800Y-60298650D01*
X137563800Y-59386150D01*
X137564974Y-59362258D01*
X137568484Y-59338597D01*
X137574296Y-59315393D01*
X137582354Y-59292871D01*
X137592582Y-59271247D01*
X137604879Y-59250730D01*
X137619129Y-59231517D01*
X137635193Y-59213793D01*
X137652917Y-59197729D01*
X137672130Y-59183479D01*
X137692647Y-59171182D01*
X137714271Y-59160954D01*
X137736793Y-59152896D01*
X137759997Y-59147084D01*
X137783658Y-59143574D01*
X137807550Y-59142400D01*
X138295050Y-59142400D01*
X138318942Y-59143574D01*
X138318942Y-59143574D01*
G37*
D21*
X138051300Y-59842400D03*
D10*
G36*
X128489142Y-51498174D02*
G01*
X128512803Y-51501684D01*
X128536007Y-51507496D01*
X128558529Y-51515554D01*
X128580153Y-51525782D01*
X128600670Y-51538079D01*
X128619883Y-51552329D01*
X128637607Y-51568393D01*
X128653671Y-51586117D01*
X128667921Y-51605330D01*
X128680218Y-51625847D01*
X128690446Y-51647471D01*
X128698504Y-51669993D01*
X128704316Y-51693197D01*
X128707826Y-51716858D01*
X128709000Y-51740750D01*
X128709000Y-52653250D01*
X128707826Y-52677142D01*
X128704316Y-52700803D01*
X128698504Y-52724007D01*
X128690446Y-52746529D01*
X128680218Y-52768153D01*
X128667921Y-52788670D01*
X128653671Y-52807883D01*
X128637607Y-52825607D01*
X128619883Y-52841671D01*
X128600670Y-52855921D01*
X128580153Y-52868218D01*
X128558529Y-52878446D01*
X128536007Y-52886504D01*
X128512803Y-52892316D01*
X128489142Y-52895826D01*
X128465250Y-52897000D01*
X127977750Y-52897000D01*
X127953858Y-52895826D01*
X127930197Y-52892316D01*
X127906993Y-52886504D01*
X127884471Y-52878446D01*
X127862847Y-52868218D01*
X127842330Y-52855921D01*
X127823117Y-52841671D01*
X127805393Y-52825607D01*
X127789329Y-52807883D01*
X127775079Y-52788670D01*
X127762782Y-52768153D01*
X127752554Y-52746529D01*
X127744496Y-52724007D01*
X127738684Y-52700803D01*
X127735174Y-52677142D01*
X127734000Y-52653250D01*
X127734000Y-51740750D01*
X127735174Y-51716858D01*
X127738684Y-51693197D01*
X127744496Y-51669993D01*
X127752554Y-51647471D01*
X127762782Y-51625847D01*
X127775079Y-51605330D01*
X127789329Y-51586117D01*
X127805393Y-51568393D01*
X127823117Y-51552329D01*
X127842330Y-51538079D01*
X127862847Y-51525782D01*
X127884471Y-51515554D01*
X127906993Y-51507496D01*
X127930197Y-51501684D01*
X127953858Y-51498174D01*
X127977750Y-51497000D01*
X128465250Y-51497000D01*
X128489142Y-51498174D01*
X128489142Y-51498174D01*
G37*
D21*
X128221500Y-52197000D03*
D10*
G36*
X130364142Y-51498174D02*
G01*
X130387803Y-51501684D01*
X130411007Y-51507496D01*
X130433529Y-51515554D01*
X130455153Y-51525782D01*
X130475670Y-51538079D01*
X130494883Y-51552329D01*
X130512607Y-51568393D01*
X130528671Y-51586117D01*
X130542921Y-51605330D01*
X130555218Y-51625847D01*
X130565446Y-51647471D01*
X130573504Y-51669993D01*
X130579316Y-51693197D01*
X130582826Y-51716858D01*
X130584000Y-51740750D01*
X130584000Y-52653250D01*
X130582826Y-52677142D01*
X130579316Y-52700803D01*
X130573504Y-52724007D01*
X130565446Y-52746529D01*
X130555218Y-52768153D01*
X130542921Y-52788670D01*
X130528671Y-52807883D01*
X130512607Y-52825607D01*
X130494883Y-52841671D01*
X130475670Y-52855921D01*
X130455153Y-52868218D01*
X130433529Y-52878446D01*
X130411007Y-52886504D01*
X130387803Y-52892316D01*
X130364142Y-52895826D01*
X130340250Y-52897000D01*
X129852750Y-52897000D01*
X129828858Y-52895826D01*
X129805197Y-52892316D01*
X129781993Y-52886504D01*
X129759471Y-52878446D01*
X129737847Y-52868218D01*
X129717330Y-52855921D01*
X129698117Y-52841671D01*
X129680393Y-52825607D01*
X129664329Y-52807883D01*
X129650079Y-52788670D01*
X129637782Y-52768153D01*
X129627554Y-52746529D01*
X129619496Y-52724007D01*
X129613684Y-52700803D01*
X129610174Y-52677142D01*
X129609000Y-52653250D01*
X129609000Y-51740750D01*
X129610174Y-51716858D01*
X129613684Y-51693197D01*
X129619496Y-51669993D01*
X129627554Y-51647471D01*
X129637782Y-51625847D01*
X129650079Y-51605330D01*
X129664329Y-51586117D01*
X129680393Y-51568393D01*
X129698117Y-51552329D01*
X129717330Y-51538079D01*
X129737847Y-51525782D01*
X129759471Y-51515554D01*
X129781993Y-51507496D01*
X129805197Y-51501684D01*
X129828858Y-51498174D01*
X129852750Y-51497000D01*
X130340250Y-51497000D01*
X130364142Y-51498174D01*
X130364142Y-51498174D01*
G37*
D21*
X130096500Y-52197000D03*
D10*
G36*
X127062142Y-51498174D02*
G01*
X127085803Y-51501684D01*
X127109007Y-51507496D01*
X127131529Y-51515554D01*
X127153153Y-51525782D01*
X127173670Y-51538079D01*
X127192883Y-51552329D01*
X127210607Y-51568393D01*
X127226671Y-51586117D01*
X127240921Y-51605330D01*
X127253218Y-51625847D01*
X127263446Y-51647471D01*
X127271504Y-51669993D01*
X127277316Y-51693197D01*
X127280826Y-51716858D01*
X127282000Y-51740750D01*
X127282000Y-52653250D01*
X127280826Y-52677142D01*
X127277316Y-52700803D01*
X127271504Y-52724007D01*
X127263446Y-52746529D01*
X127253218Y-52768153D01*
X127240921Y-52788670D01*
X127226671Y-52807883D01*
X127210607Y-52825607D01*
X127192883Y-52841671D01*
X127173670Y-52855921D01*
X127153153Y-52868218D01*
X127131529Y-52878446D01*
X127109007Y-52886504D01*
X127085803Y-52892316D01*
X127062142Y-52895826D01*
X127038250Y-52897000D01*
X126550750Y-52897000D01*
X126526858Y-52895826D01*
X126503197Y-52892316D01*
X126479993Y-52886504D01*
X126457471Y-52878446D01*
X126435847Y-52868218D01*
X126415330Y-52855921D01*
X126396117Y-52841671D01*
X126378393Y-52825607D01*
X126362329Y-52807883D01*
X126348079Y-52788670D01*
X126335782Y-52768153D01*
X126325554Y-52746529D01*
X126317496Y-52724007D01*
X126311684Y-52700803D01*
X126308174Y-52677142D01*
X126307000Y-52653250D01*
X126307000Y-51740750D01*
X126308174Y-51716858D01*
X126311684Y-51693197D01*
X126317496Y-51669993D01*
X126325554Y-51647471D01*
X126335782Y-51625847D01*
X126348079Y-51605330D01*
X126362329Y-51586117D01*
X126378393Y-51568393D01*
X126396117Y-51552329D01*
X126415330Y-51538079D01*
X126435847Y-51525782D01*
X126457471Y-51515554D01*
X126479993Y-51507496D01*
X126503197Y-51501684D01*
X126526858Y-51498174D01*
X126550750Y-51497000D01*
X127038250Y-51497000D01*
X127062142Y-51498174D01*
X127062142Y-51498174D01*
G37*
D21*
X126794500Y-52197000D03*
D10*
G36*
X125187142Y-51498174D02*
G01*
X125210803Y-51501684D01*
X125234007Y-51507496D01*
X125256529Y-51515554D01*
X125278153Y-51525782D01*
X125298670Y-51538079D01*
X125317883Y-51552329D01*
X125335607Y-51568393D01*
X125351671Y-51586117D01*
X125365921Y-51605330D01*
X125378218Y-51625847D01*
X125388446Y-51647471D01*
X125396504Y-51669993D01*
X125402316Y-51693197D01*
X125405826Y-51716858D01*
X125407000Y-51740750D01*
X125407000Y-52653250D01*
X125405826Y-52677142D01*
X125402316Y-52700803D01*
X125396504Y-52724007D01*
X125388446Y-52746529D01*
X125378218Y-52768153D01*
X125365921Y-52788670D01*
X125351671Y-52807883D01*
X125335607Y-52825607D01*
X125317883Y-52841671D01*
X125298670Y-52855921D01*
X125278153Y-52868218D01*
X125256529Y-52878446D01*
X125234007Y-52886504D01*
X125210803Y-52892316D01*
X125187142Y-52895826D01*
X125163250Y-52897000D01*
X124675750Y-52897000D01*
X124651858Y-52895826D01*
X124628197Y-52892316D01*
X124604993Y-52886504D01*
X124582471Y-52878446D01*
X124560847Y-52868218D01*
X124540330Y-52855921D01*
X124521117Y-52841671D01*
X124503393Y-52825607D01*
X124487329Y-52807883D01*
X124473079Y-52788670D01*
X124460782Y-52768153D01*
X124450554Y-52746529D01*
X124442496Y-52724007D01*
X124436684Y-52700803D01*
X124433174Y-52677142D01*
X124432000Y-52653250D01*
X124432000Y-51740750D01*
X124433174Y-51716858D01*
X124436684Y-51693197D01*
X124442496Y-51669993D01*
X124450554Y-51647471D01*
X124460782Y-51625847D01*
X124473079Y-51605330D01*
X124487329Y-51586117D01*
X124503393Y-51568393D01*
X124521117Y-51552329D01*
X124540330Y-51538079D01*
X124560847Y-51525782D01*
X124582471Y-51515554D01*
X124604993Y-51507496D01*
X124628197Y-51501684D01*
X124651858Y-51498174D01*
X124675750Y-51497000D01*
X125163250Y-51497000D01*
X125187142Y-51498174D01*
X125187142Y-51498174D01*
G37*
D21*
X124919500Y-52197000D03*
D10*
G36*
X134490542Y-56157974D02*
G01*
X134514203Y-56161484D01*
X134537407Y-56167296D01*
X134559929Y-56175354D01*
X134581553Y-56185582D01*
X134602070Y-56197879D01*
X134621283Y-56212129D01*
X134639007Y-56228193D01*
X134655071Y-56245917D01*
X134669321Y-56265130D01*
X134681618Y-56285647D01*
X134691846Y-56307271D01*
X134699904Y-56329793D01*
X134705716Y-56352997D01*
X134709226Y-56376658D01*
X134710400Y-56400550D01*
X134710400Y-56888050D01*
X134709226Y-56911942D01*
X134705716Y-56935603D01*
X134699904Y-56958807D01*
X134691846Y-56981329D01*
X134681618Y-57002953D01*
X134669321Y-57023470D01*
X134655071Y-57042683D01*
X134639007Y-57060407D01*
X134621283Y-57076471D01*
X134602070Y-57090721D01*
X134581553Y-57103018D01*
X134559929Y-57113246D01*
X134537407Y-57121304D01*
X134514203Y-57127116D01*
X134490542Y-57130626D01*
X134466650Y-57131800D01*
X133554150Y-57131800D01*
X133530258Y-57130626D01*
X133506597Y-57127116D01*
X133483393Y-57121304D01*
X133460871Y-57113246D01*
X133439247Y-57103018D01*
X133418730Y-57090721D01*
X133399517Y-57076471D01*
X133381793Y-57060407D01*
X133365729Y-57042683D01*
X133351479Y-57023470D01*
X133339182Y-57002953D01*
X133328954Y-56981329D01*
X133320896Y-56958807D01*
X133315084Y-56935603D01*
X133311574Y-56911942D01*
X133310400Y-56888050D01*
X133310400Y-56400550D01*
X133311574Y-56376658D01*
X133315084Y-56352997D01*
X133320896Y-56329793D01*
X133328954Y-56307271D01*
X133339182Y-56285647D01*
X133351479Y-56265130D01*
X133365729Y-56245917D01*
X133381793Y-56228193D01*
X133399517Y-56212129D01*
X133418730Y-56197879D01*
X133439247Y-56185582D01*
X133460871Y-56175354D01*
X133483393Y-56167296D01*
X133506597Y-56161484D01*
X133530258Y-56157974D01*
X133554150Y-56156800D01*
X134466650Y-56156800D01*
X134490542Y-56157974D01*
X134490542Y-56157974D01*
G37*
D21*
X134010400Y-56644300D03*
D10*
G36*
X134490542Y-58032974D02*
G01*
X134514203Y-58036484D01*
X134537407Y-58042296D01*
X134559929Y-58050354D01*
X134581553Y-58060582D01*
X134602070Y-58072879D01*
X134621283Y-58087129D01*
X134639007Y-58103193D01*
X134655071Y-58120917D01*
X134669321Y-58140130D01*
X134681618Y-58160647D01*
X134691846Y-58182271D01*
X134699904Y-58204793D01*
X134705716Y-58227997D01*
X134709226Y-58251658D01*
X134710400Y-58275550D01*
X134710400Y-58763050D01*
X134709226Y-58786942D01*
X134705716Y-58810603D01*
X134699904Y-58833807D01*
X134691846Y-58856329D01*
X134681618Y-58877953D01*
X134669321Y-58898470D01*
X134655071Y-58917683D01*
X134639007Y-58935407D01*
X134621283Y-58951471D01*
X134602070Y-58965721D01*
X134581553Y-58978018D01*
X134559929Y-58988246D01*
X134537407Y-58996304D01*
X134514203Y-59002116D01*
X134490542Y-59005626D01*
X134466650Y-59006800D01*
X133554150Y-59006800D01*
X133530258Y-59005626D01*
X133506597Y-59002116D01*
X133483393Y-58996304D01*
X133460871Y-58988246D01*
X133439247Y-58978018D01*
X133418730Y-58965721D01*
X133399517Y-58951471D01*
X133381793Y-58935407D01*
X133365729Y-58917683D01*
X133351479Y-58898470D01*
X133339182Y-58877953D01*
X133328954Y-58856329D01*
X133320896Y-58833807D01*
X133315084Y-58810603D01*
X133311574Y-58786942D01*
X133310400Y-58763050D01*
X133310400Y-58275550D01*
X133311574Y-58251658D01*
X133315084Y-58227997D01*
X133320896Y-58204793D01*
X133328954Y-58182271D01*
X133339182Y-58160647D01*
X133351479Y-58140130D01*
X133365729Y-58120917D01*
X133381793Y-58103193D01*
X133399517Y-58087129D01*
X133418730Y-58072879D01*
X133439247Y-58060582D01*
X133460871Y-58050354D01*
X133483393Y-58042296D01*
X133506597Y-58036484D01*
X133530258Y-58032974D01*
X133554150Y-58031800D01*
X134466650Y-58031800D01*
X134490542Y-58032974D01*
X134490542Y-58032974D01*
G37*
D21*
X134010400Y-58519300D03*
D10*
G36*
X132610942Y-56208774D02*
G01*
X132634603Y-56212284D01*
X132657807Y-56218096D01*
X132680329Y-56226154D01*
X132701953Y-56236382D01*
X132722470Y-56248679D01*
X132741683Y-56262929D01*
X132759407Y-56278993D01*
X132775471Y-56296717D01*
X132789721Y-56315930D01*
X132802018Y-56336447D01*
X132812246Y-56358071D01*
X132820304Y-56380593D01*
X132826116Y-56403797D01*
X132829626Y-56427458D01*
X132830800Y-56451350D01*
X132830800Y-56938850D01*
X132829626Y-56962742D01*
X132826116Y-56986403D01*
X132820304Y-57009607D01*
X132812246Y-57032129D01*
X132802018Y-57053753D01*
X132789721Y-57074270D01*
X132775471Y-57093483D01*
X132759407Y-57111207D01*
X132741683Y-57127271D01*
X132722470Y-57141521D01*
X132701953Y-57153818D01*
X132680329Y-57164046D01*
X132657807Y-57172104D01*
X132634603Y-57177916D01*
X132610942Y-57181426D01*
X132587050Y-57182600D01*
X131674550Y-57182600D01*
X131650658Y-57181426D01*
X131626997Y-57177916D01*
X131603793Y-57172104D01*
X131581271Y-57164046D01*
X131559647Y-57153818D01*
X131539130Y-57141521D01*
X131519917Y-57127271D01*
X131502193Y-57111207D01*
X131486129Y-57093483D01*
X131471879Y-57074270D01*
X131459582Y-57053753D01*
X131449354Y-57032129D01*
X131441296Y-57009607D01*
X131435484Y-56986403D01*
X131431974Y-56962742D01*
X131430800Y-56938850D01*
X131430800Y-56451350D01*
X131431974Y-56427458D01*
X131435484Y-56403797D01*
X131441296Y-56380593D01*
X131449354Y-56358071D01*
X131459582Y-56336447D01*
X131471879Y-56315930D01*
X131486129Y-56296717D01*
X131502193Y-56278993D01*
X131519917Y-56262929D01*
X131539130Y-56248679D01*
X131559647Y-56236382D01*
X131581271Y-56226154D01*
X131603793Y-56218096D01*
X131626997Y-56212284D01*
X131650658Y-56208774D01*
X131674550Y-56207600D01*
X132587050Y-56207600D01*
X132610942Y-56208774D01*
X132610942Y-56208774D01*
G37*
D21*
X132130800Y-56695100D03*
D10*
G36*
X132610942Y-58083774D02*
G01*
X132634603Y-58087284D01*
X132657807Y-58093096D01*
X132680329Y-58101154D01*
X132701953Y-58111382D01*
X132722470Y-58123679D01*
X132741683Y-58137929D01*
X132759407Y-58153993D01*
X132775471Y-58171717D01*
X132789721Y-58190930D01*
X132802018Y-58211447D01*
X132812246Y-58233071D01*
X132820304Y-58255593D01*
X132826116Y-58278797D01*
X132829626Y-58302458D01*
X132830800Y-58326350D01*
X132830800Y-58813850D01*
X132829626Y-58837742D01*
X132826116Y-58861403D01*
X132820304Y-58884607D01*
X132812246Y-58907129D01*
X132802018Y-58928753D01*
X132789721Y-58949270D01*
X132775471Y-58968483D01*
X132759407Y-58986207D01*
X132741683Y-59002271D01*
X132722470Y-59016521D01*
X132701953Y-59028818D01*
X132680329Y-59039046D01*
X132657807Y-59047104D01*
X132634603Y-59052916D01*
X132610942Y-59056426D01*
X132587050Y-59057600D01*
X131674550Y-59057600D01*
X131650658Y-59056426D01*
X131626997Y-59052916D01*
X131603793Y-59047104D01*
X131581271Y-59039046D01*
X131559647Y-59028818D01*
X131539130Y-59016521D01*
X131519917Y-59002271D01*
X131502193Y-58986207D01*
X131486129Y-58968483D01*
X131471879Y-58949270D01*
X131459582Y-58928753D01*
X131449354Y-58907129D01*
X131441296Y-58884607D01*
X131435484Y-58861403D01*
X131431974Y-58837742D01*
X131430800Y-58813850D01*
X131430800Y-58326350D01*
X131431974Y-58302458D01*
X131435484Y-58278797D01*
X131441296Y-58255593D01*
X131449354Y-58233071D01*
X131459582Y-58211447D01*
X131471879Y-58190930D01*
X131486129Y-58171717D01*
X131502193Y-58153993D01*
X131519917Y-58137929D01*
X131539130Y-58123679D01*
X131559647Y-58111382D01*
X131581271Y-58101154D01*
X131603793Y-58093096D01*
X131626997Y-58087284D01*
X131650658Y-58083774D01*
X131674550Y-58082600D01*
X132587050Y-58082600D01*
X132610942Y-58083774D01*
X132610942Y-58083774D01*
G37*
D21*
X132130800Y-58570100D03*
D10*
G36*
X151483142Y-66991074D02*
G01*
X151506803Y-66994584D01*
X151530007Y-67000396D01*
X151552529Y-67008454D01*
X151574153Y-67018682D01*
X151594670Y-67030979D01*
X151613883Y-67045229D01*
X151631607Y-67061293D01*
X151647671Y-67079017D01*
X151661921Y-67098230D01*
X151674218Y-67118747D01*
X151684446Y-67140371D01*
X151692504Y-67162893D01*
X151698316Y-67186097D01*
X151701826Y-67209758D01*
X151703000Y-67233650D01*
X151703000Y-67721150D01*
X151701826Y-67745042D01*
X151698316Y-67768703D01*
X151692504Y-67791907D01*
X151684446Y-67814429D01*
X151674218Y-67836053D01*
X151661921Y-67856570D01*
X151647671Y-67875783D01*
X151631607Y-67893507D01*
X151613883Y-67909571D01*
X151594670Y-67923821D01*
X151574153Y-67936118D01*
X151552529Y-67946346D01*
X151530007Y-67954404D01*
X151506803Y-67960216D01*
X151483142Y-67963726D01*
X151459250Y-67964900D01*
X150546750Y-67964900D01*
X150522858Y-67963726D01*
X150499197Y-67960216D01*
X150475993Y-67954404D01*
X150453471Y-67946346D01*
X150431847Y-67936118D01*
X150411330Y-67923821D01*
X150392117Y-67909571D01*
X150374393Y-67893507D01*
X150358329Y-67875783D01*
X150344079Y-67856570D01*
X150331782Y-67836053D01*
X150321554Y-67814429D01*
X150313496Y-67791907D01*
X150307684Y-67768703D01*
X150304174Y-67745042D01*
X150303000Y-67721150D01*
X150303000Y-67233650D01*
X150304174Y-67209758D01*
X150307684Y-67186097D01*
X150313496Y-67162893D01*
X150321554Y-67140371D01*
X150331782Y-67118747D01*
X150344079Y-67098230D01*
X150358329Y-67079017D01*
X150374393Y-67061293D01*
X150392117Y-67045229D01*
X150411330Y-67030979D01*
X150431847Y-67018682D01*
X150453471Y-67008454D01*
X150475993Y-67000396D01*
X150499197Y-66994584D01*
X150522858Y-66991074D01*
X150546750Y-66989900D01*
X151459250Y-66989900D01*
X151483142Y-66991074D01*
X151483142Y-66991074D01*
G37*
D21*
X151003000Y-67477400D03*
D10*
G36*
X151483142Y-68866074D02*
G01*
X151506803Y-68869584D01*
X151530007Y-68875396D01*
X151552529Y-68883454D01*
X151574153Y-68893682D01*
X151594670Y-68905979D01*
X151613883Y-68920229D01*
X151631607Y-68936293D01*
X151647671Y-68954017D01*
X151661921Y-68973230D01*
X151674218Y-68993747D01*
X151684446Y-69015371D01*
X151692504Y-69037893D01*
X151698316Y-69061097D01*
X151701826Y-69084758D01*
X151703000Y-69108650D01*
X151703000Y-69596150D01*
X151701826Y-69620042D01*
X151698316Y-69643703D01*
X151692504Y-69666907D01*
X151684446Y-69689429D01*
X151674218Y-69711053D01*
X151661921Y-69731570D01*
X151647671Y-69750783D01*
X151631607Y-69768507D01*
X151613883Y-69784571D01*
X151594670Y-69798821D01*
X151574153Y-69811118D01*
X151552529Y-69821346D01*
X151530007Y-69829404D01*
X151506803Y-69835216D01*
X151483142Y-69838726D01*
X151459250Y-69839900D01*
X150546750Y-69839900D01*
X150522858Y-69838726D01*
X150499197Y-69835216D01*
X150475993Y-69829404D01*
X150453471Y-69821346D01*
X150431847Y-69811118D01*
X150411330Y-69798821D01*
X150392117Y-69784571D01*
X150374393Y-69768507D01*
X150358329Y-69750783D01*
X150344079Y-69731570D01*
X150331782Y-69711053D01*
X150321554Y-69689429D01*
X150313496Y-69666907D01*
X150307684Y-69643703D01*
X150304174Y-69620042D01*
X150303000Y-69596150D01*
X150303000Y-69108650D01*
X150304174Y-69084758D01*
X150307684Y-69061097D01*
X150313496Y-69037893D01*
X150321554Y-69015371D01*
X150331782Y-68993747D01*
X150344079Y-68973230D01*
X150358329Y-68954017D01*
X150374393Y-68936293D01*
X150392117Y-68920229D01*
X150411330Y-68905979D01*
X150431847Y-68893682D01*
X150453471Y-68883454D01*
X150475993Y-68875396D01*
X150499197Y-68869584D01*
X150522858Y-68866074D01*
X150546750Y-68864900D01*
X151459250Y-68864900D01*
X151483142Y-68866074D01*
X151483142Y-68866074D01*
G37*
D21*
X151003000Y-69352400D03*
D10*
G36*
X131634142Y-67296974D02*
G01*
X131657803Y-67300484D01*
X131681007Y-67306296D01*
X131703529Y-67314354D01*
X131725153Y-67324582D01*
X131745670Y-67336879D01*
X131764883Y-67351129D01*
X131782607Y-67367193D01*
X131798671Y-67384917D01*
X131812921Y-67404130D01*
X131825218Y-67424647D01*
X131835446Y-67446271D01*
X131843504Y-67468793D01*
X131849316Y-67491997D01*
X131852826Y-67515658D01*
X131854000Y-67539550D01*
X131854000Y-68452050D01*
X131852826Y-68475942D01*
X131849316Y-68499603D01*
X131843504Y-68522807D01*
X131835446Y-68545329D01*
X131825218Y-68566953D01*
X131812921Y-68587470D01*
X131798671Y-68606683D01*
X131782607Y-68624407D01*
X131764883Y-68640471D01*
X131745670Y-68654721D01*
X131725153Y-68667018D01*
X131703529Y-68677246D01*
X131681007Y-68685304D01*
X131657803Y-68691116D01*
X131634142Y-68694626D01*
X131610250Y-68695800D01*
X131122750Y-68695800D01*
X131098858Y-68694626D01*
X131075197Y-68691116D01*
X131051993Y-68685304D01*
X131029471Y-68677246D01*
X131007847Y-68667018D01*
X130987330Y-68654721D01*
X130968117Y-68640471D01*
X130950393Y-68624407D01*
X130934329Y-68606683D01*
X130920079Y-68587470D01*
X130907782Y-68566953D01*
X130897554Y-68545329D01*
X130889496Y-68522807D01*
X130883684Y-68499603D01*
X130880174Y-68475942D01*
X130879000Y-68452050D01*
X130879000Y-67539550D01*
X130880174Y-67515658D01*
X130883684Y-67491997D01*
X130889496Y-67468793D01*
X130897554Y-67446271D01*
X130907782Y-67424647D01*
X130920079Y-67404130D01*
X130934329Y-67384917D01*
X130950393Y-67367193D01*
X130968117Y-67351129D01*
X130987330Y-67336879D01*
X131007847Y-67324582D01*
X131029471Y-67314354D01*
X131051993Y-67306296D01*
X131075197Y-67300484D01*
X131098858Y-67296974D01*
X131122750Y-67295800D01*
X131610250Y-67295800D01*
X131634142Y-67296974D01*
X131634142Y-67296974D01*
G37*
D21*
X131366500Y-67995800D03*
D10*
G36*
X129759142Y-67296974D02*
G01*
X129782803Y-67300484D01*
X129806007Y-67306296D01*
X129828529Y-67314354D01*
X129850153Y-67324582D01*
X129870670Y-67336879D01*
X129889883Y-67351129D01*
X129907607Y-67367193D01*
X129923671Y-67384917D01*
X129937921Y-67404130D01*
X129950218Y-67424647D01*
X129960446Y-67446271D01*
X129968504Y-67468793D01*
X129974316Y-67491997D01*
X129977826Y-67515658D01*
X129979000Y-67539550D01*
X129979000Y-68452050D01*
X129977826Y-68475942D01*
X129974316Y-68499603D01*
X129968504Y-68522807D01*
X129960446Y-68545329D01*
X129950218Y-68566953D01*
X129937921Y-68587470D01*
X129923671Y-68606683D01*
X129907607Y-68624407D01*
X129889883Y-68640471D01*
X129870670Y-68654721D01*
X129850153Y-68667018D01*
X129828529Y-68677246D01*
X129806007Y-68685304D01*
X129782803Y-68691116D01*
X129759142Y-68694626D01*
X129735250Y-68695800D01*
X129247750Y-68695800D01*
X129223858Y-68694626D01*
X129200197Y-68691116D01*
X129176993Y-68685304D01*
X129154471Y-68677246D01*
X129132847Y-68667018D01*
X129112330Y-68654721D01*
X129093117Y-68640471D01*
X129075393Y-68624407D01*
X129059329Y-68606683D01*
X129045079Y-68587470D01*
X129032782Y-68566953D01*
X129022554Y-68545329D01*
X129014496Y-68522807D01*
X129008684Y-68499603D01*
X129005174Y-68475942D01*
X129004000Y-68452050D01*
X129004000Y-67539550D01*
X129005174Y-67515658D01*
X129008684Y-67491997D01*
X129014496Y-67468793D01*
X129022554Y-67446271D01*
X129032782Y-67424647D01*
X129045079Y-67404130D01*
X129059329Y-67384917D01*
X129075393Y-67367193D01*
X129093117Y-67351129D01*
X129112330Y-67336879D01*
X129132847Y-67324582D01*
X129154471Y-67314354D01*
X129176993Y-67306296D01*
X129200197Y-67300484D01*
X129223858Y-67296974D01*
X129247750Y-67295800D01*
X129735250Y-67295800D01*
X129759142Y-67296974D01*
X129759142Y-67296974D01*
G37*
D21*
X129491500Y-67995800D03*
D10*
G36*
X147215942Y-55319774D02*
G01*
X147239603Y-55323284D01*
X147262807Y-55329096D01*
X147285329Y-55337154D01*
X147306953Y-55347382D01*
X147327470Y-55359679D01*
X147346683Y-55373929D01*
X147364407Y-55389993D01*
X147380471Y-55407717D01*
X147394721Y-55426930D01*
X147407018Y-55447447D01*
X147417246Y-55469071D01*
X147425304Y-55491593D01*
X147431116Y-55514797D01*
X147434626Y-55538458D01*
X147435800Y-55562350D01*
X147435800Y-56049850D01*
X147434626Y-56073742D01*
X147431116Y-56097403D01*
X147425304Y-56120607D01*
X147417246Y-56143129D01*
X147407018Y-56164753D01*
X147394721Y-56185270D01*
X147380471Y-56204483D01*
X147364407Y-56222207D01*
X147346683Y-56238271D01*
X147327470Y-56252521D01*
X147306953Y-56264818D01*
X147285329Y-56275046D01*
X147262807Y-56283104D01*
X147239603Y-56288916D01*
X147215942Y-56292426D01*
X147192050Y-56293600D01*
X146279550Y-56293600D01*
X146255658Y-56292426D01*
X146231997Y-56288916D01*
X146208793Y-56283104D01*
X146186271Y-56275046D01*
X146164647Y-56264818D01*
X146144130Y-56252521D01*
X146124917Y-56238271D01*
X146107193Y-56222207D01*
X146091129Y-56204483D01*
X146076879Y-56185270D01*
X146064582Y-56164753D01*
X146054354Y-56143129D01*
X146046296Y-56120607D01*
X146040484Y-56097403D01*
X146036974Y-56073742D01*
X146035800Y-56049850D01*
X146035800Y-55562350D01*
X146036974Y-55538458D01*
X146040484Y-55514797D01*
X146046296Y-55491593D01*
X146054354Y-55469071D01*
X146064582Y-55447447D01*
X146076879Y-55426930D01*
X146091129Y-55407717D01*
X146107193Y-55389993D01*
X146124917Y-55373929D01*
X146144130Y-55359679D01*
X146164647Y-55347382D01*
X146186271Y-55337154D01*
X146208793Y-55329096D01*
X146231997Y-55323284D01*
X146255658Y-55319774D01*
X146279550Y-55318600D01*
X147192050Y-55318600D01*
X147215942Y-55319774D01*
X147215942Y-55319774D01*
G37*
D21*
X146735800Y-55806100D03*
D10*
G36*
X147215942Y-57194774D02*
G01*
X147239603Y-57198284D01*
X147262807Y-57204096D01*
X147285329Y-57212154D01*
X147306953Y-57222382D01*
X147327470Y-57234679D01*
X147346683Y-57248929D01*
X147364407Y-57264993D01*
X147380471Y-57282717D01*
X147394721Y-57301930D01*
X147407018Y-57322447D01*
X147417246Y-57344071D01*
X147425304Y-57366593D01*
X147431116Y-57389797D01*
X147434626Y-57413458D01*
X147435800Y-57437350D01*
X147435800Y-57924850D01*
X147434626Y-57948742D01*
X147431116Y-57972403D01*
X147425304Y-57995607D01*
X147417246Y-58018129D01*
X147407018Y-58039753D01*
X147394721Y-58060270D01*
X147380471Y-58079483D01*
X147364407Y-58097207D01*
X147346683Y-58113271D01*
X147327470Y-58127521D01*
X147306953Y-58139818D01*
X147285329Y-58150046D01*
X147262807Y-58158104D01*
X147239603Y-58163916D01*
X147215942Y-58167426D01*
X147192050Y-58168600D01*
X146279550Y-58168600D01*
X146255658Y-58167426D01*
X146231997Y-58163916D01*
X146208793Y-58158104D01*
X146186271Y-58150046D01*
X146164647Y-58139818D01*
X146144130Y-58127521D01*
X146124917Y-58113271D01*
X146107193Y-58097207D01*
X146091129Y-58079483D01*
X146076879Y-58060270D01*
X146064582Y-58039753D01*
X146054354Y-58018129D01*
X146046296Y-57995607D01*
X146040484Y-57972403D01*
X146036974Y-57948742D01*
X146035800Y-57924850D01*
X146035800Y-57437350D01*
X146036974Y-57413458D01*
X146040484Y-57389797D01*
X146046296Y-57366593D01*
X146054354Y-57344071D01*
X146064582Y-57322447D01*
X146076879Y-57301930D01*
X146091129Y-57282717D01*
X146107193Y-57264993D01*
X146124917Y-57248929D01*
X146144130Y-57234679D01*
X146164647Y-57222382D01*
X146186271Y-57212154D01*
X146208793Y-57204096D01*
X146231997Y-57198284D01*
X146255658Y-57194774D01*
X146279550Y-57193600D01*
X147192050Y-57193600D01*
X147215942Y-57194774D01*
X147215942Y-57194774D01*
G37*
D21*
X146735800Y-57681100D03*
D10*
G36*
X149082842Y-57194774D02*
G01*
X149106503Y-57198284D01*
X149129707Y-57204096D01*
X149152229Y-57212154D01*
X149173853Y-57222382D01*
X149194370Y-57234679D01*
X149213583Y-57248929D01*
X149231307Y-57264993D01*
X149247371Y-57282717D01*
X149261621Y-57301930D01*
X149273918Y-57322447D01*
X149284146Y-57344071D01*
X149292204Y-57366593D01*
X149298016Y-57389797D01*
X149301526Y-57413458D01*
X149302700Y-57437350D01*
X149302700Y-57924850D01*
X149301526Y-57948742D01*
X149298016Y-57972403D01*
X149292204Y-57995607D01*
X149284146Y-58018129D01*
X149273918Y-58039753D01*
X149261621Y-58060270D01*
X149247371Y-58079483D01*
X149231307Y-58097207D01*
X149213583Y-58113271D01*
X149194370Y-58127521D01*
X149173853Y-58139818D01*
X149152229Y-58150046D01*
X149129707Y-58158104D01*
X149106503Y-58163916D01*
X149082842Y-58167426D01*
X149058950Y-58168600D01*
X148146450Y-58168600D01*
X148122558Y-58167426D01*
X148098897Y-58163916D01*
X148075693Y-58158104D01*
X148053171Y-58150046D01*
X148031547Y-58139818D01*
X148011030Y-58127521D01*
X147991817Y-58113271D01*
X147974093Y-58097207D01*
X147958029Y-58079483D01*
X147943779Y-58060270D01*
X147931482Y-58039753D01*
X147921254Y-58018129D01*
X147913196Y-57995607D01*
X147907384Y-57972403D01*
X147903874Y-57948742D01*
X147902700Y-57924850D01*
X147902700Y-57437350D01*
X147903874Y-57413458D01*
X147907384Y-57389797D01*
X147913196Y-57366593D01*
X147921254Y-57344071D01*
X147931482Y-57322447D01*
X147943779Y-57301930D01*
X147958029Y-57282717D01*
X147974093Y-57264993D01*
X147991817Y-57248929D01*
X148011030Y-57234679D01*
X148031547Y-57222382D01*
X148053171Y-57212154D01*
X148075693Y-57204096D01*
X148098897Y-57198284D01*
X148122558Y-57194774D01*
X148146450Y-57193600D01*
X149058950Y-57193600D01*
X149082842Y-57194774D01*
X149082842Y-57194774D01*
G37*
D21*
X148602700Y-57681100D03*
D10*
G36*
X149082842Y-55319774D02*
G01*
X149106503Y-55323284D01*
X149129707Y-55329096D01*
X149152229Y-55337154D01*
X149173853Y-55347382D01*
X149194370Y-55359679D01*
X149213583Y-55373929D01*
X149231307Y-55389993D01*
X149247371Y-55407717D01*
X149261621Y-55426930D01*
X149273918Y-55447447D01*
X149284146Y-55469071D01*
X149292204Y-55491593D01*
X149298016Y-55514797D01*
X149301526Y-55538458D01*
X149302700Y-55562350D01*
X149302700Y-56049850D01*
X149301526Y-56073742D01*
X149298016Y-56097403D01*
X149292204Y-56120607D01*
X149284146Y-56143129D01*
X149273918Y-56164753D01*
X149261621Y-56185270D01*
X149247371Y-56204483D01*
X149231307Y-56222207D01*
X149213583Y-56238271D01*
X149194370Y-56252521D01*
X149173853Y-56264818D01*
X149152229Y-56275046D01*
X149129707Y-56283104D01*
X149106503Y-56288916D01*
X149082842Y-56292426D01*
X149058950Y-56293600D01*
X148146450Y-56293600D01*
X148122558Y-56292426D01*
X148098897Y-56288916D01*
X148075693Y-56283104D01*
X148053171Y-56275046D01*
X148031547Y-56264818D01*
X148011030Y-56252521D01*
X147991817Y-56238271D01*
X147974093Y-56222207D01*
X147958029Y-56204483D01*
X147943779Y-56185270D01*
X147931482Y-56164753D01*
X147921254Y-56143129D01*
X147913196Y-56120607D01*
X147907384Y-56097403D01*
X147903874Y-56073742D01*
X147902700Y-56049850D01*
X147902700Y-55562350D01*
X147903874Y-55538458D01*
X147907384Y-55514797D01*
X147913196Y-55491593D01*
X147921254Y-55469071D01*
X147931482Y-55447447D01*
X147943779Y-55426930D01*
X147958029Y-55407717D01*
X147974093Y-55389993D01*
X147991817Y-55373929D01*
X148011030Y-55359679D01*
X148031547Y-55347382D01*
X148053171Y-55337154D01*
X148075693Y-55329096D01*
X148098897Y-55323284D01*
X148122558Y-55319774D01*
X148146450Y-55318600D01*
X149058950Y-55318600D01*
X149082842Y-55319774D01*
X149082842Y-55319774D01*
G37*
D21*
X148602700Y-55806100D03*
D10*
G36*
X125822142Y-69684574D02*
G01*
X125845803Y-69688084D01*
X125869007Y-69693896D01*
X125891529Y-69701954D01*
X125913153Y-69712182D01*
X125933670Y-69724479D01*
X125952883Y-69738729D01*
X125970607Y-69754793D01*
X125986671Y-69772517D01*
X126000921Y-69791730D01*
X126013218Y-69812247D01*
X126023446Y-69833871D01*
X126031504Y-69856393D01*
X126037316Y-69879597D01*
X126040826Y-69903258D01*
X126042000Y-69927150D01*
X126042000Y-70839650D01*
X126040826Y-70863542D01*
X126037316Y-70887203D01*
X126031504Y-70910407D01*
X126023446Y-70932929D01*
X126013218Y-70954553D01*
X126000921Y-70975070D01*
X125986671Y-70994283D01*
X125970607Y-71012007D01*
X125952883Y-71028071D01*
X125933670Y-71042321D01*
X125913153Y-71054618D01*
X125891529Y-71064846D01*
X125869007Y-71072904D01*
X125845803Y-71078716D01*
X125822142Y-71082226D01*
X125798250Y-71083400D01*
X125310750Y-71083400D01*
X125286858Y-71082226D01*
X125263197Y-71078716D01*
X125239993Y-71072904D01*
X125217471Y-71064846D01*
X125195847Y-71054618D01*
X125175330Y-71042321D01*
X125156117Y-71028071D01*
X125138393Y-71012007D01*
X125122329Y-70994283D01*
X125108079Y-70975070D01*
X125095782Y-70954553D01*
X125085554Y-70932929D01*
X125077496Y-70910407D01*
X125071684Y-70887203D01*
X125068174Y-70863542D01*
X125067000Y-70839650D01*
X125067000Y-69927150D01*
X125068174Y-69903258D01*
X125071684Y-69879597D01*
X125077496Y-69856393D01*
X125085554Y-69833871D01*
X125095782Y-69812247D01*
X125108079Y-69791730D01*
X125122329Y-69772517D01*
X125138393Y-69754793D01*
X125156117Y-69738729D01*
X125175330Y-69724479D01*
X125195847Y-69712182D01*
X125217471Y-69701954D01*
X125239993Y-69693896D01*
X125263197Y-69688084D01*
X125286858Y-69684574D01*
X125310750Y-69683400D01*
X125798250Y-69683400D01*
X125822142Y-69684574D01*
X125822142Y-69684574D01*
G37*
D21*
X125554500Y-70383400D03*
D10*
G36*
X127697142Y-69684574D02*
G01*
X127720803Y-69688084D01*
X127744007Y-69693896D01*
X127766529Y-69701954D01*
X127788153Y-69712182D01*
X127808670Y-69724479D01*
X127827883Y-69738729D01*
X127845607Y-69754793D01*
X127861671Y-69772517D01*
X127875921Y-69791730D01*
X127888218Y-69812247D01*
X127898446Y-69833871D01*
X127906504Y-69856393D01*
X127912316Y-69879597D01*
X127915826Y-69903258D01*
X127917000Y-69927150D01*
X127917000Y-70839650D01*
X127915826Y-70863542D01*
X127912316Y-70887203D01*
X127906504Y-70910407D01*
X127898446Y-70932929D01*
X127888218Y-70954553D01*
X127875921Y-70975070D01*
X127861671Y-70994283D01*
X127845607Y-71012007D01*
X127827883Y-71028071D01*
X127808670Y-71042321D01*
X127788153Y-71054618D01*
X127766529Y-71064846D01*
X127744007Y-71072904D01*
X127720803Y-71078716D01*
X127697142Y-71082226D01*
X127673250Y-71083400D01*
X127185750Y-71083400D01*
X127161858Y-71082226D01*
X127138197Y-71078716D01*
X127114993Y-71072904D01*
X127092471Y-71064846D01*
X127070847Y-71054618D01*
X127050330Y-71042321D01*
X127031117Y-71028071D01*
X127013393Y-71012007D01*
X126997329Y-70994283D01*
X126983079Y-70975070D01*
X126970782Y-70954553D01*
X126960554Y-70932929D01*
X126952496Y-70910407D01*
X126946684Y-70887203D01*
X126943174Y-70863542D01*
X126942000Y-70839650D01*
X126942000Y-69927150D01*
X126943174Y-69903258D01*
X126946684Y-69879597D01*
X126952496Y-69856393D01*
X126960554Y-69833871D01*
X126970782Y-69812247D01*
X126983079Y-69791730D01*
X126997329Y-69772517D01*
X127013393Y-69754793D01*
X127031117Y-69738729D01*
X127050330Y-69724479D01*
X127070847Y-69712182D01*
X127092471Y-69701954D01*
X127114993Y-69693896D01*
X127138197Y-69688084D01*
X127161858Y-69684574D01*
X127185750Y-69683400D01*
X127673250Y-69683400D01*
X127697142Y-69684574D01*
X127697142Y-69684574D01*
G37*
D21*
X127429500Y-70383400D03*
D10*
G36*
X125834842Y-67906574D02*
G01*
X125858503Y-67910084D01*
X125881707Y-67915896D01*
X125904229Y-67923954D01*
X125925853Y-67934182D01*
X125946370Y-67946479D01*
X125965583Y-67960729D01*
X125983307Y-67976793D01*
X125999371Y-67994517D01*
X126013621Y-68013730D01*
X126025918Y-68034247D01*
X126036146Y-68055871D01*
X126044204Y-68078393D01*
X126050016Y-68101597D01*
X126053526Y-68125258D01*
X126054700Y-68149150D01*
X126054700Y-69061650D01*
X126053526Y-69085542D01*
X126050016Y-69109203D01*
X126044204Y-69132407D01*
X126036146Y-69154929D01*
X126025918Y-69176553D01*
X126013621Y-69197070D01*
X125999371Y-69216283D01*
X125983307Y-69234007D01*
X125965583Y-69250071D01*
X125946370Y-69264321D01*
X125925853Y-69276618D01*
X125904229Y-69286846D01*
X125881707Y-69294904D01*
X125858503Y-69300716D01*
X125834842Y-69304226D01*
X125810950Y-69305400D01*
X125323450Y-69305400D01*
X125299558Y-69304226D01*
X125275897Y-69300716D01*
X125252693Y-69294904D01*
X125230171Y-69286846D01*
X125208547Y-69276618D01*
X125188030Y-69264321D01*
X125168817Y-69250071D01*
X125151093Y-69234007D01*
X125135029Y-69216283D01*
X125120779Y-69197070D01*
X125108482Y-69176553D01*
X125098254Y-69154929D01*
X125090196Y-69132407D01*
X125084384Y-69109203D01*
X125080874Y-69085542D01*
X125079700Y-69061650D01*
X125079700Y-68149150D01*
X125080874Y-68125258D01*
X125084384Y-68101597D01*
X125090196Y-68078393D01*
X125098254Y-68055871D01*
X125108482Y-68034247D01*
X125120779Y-68013730D01*
X125135029Y-67994517D01*
X125151093Y-67976793D01*
X125168817Y-67960729D01*
X125188030Y-67946479D01*
X125208547Y-67934182D01*
X125230171Y-67923954D01*
X125252693Y-67915896D01*
X125275897Y-67910084D01*
X125299558Y-67906574D01*
X125323450Y-67905400D01*
X125810950Y-67905400D01*
X125834842Y-67906574D01*
X125834842Y-67906574D01*
G37*
D21*
X125567200Y-68605400D03*
D10*
G36*
X127709842Y-67906574D02*
G01*
X127733503Y-67910084D01*
X127756707Y-67915896D01*
X127779229Y-67923954D01*
X127800853Y-67934182D01*
X127821370Y-67946479D01*
X127840583Y-67960729D01*
X127858307Y-67976793D01*
X127874371Y-67994517D01*
X127888621Y-68013730D01*
X127900918Y-68034247D01*
X127911146Y-68055871D01*
X127919204Y-68078393D01*
X127925016Y-68101597D01*
X127928526Y-68125258D01*
X127929700Y-68149150D01*
X127929700Y-69061650D01*
X127928526Y-69085542D01*
X127925016Y-69109203D01*
X127919204Y-69132407D01*
X127911146Y-69154929D01*
X127900918Y-69176553D01*
X127888621Y-69197070D01*
X127874371Y-69216283D01*
X127858307Y-69234007D01*
X127840583Y-69250071D01*
X127821370Y-69264321D01*
X127800853Y-69276618D01*
X127779229Y-69286846D01*
X127756707Y-69294904D01*
X127733503Y-69300716D01*
X127709842Y-69304226D01*
X127685950Y-69305400D01*
X127198450Y-69305400D01*
X127174558Y-69304226D01*
X127150897Y-69300716D01*
X127127693Y-69294904D01*
X127105171Y-69286846D01*
X127083547Y-69276618D01*
X127063030Y-69264321D01*
X127043817Y-69250071D01*
X127026093Y-69234007D01*
X127010029Y-69216283D01*
X126995779Y-69197070D01*
X126983482Y-69176553D01*
X126973254Y-69154929D01*
X126965196Y-69132407D01*
X126959384Y-69109203D01*
X126955874Y-69085542D01*
X126954700Y-69061650D01*
X126954700Y-68149150D01*
X126955874Y-68125258D01*
X126959384Y-68101597D01*
X126965196Y-68078393D01*
X126973254Y-68055871D01*
X126983482Y-68034247D01*
X126995779Y-68013730D01*
X127010029Y-67994517D01*
X127026093Y-67976793D01*
X127043817Y-67960729D01*
X127063030Y-67946479D01*
X127083547Y-67934182D01*
X127105171Y-67923954D01*
X127127693Y-67915896D01*
X127150897Y-67910084D01*
X127174558Y-67906574D01*
X127198450Y-67905400D01*
X127685950Y-67905400D01*
X127709842Y-67906574D01*
X127709842Y-67906574D01*
G37*
D21*
X127442200Y-68605400D03*
D10*
G36*
X125809442Y-64490274D02*
G01*
X125833103Y-64493784D01*
X125856307Y-64499596D01*
X125878829Y-64507654D01*
X125900453Y-64517882D01*
X125920970Y-64530179D01*
X125940183Y-64544429D01*
X125957907Y-64560493D01*
X125973971Y-64578217D01*
X125988221Y-64597430D01*
X126000518Y-64617947D01*
X126010746Y-64639571D01*
X126018804Y-64662093D01*
X126024616Y-64685297D01*
X126028126Y-64708958D01*
X126029300Y-64732850D01*
X126029300Y-65645350D01*
X126028126Y-65669242D01*
X126024616Y-65692903D01*
X126018804Y-65716107D01*
X126010746Y-65738629D01*
X126000518Y-65760253D01*
X125988221Y-65780770D01*
X125973971Y-65799983D01*
X125957907Y-65817707D01*
X125940183Y-65833771D01*
X125920970Y-65848021D01*
X125900453Y-65860318D01*
X125878829Y-65870546D01*
X125856307Y-65878604D01*
X125833103Y-65884416D01*
X125809442Y-65887926D01*
X125785550Y-65889100D01*
X125298050Y-65889100D01*
X125274158Y-65887926D01*
X125250497Y-65884416D01*
X125227293Y-65878604D01*
X125204771Y-65870546D01*
X125183147Y-65860318D01*
X125162630Y-65848021D01*
X125143417Y-65833771D01*
X125125693Y-65817707D01*
X125109629Y-65799983D01*
X125095379Y-65780770D01*
X125083082Y-65760253D01*
X125072854Y-65738629D01*
X125064796Y-65716107D01*
X125058984Y-65692903D01*
X125055474Y-65669242D01*
X125054300Y-65645350D01*
X125054300Y-64732850D01*
X125055474Y-64708958D01*
X125058984Y-64685297D01*
X125064796Y-64662093D01*
X125072854Y-64639571D01*
X125083082Y-64617947D01*
X125095379Y-64597430D01*
X125109629Y-64578217D01*
X125125693Y-64560493D01*
X125143417Y-64544429D01*
X125162630Y-64530179D01*
X125183147Y-64517882D01*
X125204771Y-64507654D01*
X125227293Y-64499596D01*
X125250497Y-64493784D01*
X125274158Y-64490274D01*
X125298050Y-64489100D01*
X125785550Y-64489100D01*
X125809442Y-64490274D01*
X125809442Y-64490274D01*
G37*
D21*
X125541800Y-65189100D03*
D10*
G36*
X127684442Y-64490274D02*
G01*
X127708103Y-64493784D01*
X127731307Y-64499596D01*
X127753829Y-64507654D01*
X127775453Y-64517882D01*
X127795970Y-64530179D01*
X127815183Y-64544429D01*
X127832907Y-64560493D01*
X127848971Y-64578217D01*
X127863221Y-64597430D01*
X127875518Y-64617947D01*
X127885746Y-64639571D01*
X127893804Y-64662093D01*
X127899616Y-64685297D01*
X127903126Y-64708958D01*
X127904300Y-64732850D01*
X127904300Y-65645350D01*
X127903126Y-65669242D01*
X127899616Y-65692903D01*
X127893804Y-65716107D01*
X127885746Y-65738629D01*
X127875518Y-65760253D01*
X127863221Y-65780770D01*
X127848971Y-65799983D01*
X127832907Y-65817707D01*
X127815183Y-65833771D01*
X127795970Y-65848021D01*
X127775453Y-65860318D01*
X127753829Y-65870546D01*
X127731307Y-65878604D01*
X127708103Y-65884416D01*
X127684442Y-65887926D01*
X127660550Y-65889100D01*
X127173050Y-65889100D01*
X127149158Y-65887926D01*
X127125497Y-65884416D01*
X127102293Y-65878604D01*
X127079771Y-65870546D01*
X127058147Y-65860318D01*
X127037630Y-65848021D01*
X127018417Y-65833771D01*
X127000693Y-65817707D01*
X126984629Y-65799983D01*
X126970379Y-65780770D01*
X126958082Y-65760253D01*
X126947854Y-65738629D01*
X126939796Y-65716107D01*
X126933984Y-65692903D01*
X126930474Y-65669242D01*
X126929300Y-65645350D01*
X126929300Y-64732850D01*
X126930474Y-64708958D01*
X126933984Y-64685297D01*
X126939796Y-64662093D01*
X126947854Y-64639571D01*
X126958082Y-64617947D01*
X126970379Y-64597430D01*
X126984629Y-64578217D01*
X127000693Y-64560493D01*
X127018417Y-64544429D01*
X127037630Y-64530179D01*
X127058147Y-64517882D01*
X127079771Y-64507654D01*
X127102293Y-64499596D01*
X127125497Y-64493784D01*
X127149158Y-64490274D01*
X127173050Y-64489100D01*
X127660550Y-64489100D01*
X127684442Y-64490274D01*
X127684442Y-64490274D01*
G37*
D21*
X127416800Y-65189100D03*
D10*
G36*
X125326842Y-57200474D02*
G01*
X125350503Y-57203984D01*
X125373707Y-57209796D01*
X125396229Y-57217854D01*
X125417853Y-57228082D01*
X125438370Y-57240379D01*
X125457583Y-57254629D01*
X125475307Y-57270693D01*
X125491371Y-57288417D01*
X125505621Y-57307630D01*
X125517918Y-57328147D01*
X125528146Y-57349771D01*
X125536204Y-57372293D01*
X125542016Y-57395497D01*
X125545526Y-57419158D01*
X125546700Y-57443050D01*
X125546700Y-58355550D01*
X125545526Y-58379442D01*
X125542016Y-58403103D01*
X125536204Y-58426307D01*
X125528146Y-58448829D01*
X125517918Y-58470453D01*
X125505621Y-58490970D01*
X125491371Y-58510183D01*
X125475307Y-58527907D01*
X125457583Y-58543971D01*
X125438370Y-58558221D01*
X125417853Y-58570518D01*
X125396229Y-58580746D01*
X125373707Y-58588804D01*
X125350503Y-58594616D01*
X125326842Y-58598126D01*
X125302950Y-58599300D01*
X124815450Y-58599300D01*
X124791558Y-58598126D01*
X124767897Y-58594616D01*
X124744693Y-58588804D01*
X124722171Y-58580746D01*
X124700547Y-58570518D01*
X124680030Y-58558221D01*
X124660817Y-58543971D01*
X124643093Y-58527907D01*
X124627029Y-58510183D01*
X124612779Y-58490970D01*
X124600482Y-58470453D01*
X124590254Y-58448829D01*
X124582196Y-58426307D01*
X124576384Y-58403103D01*
X124572874Y-58379442D01*
X124571700Y-58355550D01*
X124571700Y-57443050D01*
X124572874Y-57419158D01*
X124576384Y-57395497D01*
X124582196Y-57372293D01*
X124590254Y-57349771D01*
X124600482Y-57328147D01*
X124612779Y-57307630D01*
X124627029Y-57288417D01*
X124643093Y-57270693D01*
X124660817Y-57254629D01*
X124680030Y-57240379D01*
X124700547Y-57228082D01*
X124722171Y-57217854D01*
X124744693Y-57209796D01*
X124767897Y-57203984D01*
X124791558Y-57200474D01*
X124815450Y-57199300D01*
X125302950Y-57199300D01*
X125326842Y-57200474D01*
X125326842Y-57200474D01*
G37*
D21*
X125059200Y-57899300D03*
D10*
G36*
X127201842Y-57200474D02*
G01*
X127225503Y-57203984D01*
X127248707Y-57209796D01*
X127271229Y-57217854D01*
X127292853Y-57228082D01*
X127313370Y-57240379D01*
X127332583Y-57254629D01*
X127350307Y-57270693D01*
X127366371Y-57288417D01*
X127380621Y-57307630D01*
X127392918Y-57328147D01*
X127403146Y-57349771D01*
X127411204Y-57372293D01*
X127417016Y-57395497D01*
X127420526Y-57419158D01*
X127421700Y-57443050D01*
X127421700Y-58355550D01*
X127420526Y-58379442D01*
X127417016Y-58403103D01*
X127411204Y-58426307D01*
X127403146Y-58448829D01*
X127392918Y-58470453D01*
X127380621Y-58490970D01*
X127366371Y-58510183D01*
X127350307Y-58527907D01*
X127332583Y-58543971D01*
X127313370Y-58558221D01*
X127292853Y-58570518D01*
X127271229Y-58580746D01*
X127248707Y-58588804D01*
X127225503Y-58594616D01*
X127201842Y-58598126D01*
X127177950Y-58599300D01*
X126690450Y-58599300D01*
X126666558Y-58598126D01*
X126642897Y-58594616D01*
X126619693Y-58588804D01*
X126597171Y-58580746D01*
X126575547Y-58570518D01*
X126555030Y-58558221D01*
X126535817Y-58543971D01*
X126518093Y-58527907D01*
X126502029Y-58510183D01*
X126487779Y-58490970D01*
X126475482Y-58470453D01*
X126465254Y-58448829D01*
X126457196Y-58426307D01*
X126451384Y-58403103D01*
X126447874Y-58379442D01*
X126446700Y-58355550D01*
X126446700Y-57443050D01*
X126447874Y-57419158D01*
X126451384Y-57395497D01*
X126457196Y-57372293D01*
X126465254Y-57349771D01*
X126475482Y-57328147D01*
X126487779Y-57307630D01*
X126502029Y-57288417D01*
X126518093Y-57270693D01*
X126535817Y-57254629D01*
X126555030Y-57240379D01*
X126575547Y-57228082D01*
X126597171Y-57217854D01*
X126619693Y-57209796D01*
X126642897Y-57203984D01*
X126666558Y-57200474D01*
X126690450Y-57199300D01*
X127177950Y-57199300D01*
X127201842Y-57200474D01*
X127201842Y-57200474D01*
G37*
D21*
X126934200Y-57899300D03*
D10*
G36*
X125537042Y-61123674D02*
G01*
X125560703Y-61127184D01*
X125583907Y-61132996D01*
X125606429Y-61141054D01*
X125628053Y-61151282D01*
X125648570Y-61163579D01*
X125667783Y-61177829D01*
X125685507Y-61193893D01*
X125701571Y-61211617D01*
X125715821Y-61230830D01*
X125728118Y-61251347D01*
X125738346Y-61272971D01*
X125746404Y-61295493D01*
X125752216Y-61318697D01*
X125755726Y-61342358D01*
X125756900Y-61366250D01*
X125756900Y-61853750D01*
X125755726Y-61877642D01*
X125752216Y-61901303D01*
X125746404Y-61924507D01*
X125738346Y-61947029D01*
X125728118Y-61968653D01*
X125715821Y-61989170D01*
X125701571Y-62008383D01*
X125685507Y-62026107D01*
X125667783Y-62042171D01*
X125648570Y-62056421D01*
X125628053Y-62068718D01*
X125606429Y-62078946D01*
X125583907Y-62087004D01*
X125560703Y-62092816D01*
X125537042Y-62096326D01*
X125513150Y-62097500D01*
X124600650Y-62097500D01*
X124576758Y-62096326D01*
X124553097Y-62092816D01*
X124529893Y-62087004D01*
X124507371Y-62078946D01*
X124485747Y-62068718D01*
X124465230Y-62056421D01*
X124446017Y-62042171D01*
X124428293Y-62026107D01*
X124412229Y-62008383D01*
X124397979Y-61989170D01*
X124385682Y-61968653D01*
X124375454Y-61947029D01*
X124367396Y-61924507D01*
X124361584Y-61901303D01*
X124358074Y-61877642D01*
X124356900Y-61853750D01*
X124356900Y-61366250D01*
X124358074Y-61342358D01*
X124361584Y-61318697D01*
X124367396Y-61295493D01*
X124375454Y-61272971D01*
X124385682Y-61251347D01*
X124397979Y-61230830D01*
X124412229Y-61211617D01*
X124428293Y-61193893D01*
X124446017Y-61177829D01*
X124465230Y-61163579D01*
X124485747Y-61151282D01*
X124507371Y-61141054D01*
X124529893Y-61132996D01*
X124553097Y-61127184D01*
X124576758Y-61123674D01*
X124600650Y-61122500D01*
X125513150Y-61122500D01*
X125537042Y-61123674D01*
X125537042Y-61123674D01*
G37*
D21*
X125056900Y-61610000D03*
D10*
G36*
X125537042Y-62998674D02*
G01*
X125560703Y-63002184D01*
X125583907Y-63007996D01*
X125606429Y-63016054D01*
X125628053Y-63026282D01*
X125648570Y-63038579D01*
X125667783Y-63052829D01*
X125685507Y-63068893D01*
X125701571Y-63086617D01*
X125715821Y-63105830D01*
X125728118Y-63126347D01*
X125738346Y-63147971D01*
X125746404Y-63170493D01*
X125752216Y-63193697D01*
X125755726Y-63217358D01*
X125756900Y-63241250D01*
X125756900Y-63728750D01*
X125755726Y-63752642D01*
X125752216Y-63776303D01*
X125746404Y-63799507D01*
X125738346Y-63822029D01*
X125728118Y-63843653D01*
X125715821Y-63864170D01*
X125701571Y-63883383D01*
X125685507Y-63901107D01*
X125667783Y-63917171D01*
X125648570Y-63931421D01*
X125628053Y-63943718D01*
X125606429Y-63953946D01*
X125583907Y-63962004D01*
X125560703Y-63967816D01*
X125537042Y-63971326D01*
X125513150Y-63972500D01*
X124600650Y-63972500D01*
X124576758Y-63971326D01*
X124553097Y-63967816D01*
X124529893Y-63962004D01*
X124507371Y-63953946D01*
X124485747Y-63943718D01*
X124465230Y-63931421D01*
X124446017Y-63917171D01*
X124428293Y-63901107D01*
X124412229Y-63883383D01*
X124397979Y-63864170D01*
X124385682Y-63843653D01*
X124375454Y-63822029D01*
X124367396Y-63799507D01*
X124361584Y-63776303D01*
X124358074Y-63752642D01*
X124356900Y-63728750D01*
X124356900Y-63241250D01*
X124358074Y-63217358D01*
X124361584Y-63193697D01*
X124367396Y-63170493D01*
X124375454Y-63147971D01*
X124385682Y-63126347D01*
X124397979Y-63105830D01*
X124412229Y-63086617D01*
X124428293Y-63068893D01*
X124446017Y-63052829D01*
X124465230Y-63038579D01*
X124485747Y-63026282D01*
X124507371Y-63016054D01*
X124529893Y-63007996D01*
X124553097Y-63002184D01*
X124576758Y-62998674D01*
X124600650Y-62997500D01*
X125513150Y-62997500D01*
X125537042Y-62998674D01*
X125537042Y-62998674D01*
G37*
D21*
X125056900Y-63485000D03*
D22*
X122262900Y-66754155D03*
X122262900Y-57454155D03*
M02*
