G04 #@! TF.GenerationSoftware,KiCad,Pcbnew,(5.1.4)-1*
G04 #@! TF.CreationDate,2019-12-20T11:27:30-05:00*
G04 #@! TF.ProjectId,Feather-weather-station,46656174-6865-4722-9d77-656174686572,rev?*
G04 #@! TF.SameCoordinates,Original*
G04 #@! TF.FileFunction,Copper,L2,Bot*
G04 #@! TF.FilePolarity,Positive*
%FSLAX46Y46*%
G04 Gerber Fmt 4.6, Leading zero omitted, Abs format (unit mm)*
G04 Created by KiCad (PCBNEW (5.1.4)-1) date 2019-12-20 11:27:30*
%MOMM*%
%LPD*%
G04 APERTURE LIST*
%ADD10O,1.700000X1.700000*%
%ADD11R,1.700000X1.700000*%
%ADD12C,0.500000*%
%ADD13C,0.100000*%
%ADD14C,3.800000*%
%ADD15C,0.660400*%
%ADD16C,0.800000*%
%ADD17C,0.609600*%
%ADD18C,0.152400*%
%ADD19C,0.254000*%
G04 APERTURE END LIST*
D10*
X163741100Y-52260500D03*
X161201100Y-52260500D03*
X158661100Y-52260500D03*
X156121100Y-52260500D03*
X153581100Y-52260500D03*
X151041100Y-52260500D03*
X148501100Y-52260500D03*
X145961100Y-52260500D03*
X143421100Y-52260500D03*
X140881100Y-52260500D03*
X138341100Y-52260500D03*
D11*
X135801100Y-52260500D03*
D12*
X138846800Y-66802000D03*
D13*
G36*
X138846800Y-67551398D02*
G01*
X138822266Y-67551398D01*
X138773435Y-67546588D01*
X138725310Y-67537016D01*
X138678355Y-67522772D01*
X138633022Y-67503995D01*
X138589749Y-67480864D01*
X138548950Y-67453604D01*
X138511021Y-67422476D01*
X138476324Y-67387779D01*
X138445196Y-67349850D01*
X138417936Y-67309051D01*
X138394805Y-67265778D01*
X138376028Y-67220445D01*
X138361784Y-67173490D01*
X138352212Y-67125365D01*
X138347402Y-67076534D01*
X138347402Y-67052000D01*
X138346800Y-67052000D01*
X138346800Y-66552000D01*
X138347402Y-66552000D01*
X138347402Y-66527466D01*
X138352212Y-66478635D01*
X138361784Y-66430510D01*
X138376028Y-66383555D01*
X138394805Y-66338222D01*
X138417936Y-66294949D01*
X138445196Y-66254150D01*
X138476324Y-66216221D01*
X138511021Y-66181524D01*
X138548950Y-66150396D01*
X138589749Y-66123136D01*
X138633022Y-66100005D01*
X138678355Y-66081228D01*
X138725310Y-66066984D01*
X138773435Y-66057412D01*
X138822266Y-66052602D01*
X138846800Y-66052602D01*
X138846800Y-66052000D01*
X139346800Y-66052000D01*
X139346800Y-67552000D01*
X138846800Y-67552000D01*
X138846800Y-67551398D01*
X138846800Y-67551398D01*
G37*
D12*
X140146800Y-66802000D03*
D13*
G36*
X139646800Y-66052000D02*
G01*
X140146800Y-66052000D01*
X140146800Y-66052602D01*
X140171334Y-66052602D01*
X140220165Y-66057412D01*
X140268290Y-66066984D01*
X140315245Y-66081228D01*
X140360578Y-66100005D01*
X140403851Y-66123136D01*
X140444650Y-66150396D01*
X140482579Y-66181524D01*
X140517276Y-66216221D01*
X140548404Y-66254150D01*
X140575664Y-66294949D01*
X140598795Y-66338222D01*
X140617572Y-66383555D01*
X140631816Y-66430510D01*
X140641388Y-66478635D01*
X140646198Y-66527466D01*
X140646198Y-66552000D01*
X140646800Y-66552000D01*
X140646800Y-67052000D01*
X140646198Y-67052000D01*
X140646198Y-67076534D01*
X140641388Y-67125365D01*
X140631816Y-67173490D01*
X140617572Y-67220445D01*
X140598795Y-67265778D01*
X140575664Y-67309051D01*
X140548404Y-67349850D01*
X140517276Y-67387779D01*
X140482579Y-67422476D01*
X140444650Y-67453604D01*
X140403851Y-67480864D01*
X140360578Y-67503995D01*
X140315245Y-67522772D01*
X140268290Y-67537016D01*
X140220165Y-67546588D01*
X140171334Y-67551398D01*
X140146800Y-67551398D01*
X140146800Y-67552000D01*
X139646800Y-67552000D01*
X139646800Y-66052000D01*
X139646800Y-66052000D01*
G37*
D14*
X121831100Y-71310500D03*
X121831100Y-53530500D03*
D10*
X163741100Y-72580500D03*
X161201100Y-72580500D03*
X158661100Y-72580500D03*
X156121100Y-72580500D03*
X153581100Y-72580500D03*
X151041100Y-72580500D03*
X148501100Y-72580500D03*
X145961100Y-72580500D03*
X143421100Y-72580500D03*
X140881100Y-72580500D03*
X138341100Y-72580500D03*
X135801100Y-72580500D03*
X133261100Y-72580500D03*
X130721100Y-72580500D03*
X128181100Y-72580500D03*
D11*
X125641100Y-72580500D03*
D12*
X126936500Y-70167500D03*
D13*
G36*
X126936500Y-69418102D02*
G01*
X126961034Y-69418102D01*
X127009865Y-69422912D01*
X127057990Y-69432484D01*
X127104945Y-69446728D01*
X127150278Y-69465505D01*
X127193551Y-69488636D01*
X127234350Y-69515896D01*
X127272279Y-69547024D01*
X127306976Y-69581721D01*
X127338104Y-69619650D01*
X127365364Y-69660449D01*
X127388495Y-69703722D01*
X127407272Y-69749055D01*
X127421516Y-69796010D01*
X127431088Y-69844135D01*
X127435898Y-69892966D01*
X127435898Y-69917500D01*
X127436500Y-69917500D01*
X127436500Y-70417500D01*
X127435898Y-70417500D01*
X127435898Y-70442034D01*
X127431088Y-70490865D01*
X127421516Y-70538990D01*
X127407272Y-70585945D01*
X127388495Y-70631278D01*
X127365364Y-70674551D01*
X127338104Y-70715350D01*
X127306976Y-70753279D01*
X127272279Y-70787976D01*
X127234350Y-70819104D01*
X127193551Y-70846364D01*
X127150278Y-70869495D01*
X127104945Y-70888272D01*
X127057990Y-70902516D01*
X127009865Y-70912088D01*
X126961034Y-70916898D01*
X126936500Y-70916898D01*
X126936500Y-70917500D01*
X126436500Y-70917500D01*
X126436500Y-69417500D01*
X126936500Y-69417500D01*
X126936500Y-69418102D01*
X126936500Y-69418102D01*
G37*
D12*
X125636500Y-70167500D03*
D13*
G36*
X126136500Y-70917500D02*
G01*
X125636500Y-70917500D01*
X125636500Y-70916898D01*
X125611966Y-70916898D01*
X125563135Y-70912088D01*
X125515010Y-70902516D01*
X125468055Y-70888272D01*
X125422722Y-70869495D01*
X125379449Y-70846364D01*
X125338650Y-70819104D01*
X125300721Y-70787976D01*
X125266024Y-70753279D01*
X125234896Y-70715350D01*
X125207636Y-70674551D01*
X125184505Y-70631278D01*
X125165728Y-70585945D01*
X125151484Y-70538990D01*
X125141912Y-70490865D01*
X125137102Y-70442034D01*
X125137102Y-70417500D01*
X125136500Y-70417500D01*
X125136500Y-69917500D01*
X125137102Y-69917500D01*
X125137102Y-69892966D01*
X125141912Y-69844135D01*
X125151484Y-69796010D01*
X125165728Y-69749055D01*
X125184505Y-69703722D01*
X125207636Y-69660449D01*
X125234896Y-69619650D01*
X125266024Y-69581721D01*
X125300721Y-69547024D01*
X125338650Y-69515896D01*
X125379449Y-69488636D01*
X125422722Y-69465505D01*
X125468055Y-69446728D01*
X125515010Y-69432484D01*
X125563135Y-69422912D01*
X125611966Y-69418102D01*
X125636500Y-69418102D01*
X125636500Y-69417500D01*
X126136500Y-69417500D01*
X126136500Y-70917500D01*
X126136500Y-70917500D01*
G37*
D12*
X126936500Y-68021200D03*
D13*
G36*
X126936500Y-67271802D02*
G01*
X126961034Y-67271802D01*
X127009865Y-67276612D01*
X127057990Y-67286184D01*
X127104945Y-67300428D01*
X127150278Y-67319205D01*
X127193551Y-67342336D01*
X127234350Y-67369596D01*
X127272279Y-67400724D01*
X127306976Y-67435421D01*
X127338104Y-67473350D01*
X127365364Y-67514149D01*
X127388495Y-67557422D01*
X127407272Y-67602755D01*
X127421516Y-67649710D01*
X127431088Y-67697835D01*
X127435898Y-67746666D01*
X127435898Y-67771200D01*
X127436500Y-67771200D01*
X127436500Y-68271200D01*
X127435898Y-68271200D01*
X127435898Y-68295734D01*
X127431088Y-68344565D01*
X127421516Y-68392690D01*
X127407272Y-68439645D01*
X127388495Y-68484978D01*
X127365364Y-68528251D01*
X127338104Y-68569050D01*
X127306976Y-68606979D01*
X127272279Y-68641676D01*
X127234350Y-68672804D01*
X127193551Y-68700064D01*
X127150278Y-68723195D01*
X127104945Y-68741972D01*
X127057990Y-68756216D01*
X127009865Y-68765788D01*
X126961034Y-68770598D01*
X126936500Y-68770598D01*
X126936500Y-68771200D01*
X126436500Y-68771200D01*
X126436500Y-67271200D01*
X126936500Y-67271200D01*
X126936500Y-67271802D01*
X126936500Y-67271802D01*
G37*
D12*
X125636500Y-68021200D03*
D13*
G36*
X126136500Y-68771200D02*
G01*
X125636500Y-68771200D01*
X125636500Y-68770598D01*
X125611966Y-68770598D01*
X125563135Y-68765788D01*
X125515010Y-68756216D01*
X125468055Y-68741972D01*
X125422722Y-68723195D01*
X125379449Y-68700064D01*
X125338650Y-68672804D01*
X125300721Y-68641676D01*
X125266024Y-68606979D01*
X125234896Y-68569050D01*
X125207636Y-68528251D01*
X125184505Y-68484978D01*
X125165728Y-68439645D01*
X125151484Y-68392690D01*
X125141912Y-68344565D01*
X125137102Y-68295734D01*
X125137102Y-68271200D01*
X125136500Y-68271200D01*
X125136500Y-67771200D01*
X125137102Y-67771200D01*
X125137102Y-67746666D01*
X125141912Y-67697835D01*
X125151484Y-67649710D01*
X125165728Y-67602755D01*
X125184505Y-67557422D01*
X125207636Y-67514149D01*
X125234896Y-67473350D01*
X125266024Y-67435421D01*
X125300721Y-67400724D01*
X125338650Y-67369596D01*
X125379449Y-67342336D01*
X125422722Y-67319205D01*
X125468055Y-67300428D01*
X125515010Y-67286184D01*
X125563135Y-67276612D01*
X125611966Y-67271802D01*
X125636500Y-67271802D01*
X125636500Y-67271200D01*
X126136500Y-67271200D01*
X126136500Y-68771200D01*
X126136500Y-68771200D01*
G37*
D15*
X149758400Y-53086000D03*
X150876000Y-55422800D03*
X132384799Y-68986399D03*
X128905000Y-70612000D03*
D16*
X134200900Y-52197000D03*
X142214600Y-51625500D03*
D15*
X126022100Y-60528200D03*
X124498100Y-65138300D03*
X153847800Y-71196200D03*
X152476200Y-69926200D03*
X131267200Y-69240400D03*
X132765800Y-69799200D03*
X130276600Y-70485000D03*
X129209800Y-69342000D03*
D17*
X132842000Y-54241700D03*
X131864100Y-55232300D03*
X134683500Y-54673500D03*
X133261100Y-55689500D03*
X144157700Y-55079900D03*
X144881600Y-56629300D03*
D15*
X123634500Y-51676300D03*
X155646120Y-71236840D03*
X158186120Y-70744080D03*
X165333680Y-70672960D03*
X165877240Y-72882760D03*
X152186640Y-61691520D03*
X144876520Y-58648600D03*
X124871480Y-55153560D03*
X126075440Y-54315360D03*
X130423920Y-54234080D03*
X129702560Y-57271920D03*
X130931920Y-55377080D03*
X121508520Y-59039760D03*
X123718320Y-59065160D03*
X127579120Y-60116720D03*
X121478040Y-65166240D03*
X123484640Y-61513720D03*
X123235720Y-63271400D03*
X128132840Y-66898520D03*
X124729240Y-66675000D03*
X134975600Y-62565280D03*
X134833360Y-65140840D03*
X161198560Y-70647560D03*
X126685040Y-66614040D03*
X139203610Y-60999190D03*
X140208000Y-62280800D03*
X138582400Y-56083200D03*
X141986000Y-55067200D03*
X141224000Y-56997600D03*
X151942800Y-66192400D03*
X147370800Y-59080400D03*
X148590000Y-62026800D03*
X145084800Y-62026800D03*
X144932400Y-69748400D03*
X148336000Y-69748400D03*
X148640800Y-65887600D03*
X145084800Y-66090800D03*
X150926800Y-64160400D03*
X152044400Y-54813200D03*
X149910800Y-59131200D03*
X151079200Y-61518800D03*
X154787600Y-67868800D03*
X156921200Y-67868800D03*
X149860000Y-54813200D03*
X151942800Y-58064400D03*
X134975600Y-69697600D03*
X134112000Y-67818000D03*
X135128000Y-59740800D03*
X136347200Y-55372000D03*
X152603200Y-71551800D03*
X156260800Y-67005200D03*
X152184100Y-70777100D03*
X155397200Y-67056000D03*
X124002800Y-68605400D03*
X124383800Y-69418200D03*
D17*
X140335000Y-55587900D03*
X145237200Y-54978300D03*
D15*
X138582400Y-65278000D03*
D17*
X134454900Y-55727600D03*
X131635500Y-54356000D03*
D15*
X157793600Y-57353200D03*
X166730680Y-55935880D03*
X168955720Y-57353200D03*
X168940480Y-67467480D03*
X163306760Y-61259720D03*
X155529280Y-56581040D03*
X162763200Y-68884800D03*
X158038800Y-66954400D03*
X155702000Y-61417200D03*
D17*
X141071600Y-56045100D03*
X145161000Y-55791100D03*
D18*
X150876000Y-54955827D02*
X150876000Y-55422800D01*
X150876000Y-54670573D02*
X150876000Y-54955827D01*
X149758400Y-53552973D02*
X150876000Y-54670573D01*
X149758400Y-53086000D02*
X149758400Y-53552973D01*
X132054600Y-69316598D02*
X132384799Y-68986399D01*
X131524397Y-69846801D02*
X132054600Y-69316598D01*
X129670199Y-69846801D02*
X131524397Y-69846801D01*
X128905000Y-70612000D02*
X129670199Y-69846801D01*
X134200900Y-52762685D02*
X134200900Y-52197000D01*
X134824916Y-53386701D02*
X134200900Y-52762685D01*
X141421677Y-53386701D02*
X134824916Y-53386701D01*
X142007301Y-52801077D02*
X141421677Y-53386701D01*
X142007301Y-51719923D02*
X142007301Y-52801077D01*
X142101724Y-51625500D02*
X142007301Y-51719923D01*
X142214600Y-51625500D02*
X142101724Y-51625500D01*
X153888440Y-71236840D02*
X153847800Y-71196200D01*
X155646120Y-71236840D02*
X153888440Y-71236840D01*
X138873411Y-61329389D02*
X139203610Y-60999190D01*
X137975999Y-67275523D02*
X137975999Y-62226801D01*
X138528686Y-67828210D02*
X137975999Y-67275523D01*
X137975999Y-62226801D02*
X138873411Y-61329389D01*
X139968182Y-67828210D02*
X138528686Y-67828210D01*
X140146800Y-67649592D02*
X139968182Y-67828210D01*
X140146800Y-66802000D02*
X140146800Y-67649592D01*
X140208000Y-66740800D02*
X140146800Y-66802000D01*
X140208000Y-62280800D02*
X140208000Y-66740800D01*
X153641401Y-70513599D02*
X152603200Y-71551800D01*
X156260800Y-67472173D02*
X156260800Y-67005200D01*
X156260800Y-68543297D02*
X156260800Y-67472173D01*
X154290498Y-70513599D02*
X156260800Y-68543297D01*
X153641401Y-70513599D02*
X154290498Y-70513599D01*
X153543118Y-70113501D02*
X152879519Y-70777100D01*
X152879519Y-70777100D02*
X152184100Y-70777100D01*
X155397200Y-67522973D02*
X155397200Y-67056000D01*
X155397200Y-68908514D02*
X155397200Y-67522973D01*
X154192213Y-70113501D02*
X155397200Y-68908514D01*
X153543118Y-70113501D02*
X154192213Y-70113501D01*
X125534900Y-68605400D02*
X125674600Y-68465700D01*
X124587000Y-68021200D02*
X125636500Y-68021200D01*
X124002800Y-68605400D02*
X124587000Y-68021200D01*
X125217400Y-69748400D02*
X125636500Y-70167500D01*
X124887200Y-69418200D02*
X125636500Y-70167500D01*
X124383800Y-69418200D02*
X124887200Y-69418200D01*
X144882119Y-55210099D02*
X145005401Y-55210099D01*
X140335000Y-55587900D02*
X140458801Y-55464099D01*
X145005401Y-55210099D02*
X145237200Y-54978300D01*
X141430399Y-55464099D02*
X141658990Y-55692690D01*
X141658990Y-55692690D02*
X144579999Y-55692690D01*
X144579999Y-55692690D02*
X144579999Y-55512219D01*
X140458801Y-55464099D02*
X141430399Y-55464099D01*
X144579999Y-55512219D02*
X144882119Y-55210099D01*
X138582400Y-66537600D02*
X138846800Y-66802000D01*
X138582400Y-65278000D02*
X138582400Y-66537600D01*
X134150101Y-55422801D02*
X134454900Y-55727600D01*
X133835799Y-55108499D02*
X134150101Y-55422801D01*
X132848917Y-55108499D02*
X133835799Y-55108499D01*
X132096418Y-54356000D02*
X132848917Y-55108499D01*
X131635500Y-54356000D02*
X132096418Y-54356000D01*
X144907000Y-56045100D02*
X145161000Y-55791100D01*
X141071600Y-56045100D02*
X144907000Y-56045100D01*
D19*
G36*
X165880634Y-70417618D02*
G01*
X165738539Y-70760666D01*
X165666100Y-71124844D01*
X165666100Y-71496156D01*
X165738539Y-71860334D01*
X165880634Y-72203382D01*
X166086925Y-72512118D01*
X166349482Y-72774675D01*
X166658218Y-72980966D01*
X167001266Y-73123061D01*
X167340307Y-73190500D01*
X165092796Y-73190500D01*
X165182581Y-72937391D01*
X165061914Y-72707500D01*
X163868100Y-72707500D01*
X163868100Y-72727500D01*
X163614100Y-72727500D01*
X163614100Y-72707500D01*
X163594100Y-72707500D01*
X163594100Y-72453500D01*
X163614100Y-72453500D01*
X163614100Y-71260345D01*
X163868100Y-71260345D01*
X163868100Y-72453500D01*
X165061914Y-72453500D01*
X165182581Y-72223609D01*
X165085257Y-71949248D01*
X164936278Y-71699145D01*
X164741369Y-71482912D01*
X164508020Y-71308859D01*
X164245199Y-71183675D01*
X164097990Y-71139024D01*
X163868100Y-71260345D01*
X163614100Y-71260345D01*
X163384210Y-71139024D01*
X163237001Y-71183675D01*
X162974180Y-71308859D01*
X162740831Y-71482912D01*
X162545922Y-71699145D01*
X162476301Y-71816023D01*
X162441806Y-71751486D01*
X162256234Y-71525366D01*
X162030114Y-71339794D01*
X161772134Y-71201901D01*
X161492211Y-71116987D01*
X161274050Y-71095500D01*
X161128150Y-71095500D01*
X160909989Y-71116987D01*
X160630066Y-71201901D01*
X160372086Y-71339794D01*
X160145966Y-71525366D01*
X159960394Y-71751486D01*
X159931100Y-71806291D01*
X159901806Y-71751486D01*
X159716234Y-71525366D01*
X159490114Y-71339794D01*
X159232134Y-71201901D01*
X158952211Y-71116987D01*
X158734050Y-71095500D01*
X158588150Y-71095500D01*
X158369989Y-71116987D01*
X158090066Y-71201901D01*
X157832086Y-71339794D01*
X157605966Y-71525366D01*
X157420394Y-71751486D01*
X157391100Y-71806291D01*
X157361806Y-71751486D01*
X157176234Y-71525366D01*
X156950114Y-71339794D01*
X156692134Y-71201901D01*
X156601160Y-71174304D01*
X156601160Y-70231000D01*
X166005328Y-70231000D01*
X165880634Y-70417618D01*
X165880634Y-70417618D01*
G37*
X165880634Y-70417618D02*
X165738539Y-70760666D01*
X165666100Y-71124844D01*
X165666100Y-71496156D01*
X165738539Y-71860334D01*
X165880634Y-72203382D01*
X166086925Y-72512118D01*
X166349482Y-72774675D01*
X166658218Y-72980966D01*
X167001266Y-73123061D01*
X167340307Y-73190500D01*
X165092796Y-73190500D01*
X165182581Y-72937391D01*
X165061914Y-72707500D01*
X163868100Y-72707500D01*
X163868100Y-72727500D01*
X163614100Y-72727500D01*
X163614100Y-72707500D01*
X163594100Y-72707500D01*
X163594100Y-72453500D01*
X163614100Y-72453500D01*
X163614100Y-71260345D01*
X163868100Y-71260345D01*
X163868100Y-72453500D01*
X165061914Y-72453500D01*
X165182581Y-72223609D01*
X165085257Y-71949248D01*
X164936278Y-71699145D01*
X164741369Y-71482912D01*
X164508020Y-71308859D01*
X164245199Y-71183675D01*
X164097990Y-71139024D01*
X163868100Y-71260345D01*
X163614100Y-71260345D01*
X163384210Y-71139024D01*
X163237001Y-71183675D01*
X162974180Y-71308859D01*
X162740831Y-71482912D01*
X162545922Y-71699145D01*
X162476301Y-71816023D01*
X162441806Y-71751486D01*
X162256234Y-71525366D01*
X162030114Y-71339794D01*
X161772134Y-71201901D01*
X161492211Y-71116987D01*
X161274050Y-71095500D01*
X161128150Y-71095500D01*
X160909989Y-71116987D01*
X160630066Y-71201901D01*
X160372086Y-71339794D01*
X160145966Y-71525366D01*
X159960394Y-71751486D01*
X159931100Y-71806291D01*
X159901806Y-71751486D01*
X159716234Y-71525366D01*
X159490114Y-71339794D01*
X159232134Y-71201901D01*
X158952211Y-71116987D01*
X158734050Y-71095500D01*
X158588150Y-71095500D01*
X158369989Y-71116987D01*
X158090066Y-71201901D01*
X157832086Y-71339794D01*
X157605966Y-71525366D01*
X157420394Y-71751486D01*
X157391100Y-71806291D01*
X157361806Y-71751486D01*
X157176234Y-71525366D01*
X156950114Y-71339794D01*
X156692134Y-71201901D01*
X156601160Y-71174304D01*
X156601160Y-70231000D01*
X166005328Y-70231000D01*
X165880634Y-70417618D01*
G36*
X133283695Y-51706744D02*
G01*
X133205674Y-51895102D01*
X133165900Y-52095061D01*
X133165900Y-52298939D01*
X133205674Y-52498898D01*
X133283695Y-52687256D01*
X133396963Y-52856774D01*
X133525115Y-52984926D01*
X133540658Y-53036165D01*
X133606698Y-53159717D01*
X133695573Y-53268011D01*
X133722710Y-53290282D01*
X134297318Y-53864891D01*
X134319589Y-53892028D01*
X134427883Y-53980903D01*
X134551435Y-54046943D01*
X134685496Y-54087610D01*
X134789980Y-54097901D01*
X134789987Y-54097901D01*
X134824916Y-54101341D01*
X134859844Y-54097901D01*
X141386751Y-54097901D01*
X141421677Y-54101341D01*
X141456603Y-54097901D01*
X141456613Y-54097901D01*
X141561097Y-54087610D01*
X141695158Y-54046943D01*
X141818710Y-53980903D01*
X141927004Y-53892028D01*
X141949278Y-53864887D01*
X142438778Y-53375389D01*
X142592086Y-53501206D01*
X142850066Y-53639099D01*
X143129989Y-53724013D01*
X143348150Y-53745500D01*
X143494050Y-53745500D01*
X143712211Y-53724013D01*
X143992134Y-53639099D01*
X144250114Y-53501206D01*
X144476234Y-53315634D01*
X144661806Y-53089514D01*
X144691100Y-53034709D01*
X144720394Y-53089514D01*
X144905966Y-53315634D01*
X145132086Y-53501206D01*
X145390066Y-53639099D01*
X145669989Y-53724013D01*
X145888150Y-53745500D01*
X146034050Y-53745500D01*
X146252211Y-53724013D01*
X146532134Y-53639099D01*
X146790114Y-53501206D01*
X147016234Y-53315634D01*
X147201806Y-53089514D01*
X147231100Y-53034709D01*
X147260394Y-53089514D01*
X147445966Y-53315634D01*
X147672086Y-53501206D01*
X147930066Y-53639099D01*
X148209989Y-53724013D01*
X148428150Y-53745500D01*
X148574050Y-53745500D01*
X148792211Y-53724013D01*
X148984829Y-53665583D01*
X149008680Y-53701279D01*
X149082614Y-53775213D01*
X149098158Y-53826454D01*
X149164198Y-53950006D01*
X149253074Y-54058300D01*
X149280210Y-54080570D01*
X150078567Y-54878928D01*
X150020651Y-54965606D01*
X149947892Y-55141262D01*
X149910800Y-55327736D01*
X149910800Y-55517864D01*
X149947892Y-55704338D01*
X150020651Y-55879994D01*
X150126280Y-56038079D01*
X150260721Y-56172520D01*
X150418806Y-56278149D01*
X150594462Y-56350908D01*
X150780936Y-56388000D01*
X150971064Y-56388000D01*
X151157538Y-56350908D01*
X151333194Y-56278149D01*
X151491279Y-56172520D01*
X151625720Y-56038079D01*
X151731349Y-55879994D01*
X151804108Y-55704338D01*
X151841200Y-55517864D01*
X151841200Y-55327736D01*
X151804108Y-55141262D01*
X151731349Y-54965606D01*
X151625720Y-54807521D01*
X151587200Y-54769001D01*
X151587200Y-54705498D01*
X151590640Y-54670572D01*
X151587200Y-54635646D01*
X151587200Y-54635637D01*
X151576909Y-54531153D01*
X151536242Y-54397092D01*
X151470202Y-54273540D01*
X151449496Y-54248310D01*
X151403597Y-54192382D01*
X151403593Y-54192378D01*
X151381326Y-54165246D01*
X151354195Y-54142980D01*
X150955465Y-53744251D01*
X150968150Y-53745500D01*
X151114050Y-53745500D01*
X151332211Y-53724013D01*
X151612134Y-53639099D01*
X151870114Y-53501206D01*
X152096234Y-53315634D01*
X152281806Y-53089514D01*
X152311100Y-53034709D01*
X152340394Y-53089514D01*
X152525966Y-53315634D01*
X152752086Y-53501206D01*
X153010066Y-53639099D01*
X153289989Y-53724013D01*
X153508150Y-53745500D01*
X153654050Y-53745500D01*
X153872211Y-53724013D01*
X154152134Y-53639099D01*
X154410114Y-53501206D01*
X154636234Y-53315634D01*
X154821806Y-53089514D01*
X154851100Y-53034709D01*
X154880394Y-53089514D01*
X155065966Y-53315634D01*
X155292086Y-53501206D01*
X155550066Y-53639099D01*
X155829989Y-53724013D01*
X156048150Y-53745500D01*
X156194050Y-53745500D01*
X156412211Y-53724013D01*
X156692134Y-53639099D01*
X156950114Y-53501206D01*
X157176234Y-53315634D01*
X157361806Y-53089514D01*
X157391100Y-53034709D01*
X157420394Y-53089514D01*
X157605966Y-53315634D01*
X157832086Y-53501206D01*
X158090066Y-53639099D01*
X158369989Y-53724013D01*
X158588150Y-53745500D01*
X158734050Y-53745500D01*
X158952211Y-53724013D01*
X159232134Y-53639099D01*
X159490114Y-53501206D01*
X159716234Y-53315634D01*
X159901806Y-53089514D01*
X159931100Y-53034709D01*
X159960394Y-53089514D01*
X160145966Y-53315634D01*
X160372086Y-53501206D01*
X160630066Y-53639099D01*
X160909989Y-53724013D01*
X161128150Y-53745500D01*
X161274050Y-53745500D01*
X161492211Y-53724013D01*
X161772134Y-53639099D01*
X162030114Y-53501206D01*
X162256234Y-53315634D01*
X162441806Y-53089514D01*
X162471100Y-53034709D01*
X162500394Y-53089514D01*
X162685966Y-53315634D01*
X162912086Y-53501206D01*
X163170066Y-53639099D01*
X163449989Y-53724013D01*
X163668150Y-53745500D01*
X163814050Y-53745500D01*
X164032211Y-53724013D01*
X164312134Y-53639099D01*
X164570114Y-53501206D01*
X164796234Y-53315634D01*
X164981806Y-53089514D01*
X165119699Y-52831534D01*
X165204613Y-52551611D01*
X165233285Y-52260500D01*
X165204613Y-51969389D01*
X165119699Y-51689466D01*
X165098871Y-51650500D01*
X167340307Y-51650500D01*
X167001266Y-51717939D01*
X166658218Y-51860034D01*
X166349482Y-52066325D01*
X166086925Y-52328882D01*
X165880634Y-52637618D01*
X165738539Y-52980666D01*
X165666100Y-53344844D01*
X165666100Y-53716156D01*
X165738539Y-54080334D01*
X165880634Y-54423382D01*
X165920470Y-54483000D01*
X152654000Y-54483000D01*
X152629224Y-54485440D01*
X152605399Y-54492667D01*
X152583443Y-54504403D01*
X152564197Y-54520197D01*
X152548403Y-54539443D01*
X152536667Y-54561399D01*
X152529440Y-54585224D01*
X152527000Y-54610000D01*
X152527000Y-69855080D01*
X152480336Y-69855080D01*
X152465638Y-69848992D01*
X152279164Y-69811900D01*
X152089036Y-69811900D01*
X151902562Y-69848992D01*
X151726906Y-69921751D01*
X151568821Y-70027380D01*
X151434380Y-70161821D01*
X151328751Y-70319906D01*
X151255992Y-70495562D01*
X151218900Y-70682036D01*
X151218900Y-70872164D01*
X151255992Y-71058638D01*
X151277947Y-71111642D01*
X151114050Y-71095500D01*
X150968150Y-71095500D01*
X150749989Y-71116987D01*
X150470066Y-71201901D01*
X150212086Y-71339794D01*
X149985966Y-71525366D01*
X149800394Y-71751486D01*
X149771100Y-71806291D01*
X149741806Y-71751486D01*
X149556234Y-71525366D01*
X149330114Y-71339794D01*
X149072134Y-71201901D01*
X148792211Y-71116987D01*
X148574050Y-71095500D01*
X148428150Y-71095500D01*
X148209989Y-71116987D01*
X147930066Y-71201901D01*
X147672086Y-71339794D01*
X147445966Y-71525366D01*
X147260394Y-71751486D01*
X147231100Y-71806291D01*
X147201806Y-71751486D01*
X147016234Y-71525366D01*
X146790114Y-71339794D01*
X146532134Y-71201901D01*
X146252211Y-71116987D01*
X146034050Y-71095500D01*
X145888150Y-71095500D01*
X145669989Y-71116987D01*
X145390066Y-71201901D01*
X145132086Y-71339794D01*
X144905966Y-71525366D01*
X144720394Y-71751486D01*
X144691100Y-71806291D01*
X144661806Y-71751486D01*
X144476234Y-71525366D01*
X144250114Y-71339794D01*
X143992134Y-71201901D01*
X143712211Y-71116987D01*
X143494050Y-71095500D01*
X143348150Y-71095500D01*
X143129989Y-71116987D01*
X142850066Y-71201901D01*
X142592086Y-71339794D01*
X142365966Y-71525366D01*
X142180394Y-71751486D01*
X142151100Y-71806291D01*
X142121806Y-71751486D01*
X141936234Y-71525366D01*
X141710114Y-71339794D01*
X141452134Y-71201901D01*
X141172211Y-71116987D01*
X140954050Y-71095500D01*
X140808150Y-71095500D01*
X140589989Y-71116987D01*
X140310066Y-71201901D01*
X140052086Y-71339794D01*
X139825966Y-71525366D01*
X139640394Y-71751486D01*
X139611100Y-71806291D01*
X139581806Y-71751486D01*
X139396234Y-71525366D01*
X139170114Y-71339794D01*
X138912134Y-71201901D01*
X138632211Y-71116987D01*
X138414050Y-71095500D01*
X138268150Y-71095500D01*
X138049989Y-71116987D01*
X137770066Y-71201901D01*
X137512086Y-71339794D01*
X137285966Y-71525366D01*
X137100394Y-71751486D01*
X137071100Y-71806291D01*
X137041806Y-71751486D01*
X136856234Y-71525366D01*
X136630114Y-71339794D01*
X136372134Y-71201901D01*
X136092211Y-71116987D01*
X135874050Y-71095500D01*
X135728150Y-71095500D01*
X135509989Y-71116987D01*
X135230066Y-71201901D01*
X134972086Y-71339794D01*
X134745966Y-71525366D01*
X134560394Y-71751486D01*
X134525899Y-71816023D01*
X134456278Y-71699145D01*
X134261369Y-71482912D01*
X134028020Y-71308859D01*
X133765199Y-71183675D01*
X133617990Y-71139024D01*
X133388100Y-71260345D01*
X133388100Y-72453500D01*
X133408100Y-72453500D01*
X133408100Y-72707500D01*
X133388100Y-72707500D01*
X133388100Y-72727500D01*
X133134100Y-72727500D01*
X133134100Y-72707500D01*
X133114100Y-72707500D01*
X133114100Y-72453500D01*
X133134100Y-72453500D01*
X133134100Y-71260345D01*
X132904210Y-71139024D01*
X132757001Y-71183675D01*
X132494180Y-71308859D01*
X132260831Y-71482912D01*
X132065922Y-71699145D01*
X131996301Y-71816023D01*
X131961806Y-71751486D01*
X131776234Y-71525366D01*
X131550114Y-71339794D01*
X131292134Y-71201901D01*
X131012211Y-71116987D01*
X130794050Y-71095500D01*
X130648150Y-71095500D01*
X130429989Y-71116987D01*
X130150066Y-71201901D01*
X129892086Y-71339794D01*
X129665966Y-71525366D01*
X129480394Y-71751486D01*
X129451100Y-71806291D01*
X129421806Y-71751486D01*
X129236234Y-71525366D01*
X129231503Y-71521483D01*
X129362194Y-71467349D01*
X129520279Y-71361720D01*
X129654720Y-71227279D01*
X129760349Y-71069194D01*
X129833108Y-70893538D01*
X129870200Y-70707064D01*
X129870200Y-70652588D01*
X129964787Y-70558001D01*
X131489471Y-70558001D01*
X131524397Y-70561441D01*
X131559323Y-70558001D01*
X131559333Y-70558001D01*
X131663817Y-70547710D01*
X131797878Y-70507043D01*
X131921430Y-70441003D01*
X132029724Y-70352128D01*
X132051998Y-70324987D01*
X132425387Y-69951599D01*
X132479863Y-69951599D01*
X132666337Y-69914507D01*
X132841993Y-69841748D01*
X133000078Y-69736119D01*
X133134519Y-69601678D01*
X133240148Y-69443593D01*
X133289334Y-69324846D01*
X135357400Y-69324846D01*
X135360242Y-69353705D01*
X135360228Y-69355764D01*
X135361161Y-69365282D01*
X135364688Y-69398838D01*
X135367312Y-69425482D01*
X135367581Y-69426370D01*
X135368415Y-69434302D01*
X135380899Y-69495118D01*
X135392531Y-69556101D01*
X135395295Y-69565257D01*
X135415818Y-69631555D01*
X135439885Y-69688811D01*
X135463138Y-69746362D01*
X135467620Y-69754792D01*
X135467623Y-69754799D01*
X135467627Y-69754804D01*
X135467628Y-69754807D01*
X135500637Y-69815855D01*
X135535352Y-69867321D01*
X135569350Y-69919275D01*
X135575395Y-69926687D01*
X135619633Y-69980161D01*
X135663700Y-70023921D01*
X135707120Y-70068261D01*
X135714489Y-70074358D01*
X135768271Y-70118221D01*
X135819962Y-70152565D01*
X135871210Y-70187655D01*
X135879623Y-70192204D01*
X135940900Y-70224786D01*
X135998300Y-70248445D01*
X136055369Y-70272905D01*
X136064499Y-70275731D01*
X136064501Y-70275732D01*
X136064503Y-70275732D01*
X136064505Y-70275733D01*
X136130944Y-70295792D01*
X136191857Y-70307853D01*
X136252578Y-70320759D01*
X136262085Y-70321759D01*
X136262089Y-70321759D01*
X136331159Y-70328531D01*
X136331163Y-70328531D01*
X136364353Y-70331800D01*
X136990447Y-70331800D01*
X137019306Y-70328958D01*
X137021364Y-70328972D01*
X137030882Y-70328039D01*
X137064423Y-70324514D01*
X137091083Y-70321888D01*
X137091971Y-70321619D01*
X137099902Y-70320785D01*
X137160718Y-70308301D01*
X137221701Y-70296669D01*
X137230857Y-70293905D01*
X137297155Y-70273382D01*
X137354411Y-70249315D01*
X137411962Y-70226062D01*
X137420392Y-70221580D01*
X137420399Y-70221577D01*
X137420404Y-70221573D01*
X137420407Y-70221572D01*
X137481455Y-70188563D01*
X137532921Y-70153848D01*
X137584875Y-70119850D01*
X137592287Y-70113805D01*
X137645761Y-70069567D01*
X137689521Y-70025500D01*
X137733861Y-69982080D01*
X137739958Y-69974711D01*
X137783821Y-69920929D01*
X137818165Y-69869238D01*
X137853255Y-69817990D01*
X137857804Y-69809577D01*
X137876827Y-69773800D01*
X142285098Y-69773800D01*
X142307837Y-69815855D01*
X142342552Y-69867321D01*
X142376550Y-69919275D01*
X142382595Y-69926687D01*
X142426833Y-69980161D01*
X142470900Y-70023921D01*
X142514320Y-70068261D01*
X142521689Y-70074358D01*
X142575471Y-70118221D01*
X142627162Y-70152565D01*
X142678410Y-70187655D01*
X142686823Y-70192204D01*
X142748100Y-70224786D01*
X142805500Y-70248445D01*
X142862569Y-70272905D01*
X142871699Y-70275731D01*
X142871701Y-70275732D01*
X142871703Y-70275732D01*
X142871705Y-70275733D01*
X142938144Y-70295792D01*
X142999057Y-70307853D01*
X143059778Y-70320759D01*
X143069285Y-70321759D01*
X143069289Y-70321759D01*
X143138359Y-70328531D01*
X143138363Y-70328531D01*
X143171553Y-70331800D01*
X143797647Y-70331800D01*
X143826506Y-70328958D01*
X143828564Y-70328972D01*
X143838082Y-70328039D01*
X143871623Y-70324514D01*
X143898283Y-70321888D01*
X143899171Y-70321619D01*
X143907102Y-70320785D01*
X143967918Y-70308301D01*
X144028901Y-70296669D01*
X144038057Y-70293905D01*
X144104355Y-70273382D01*
X144161611Y-70249315D01*
X144219162Y-70226062D01*
X144227592Y-70221580D01*
X144227599Y-70221577D01*
X144227604Y-70221573D01*
X144227607Y-70221572D01*
X144288655Y-70188563D01*
X144340121Y-70153848D01*
X144392075Y-70119850D01*
X144399487Y-70113805D01*
X144452961Y-70069567D01*
X144496721Y-70025500D01*
X144541061Y-69982080D01*
X144547158Y-69974711D01*
X144591021Y-69920929D01*
X144625365Y-69869238D01*
X144660455Y-69817990D01*
X144665004Y-69809577D01*
X144697586Y-69748300D01*
X144721245Y-69690900D01*
X144745705Y-69633831D01*
X144748533Y-69624695D01*
X144768592Y-69558256D01*
X144780653Y-69497343D01*
X144793559Y-69436622D01*
X144794559Y-69427111D01*
X144801331Y-69358041D01*
X144801331Y-69358037D01*
X144804600Y-69324847D01*
X144804600Y-57268753D01*
X144801758Y-57239894D01*
X144801772Y-57237836D01*
X144800839Y-57228318D01*
X144797314Y-57194777D01*
X144794688Y-57168117D01*
X144794419Y-57167229D01*
X144793585Y-57159298D01*
X144781107Y-57098508D01*
X144769469Y-57037499D01*
X144766705Y-57028343D01*
X144746183Y-56962045D01*
X144722106Y-56904769D01*
X144698862Y-56847238D01*
X144694372Y-56838793D01*
X144661363Y-56777745D01*
X144646898Y-56756300D01*
X144872074Y-56756300D01*
X144907000Y-56759740D01*
X144941926Y-56756300D01*
X144941936Y-56756300D01*
X145046420Y-56746009D01*
X145096228Y-56730900D01*
X145253562Y-56730900D01*
X145435129Y-56694784D01*
X145606162Y-56623940D01*
X145760087Y-56521090D01*
X145890990Y-56390187D01*
X145993840Y-56236262D01*
X146064684Y-56065229D01*
X146100800Y-55883662D01*
X146100800Y-55698538D01*
X146064684Y-55516971D01*
X146042823Y-55464194D01*
X146070040Y-55423462D01*
X146140884Y-55252429D01*
X146177000Y-55070862D01*
X146177000Y-54885738D01*
X146140884Y-54704171D01*
X146070040Y-54533138D01*
X145967190Y-54379213D01*
X145836287Y-54248310D01*
X145682362Y-54145460D01*
X145511329Y-54074616D01*
X145329762Y-54038500D01*
X145144638Y-54038500D01*
X144963071Y-54074616D01*
X144792038Y-54145460D01*
X144638113Y-54248310D01*
X144507210Y-54379213D01*
X144404360Y-54533138D01*
X144333516Y-54704171D01*
X144321413Y-54765017D01*
X144104941Y-54981490D01*
X141954370Y-54981490D01*
X141935726Y-54958772D01*
X141827432Y-54869897D01*
X141703880Y-54803857D01*
X141569819Y-54763190D01*
X141465335Y-54752899D01*
X141465325Y-54752899D01*
X141430399Y-54749459D01*
X141395473Y-54752899D01*
X140774945Y-54752899D01*
X140609129Y-54684216D01*
X140427562Y-54648100D01*
X140242438Y-54648100D01*
X140060871Y-54684216D01*
X139889838Y-54755060D01*
X139735913Y-54857910D01*
X139605010Y-54988813D01*
X139502160Y-55142738D01*
X139431316Y-55313771D01*
X139395200Y-55495338D01*
X139395200Y-55680462D01*
X139431316Y-55862029D01*
X139502160Y-56033062D01*
X139605010Y-56186987D01*
X139735913Y-56317890D01*
X139840839Y-56388000D01*
X137449984Y-56388000D01*
X137413900Y-56368814D01*
X137356500Y-56345155D01*
X137299431Y-56320695D01*
X137290301Y-56317869D01*
X137290299Y-56317868D01*
X137290297Y-56317868D01*
X137290295Y-56317867D01*
X137223856Y-56297808D01*
X137162943Y-56285747D01*
X137102222Y-56272841D01*
X137092716Y-56271842D01*
X137092713Y-56271841D01*
X137092710Y-56271841D01*
X137023641Y-56265069D01*
X137023637Y-56265069D01*
X136990447Y-56261800D01*
X136364353Y-56261800D01*
X136335494Y-56264642D01*
X136333436Y-56264628D01*
X136323918Y-56265561D01*
X136290377Y-56269086D01*
X136263717Y-56271712D01*
X136262829Y-56271981D01*
X136254898Y-56272815D01*
X136194108Y-56285293D01*
X136133099Y-56296931D01*
X136123943Y-56299695D01*
X136057645Y-56320217D01*
X136000369Y-56344294D01*
X135942838Y-56367538D01*
X135934393Y-56372028D01*
X135873345Y-56405037D01*
X135821856Y-56439767D01*
X135769925Y-56473750D01*
X135762519Y-56479790D01*
X135762512Y-56479795D01*
X135762507Y-56479800D01*
X135709039Y-56524033D01*
X135665312Y-56568067D01*
X135620939Y-56611520D01*
X135614842Y-56618889D01*
X135570978Y-56672671D01*
X135536629Y-56724371D01*
X135501545Y-56775609D01*
X135496996Y-56784022D01*
X135464414Y-56845300D01*
X135440755Y-56902700D01*
X135416295Y-56959769D01*
X135413467Y-56968905D01*
X135393408Y-57035344D01*
X135381347Y-57096257D01*
X135368441Y-57156978D01*
X135367441Y-57166490D01*
X135360669Y-57235559D01*
X135360669Y-57235573D01*
X135357401Y-57268753D01*
X135357400Y-69324846D01*
X133289334Y-69324846D01*
X133312907Y-69267937D01*
X133349999Y-69081463D01*
X133349999Y-68891335D01*
X133312907Y-68704861D01*
X133240148Y-68529205D01*
X133134519Y-68371120D01*
X133000078Y-68236679D01*
X132841993Y-68131050D01*
X132666337Y-68058291D01*
X132479863Y-68021199D01*
X132289735Y-68021199D01*
X132103261Y-68058291D01*
X131927605Y-68131050D01*
X131769520Y-68236679D01*
X131635079Y-68371120D01*
X131529450Y-68529205D01*
X131456691Y-68704861D01*
X131419599Y-68891335D01*
X131419599Y-68945811D01*
X131229809Y-69135601D01*
X129705127Y-69135601D01*
X129670199Y-69132161D01*
X129635270Y-69135601D01*
X129635263Y-69135601D01*
X129530779Y-69145892D01*
X129396717Y-69186559D01*
X129317829Y-69228726D01*
X129273166Y-69252599D01*
X129164872Y-69341474D01*
X129142601Y-69368611D01*
X128864412Y-69646800D01*
X128809936Y-69646800D01*
X128623462Y-69683892D01*
X128447806Y-69756651D01*
X128289721Y-69862280D01*
X128155280Y-69996721D01*
X128049651Y-70154806D01*
X127976892Y-70330462D01*
X127939800Y-70516936D01*
X127939800Y-70707064D01*
X127976892Y-70893538D01*
X128049651Y-71069194D01*
X128069755Y-71099282D01*
X127889989Y-71116987D01*
X127610066Y-71201901D01*
X127352086Y-71339794D01*
X127125966Y-71525366D01*
X127101493Y-71555187D01*
X127080602Y-71486320D01*
X127021637Y-71376006D01*
X126942285Y-71279315D01*
X126845594Y-71199963D01*
X126735280Y-71140998D01*
X126732529Y-71140163D01*
X126762312Y-71041982D01*
X126774572Y-70917500D01*
X126774572Y-69417500D01*
X126762312Y-69293018D01*
X126726002Y-69173320D01*
X126683791Y-69094350D01*
X126726002Y-69015380D01*
X126762312Y-68895682D01*
X126774572Y-68771200D01*
X126774572Y-67271200D01*
X126762312Y-67146718D01*
X126726002Y-67027020D01*
X126667037Y-66916706D01*
X126587685Y-66820015D01*
X126490994Y-66740663D01*
X126380680Y-66681698D01*
X126260982Y-66645388D01*
X126136500Y-66633128D01*
X125636500Y-66633128D01*
X125612050Y-66635536D01*
X125587491Y-66635536D01*
X125463010Y-66647796D01*
X125366877Y-66666918D01*
X125247181Y-66703227D01*
X125156625Y-66740736D01*
X125046308Y-66799702D01*
X124964809Y-66854158D01*
X124868118Y-66933510D01*
X124798810Y-67002818D01*
X124719458Y-67099509D01*
X124665002Y-67181008D01*
X124606036Y-67291325D01*
X124599227Y-67307764D01*
X124587000Y-67306560D01*
X124552071Y-67310000D01*
X124552064Y-67310000D01*
X124447580Y-67320291D01*
X124313518Y-67360958D01*
X124189967Y-67426998D01*
X124108809Y-67493602D01*
X124108804Y-67493607D01*
X124081673Y-67515873D01*
X124059407Y-67543005D01*
X123962211Y-67640200D01*
X123907736Y-67640200D01*
X123721262Y-67677292D01*
X123545606Y-67750051D01*
X123387521Y-67855680D01*
X123253080Y-67990121D01*
X123147451Y-68148206D01*
X123074692Y-68323862D01*
X123037600Y-68510336D01*
X123037600Y-68700464D01*
X123074692Y-68886938D01*
X123147451Y-69062594D01*
X123242384Y-69204671D01*
X123031873Y-69064012D01*
X122570532Y-68872918D01*
X122080776Y-68775500D01*
X121581424Y-68775500D01*
X121091668Y-68872918D01*
X120630327Y-69064012D01*
X120215132Y-69341437D01*
X119951100Y-69605469D01*
X119951100Y-55235531D01*
X120215132Y-55499563D01*
X120630327Y-55776988D01*
X121091668Y-55968082D01*
X121581424Y-56065500D01*
X122080776Y-56065500D01*
X122570532Y-55968082D01*
X123031873Y-55776988D01*
X123447068Y-55499563D01*
X123800163Y-55146468D01*
X124077588Y-54731273D01*
X124268682Y-54269932D01*
X124269973Y-54263438D01*
X130695700Y-54263438D01*
X130695700Y-54448562D01*
X130731816Y-54630129D01*
X130802660Y-54801162D01*
X130905510Y-54955087D01*
X131036413Y-55085990D01*
X131190338Y-55188840D01*
X131361371Y-55259684D01*
X131542938Y-55295800D01*
X131728062Y-55295800D01*
X131909629Y-55259684D01*
X131969510Y-55234880D01*
X132321324Y-55586695D01*
X132343590Y-55613826D01*
X132370721Y-55636092D01*
X132370725Y-55636096D01*
X132444061Y-55696281D01*
X132451884Y-55702701D01*
X132575436Y-55768741D01*
X132709497Y-55809408D01*
X132813981Y-55819699D01*
X132813990Y-55819699D01*
X132848916Y-55823139D01*
X132883842Y-55819699D01*
X133515100Y-55819699D01*
X133515100Y-55820162D01*
X133551216Y-56001729D01*
X133622060Y-56172762D01*
X133724910Y-56326687D01*
X133855813Y-56457590D01*
X134009738Y-56560440D01*
X134180771Y-56631284D01*
X134362338Y-56667400D01*
X134547462Y-56667400D01*
X134729029Y-56631284D01*
X134900062Y-56560440D01*
X135053987Y-56457590D01*
X135184890Y-56326687D01*
X135287740Y-56172762D01*
X135358584Y-56001729D01*
X135394700Y-55820162D01*
X135394700Y-55635038D01*
X135358584Y-55453471D01*
X135287740Y-55282438D01*
X135184890Y-55128513D01*
X135053987Y-54997610D01*
X134900062Y-54894760D01*
X134729029Y-54823916D01*
X134547462Y-54787800D01*
X134520887Y-54787800D01*
X134363401Y-54630314D01*
X134341126Y-54603172D01*
X134232832Y-54514297D01*
X134109280Y-54448257D01*
X133975219Y-54407590D01*
X133870735Y-54397299D01*
X133870725Y-54397299D01*
X133835799Y-54393859D01*
X133800873Y-54397299D01*
X133143505Y-54397299D01*
X132624019Y-53877814D01*
X132601745Y-53850673D01*
X132493451Y-53761798D01*
X132369899Y-53695758D01*
X132275786Y-53667209D01*
X132234587Y-53626010D01*
X132080662Y-53523160D01*
X131909629Y-53452316D01*
X131728062Y-53416200D01*
X131542938Y-53416200D01*
X131361371Y-53452316D01*
X131190338Y-53523160D01*
X131036413Y-53626010D01*
X130905510Y-53756913D01*
X130802660Y-53910838D01*
X130731816Y-54081871D01*
X130695700Y-54263438D01*
X124269973Y-54263438D01*
X124366100Y-53780176D01*
X124366100Y-53280824D01*
X124268682Y-52791068D01*
X124077588Y-52329727D01*
X123800163Y-51914532D01*
X123536131Y-51650500D01*
X133321276Y-51650500D01*
X133283695Y-51706744D01*
X133283695Y-51706744D01*
G37*
X133283695Y-51706744D02*
X133205674Y-51895102D01*
X133165900Y-52095061D01*
X133165900Y-52298939D01*
X133205674Y-52498898D01*
X133283695Y-52687256D01*
X133396963Y-52856774D01*
X133525115Y-52984926D01*
X133540658Y-53036165D01*
X133606698Y-53159717D01*
X133695573Y-53268011D01*
X133722710Y-53290282D01*
X134297318Y-53864891D01*
X134319589Y-53892028D01*
X134427883Y-53980903D01*
X134551435Y-54046943D01*
X134685496Y-54087610D01*
X134789980Y-54097901D01*
X134789987Y-54097901D01*
X134824916Y-54101341D01*
X134859844Y-54097901D01*
X141386751Y-54097901D01*
X141421677Y-54101341D01*
X141456603Y-54097901D01*
X141456613Y-54097901D01*
X141561097Y-54087610D01*
X141695158Y-54046943D01*
X141818710Y-53980903D01*
X141927004Y-53892028D01*
X141949278Y-53864887D01*
X142438778Y-53375389D01*
X142592086Y-53501206D01*
X142850066Y-53639099D01*
X143129989Y-53724013D01*
X143348150Y-53745500D01*
X143494050Y-53745500D01*
X143712211Y-53724013D01*
X143992134Y-53639099D01*
X144250114Y-53501206D01*
X144476234Y-53315634D01*
X144661806Y-53089514D01*
X144691100Y-53034709D01*
X144720394Y-53089514D01*
X144905966Y-53315634D01*
X145132086Y-53501206D01*
X145390066Y-53639099D01*
X145669989Y-53724013D01*
X145888150Y-53745500D01*
X146034050Y-53745500D01*
X146252211Y-53724013D01*
X146532134Y-53639099D01*
X146790114Y-53501206D01*
X147016234Y-53315634D01*
X147201806Y-53089514D01*
X147231100Y-53034709D01*
X147260394Y-53089514D01*
X147445966Y-53315634D01*
X147672086Y-53501206D01*
X147930066Y-53639099D01*
X148209989Y-53724013D01*
X148428150Y-53745500D01*
X148574050Y-53745500D01*
X148792211Y-53724013D01*
X148984829Y-53665583D01*
X149008680Y-53701279D01*
X149082614Y-53775213D01*
X149098158Y-53826454D01*
X149164198Y-53950006D01*
X149253074Y-54058300D01*
X149280210Y-54080570D01*
X150078567Y-54878928D01*
X150020651Y-54965606D01*
X149947892Y-55141262D01*
X149910800Y-55327736D01*
X149910800Y-55517864D01*
X149947892Y-55704338D01*
X150020651Y-55879994D01*
X150126280Y-56038079D01*
X150260721Y-56172520D01*
X150418806Y-56278149D01*
X150594462Y-56350908D01*
X150780936Y-56388000D01*
X150971064Y-56388000D01*
X151157538Y-56350908D01*
X151333194Y-56278149D01*
X151491279Y-56172520D01*
X151625720Y-56038079D01*
X151731349Y-55879994D01*
X151804108Y-55704338D01*
X151841200Y-55517864D01*
X151841200Y-55327736D01*
X151804108Y-55141262D01*
X151731349Y-54965606D01*
X151625720Y-54807521D01*
X151587200Y-54769001D01*
X151587200Y-54705498D01*
X151590640Y-54670572D01*
X151587200Y-54635646D01*
X151587200Y-54635637D01*
X151576909Y-54531153D01*
X151536242Y-54397092D01*
X151470202Y-54273540D01*
X151449496Y-54248310D01*
X151403597Y-54192382D01*
X151403593Y-54192378D01*
X151381326Y-54165246D01*
X151354195Y-54142980D01*
X150955465Y-53744251D01*
X150968150Y-53745500D01*
X151114050Y-53745500D01*
X151332211Y-53724013D01*
X151612134Y-53639099D01*
X151870114Y-53501206D01*
X152096234Y-53315634D01*
X152281806Y-53089514D01*
X152311100Y-53034709D01*
X152340394Y-53089514D01*
X152525966Y-53315634D01*
X152752086Y-53501206D01*
X153010066Y-53639099D01*
X153289989Y-53724013D01*
X153508150Y-53745500D01*
X153654050Y-53745500D01*
X153872211Y-53724013D01*
X154152134Y-53639099D01*
X154410114Y-53501206D01*
X154636234Y-53315634D01*
X154821806Y-53089514D01*
X154851100Y-53034709D01*
X154880394Y-53089514D01*
X155065966Y-53315634D01*
X155292086Y-53501206D01*
X155550066Y-53639099D01*
X155829989Y-53724013D01*
X156048150Y-53745500D01*
X156194050Y-53745500D01*
X156412211Y-53724013D01*
X156692134Y-53639099D01*
X156950114Y-53501206D01*
X157176234Y-53315634D01*
X157361806Y-53089514D01*
X157391100Y-53034709D01*
X157420394Y-53089514D01*
X157605966Y-53315634D01*
X157832086Y-53501206D01*
X158090066Y-53639099D01*
X158369989Y-53724013D01*
X158588150Y-53745500D01*
X158734050Y-53745500D01*
X158952211Y-53724013D01*
X159232134Y-53639099D01*
X159490114Y-53501206D01*
X159716234Y-53315634D01*
X159901806Y-53089514D01*
X159931100Y-53034709D01*
X159960394Y-53089514D01*
X160145966Y-53315634D01*
X160372086Y-53501206D01*
X160630066Y-53639099D01*
X160909989Y-53724013D01*
X161128150Y-53745500D01*
X161274050Y-53745500D01*
X161492211Y-53724013D01*
X161772134Y-53639099D01*
X162030114Y-53501206D01*
X162256234Y-53315634D01*
X162441806Y-53089514D01*
X162471100Y-53034709D01*
X162500394Y-53089514D01*
X162685966Y-53315634D01*
X162912086Y-53501206D01*
X163170066Y-53639099D01*
X163449989Y-53724013D01*
X163668150Y-53745500D01*
X163814050Y-53745500D01*
X164032211Y-53724013D01*
X164312134Y-53639099D01*
X164570114Y-53501206D01*
X164796234Y-53315634D01*
X164981806Y-53089514D01*
X165119699Y-52831534D01*
X165204613Y-52551611D01*
X165233285Y-52260500D01*
X165204613Y-51969389D01*
X165119699Y-51689466D01*
X165098871Y-51650500D01*
X167340307Y-51650500D01*
X167001266Y-51717939D01*
X166658218Y-51860034D01*
X166349482Y-52066325D01*
X166086925Y-52328882D01*
X165880634Y-52637618D01*
X165738539Y-52980666D01*
X165666100Y-53344844D01*
X165666100Y-53716156D01*
X165738539Y-54080334D01*
X165880634Y-54423382D01*
X165920470Y-54483000D01*
X152654000Y-54483000D01*
X152629224Y-54485440D01*
X152605399Y-54492667D01*
X152583443Y-54504403D01*
X152564197Y-54520197D01*
X152548403Y-54539443D01*
X152536667Y-54561399D01*
X152529440Y-54585224D01*
X152527000Y-54610000D01*
X152527000Y-69855080D01*
X152480336Y-69855080D01*
X152465638Y-69848992D01*
X152279164Y-69811900D01*
X152089036Y-69811900D01*
X151902562Y-69848992D01*
X151726906Y-69921751D01*
X151568821Y-70027380D01*
X151434380Y-70161821D01*
X151328751Y-70319906D01*
X151255992Y-70495562D01*
X151218900Y-70682036D01*
X151218900Y-70872164D01*
X151255992Y-71058638D01*
X151277947Y-71111642D01*
X151114050Y-71095500D01*
X150968150Y-71095500D01*
X150749989Y-71116987D01*
X150470066Y-71201901D01*
X150212086Y-71339794D01*
X149985966Y-71525366D01*
X149800394Y-71751486D01*
X149771100Y-71806291D01*
X149741806Y-71751486D01*
X149556234Y-71525366D01*
X149330114Y-71339794D01*
X149072134Y-71201901D01*
X148792211Y-71116987D01*
X148574050Y-71095500D01*
X148428150Y-71095500D01*
X148209989Y-71116987D01*
X147930066Y-71201901D01*
X147672086Y-71339794D01*
X147445966Y-71525366D01*
X147260394Y-71751486D01*
X147231100Y-71806291D01*
X147201806Y-71751486D01*
X147016234Y-71525366D01*
X146790114Y-71339794D01*
X146532134Y-71201901D01*
X146252211Y-71116987D01*
X146034050Y-71095500D01*
X145888150Y-71095500D01*
X145669989Y-71116987D01*
X145390066Y-71201901D01*
X145132086Y-71339794D01*
X144905966Y-71525366D01*
X144720394Y-71751486D01*
X144691100Y-71806291D01*
X144661806Y-71751486D01*
X144476234Y-71525366D01*
X144250114Y-71339794D01*
X143992134Y-71201901D01*
X143712211Y-71116987D01*
X143494050Y-71095500D01*
X143348150Y-71095500D01*
X143129989Y-71116987D01*
X142850066Y-71201901D01*
X142592086Y-71339794D01*
X142365966Y-71525366D01*
X142180394Y-71751486D01*
X142151100Y-71806291D01*
X142121806Y-71751486D01*
X141936234Y-71525366D01*
X141710114Y-71339794D01*
X141452134Y-71201901D01*
X141172211Y-71116987D01*
X140954050Y-71095500D01*
X140808150Y-71095500D01*
X140589989Y-71116987D01*
X140310066Y-71201901D01*
X140052086Y-71339794D01*
X139825966Y-71525366D01*
X139640394Y-71751486D01*
X139611100Y-71806291D01*
X139581806Y-71751486D01*
X139396234Y-71525366D01*
X139170114Y-71339794D01*
X138912134Y-71201901D01*
X138632211Y-71116987D01*
X138414050Y-71095500D01*
X138268150Y-71095500D01*
X138049989Y-71116987D01*
X137770066Y-71201901D01*
X137512086Y-71339794D01*
X137285966Y-71525366D01*
X137100394Y-71751486D01*
X137071100Y-71806291D01*
X137041806Y-71751486D01*
X136856234Y-71525366D01*
X136630114Y-71339794D01*
X136372134Y-71201901D01*
X136092211Y-71116987D01*
X135874050Y-71095500D01*
X135728150Y-71095500D01*
X135509989Y-71116987D01*
X135230066Y-71201901D01*
X134972086Y-71339794D01*
X134745966Y-71525366D01*
X134560394Y-71751486D01*
X134525899Y-71816023D01*
X134456278Y-71699145D01*
X134261369Y-71482912D01*
X134028020Y-71308859D01*
X133765199Y-71183675D01*
X133617990Y-71139024D01*
X133388100Y-71260345D01*
X133388100Y-72453500D01*
X133408100Y-72453500D01*
X133408100Y-72707500D01*
X133388100Y-72707500D01*
X133388100Y-72727500D01*
X133134100Y-72727500D01*
X133134100Y-72707500D01*
X133114100Y-72707500D01*
X133114100Y-72453500D01*
X133134100Y-72453500D01*
X133134100Y-71260345D01*
X132904210Y-71139024D01*
X132757001Y-71183675D01*
X132494180Y-71308859D01*
X132260831Y-71482912D01*
X132065922Y-71699145D01*
X131996301Y-71816023D01*
X131961806Y-71751486D01*
X131776234Y-71525366D01*
X131550114Y-71339794D01*
X131292134Y-71201901D01*
X131012211Y-71116987D01*
X130794050Y-71095500D01*
X130648150Y-71095500D01*
X130429989Y-71116987D01*
X130150066Y-71201901D01*
X129892086Y-71339794D01*
X129665966Y-71525366D01*
X129480394Y-71751486D01*
X129451100Y-71806291D01*
X129421806Y-71751486D01*
X129236234Y-71525366D01*
X129231503Y-71521483D01*
X129362194Y-71467349D01*
X129520279Y-71361720D01*
X129654720Y-71227279D01*
X129760349Y-71069194D01*
X129833108Y-70893538D01*
X129870200Y-70707064D01*
X129870200Y-70652588D01*
X129964787Y-70558001D01*
X131489471Y-70558001D01*
X131524397Y-70561441D01*
X131559323Y-70558001D01*
X131559333Y-70558001D01*
X131663817Y-70547710D01*
X131797878Y-70507043D01*
X131921430Y-70441003D01*
X132029724Y-70352128D01*
X132051998Y-70324987D01*
X132425387Y-69951599D01*
X132479863Y-69951599D01*
X132666337Y-69914507D01*
X132841993Y-69841748D01*
X133000078Y-69736119D01*
X133134519Y-69601678D01*
X133240148Y-69443593D01*
X133289334Y-69324846D01*
X135357400Y-69324846D01*
X135360242Y-69353705D01*
X135360228Y-69355764D01*
X135361161Y-69365282D01*
X135364688Y-69398838D01*
X135367312Y-69425482D01*
X135367581Y-69426370D01*
X135368415Y-69434302D01*
X135380899Y-69495118D01*
X135392531Y-69556101D01*
X135395295Y-69565257D01*
X135415818Y-69631555D01*
X135439885Y-69688811D01*
X135463138Y-69746362D01*
X135467620Y-69754792D01*
X135467623Y-69754799D01*
X135467627Y-69754804D01*
X135467628Y-69754807D01*
X135500637Y-69815855D01*
X135535352Y-69867321D01*
X135569350Y-69919275D01*
X135575395Y-69926687D01*
X135619633Y-69980161D01*
X135663700Y-70023921D01*
X135707120Y-70068261D01*
X135714489Y-70074358D01*
X135768271Y-70118221D01*
X135819962Y-70152565D01*
X135871210Y-70187655D01*
X135879623Y-70192204D01*
X135940900Y-70224786D01*
X135998300Y-70248445D01*
X136055369Y-70272905D01*
X136064499Y-70275731D01*
X136064501Y-70275732D01*
X136064503Y-70275732D01*
X136064505Y-70275733D01*
X136130944Y-70295792D01*
X136191857Y-70307853D01*
X136252578Y-70320759D01*
X136262085Y-70321759D01*
X136262089Y-70321759D01*
X136331159Y-70328531D01*
X136331163Y-70328531D01*
X136364353Y-70331800D01*
X136990447Y-70331800D01*
X137019306Y-70328958D01*
X137021364Y-70328972D01*
X137030882Y-70328039D01*
X137064423Y-70324514D01*
X137091083Y-70321888D01*
X137091971Y-70321619D01*
X137099902Y-70320785D01*
X137160718Y-70308301D01*
X137221701Y-70296669D01*
X137230857Y-70293905D01*
X137297155Y-70273382D01*
X137354411Y-70249315D01*
X137411962Y-70226062D01*
X137420392Y-70221580D01*
X137420399Y-70221577D01*
X137420404Y-70221573D01*
X137420407Y-70221572D01*
X137481455Y-70188563D01*
X137532921Y-70153848D01*
X137584875Y-70119850D01*
X137592287Y-70113805D01*
X137645761Y-70069567D01*
X137689521Y-70025500D01*
X137733861Y-69982080D01*
X137739958Y-69974711D01*
X137783821Y-69920929D01*
X137818165Y-69869238D01*
X137853255Y-69817990D01*
X137857804Y-69809577D01*
X137876827Y-69773800D01*
X142285098Y-69773800D01*
X142307837Y-69815855D01*
X142342552Y-69867321D01*
X142376550Y-69919275D01*
X142382595Y-69926687D01*
X142426833Y-69980161D01*
X142470900Y-70023921D01*
X142514320Y-70068261D01*
X142521689Y-70074358D01*
X142575471Y-70118221D01*
X142627162Y-70152565D01*
X142678410Y-70187655D01*
X142686823Y-70192204D01*
X142748100Y-70224786D01*
X142805500Y-70248445D01*
X142862569Y-70272905D01*
X142871699Y-70275731D01*
X142871701Y-70275732D01*
X142871703Y-70275732D01*
X142871705Y-70275733D01*
X142938144Y-70295792D01*
X142999057Y-70307853D01*
X143059778Y-70320759D01*
X143069285Y-70321759D01*
X143069289Y-70321759D01*
X143138359Y-70328531D01*
X143138363Y-70328531D01*
X143171553Y-70331800D01*
X143797647Y-70331800D01*
X143826506Y-70328958D01*
X143828564Y-70328972D01*
X143838082Y-70328039D01*
X143871623Y-70324514D01*
X143898283Y-70321888D01*
X143899171Y-70321619D01*
X143907102Y-70320785D01*
X143967918Y-70308301D01*
X144028901Y-70296669D01*
X144038057Y-70293905D01*
X144104355Y-70273382D01*
X144161611Y-70249315D01*
X144219162Y-70226062D01*
X144227592Y-70221580D01*
X144227599Y-70221577D01*
X144227604Y-70221573D01*
X144227607Y-70221572D01*
X144288655Y-70188563D01*
X144340121Y-70153848D01*
X144392075Y-70119850D01*
X144399487Y-70113805D01*
X144452961Y-70069567D01*
X144496721Y-70025500D01*
X144541061Y-69982080D01*
X144547158Y-69974711D01*
X144591021Y-69920929D01*
X144625365Y-69869238D01*
X144660455Y-69817990D01*
X144665004Y-69809577D01*
X144697586Y-69748300D01*
X144721245Y-69690900D01*
X144745705Y-69633831D01*
X144748533Y-69624695D01*
X144768592Y-69558256D01*
X144780653Y-69497343D01*
X144793559Y-69436622D01*
X144794559Y-69427111D01*
X144801331Y-69358041D01*
X144801331Y-69358037D01*
X144804600Y-69324847D01*
X144804600Y-57268753D01*
X144801758Y-57239894D01*
X144801772Y-57237836D01*
X144800839Y-57228318D01*
X144797314Y-57194777D01*
X144794688Y-57168117D01*
X144794419Y-57167229D01*
X144793585Y-57159298D01*
X144781107Y-57098508D01*
X144769469Y-57037499D01*
X144766705Y-57028343D01*
X144746183Y-56962045D01*
X144722106Y-56904769D01*
X144698862Y-56847238D01*
X144694372Y-56838793D01*
X144661363Y-56777745D01*
X144646898Y-56756300D01*
X144872074Y-56756300D01*
X144907000Y-56759740D01*
X144941926Y-56756300D01*
X144941936Y-56756300D01*
X145046420Y-56746009D01*
X145096228Y-56730900D01*
X145253562Y-56730900D01*
X145435129Y-56694784D01*
X145606162Y-56623940D01*
X145760087Y-56521090D01*
X145890990Y-56390187D01*
X145993840Y-56236262D01*
X146064684Y-56065229D01*
X146100800Y-55883662D01*
X146100800Y-55698538D01*
X146064684Y-55516971D01*
X146042823Y-55464194D01*
X146070040Y-55423462D01*
X146140884Y-55252429D01*
X146177000Y-55070862D01*
X146177000Y-54885738D01*
X146140884Y-54704171D01*
X146070040Y-54533138D01*
X145967190Y-54379213D01*
X145836287Y-54248310D01*
X145682362Y-54145460D01*
X145511329Y-54074616D01*
X145329762Y-54038500D01*
X145144638Y-54038500D01*
X144963071Y-54074616D01*
X144792038Y-54145460D01*
X144638113Y-54248310D01*
X144507210Y-54379213D01*
X144404360Y-54533138D01*
X144333516Y-54704171D01*
X144321413Y-54765017D01*
X144104941Y-54981490D01*
X141954370Y-54981490D01*
X141935726Y-54958772D01*
X141827432Y-54869897D01*
X141703880Y-54803857D01*
X141569819Y-54763190D01*
X141465335Y-54752899D01*
X141465325Y-54752899D01*
X141430399Y-54749459D01*
X141395473Y-54752899D01*
X140774945Y-54752899D01*
X140609129Y-54684216D01*
X140427562Y-54648100D01*
X140242438Y-54648100D01*
X140060871Y-54684216D01*
X139889838Y-54755060D01*
X139735913Y-54857910D01*
X139605010Y-54988813D01*
X139502160Y-55142738D01*
X139431316Y-55313771D01*
X139395200Y-55495338D01*
X139395200Y-55680462D01*
X139431316Y-55862029D01*
X139502160Y-56033062D01*
X139605010Y-56186987D01*
X139735913Y-56317890D01*
X139840839Y-56388000D01*
X137449984Y-56388000D01*
X137413900Y-56368814D01*
X137356500Y-56345155D01*
X137299431Y-56320695D01*
X137290301Y-56317869D01*
X137290299Y-56317868D01*
X137290297Y-56317868D01*
X137290295Y-56317867D01*
X137223856Y-56297808D01*
X137162943Y-56285747D01*
X137102222Y-56272841D01*
X137092716Y-56271842D01*
X137092713Y-56271841D01*
X137092710Y-56271841D01*
X137023641Y-56265069D01*
X137023637Y-56265069D01*
X136990447Y-56261800D01*
X136364353Y-56261800D01*
X136335494Y-56264642D01*
X136333436Y-56264628D01*
X136323918Y-56265561D01*
X136290377Y-56269086D01*
X136263717Y-56271712D01*
X136262829Y-56271981D01*
X136254898Y-56272815D01*
X136194108Y-56285293D01*
X136133099Y-56296931D01*
X136123943Y-56299695D01*
X136057645Y-56320217D01*
X136000369Y-56344294D01*
X135942838Y-56367538D01*
X135934393Y-56372028D01*
X135873345Y-56405037D01*
X135821856Y-56439767D01*
X135769925Y-56473750D01*
X135762519Y-56479790D01*
X135762512Y-56479795D01*
X135762507Y-56479800D01*
X135709039Y-56524033D01*
X135665312Y-56568067D01*
X135620939Y-56611520D01*
X135614842Y-56618889D01*
X135570978Y-56672671D01*
X135536629Y-56724371D01*
X135501545Y-56775609D01*
X135496996Y-56784022D01*
X135464414Y-56845300D01*
X135440755Y-56902700D01*
X135416295Y-56959769D01*
X135413467Y-56968905D01*
X135393408Y-57035344D01*
X135381347Y-57096257D01*
X135368441Y-57156978D01*
X135367441Y-57166490D01*
X135360669Y-57235559D01*
X135360669Y-57235573D01*
X135357401Y-57268753D01*
X135357400Y-69324846D01*
X133289334Y-69324846D01*
X133312907Y-69267937D01*
X133349999Y-69081463D01*
X133349999Y-68891335D01*
X133312907Y-68704861D01*
X133240148Y-68529205D01*
X133134519Y-68371120D01*
X133000078Y-68236679D01*
X132841993Y-68131050D01*
X132666337Y-68058291D01*
X132479863Y-68021199D01*
X132289735Y-68021199D01*
X132103261Y-68058291D01*
X131927605Y-68131050D01*
X131769520Y-68236679D01*
X131635079Y-68371120D01*
X131529450Y-68529205D01*
X131456691Y-68704861D01*
X131419599Y-68891335D01*
X131419599Y-68945811D01*
X131229809Y-69135601D01*
X129705127Y-69135601D01*
X129670199Y-69132161D01*
X129635270Y-69135601D01*
X129635263Y-69135601D01*
X129530779Y-69145892D01*
X129396717Y-69186559D01*
X129317829Y-69228726D01*
X129273166Y-69252599D01*
X129164872Y-69341474D01*
X129142601Y-69368611D01*
X128864412Y-69646800D01*
X128809936Y-69646800D01*
X128623462Y-69683892D01*
X128447806Y-69756651D01*
X128289721Y-69862280D01*
X128155280Y-69996721D01*
X128049651Y-70154806D01*
X127976892Y-70330462D01*
X127939800Y-70516936D01*
X127939800Y-70707064D01*
X127976892Y-70893538D01*
X128049651Y-71069194D01*
X128069755Y-71099282D01*
X127889989Y-71116987D01*
X127610066Y-71201901D01*
X127352086Y-71339794D01*
X127125966Y-71525366D01*
X127101493Y-71555187D01*
X127080602Y-71486320D01*
X127021637Y-71376006D01*
X126942285Y-71279315D01*
X126845594Y-71199963D01*
X126735280Y-71140998D01*
X126732529Y-71140163D01*
X126762312Y-71041982D01*
X126774572Y-70917500D01*
X126774572Y-69417500D01*
X126762312Y-69293018D01*
X126726002Y-69173320D01*
X126683791Y-69094350D01*
X126726002Y-69015380D01*
X126762312Y-68895682D01*
X126774572Y-68771200D01*
X126774572Y-67271200D01*
X126762312Y-67146718D01*
X126726002Y-67027020D01*
X126667037Y-66916706D01*
X126587685Y-66820015D01*
X126490994Y-66740663D01*
X126380680Y-66681698D01*
X126260982Y-66645388D01*
X126136500Y-66633128D01*
X125636500Y-66633128D01*
X125612050Y-66635536D01*
X125587491Y-66635536D01*
X125463010Y-66647796D01*
X125366877Y-66666918D01*
X125247181Y-66703227D01*
X125156625Y-66740736D01*
X125046308Y-66799702D01*
X124964809Y-66854158D01*
X124868118Y-66933510D01*
X124798810Y-67002818D01*
X124719458Y-67099509D01*
X124665002Y-67181008D01*
X124606036Y-67291325D01*
X124599227Y-67307764D01*
X124587000Y-67306560D01*
X124552071Y-67310000D01*
X124552064Y-67310000D01*
X124447580Y-67320291D01*
X124313518Y-67360958D01*
X124189967Y-67426998D01*
X124108809Y-67493602D01*
X124108804Y-67493607D01*
X124081673Y-67515873D01*
X124059407Y-67543005D01*
X123962211Y-67640200D01*
X123907736Y-67640200D01*
X123721262Y-67677292D01*
X123545606Y-67750051D01*
X123387521Y-67855680D01*
X123253080Y-67990121D01*
X123147451Y-68148206D01*
X123074692Y-68323862D01*
X123037600Y-68510336D01*
X123037600Y-68700464D01*
X123074692Y-68886938D01*
X123147451Y-69062594D01*
X123242384Y-69204671D01*
X123031873Y-69064012D01*
X122570532Y-68872918D01*
X122080776Y-68775500D01*
X121581424Y-68775500D01*
X121091668Y-68872918D01*
X120630327Y-69064012D01*
X120215132Y-69341437D01*
X119951100Y-69605469D01*
X119951100Y-55235531D01*
X120215132Y-55499563D01*
X120630327Y-55776988D01*
X121091668Y-55968082D01*
X121581424Y-56065500D01*
X122080776Y-56065500D01*
X122570532Y-55968082D01*
X123031873Y-55776988D01*
X123447068Y-55499563D01*
X123800163Y-55146468D01*
X124077588Y-54731273D01*
X124268682Y-54269932D01*
X124269973Y-54263438D01*
X130695700Y-54263438D01*
X130695700Y-54448562D01*
X130731816Y-54630129D01*
X130802660Y-54801162D01*
X130905510Y-54955087D01*
X131036413Y-55085990D01*
X131190338Y-55188840D01*
X131361371Y-55259684D01*
X131542938Y-55295800D01*
X131728062Y-55295800D01*
X131909629Y-55259684D01*
X131969510Y-55234880D01*
X132321324Y-55586695D01*
X132343590Y-55613826D01*
X132370721Y-55636092D01*
X132370725Y-55636096D01*
X132444061Y-55696281D01*
X132451884Y-55702701D01*
X132575436Y-55768741D01*
X132709497Y-55809408D01*
X132813981Y-55819699D01*
X132813990Y-55819699D01*
X132848916Y-55823139D01*
X132883842Y-55819699D01*
X133515100Y-55819699D01*
X133515100Y-55820162D01*
X133551216Y-56001729D01*
X133622060Y-56172762D01*
X133724910Y-56326687D01*
X133855813Y-56457590D01*
X134009738Y-56560440D01*
X134180771Y-56631284D01*
X134362338Y-56667400D01*
X134547462Y-56667400D01*
X134729029Y-56631284D01*
X134900062Y-56560440D01*
X135053987Y-56457590D01*
X135184890Y-56326687D01*
X135287740Y-56172762D01*
X135358584Y-56001729D01*
X135394700Y-55820162D01*
X135394700Y-55635038D01*
X135358584Y-55453471D01*
X135287740Y-55282438D01*
X135184890Y-55128513D01*
X135053987Y-54997610D01*
X134900062Y-54894760D01*
X134729029Y-54823916D01*
X134547462Y-54787800D01*
X134520887Y-54787800D01*
X134363401Y-54630314D01*
X134341126Y-54603172D01*
X134232832Y-54514297D01*
X134109280Y-54448257D01*
X133975219Y-54407590D01*
X133870735Y-54397299D01*
X133870725Y-54397299D01*
X133835799Y-54393859D01*
X133800873Y-54397299D01*
X133143505Y-54397299D01*
X132624019Y-53877814D01*
X132601745Y-53850673D01*
X132493451Y-53761798D01*
X132369899Y-53695758D01*
X132275786Y-53667209D01*
X132234587Y-53626010D01*
X132080662Y-53523160D01*
X131909629Y-53452316D01*
X131728062Y-53416200D01*
X131542938Y-53416200D01*
X131361371Y-53452316D01*
X131190338Y-53523160D01*
X131036413Y-53626010D01*
X130905510Y-53756913D01*
X130802660Y-53910838D01*
X130731816Y-54081871D01*
X130695700Y-54263438D01*
X124269973Y-54263438D01*
X124366100Y-53780176D01*
X124366100Y-53280824D01*
X124268682Y-52791068D01*
X124077588Y-52329727D01*
X123800163Y-51914532D01*
X123536131Y-51650500D01*
X133321276Y-51650500D01*
X133283695Y-51706744D01*
G36*
X169431100Y-68995603D02*
G01*
X156639048Y-69170836D01*
X156738995Y-69070890D01*
X156766126Y-69048624D01*
X156788393Y-69021492D01*
X156788397Y-69021488D01*
X156855002Y-68940330D01*
X156872008Y-68908514D01*
X156911837Y-68834000D01*
X157016264Y-68834000D01*
X157202738Y-68796908D01*
X157378394Y-68724149D01*
X157536479Y-68618520D01*
X157670920Y-68484079D01*
X157776549Y-68325994D01*
X157849308Y-68150338D01*
X157886400Y-67963864D01*
X157886400Y-67773736D01*
X157849308Y-67587262D01*
X157776549Y-67411606D01*
X157670920Y-67253521D01*
X157536479Y-67119080D01*
X157378394Y-67013451D01*
X157226000Y-66950327D01*
X157226000Y-66910136D01*
X157188908Y-66723662D01*
X157116149Y-66548006D01*
X157010520Y-66389921D01*
X156876079Y-66255480D01*
X156717994Y-66149851D01*
X156542338Y-66077092D01*
X156355864Y-66040000D01*
X156165736Y-66040000D01*
X155979262Y-66077092D01*
X155803606Y-66149851D01*
X155776109Y-66168224D01*
X155678738Y-66127892D01*
X155492264Y-66090800D01*
X155302136Y-66090800D01*
X155115662Y-66127892D01*
X154940006Y-66200651D01*
X154781921Y-66306280D01*
X154647480Y-66440721D01*
X154541851Y-66598806D01*
X154469092Y-66774462D01*
X154432000Y-66960936D01*
X154432000Y-66971369D01*
X154330406Y-67013451D01*
X154172321Y-67119080D01*
X154037880Y-67253521D01*
X153932251Y-67411606D01*
X153859492Y-67587262D01*
X153822400Y-67773736D01*
X153822400Y-67963864D01*
X153859492Y-68150338D01*
X153932251Y-68325994D01*
X154037880Y-68484079D01*
X154172321Y-68618520D01*
X154330406Y-68724149D01*
X154503910Y-68796017D01*
X154094230Y-69205697D01*
X153543000Y-69213248D01*
X153543000Y-55499000D01*
X169431101Y-55499000D01*
X169431100Y-68995603D01*
X169431100Y-68995603D01*
G37*
X169431100Y-68995603D02*
X156639048Y-69170836D01*
X156738995Y-69070890D01*
X156766126Y-69048624D01*
X156788393Y-69021492D01*
X156788397Y-69021488D01*
X156855002Y-68940330D01*
X156872008Y-68908514D01*
X156911837Y-68834000D01*
X157016264Y-68834000D01*
X157202738Y-68796908D01*
X157378394Y-68724149D01*
X157536479Y-68618520D01*
X157670920Y-68484079D01*
X157776549Y-68325994D01*
X157849308Y-68150338D01*
X157886400Y-67963864D01*
X157886400Y-67773736D01*
X157849308Y-67587262D01*
X157776549Y-67411606D01*
X157670920Y-67253521D01*
X157536479Y-67119080D01*
X157378394Y-67013451D01*
X157226000Y-66950327D01*
X157226000Y-66910136D01*
X157188908Y-66723662D01*
X157116149Y-66548006D01*
X157010520Y-66389921D01*
X156876079Y-66255480D01*
X156717994Y-66149851D01*
X156542338Y-66077092D01*
X156355864Y-66040000D01*
X156165736Y-66040000D01*
X155979262Y-66077092D01*
X155803606Y-66149851D01*
X155776109Y-66168224D01*
X155678738Y-66127892D01*
X155492264Y-66090800D01*
X155302136Y-66090800D01*
X155115662Y-66127892D01*
X154940006Y-66200651D01*
X154781921Y-66306280D01*
X154647480Y-66440721D01*
X154541851Y-66598806D01*
X154469092Y-66774462D01*
X154432000Y-66960936D01*
X154432000Y-66971369D01*
X154330406Y-67013451D01*
X154172321Y-67119080D01*
X154037880Y-67253521D01*
X153932251Y-67411606D01*
X153859492Y-67587262D01*
X153822400Y-67773736D01*
X153822400Y-67963864D01*
X153859492Y-68150338D01*
X153932251Y-68325994D01*
X154037880Y-68484079D01*
X154172321Y-68618520D01*
X154330406Y-68724149D01*
X154503910Y-68796017D01*
X154094230Y-69205697D01*
X153543000Y-69213248D01*
X153543000Y-55499000D01*
X169431101Y-55499000D01*
X169431100Y-68995603D01*
M02*
